<?xml version="1.0" encoding="us-ascii" standalone="no"?><svg xmlns="http://www.w3.org/2000/svg" xmlns:xlink="http://www.w3.org/1999/xlink" contentStyleType="text/css" height="437px" preserveAspectRatio="none" style="width:744px;height:437px;background:#FFFFFF;" version="1.1" viewBox="0 0 744 437" width="744px" zoomAndPan="magnify"><defs/><g><text fill="#000000" font-family="sans-serif" font-size="14" font-weight="bold" lengthAdjust="spacing" textLength="374" x="183.75" y="32.9951">User Flow: Table created - Continue to Upload?</text><rect fill="#F1F1F1" height="36.2969" rx="12.5" ry="12.5" style="stroke:#181818;stroke-width:0.5;" width="32" x="390.25" y="48.2969"/><text fill="#000000" font-family="sans-serif" font-size="14" lengthAdjust="spacing" textLength="12" x="400.25" y="71.292">...</text><rect fill="#98FB98" height="36.2969" rx="12.5" ry="12.5" style="stroke:#181818;stroke-width:0.5;" width="362" x="225.25" y="104.5938"/><text fill="#000000" font-family="sans-serif" font-size="14" lengthAdjust="spacing" textLength="342" x="235.25" y="127.5889">System confirms: "New Table added Successfully"</text><polygon fill="#F1F1F1" points="252.75,160.8906,559.75,160.8906,571.75,172.8906,559.75,184.8906,252.75,184.8906,240.75,172.8906,252.75,160.8906" style="stroke:#181818;stroke-width:0.5;"/><text fill="#000000" font-family="sans-serif" font-size="14" lengthAdjust="spacing" textLength="307" x="252.75" y="177.7373">System asks user if they want to upload data</text><text fill="#000000" font-family="sans-serif" font-size="14" lengthAdjust="spacing" textLength="19" x="221.75" y="169.5889">No</text><text fill="#000000" font-family="sans-serif" font-size="14" lengthAdjust="spacing" textLength="26" x="571.75" y="169.5889">Yes</text><polygon fill="#F1F1F1" points="103,194.8906,307,194.8906,319,211.1875,307,227.4844,103,227.4844,91,211.1875,103,194.8906" style="stroke:#181818;stroke-width:0.5;"/><text fill="#000000" font-family="sans-serif" font-size="14" lengthAdjust="spacing" textLength="204" x="103" y="207.8857">System asks user if they want</text><text fill="#000000" font-family="sans-serif" font-size="14" lengthAdjust="spacing" textLength="154" x="103" y="224.1826">to download metadata</text><text fill="#000000" font-family="sans-serif" font-size="14" lengthAdjust="spacing" textLength="19" x="72" y="207.8857">No</text><text fill="#000000" font-family="sans-serif" font-size="14" lengthAdjust="spacing" textLength="26" x="319" y="207.8857">Yes</text><rect fill="#F1F1F1" height="36.2969" rx="12.5" ry="12.5" style="stroke:#181818;stroke-width:0.5;" width="140" x="11" y="237.4844"/><text fill="#000000" font-family="sans-serif" font-size="14" lengthAdjust="spacing" textLength="120" x="21" y="260.4795">User quits Sprout</text><ellipse cx="81" cy="303.7813" fill="none" rx="10" ry="10" style="stroke:#222222;stroke-width:1.5;"/><line style="stroke:#222222;stroke-width:2.5;" x1="74.8128" x2="87.1872" y1="297.5941" y2="309.9684"/><line style="stroke:#222222;stroke-width:2.5;" x1="87.1872" x2="74.8128" y1="297.5941" y2="309.9684"/><rect fill="#F1F1F1" height="36.2969" rx="12.5" ry="12.5" style="stroke:#181818;stroke-width:0.5;" width="245" x="206.5" y="237.4844"/><text fill="#000000" font-family="sans-serif" font-size="14" lengthAdjust="spacing" textLength="225" x="216.5" y="260.4795">User clicks "Download Metadata"</text><rect fill="#F1F1F1" height="36.2969" rx="12.5" ry="12.5" style="stroke:#181818;stroke-width:0.5;" width="140" x="259" y="293.7813"/><text fill="#000000" font-family="sans-serif" font-size="14" lengthAdjust="spacing" textLength="120" x="269" y="316.7764">User quits Sprout</text><ellipse cx="329" cy="360.0781" fill="none" rx="10" ry="10" style="stroke:#222222;stroke-width:1.5;"/><line style="stroke:#222222;stroke-width:2.5;" x1="322.8128" x2="335.1872" y1="353.8909" y2="366.2653"/><line style="stroke:#222222;stroke-width:2.5;" x1="335.1872" x2="322.8128" y1="353.8909" y2="366.2653"/><rect fill="#F1F1F1" height="36.2969" rx="12.5" ry="12.5" style="stroke:#181818;stroke-width:0.5;" width="252" x="481.5" y="194.8906"/><text fill="#000000" font-family="sans-serif" font-size="14" lengthAdjust="spacing" textLength="232" x="491.5" y="217.8857">User clicks "Upload Data to Table"</text><rect fill="#F1F1F1" height="36.2969" rx="12.5" ry="12.5" style="stroke:#181818;stroke-width:0.5;" width="32" x="390.25" y="390.0781"/><text fill="#000000" font-family="sans-serif" font-size="14" lengthAdjust="spacing" textLength="12" x="400.25" y="413.0732">...</text><line style="stroke:#000000;stroke-width:1.0;" x1="406.25" x2="406.25" y1="84.5938" y2="104.5938"/><polygon fill="#000000" points="402.25,94.5938,406.25,104.5938,410.25,94.5938,406.25,98.5938" style="stroke:#000000;stroke-width:1.0;"/><line style="stroke:#000000;stroke-width:1.0;" x1="81" x2="81" y1="273.7813" y2="293.7813"/><polygon fill="#000000" points="77,283.7813,81,293.7813,85,283.7813,81,287.7813" style="stroke:#000000;stroke-width:1.0;"/><line style="stroke:#000000;stroke-width:1.0;" x1="329" x2="329" y1="273.7813" y2="293.7813"/><polygon fill="#000000" points="325,283.7813,329,293.7813,333,283.7813,329,287.7813" style="stroke:#000000;stroke-width:1.0;"/><line style="stroke:#000000;stroke-width:1.0;" x1="329" x2="329" y1="330.0781" y2="350.0781"/><polygon fill="#000000" points="325,340.0781,329,350.0781,333,340.0781,329,344.0781" style="stroke:#000000;stroke-width:1.0;"/><line style="stroke:#000000;stroke-width:1.0;" x1="91" x2="81" y1="211.1875" y2="211.1875"/><line style="stroke:#000000;stroke-width:1.0;" x1="81" x2="81" y1="211.1875" y2="237.4844"/><polygon fill="#000000" points="77,227.4844,81,237.4844,85,227.4844,81,231.4844" style="stroke:#000000;stroke-width:1.0;"/><line style="stroke:#000000;stroke-width:1.0;" x1="319" x2="329" y1="211.1875" y2="211.1875"/><line style="stroke:#000000;stroke-width:1.0;" x1="329" x2="329" y1="211.1875" y2="237.4844"/><polygon fill="#000000" points="325,227.4844,329,237.4844,333,227.4844,329,231.4844" style="stroke:#000000;stroke-width:1.0;"/><line style="stroke:#000000;stroke-width:1.0;" x1="240.75" x2="205" y1="172.8906" y2="172.8906"/><line style="stroke:#000000;stroke-width:1.0;" x1="205" x2="205" y1="172.8906" y2="194.8906"/><polygon fill="#000000" points="201,184.8906,205,194.8906,209,184.8906,205,188.8906" style="stroke:#000000;stroke-width:1.0;"/><line style="stroke:#000000;stroke-width:1.0;" x1="571.75" x2="607.5" y1="172.8906" y2="172.8906"/><line style="stroke:#000000;stroke-width:1.0;" x1="607.5" x2="607.5" y1="172.8906" y2="194.8906"/><polygon fill="#000000" points="603.5,184.8906,607.5,194.8906,611.5,184.8906,607.5,188.8906" style="stroke:#000000;stroke-width:1.0;"/><line style="stroke:#000000;stroke-width:1.0;" x1="607.5" x2="607.5" y1="231.1875" y2="375.0781"/><line style="stroke:#000000;stroke-width:1.0;" x1="607.5" x2="406.25" y1="375.0781" y2="375.0781"/><line style="stroke:#000000;stroke-width:1.0;" x1="406.25" x2="406.25" y1="375.0781" y2="390.0781"/><polygon fill="#000000" points="402.25,380.0781,406.25,390.0781,410.25,380.0781,406.25,384.0781" style="stroke:#000000;stroke-width:1.0;"/><line style="stroke:#000000;stroke-width:1.0;" x1="406.25" x2="406.25" y1="140.8906" y2="160.8906"/><polygon fill="#000000" points="402.25,150.8906,406.25,160.8906,410.25,150.8906,406.25,154.8906" style="stroke:#000000;stroke-width:1.0;"/><!--SRC=[ZPAxSi8m44LxVyM65421tPiYHPXqeI4KcKaZf3KeqSEHLkFXxxEMpH38O-WqkxhdNktgZWve4IAYaY8YDC5RE12riQwg8Bfoh-cGTYbYaDuHEYgbjzNf_g8D_XqbdGkPLrcXNL6G9eEmPIqy6T_Ly29sN9011Q621JmoKhk4G1wshV52FHH5NPRbihXlXS5zG7JrvXW9BR1_euEDDKpMs8qieHIJDabAZB59nXmdos8gVQkvd1_JHryqR5-soHg8908LKxfA8hybIKEIyIg0Rc0sPX3n8sPYN-Id7g4JZiuYK8B4lEyucAtzdDKtwDyS0vJlN4PO9F4R1g3Ee_nCcY9iUFA9bZ2sqAbyGiDBdBrYlDH8eoKxJrOda-VHXAVr9_iQxPHkYXyMbmR35c75w7ugUKdPOr3VDFVUyByLzltXatm1]--></g></svg>