<?xml version="1.0" encoding="us-ascii" standalone="no"?><svg xmlns="http://www.w3.org/2000/svg" xmlns:xlink="http://www.w3.org/1999/xlink" contentStyleType="text/css" height="546px" preserveAspectRatio="none" style="width:515px;height:546px;background:#FFFFFF;" version="1.1" viewBox="0 0 515 546" width="515px" zoomAndPan="magnify"><defs/><g><text fill="#000000" font-family="sans-serif" font-size="14" font-weight="bold" lengthAdjust="spacing" textLength="395" x="58.5" y="32.9951">User Flow: Prepare to Upload using Existing Table</text><rect fill="#F1F1F1" height="36.2969" rx="12.5" ry="12.5" style="stroke:#181818;stroke-width:0.5;" width="270" x="110" y="48.2969"/><text fill="#000000" font-family="sans-serif" font-size="14" lengthAdjust="spacing" textLength="250" x="120" y="71.292">User selects option to "Upload Data"</text><polygon fill="#F1F1F1" points="144,104.5938,346,104.5938,358,116.5938,346,128.5938,144,128.5938,132,116.5938,144,104.5938" style="stroke:#181818;stroke-width:0.5;"/><text fill="#000000" font-family="sans-serif" font-size="14" lengthAdjust="spacing" textLength="202" x="144" y="121.4404">System shows data upload UI</text><text fill="#000000" font-family="sans-serif" font-size="14" lengthAdjust="spacing" textLength="122" x="10" y="113.292">Create New Table</text><text fill="#000000" font-family="sans-serif" font-size="14" lengthAdjust="spacing" textLength="126" x="358" y="113.292">Use Existing Table</text><rect fill="#F1F1F1" height="36.2969" rx="12.5" ry="12.5" style="stroke:#181818;stroke-width:0.5;" width="32" x="106" y="138.5938"/><text fill="#000000" font-family="sans-serif" font-size="14" lengthAdjust="spacing" textLength="12" x="116" y="161.5889">...</text><rect fill="#F1F1F1" height="52.5938" rx="12.5" ry="12.5" style="stroke:#181818;stroke-width:0.5;" width="156" x="290" y="138.5938"/><text fill="#000000" font-family="sans-serif" font-size="14" lengthAdjust="spacing" textLength="86" x="300" y="161.5889">User selects</text><text fill="#000000" font-family="sans-serif" font-size="14" lengthAdjust="spacing" textLength="136" x="300" y="177.8857">"Use Existing Table"</text><rect fill="#F1F1F1" height="52.5938" rx="12.5" ry="12.5" style="stroke:#181818;stroke-width:0.5;" width="272" x="232" y="211.1875"/><text fill="#000000" font-family="sans-serif" font-size="14" lengthAdjust="spacing" textLength="252" x="242" y="234.1826">System shows UI with existing tables</text><text fill="#000000" font-family="sans-serif" font-size="14" lengthAdjust="spacing" textLength="209" x="242" y="250.4795">to choose from and file upload</text><rect fill="#F1F1F1" height="52.5938" rx="12.5" ry="12.5" style="stroke:#181818;stroke-width:0.5;" width="231" x="252.5" y="283.7813"/><text fill="#000000" font-family="sans-serif" font-size="14" lengthAdjust="spacing" textLength="211" x="262.5" y="306.7764">User selects existing table and</text><text fill="#000000" font-family="sans-serif" font-size="14" lengthAdjust="spacing" textLength="142" x="262.5" y="323.0732">selects file to upload</text><rect fill="#F1F1F1" height="36.2969" rx="12.5" ry="12.5" style="stroke:#181818;stroke-width:0.5;" width="252" x="242" y="356.375"/><text fill="#000000" font-family="sans-serif" font-size="14" lengthAdjust="spacing" textLength="232" x="252" y="379.3701">User clicks "Upload Data to Table"</text><polygon fill="#F1F1F1" points="245,398.6719,257,410.6719,245,422.6719,233,410.6719,245,398.6719" style="stroke:#181818;stroke-width:0.5;"/><rect fill="#F1F1F1" height="36.2969" rx="12.5" ry="12.5" style="stroke:#181818;stroke-width:0.5;" width="222" x="134" y="442.6719"/><text fill="#000000" font-family="sans-serif" font-size="14" lengthAdjust="spacing" textLength="202" x="144" y="465.667">System initialises data upload</text><rect fill="#F1F1F1" height="36.2969" rx="12.5" ry="12.5" style="stroke:#181818;stroke-width:0.5;" width="32" x="229" y="498.9688"/><text fill="#000000" font-family="sans-serif" font-size="14" lengthAdjust="spacing" textLength="12" x="239" y="521.9639">...</text><line style="stroke:#000000;stroke-width:1.0;" x1="368" x2="368" y1="191.1875" y2="211.1875"/><polygon fill="#000000" points="364,201.1875,368,211.1875,372,201.1875,368,205.1875" style="stroke:#000000;stroke-width:1.0;"/><line style="stroke:#000000;stroke-width:1.0;" x1="368" x2="368" y1="263.7813" y2="283.7813"/><polygon fill="#000000" points="364,273.7813,368,283.7813,372,273.7813,368,277.7813" style="stroke:#000000;stroke-width:1.0;"/><line style="stroke:#000000;stroke-width:1.0;" x1="368" x2="368" y1="336.375" y2="356.375"/><polygon fill="#000000" points="364,346.375,368,356.375,372,346.375,368,350.375" style="stroke:#000000;stroke-width:1.0;"/><line style="stroke:#000000;stroke-width:1.0;" x1="132" x2="122" y1="116.5938" y2="116.5938"/><line style="stroke:#000000;stroke-width:1.0;" x1="122" x2="122" y1="116.5938" y2="138.5938"/><polygon fill="#000000" points="118,128.5938,122,138.5938,126,128.5938,122,132.5938" style="stroke:#000000;stroke-width:1.0;"/><line style="stroke:#000000;stroke-width:1.0;" x1="358" x2="368" y1="116.5938" y2="116.5938"/><line style="stroke:#000000;stroke-width:1.0;" x1="368" x2="368" y1="116.5938" y2="138.5938"/><polygon fill="#000000" points="364,128.5938,368,138.5938,372,128.5938,368,132.5938" style="stroke:#000000;stroke-width:1.0;"/><line style="stroke:#000000;stroke-width:1.0;" x1="122" x2="122" y1="174.8906" y2="410.6719"/><line style="stroke:#000000;stroke-width:1.0;" x1="122" x2="233" y1="410.6719" y2="410.6719"/><polygon fill="#000000" points="223,406.6719,233,410.6719,223,414.6719,227,410.6719" style="stroke:#000000;stroke-width:1.0;"/><line style="stroke:#000000;stroke-width:1.0;" x1="368" x2="368" y1="392.6719" y2="410.6719"/><line style="stroke:#000000;stroke-width:1.0;" x1="368" x2="257" y1="410.6719" y2="410.6719"/><polygon fill="#000000" points="267,406.6719,257,410.6719,267,414.6719,263,410.6719" style="stroke:#000000;stroke-width:1.0;"/><line style="stroke:#000000;stroke-width:1.0;" x1="245" x2="245" y1="84.5938" y2="104.5938"/><polygon fill="#000000" points="241,94.5938,245,104.5938,249,94.5938,245,98.5938" style="stroke:#000000;stroke-width:1.0;"/><line style="stroke:#000000;stroke-width:1.0;" x1="245" x2="245" y1="422.6719" y2="442.6719"/><polygon fill="#000000" points="241,432.6719,245,442.6719,249,432.6719,245,436.6719" style="stroke:#000000;stroke-width:1.0;"/><line style="stroke:#000000;stroke-width:1.0;" x1="245" x2="245" y1="478.9688" y2="498.9688"/><polygon fill="#000000" points="241,488.9688,245,498.9688,249,488.9688,245,492.9688" style="stroke:#000000;stroke-width:1.0;"/><!--SRC=[ZP4xRyCm38Ht_GesIv8XzcwFVG1PYWAjjowApSHgPKaGQRZzzwNik7a1HJT3lYE_uzrnYnq28JQr9eHzz1sqp86AF8zwo0w6stxN4yRQEqR7MUsxVDPlGlGVMFFfOPoNTzeufTYmHQZ42q_M3mMyH0mw8h27AbYl6-Z9k0CyVXdYzF6cTnQLAaOFePNH13wmyIwP5aVNWsQzA9NPm-hrcnWxeDOF18syGpzfgkqQ1CR1wZwYPeHd7ARvQmLGP5bMgcNjWy5cIfqoRlR2cOM-iq2i8wjbE27tvyWu8tCQULIZbHEk1FugKTeeEyzJlRl5hKuoZSABKDKM1YdXQYF1A1MiklL-Raux2ME4Ps8jR_TUWoV7g9h_Z_RVjESJQclgJxee8GbdSdID5FBlYudyp_kd__CXZ3Dij3M45nsNQghn1m00]--></g></svg>
