<svg width="60" height="60" viewBox="0 0 60 60" fill="none" xmlns="http://www.w3.org/2000/svg">
<path fill-rule="evenodd" clip-rule="evenodd" d="M42.4152 5.14207C35.5591 -1.71402 24.4409 -1.71402 17.5848 5.14207L5.14207 17.5848C-1.71402 24.4409 -1.71402 35.5591 5.14207 42.4152L17.5848 54.8579C24.4409 61.714 35.5591 61.714 42.4152 54.8579L54.8579 42.4152C61.714 35.5591 61.714 24.4409 54.8579 17.5848L42.4152 5.14207ZM42.4335 17.5628L36.214 11.3506C32.7786 7.91894 27.2103 7.91894 23.775 11.3506L29.9945 17.5628C33.4298 20.9946 38.9981 20.9946 42.4335 17.5628ZM40.3518 36.2031L19.6298 15.5031C17.3396 17.7896 17.3432 21.5031 19.6335 23.7933L40.3554 44.4933C42.6457 42.2067 42.642 38.4933 40.3518 36.2031ZM36.2176 48.6384L29.9981 42.4262C26.5628 38.9945 20.9945 38.9945 17.5591 42.4262L23.7786 48.6384C27.214 52.0701 32.7823 52.0701 36.2176 48.6384Z" fill="#48DC76"/>
</svg>
