<svg xmlns="http://www.w3.org/2000/svg" xmlns:xlink="http://www.w3.org/1999/xlink" contentStyleType="text/css" height="1167px" preserveAspectRatio="none" style="width:758px;height:1167px;background:#FFFFFF;" version="1.1" viewBox="0 0 758 1167" width="758px" zoomAndPan="magnify"><defs/><g><!--cluster input--><g id="cluster_input"><path d="M84.5,7 L732.5,7 A12.5,12.5 0 0 1 745,19.5 L745,58.9063 L72,58.9063 L72,19.5 A12.5,12.5 0 0 1 84.5,7 " fill="#F2F2F2" style="stroke:#F2F2F2;stroke-width:1.0;"/><rect fill="none" height="164" rx="12.5" ry="12.5" style="stroke:#000000;stroke-width:0.5;" width="673" x="72" y="7"/><line style="stroke:#000000;stroke-width:0.5;" x1="72" x2="745" y1="58.9063" y2="58.9063"/><line style="stroke:#000000;stroke-width:0.5;" x1="72" x2="745" y1="32.9531" y2="32.9531"/><text fill="#000000" font-family="Fira Code" font-size="18" lengthAdjust="spacing" textLength="46" x="175.5" y="27.708">Input</text><text fill="#000000" font-family="Fira Code" font-size="18" lengthAdjust="spacing" textLength="466" x="77" y="52.1611">- `path_*()` functions assist with giving correct paths</text></g><!--cluster crp--><g id="cluster_crp"><path d="M19.5,236 L710.5,236 A12.5,12.5 0 0 1 723,248.5 L723,287.9063 L7,287.9063 L7,248.5 A12.5,12.5 0 0 1 19.5,236 " fill="#F2F2F2" style="stroke:#F2F2F2;stroke-width:1.0;"/><rect fill="none" height="669" rx="12.5" ry="12.5" style="stroke:#000000;stroke-width:0.5;" width="716" x="7" y="236"/><line style="stroke:#000000;stroke-width:0.5;" x1="7" x2="723" y1="287.9063" y2="287.9063"/><line style="stroke:#000000;stroke-width:0.5;" x1="7" x2="723" y1="261.9531" y2="261.9531"/><text fill="#000000" font-family="Fira Code" font-size="18" lengthAdjust="spacing" textLength="256" x="237" y="257.708">create_resource_properties()</text><text fill="#000000" font-family="Fira Code" font-size="18" lengthAdjust="spacing" textLength="375" x="12" y="281.1611">- Required arg: path and properties object</text></g><g id="input.path"><rect fill="#F2F2F2" height="61.9063" rx="12.5" ry="12.5" style="stroke:#000000;stroke-width:0.5;" width="289" x="87.5" y="82.5"/><line style="stroke:#000000;stroke-width:0.5;" x1="87.5" x2="376.5" y1="113.4531" y2="113.4531"/><text fill="#000000" font-family="Fira Code" font-size="18" lengthAdjust="spacing" textLength="39" x="212.5" y="104.208">path</text><text fill="#000000" font-family="Fira Code" font-size="18" lengthAdjust="spacing" textLength="269" x="92.5" y="135.1611">- Path to resource &lt;id&gt; folder</text></g><g id="input.properties"><rect fill="#F2F2F2" height="82.8594" rx="12.5" ry="12.5" style="stroke:#000000;stroke-width:0.5;" width="318" x="411" y="72"/><line style="stroke:#000000;stroke-width:0.5;" x1="411" x2="729" y1="102.9531" y2="102.9531"/><text fill="#000000" font-family="Fira Code" font-size="18" lengthAdjust="spacing" textLength="91" x="524.5" y="93.708">properties</text><text fill="#000000" font-family="Fira Code" font-size="18" lengthAdjust="spacing" textLength="259" x="416" y="124.6611">- JSON object of the resource</text><text fill="#000000" font-family="Fira Code" font-size="18" lengthAdjust="spacing" textLength="286" x="428" y="145.6143">following the Data Package spec</text></g><text fill="#000000" font-family="Fira Code" font-size="18" lengthAdjust="spacing" textLength="77" x="189.5" y="213.7549">arg_path</text><ellipse cx="228" cy="236" fill="#F2F2F2" rx="6" ry="6" style="stroke:#000000;stroke-width:1.5;"/><text fill="#000000" font-family="Fira Code" font-size="18" lengthAdjust="spacing" textLength="129" x="506" y="213.7549">arg_properties</text><ellipse cx="570.5" cy="236" fill="#F2F2F2" rx="6" ry="6" style="stroke:#000000;stroke-width:1.5;"/><g id="crp.cid"><rect fill="#F2F2F2" height="82.8594" rx="12.5" ry="12.5" style="stroke:#000000;stroke-width:0.5;" width="222" x="106" y="367"/><line style="stroke:#000000;stroke-width:0.5;" x1="106" x2="328" y1="397.9531" y2="397.9531"/><text fill="#000000" font-family="Fira Code" font-size="18" lengthAdjust="spacing" textLength="119" x="157.5" y="388.708">check_is_dir()</text><text fill="#000000" font-family="Fira Code" font-size="18" lengthAdjust="spacing" textLength="180" x="111" y="419.6611">- Required arg: path</text><text fill="#000000" font-family="Fira Code" font-size="18" lengthAdjust="spacing" textLength="202" x="111" y="440.6143">- Output: path or Error</text></g><g id="crp.crrdp"><rect fill="#F2F2F2" height="103.8125" rx="12.5" ry="12.5" style="stroke:#000000;stroke-width:0.5;" width="379" x="22.5" y="528"/><line style="stroke:#000000;stroke-width:0.5;" x1="22.5" x2="401.5" y1="558.9531" y2="558.9531"/><text fill="#000000" font-family="Fira Code" font-size="18" lengthAdjust="spacing" textLength="328" x="48" y="549.708">create_relative_resource_data_path()</text><text fill="#000000" font-family="Fira Code" font-size="18" lengthAdjust="spacing" textLength="359" x="27.5" y="580.6611">- Required arg: absolute path from input</text><text fill="#000000" font-family="Fira Code" font-size="18" lengthAdjust="spacing" textLength="199" x="27.5" y="601.6143">- Output: relative path</text><text fill="#000000" font-family="Fira Code" font-size="18" lengthAdjust="spacing" textLength="293" x="39.5" y="622.5674">(e.g. `resources/1/data.parquet`)</text></g><g id="crp.chrp"><rect fill="#F2F2F2" height="103.8125" rx="12.5" ry="12.5" style="stroke:#000000;stroke-width:0.5;" width="270" x="437" y="528"/><line style="stroke:#000000;stroke-width:0.5;" x1="437" x2="707" y1="558.9531" y2="558.9531"/><text fill="#000000" font-family="Fira Code" font-size="18" lengthAdjust="spacing" textLength="250" x="447" y="549.708">check_resource_properties()</text><text fill="#000000" font-family="Fira Code" font-size="18" lengthAdjust="spacing" textLength="232" x="442" y="580.6611">- Required arg: properties</text><text fill="#000000" font-family="Fira Code" font-size="18" lengthAdjust="spacing" textLength="208" x="442" y="601.6143">- Output: JSON or Error</text><text fill="#000000" font-family="Fira Code" font-size="18" lengthAdjust="spacing" textLength="188" x="442" y="622.5674">- Checks against spec</text></g><g id="crp.epf"><rect fill="#F2F2F2" height="82.8594" rx="12.5" ry="12.5" style="stroke:#000000;stroke-width:0.5;" width="370" x="207" y="726"/><line style="stroke:#000000;stroke-width:0.5;" x1="207" x2="577" y1="756.9531" y2="756.9531"/><text fill="#000000" font-family="Fira Code" font-size="18" lengthAdjust="spacing" textLength="182" x="301" y="747.708">edit_property_field()</text><text fill="#000000" font-family="Fira Code" font-size="18" lengthAdjust="spacing" textLength="350" x="212" y="778.6611">- Required args: properties, field, value</text><text fill="#000000" font-family="Fira Code" font-size="18" lengthAdjust="spacing" textLength="131" x="212" y="799.6143">- Output: JSON</text></g><text fill="#000000" font-family="Fira Code" font-size="18" lengthAdjust="spacing" textLength="56" x="363.5" y="927.708">return</text><ellipse cx="391.5" cy="905" fill="#F2F2F2" rx="6" ry="6" style="stroke:#000000;stroke-width:1.5;"/><line style="stroke:#000000;stroke-width:1.5;" x1="395.8891" x2="388.1109" y1="909.3891" y2="901.6109"/><line style="stroke:#000000;stroke-width:1.5;" x1="395.8891" x2="388.1109" y1="901.6109" y2="909.3891"/><path d="M211,984 L573,984 A12.5,12.5 0 0 1 585.5,996.5 L585.5,1014.9531 L198.5,1014.9531 L198.5,996.5 A12.5,12.5 0 0 1 211,984 " fill="#F2F2F2" style="stroke:#F2F2F2;stroke-width:1.0;"/><rect fill="none" height="177.7188" rx="12.5" ry="12.5" style="stroke:#000000;stroke-width:0.5;" width="387" x="198.5" y="984"/><line style="stroke:#000000;stroke-width:0.5;" x1="198.5" x2="585.5" y1="1014.9531" y2="1014.9531"/><text fill="#000000" font-family="Fira Code" font-size="18" lengthAdjust="spacing" textLength="61" x="361.5" y="1005.708">Output</text><g id="output.json_output"><rect fill="#F2F2F2" height="124.7656" rx="12.5" ry="12.5" style="stroke:#000000;stroke-width:0.5;" width="366" x="210.5" y="1026.9531"/><line style="stroke:#000000;stroke-width:0.5;" x1="210.5" x2="576.5" y1="1057.9063" y2="1057.9063"/><text fill="#000000" font-family="Fira Code" font-size="18" lengthAdjust="spacing" textLength="45" x="371" y="1048.6611">JSON</text><text fill="#000000" font-family="Fira Code" font-size="18" lengthAdjust="spacing" textLength="346" x="215.5" y="1079.6143">- JSON object of the resource following</text><text fill="#000000" font-family="Fira Code" font-size="18" lengthAdjust="spacing" textLength="199" x="227.5" y="1100.5674">the Data Package spec</text><text fill="#000000" font-family="Fira Code" font-size="18" lengthAdjust="spacing" textLength="341" x="215.5" y="1121.5205">- Use `write_resource_properties()` to</text><text fill="#000000" font-family="Fira Code" font-size="18" lengthAdjust="spacing" textLength="285" x="227.5" y="1142.4736">save back to `datapackage.json`</text></g><!--link path to arg_path--><g id="link_path_arg_path"><path d="M231,144.6 C230.04,173.6 228.8576,209.1533 228.3776,223.7233 " fill="none" id="path-to-arg_path" style="stroke:#000000;stroke-width:1.0;"/><polygon fill="#000000" points="228.18,229.72,232.4742,220.8566,228.3446,224.7227,224.4785,220.5932,228.18,229.72" style="stroke:#000000;stroke-width:1.0;"/></g><!--link properties to arg_properties--><g id="link_properties_arg_properties"><path d="M570.34,155.3 C570.57,183.15 570.798,211.2302 570.908,223.9202 " fill="none" id="properties-to-arg_properties" style="stroke:#000000;stroke-width:1.0;"/><polygon fill="#000000" points="570.96,229.92,574.8818,220.8857,570.9167,224.9202,566.8821,220.955,570.96,229.92" style="stroke:#000000;stroke-width:1.0;"/></g><!--link arg_path to cid--><g id="link_arg_path_cid"><path d="M227.66,242.29 C226.46,260.84 222.7662,318.1224 220.0162,360.7624 " fill="none" id="arg_path-to-cid" style="stroke:#000000;stroke-width:1.0;"/><polygon fill="#000000" points="219.63,366.75,224.2009,358.0261,219.9518,361.7604,216.2175,357.5112,219.63,366.75" style="stroke:#000000;stroke-width:1.0;"/><text fill="#000000" font-family="sans-serif" font-size="14" lengthAdjust="spacing" textLength="78" x="225" y="297.9951">path object</text></g><!--link cid to crrdp--><g id="link_cid_crrdp"><path d="M162.49,450.07 C154.15,458.94 146.75,469.01 142,480 C134.81,496.62 136.8738,508.3567 147.4038,523.1067 " fill="none" id="cid-to-crrdp" style="stroke:#000000;stroke-width:1.0;"/><polygon fill="#000000" points="150.89,527.99,148.9163,518.3409,147.9849,523.9206,142.4052,522.9892,150.89,527.99" style="stroke:#000000;stroke-width:1.0;"/><text fill="#000000" font-family="sans-serif" font-size="14" lengthAdjust="spacing" textLength="78" x="143" y="493.9951">path object</text></g><!--link arg_properties to chrp--><g id="link_arg_properties_chrp"><path d="M571.01,242.1 C571.11,273.47 571.5826,435.73 571.8326,521.96 " fill="none" id="arg_properties-to-chrp" style="stroke:#000000;stroke-width:1.0;"/><polygon fill="#000000" points="571.85,527.96,575.8239,518.9484,571.8355,522.96,567.8239,518.9716,571.85,527.96" style="stroke:#000000;stroke-width:1.0;"/><text fill="#000000" font-family="sans-serif" font-size="14" lengthAdjust="spacing" textLength="80" x="572" y="413.4951">JSON object</text></g><!--link crrdp to epf--><g id="link_crrdp_epf"><path d="M261.66,632.18 C290.28,661.67 321.582,693.9237 348.292,721.4537 " fill="none" id="crrdp-to-epf" style="stroke:#000000;stroke-width:1.0;"/><polygon fill="#000000" points="352.47,725.76,349.0738,716.5152,348.9883,722.1714,343.3321,722.0859,352.47,725.76" style="stroke:#000000;stroke-width:1.0;"/><text fill="#000000" font-family="sans-serif" font-size="14" lengthAdjust="spacing" textLength="99" x="324" y="675.9951">Update `path`</text><text fill="#000000" font-family="sans-serif" font-size="14" lengthAdjust="spacing" textLength="58" x="344.5" y="692.292">property</text></g><!--link chrp to epf--><g id="link_chrp_epf"><path d="M522.34,632.18 C493.72,661.67 462.418,693.9237 435.708,721.4537 " fill="none" id="chrp-to-epf" style="stroke:#000000;stroke-width:1.0;"/><polygon fill="#000000" points="431.53,725.76,440.6679,722.0859,435.0117,722.1714,434.9262,716.5152,431.53,725.76" style="stroke:#000000;stroke-width:1.0;"/><text fill="#000000" font-family="sans-serif" font-size="14" lengthAdjust="spacing" textLength="80" x="493" y="683.9951">JSON object</text></g><!--link epf to return--><g id="link_epf_return"><path d="M392,809.15 C392,841.58 392,877.93 392,892.67 " fill="none" id="epf-to-return" style="stroke:#000000;stroke-width:1.0;"/><polygon fill="#000000" points="392,898.67,396,889.67,392,893.67,388,889.67,392,898.67" style="stroke:#000000;stroke-width:1.0;"/><text fill="#000000" font-family="sans-serif" font-size="14" lengthAdjust="spacing" textLength="80" x="393" y="852.9951">JSON object</text></g><!--link return to output--><g id="link_return_output"><path d="M392,911.15 C392,922.86 392,946.88 392,977.86 " fill="none" id="return-to-output" style="stroke:#000000;stroke-width:1.0;"/><polygon fill="#000000" points="392,983.86,396,974.86,392,978.86,388,974.86,392,983.86" style="stroke:#000000;stroke-width:1.0;"/></g><!--SRC=[XLJ1Rjim3BtdAxXSrWvDWbs38C2mxR0Trc93RmLiHM9ijOxaKdAoOkY_JvGjsqcJBOTODXyVtoCblVCbxX0SefB28Mp9xg3qldRBnOB4OLveNpQRnY59QpmQFvTsjqZuMKts4QKVFaI-nKveCvauBpp2z9kf6py5uK3p2lvCe5ijOGPvBNoPVRYwpc7R6EcrDIvWdNOU3g4u57glJG7I4eLAm70tUG-Vg6XsGO-36Vy29qSYvHqll0L2PnkI22kjrh2rbK9Y7DaQoMjq3Fx-w_O7s0sx0Bk5eB_FUp30MPKzi02EV15U17hv98hGj1hbvBMtUTluvDF6PJJQ1RbA33qwQx8s7gAZD_YFc449opelvYtXVPXfVY3jCKj4sU2Vc-ujypcnHzW4BkvRhW9ptHBFcJ4VsPI4uX9RT2YfZixvoH9-udEZ2HK8AfRja8HHeobqXYTzjm8mYxZLAWoONkwiDdwzFeuFwIUej1DcitNFT3Jr8T9_6cfFPOdoATCkKvgI8wtOZrON_8o2xIReR5g2hqIMzrnlYMktu1PoOdreRoMyte_wp3E957sRITMnpU5vHfZOE5irWJBMYUSw7hgZb2GtbOjWtWzNE2_caAVgRl5nmGBcjQ3d1dr-tNcETZgw2uPYF_-nNKgADihpssKOqGYJPBV7PUXo3_ZCHSCrKeHxADmZtU4usJTHUvinEdSZwQYqJmalsLPZfJhHM6y3BFo_aUp6ccyW9jt0NbGDZZB61lg1i9uMS5yh5X2lnlp190d9uG0yhvlGDsIcV31-Qp-S7ixXt3P-aWxfCoEw2-hrBm00]--></g></svg>
