<svg xmlns="http://www.w3.org/2000/svg" xmlns:xlink="http://www.w3.org/1999/xlink" contentStyleType="text/css" height="608px" preserveAspectRatio="none" style="width:520px;height:608px;background:#FFFFFF;" version="1.1" viewBox="0 0 520 608" width="520px" zoomAndPan="magnify"><defs/><g><!--cluster pr--><g id="cluster_pr"><path d="M38.1172,7 L494.1172,7 A12.5,12.5 0 0 1 506.6172,19.5 L506.6172,100.8125 L25.6172,100.8125 L25.6172,19.5 A12.5,12.5 0 0 1 38.1172,7 " fill="#F2F2F2" style="stroke:#F2F2F2;stroke-width:1.0;"/><rect fill="none" height="570" rx="12.5" ry="12.5" style="stroke:#000000;stroke-width:0.5;" width="481" x="25.6172" y="7"/><line style="stroke:#000000;stroke-width:0.5;" x1="25.6172" x2="506.6172" y1="100.8125" y2="100.8125"/><line style="stroke:#000000;stroke-width:0.5;" x1="25.6172" x2="506.6172" y1="32.9531" y2="32.9531"/><text fill="#000000" font-family="Fira Code" font-size="18" lengthAdjust="spacing" textLength="72.9668" x="229.6338" y="28.708">path_*()</text><text fill="#000000" font-family="Fira Code" font-size="18" lengthAdjust="spacing" textLength="416.4873" x="30.6172" y="52.1611">- Required arg: package_id and/or resource_id</text><text fill="#000000" font-family="Fira Code" font-size="18" lengthAdjust="spacing" textLength="385.8662" x="30.6172" y="73.1143">- Gets path for various package directories</text><text fill="#000000" font-family="Fira Code" font-size="18" lengthAdjust="spacing" textLength="443.1357" x="30.6172" y="94.0674">- Almost all `path_*` type functions use this flow.</text></g><text fill="#000000" font-family="Fira Code" font-size="18" lengthAdjust="spacing" textLength="39.2344" x="6" y="122.7549">args</text><ellipse cx="25.6172" cy="145" fill="#F2F2F2" rx="6" ry="6" style="stroke:#000000;stroke-width:1.5;"/><g id="pr.psr"><rect fill="#F2F2F2" height="61.9063" rx="12.5" ry="12.5" style="stroke:#000000;stroke-width:0.5;" width="187.1328" x="143.1172" y="114"/><line style="stroke:#000000;stroke-width:0.5;" x1="143.1172" x2="330.25" y1="144.9531" y2="144.9531"/><text fill="#000000" font-family="Fira Code" font-size="18" lengthAdjust="spacing" textLength="167.1328" x="153.1172" y="135.708">path_sprout_root()</text><text fill="#000000" font-family="Fira Code" font-size="18" lengthAdjust="spacing" textLength="127.4502" x="148.1172" y="166.6611">- Output: path</text></g><g id="pr.path"><rect fill="#F2F2F2" height="82.8594" rx="12.5" ry="12.5" style="stroke:#000000;stroke-width:0.5;" width="377.4072" x="48.1172" y="254"/><line style="stroke:#000000;stroke-width:0.5;" x1="48.1172" x2="425.5244" y1="284.9531" y2="284.9531"/><text fill="#000000" font-family="Fira Code" font-size="18" lengthAdjust="spacing" textLength="122.4668" x="175.5874" y="275.708">pathlib.Path()</text><text fill="#000000" font-family="Fira Code" font-size="18" lengthAdjust="spacing" textLength="301.4912" x="53.1172" y="306.6611">- Required args: fstring in form of</text><text fill="#000000" font-family="Fira Code" font-size="18" lengthAdjust="spacing" textLength="345.9639" x="64.5605" y="327.6143">`f"{root}/packages/{package_id}/..."`</text></g><g id="pr.vid"><rect fill="#F2F2F2" height="82.8594" rx="12.5" ry="12.5" style="stroke:#000000;stroke-width:0.5;" width="221.8936" x="125.6172" y="398"/><line style="stroke:#000000;stroke-width:0.5;" x1="125.6172" x2="347.5107" y1="428.9531" y2="428.9531"/><text fill="#000000" font-family="Fira Code" font-size="18" lengthAdjust="spacing" textLength="121.3682" x="175.8799" y="419.708">verify_is_dir()</text><text fill="#000000" font-family="Fira Code" font-size="18" lengthAdjust="spacing" textLength="181.8193" x="130.6172" y="450.6611">- Required arg: path</text><text fill="#000000" font-family="Fira Code" font-size="18" lengthAdjust="spacing" textLength="201.8936" x="130.6172" y="471.6143">- Output: path or Error</text></g><text fill="#000000" font-family="Fira Code" font-size="18" lengthAdjust="spacing" textLength="55.749" x="208.2427" y="599.708">return</text><ellipse cx="236.1172" cy="577" fill="#F2F2F2" rx="6" ry="6" style="stroke:#000000;stroke-width:1.5;"/><line style="stroke:#000000;stroke-width:1.5;" x1="240.5063" x2="232.7281" y1="581.3891" y2="573.6109"/><line style="stroke:#000000;stroke-width:1.5;" x1="240.5063" x2="232.7281" y1="573.6109" y2="581.3891"/><!--link psr to path--><g id="link_psr_path"><path d="M236.6172,176.05 C236.6172,198.43 236.6172,223.22 236.6172,247.8 " fill="none" id="psr-to-path" style="stroke:#000000;stroke-width:1.0;"/><polygon fill="#000000" points="236.6172,253.8,240.6172,244.8,236.6172,248.8,232.6172,244.8,236.6172,253.8" style="stroke:#000000;stroke-width:1.0;"/><text fill="#000000" font-family="sans-serif" font-size="14" lengthAdjust="spacing" textLength="79.4199" x="237.6172" y="219.9951">path object</text></g><!--link args to path--><g id="link_args_path"><path d="M26.2272,151.2 C27.2072,157.64 29.6772,168.66 35.6172,176 C62.3572,209.08 95.6638,232.1629 131.9238,251.1829 " fill="none" id="args-to-path" style="stroke:#000000;stroke-width:1.0;"/><polygon fill="#000000" points="137.2372,253.97,131.1252,246.2471,132.8094,251.6474,127.409,253.3316,137.2372,253.97" style="stroke:#000000;stroke-width:1.0;"/><text fill="#000000" font-family="sans-serif" font-size="14" lengthAdjust="spacing" textLength="50.1211" x="87.6172" y="219.9951">integer</text></g><!--link path to vid--><g id="link_path_vid"><path d="M236.6172,337.19 C236.6172,356.2 236.6172,372.79 236.6172,391.8 " fill="none" id="path-to-vid" style="stroke:#000000;stroke-width:1.0;"/><polygon fill="#000000" points="236.6172,397.8,240.6172,388.8,236.6172,392.8,232.6172,388.8,236.6172,397.8" style="stroke:#000000;stroke-width:1.0;"/></g><!--link vid to return--><g id="link_vid_return"><path d="M236.6172,481.15 C236.6172,513.58 236.6172,549.93 236.6172,564.67 " fill="none" id="vid-to-return" style="stroke:#000000;stroke-width:1.0;"/><polygon fill="#000000" points="236.6172,570.67,240.6172,561.67,236.6172,565.67,232.6172,561.67,236.6172,570.67" style="stroke:#000000;stroke-width:1.0;"/><text fill="#000000" font-family="sans-serif" font-size="14" lengthAdjust="spacing" textLength="79.4199" x="237.6172" y="524.9951">path object</text></g><!--SRC=[RL71Zfj03Btp5TwSkYi5xcWLgOUgnwvwNebCY85fOKnjJtQZAFzU3uGbNVM2nTZl-Rtd1-rmG134O-q4eM4Qe5CTfImATczvwxMBXoZ8DGN5e7bDGx7CRqUcNrZh-Z3n5OFp8Sj4dI9iHgTTzVJbSGDEO6IuP91A2LluYN-YPpo2uxQ4qTM_NOkLj_zmB8Y1KIXodPvMq7TKup5IQ6pavDXJb0KCH-EhbTYZh92l_K2YuFeUzhESFUXvDBynrEef29X5qCuBD3szvPbXP_ccJE3vsPpp-OLyqDrkRSxUn5A8MZ6HBYw5qtAPj_-8EaOj9ysViBq_v2zM5roQWDdSvtoaX4QKVMZ1XsHz06fU0y2-sLpIxcjnoq2AonhbjSZpVBE_oTbkTmlxLEYGpcVDoUPTrunYYtmdzuJictFbfRA8RtfFqrti-zzhJbwMvdq8O7VxnaoyU4sB4zV7DaQD75BkxrwNs6UoD7jh_slYclq5]--></g></svg>
