<svg xmlns="http://www.w3.org/2000/svg" xmlns:xlink="http://www.w3.org/1999/xlink" contentStyleType="text/css" height="987px" preserveAspectRatio="none" style="width:755px;height:987px;background:#FFFFFF;" version="1.1" viewBox="0 0 755 987" width="755px" zoomAndPan="magnify"><defs/><g><!--cluster input--><g id="cluster_input"><path d="M19.5,7 L729.5,7 A12.5,12.5 0 0 1 742,19.5 L742,79.8594 L7,79.8594 L7,19.5 A12.5,12.5 0 0 1 19.5,7 " fill="#F2F2F2" style="stroke:#F2F2F2;stroke-width:1.0;"/><rect fill="none" height="164" rx="12.5" ry="12.5" style="stroke:#000000;stroke-width:0.5;" width="735" x="7" y="7"/><line style="stroke:#000000;stroke-width:0.5;" x1="7" x2="742" y1="79.8594" y2="79.8594"/><line style="stroke:#000000;stroke-width:0.5;" x1="7" x2="742" y1="32.9531" y2="32.9531"/><text fill="#000000" font-family="Fira Code" font-size="18" lengthAdjust="spacing" textLength="46" x="227.5" y="27.708">Input</text><text fill="#000000" font-family="Fira Code" font-size="18" lengthAdjust="spacing" textLength="294" x="12" y="52.1611">- Use `path_*()` functions to help</text><text fill="#000000" font-family="Fira Code" font-size="18" lengthAdjust="spacing" textLength="178" x="12" y="73.1143">create correct paths</text></g><!--cluster wpp--><g id="cluster_wpp"><path d="M180.5,236 L539.5,236 A12.5,12.5 0 0 1 552,248.5 L552,287.9063 L168,287.9063 L168,248.5 A12.5,12.5 0 0 1 180.5,236 " fill="#F2F2F2" style="stroke:#F2F2F2;stroke-width:1.0;"/><rect fill="none" height="538" rx="12.5" ry="12.5" style="stroke:#000000;stroke-width:0.5;" width="384" x="168" y="236"/><line style="stroke:#000000;stroke-width:0.5;" x1="168" x2="552" y1="287.9063" y2="287.9063"/><line style="stroke:#000000;stroke-width:0.5;" x1="168" x2="552" y1="261.9531" y2="261.9531"/><text fill="#000000" font-family="Fira Code" font-size="18" lengthAdjust="spacing" textLength="242" x="239" y="257.708">write_package_properties()</text><text fill="#000000" font-family="Fira Code" font-size="18" lengthAdjust="spacing" textLength="315" x="173" y="281.1611">- Required arg: properties and path</text></g><g id="input.properties"><rect fill="#F2F2F2" height="61.9063" rx="12.5" ry="12.5" style="stroke:#000000;stroke-width:0.5;" width="330" x="23" y="93"/><line style="stroke:#000000;stroke-width:0.5;" x1="23" x2="353" y1="123.9531" y2="123.9531"/><text fill="#000000" font-family="Fira Code" font-size="18" lengthAdjust="spacing" textLength="91" x="142.5" y="114.708">properties</text><text fill="#000000" font-family="Fira Code" font-size="18" lengthAdjust="spacing" textLength="310" x="28" y="145.6611">- Properties objects in JSON format</text></g><g id="input.path"><rect fill="#F2F2F2" height="61.9063" rx="12.5" ry="12.5" style="stroke:#000000;stroke-width:0.5;" width="337" x="388.5" y="93"/><line style="stroke:#000000;stroke-width:0.5;" x1="388.5" x2="725.5" y1="123.9531" y2="123.9531"/><text fill="#000000" font-family="Fira Code" font-size="18" lengthAdjust="spacing" textLength="39" x="537.5" y="114.708">path</text><text fill="#000000" font-family="Fira Code" font-size="18" lengthAdjust="spacing" textLength="317" x="393.5" y="145.6611">- Path to where properties is stored</text></g><text fill="#000000" font-family="Fira Code" font-size="18" lengthAdjust="spacing" textLength="77" x="495.5" y="213.7549">arg_path</text><ellipse cx="534" cy="236" fill="#F2F2F2" rx="6" ry="6" style="stroke:#000000;stroke-width:1.5;"/><text fill="#000000" font-family="Fira Code" font-size="18" lengthAdjust="spacing" textLength="129" x="192" y="213.7549">arg_properties</text><ellipse cx="256.5" cy="236" fill="#F2F2F2" rx="6" ry="6" style="stroke:#000000;stroke-width:1.5;"/><g id="wpp.cp"><rect fill="#F2F2F2" height="166.6719" rx="12.5" ry="12.5" style="stroke:#000000;stroke-width:0.5;" width="252" x="184" y="350"/><line style="stroke:#000000;stroke-width:0.5;" x1="184" x2="436" y1="380.9531" y2="380.9531"/><text fill="#000000" font-family="Fira Code" font-size="18" lengthAdjust="spacing" textLength="164" x="228" y="371.708">check_properties()</text><text fill="#000000" font-family="Fira Code" font-size="18" lengthAdjust="spacing" textLength="232" x="189" y="402.6611">- Required arg: properties</text><text fill="#000000" font-family="Fira Code" font-size="18" lengthAdjust="spacing" textLength="208" x="189" y="423.6143">- Output: JSON or Error</text><text fill="#000000" font-family="Fira Code" font-size="18" lengthAdjust="spacing" textLength="194" x="189" y="444.5674">- Checks that all fields</text><text fill="#000000" font-family="Fira Code" font-size="18" lengthAdjust="spacing" textLength="199" x="201" y="465.5205">and values match spec</text><text fill="#000000" font-family="Fira Code" font-size="18" lengthAdjust="spacing" textLength="198" x="189" y="486.4736">- Checks that required</text><text fill="#000000" font-family="Fira Code" font-size="18" lengthAdjust="spacing" textLength="154" x="201" y="507.4268">fields are present</text></g><g id="wpp.wj"><rect fill="#F2F2F2" height="82.8594" rx="12.5" ry="12.5" style="stroke:#000000;stroke-width:0.5;" width="342" x="184" y="595"/><line style="stroke:#000000;stroke-width:0.5;" x1="184" x2="526" y1="625.9531" y2="625.9531"/><text fill="#000000" font-family="Fira Code" font-size="18" lengthAdjust="spacing" textLength="105" x="302.5" y="616.708">write_json()</text><text fill="#000000" font-family="Fira Code" font-size="18" lengthAdjust="spacing" textLength="322" x="189" y="647.6611">- Required arg: json_object and path</text><text fill="#000000" font-family="Fira Code" font-size="18" lengthAdjust="spacing" textLength="255" x="189" y="668.6143">- Output: path to created file</text></g><text fill="#000000" font-family="Fira Code" font-size="18" lengthAdjust="spacing" textLength="56" x="326.5" y="796.708">return</text><ellipse cx="354.5" cy="774" fill="#F2F2F2" rx="6" ry="6" style="stroke:#000000;stroke-width:1.5;"/><line style="stroke:#000000;stroke-width:1.5;" x1="358.8891" x2="351.1109" y1="778.3891" y2="770.6109"/><line style="stroke:#000000;stroke-width:1.5;" x1="358.8891" x2="351.1109" y1="770.6109" y2="778.3891"/><path d="M172.5,853 L537.5,853 A12.5,12.5 0 0 1 550,865.5 L550,909.9063 L160,909.9063 L160,865.5 A12.5,12.5 0 0 1 172.5,853 " fill="#F2F2F2" style="stroke:#F2F2F2;stroke-width:1.0;"/><rect fill="none" height="128.9063" rx="12.5" ry="12.5" style="stroke:#000000;stroke-width:0.5;" width="390" x="160" y="853"/><line style="stroke:#000000;stroke-width:0.5;" x1="160" x2="550" y1="909.9063" y2="909.9063"/><line style="stroke:#000000;stroke-width:0.5;" x1="160" x2="550" y1="883.9531" y2="883.9531"/><text fill="#000000" font-family="Fira Code" font-size="18" lengthAdjust="spacing" textLength="61" x="324.5" y="874.708">Output</text><text fill="#000000" font-family="Fira Code" font-size="18" lengthAdjust="spacing" textLength="365" x="165" y="900.6611">- The package parent folder is shown as /</text><g id="output.properties_file"><rect fill="#F2F2F2" height="50" rx="12.5" ry="12.5" style="stroke:#000000;stroke-width:0.5;" width="315" x="172" y="921.9063"/><line style="stroke:#000000;stroke-width:0.5;" x1="172" x2="487" y1="952.8594" y2="952.8594"/><text fill="#000000" font-family="Fira Code" font-size="18" lengthAdjust="spacing" textLength="295" x="182" y="943.6143">/packages/&lt;id&gt;/datapackage.json</text></g><!--link properties to arg_properties--><g id="link_properties_arg_properties"><path d="M206.85,155.06 C223.13,181.01 242.1207,211.2878 250.4607,224.5778 " fill="none" id="properties-to-arg_properties" style="stroke:#000000;stroke-width:1.0;"/><polygon fill="#000000" points="253.65,229.66,252.2542,219.9105,250.9923,225.4248,245.478,224.1629,253.65,229.66" style="stroke:#000000;stroke-width:1.0;"/></g><!--link path to arg_path--><g id="link_path_arg_path"><path d="M550.72,155.06 C545.29,181.01 539.1285,210.4971 536.3485,223.7871 " fill="none" id="path-to-arg_path" style="stroke:#000000;stroke-width:1.0;"/><polygon fill="#000000" points="535.12,229.66,540.878,221.6697,536.1437,224.7659,533.0475,220.0317,535.12,229.66" style="stroke:#000000;stroke-width:1.0;"/></g><!--link arg_properties to cp--><g id="link_arg_properties_cp"><path d="M258.42,242.23 C262.66,257.87 274.1099,300.1091 286.0099,343.9991 " fill="none" id="arg_properties-to-cp" style="stroke:#000000;stroke-width:1.0;"/><polygon fill="#000000" points="287.58,349.79,289.0855,340.0569,286.2716,344.9642,281.3642,342.1504,287.58,349.79" style="stroke:#000000;stroke-width:1.0;"/></g><!--link cp to wj--><g id="link_cp_wj"><path d="M257.08,517.04 C252.65,533.2 252.37,549.83 260,565 C265.72,576.38 269.7794,582.3783 279.4094,590.9983 " fill="none" id="cp-to-wj" style="stroke:#000000;stroke-width:1.0;"/><polygon fill="#000000" points="283.88,595,279.8419,586.017,280.1545,591.6652,274.5063,591.9778,283.88,595" style="stroke:#000000;stroke-width:1.0;"/><text fill="#000000" font-family="sans-serif" font-size="14" lengthAdjust="spacing" textLength="80" x="261" y="560.9951">JSON object</text></g><!--link arg_path to wj--><g id="link_arg_path_wj"><path d="M533.33,242.27 C529.45,271.37 508.19,414.69 454,517 C438.94,545.43 420.3193,568.8308 400.4493,590.3608 " fill="none" id="arg_path-to-wj" style="stroke:#000000;stroke-width:1.0;"/><polygon fill="#000000" points="396.38,594.77,405.4234,590.869,399.771,591.0957,399.5444,585.4433,396.38,594.77" style="stroke:#000000;stroke-width:1.0;"/><text fill="#000000" font-family="sans-serif" font-size="14" lengthAdjust="spacing" textLength="78" x="526" y="438.4951">path object</text></g><!--link wj to return--><g id="link_wj_return"><path d="M355,678.15 C355,710.58 355,746.93 355,761.67 " fill="none" id="wj-to-return" style="stroke:#000000;stroke-width:1.0;"/><polygon fill="#000000" points="355,767.67,359,758.67,355,762.67,351,758.67,355,767.67" style="stroke:#000000;stroke-width:1.0;"/><text fill="#000000" font-family="sans-serif" font-size="14" lengthAdjust="spacing" textLength="78" x="356" y="721.9951">path object</text></g><!--link return to output--><g id="link_return_output"><path d="M355,780.04 C355,792 355,817.35 355,846.98 " fill="none" id="return-to-output" style="stroke:#000000;stroke-width:1.0;"/><polygon fill="#000000" points="355,852.98,359,843.98,355,847.98,351,843.98,355,852.98" style="stroke:#000000;stroke-width:1.0;"/></g><!--SRC=[VLDDRzim3BtxLt2vh1sG-1u40OPYX-sm5lku5N1LcOcLsf96qSk6OVzzf6p7ILlC5ylYu-Dx9Fs66-mG4c9jJKBOKUYWOOvfNPPaZgkzuwP_x1EI3PxHyyg6hfpmoqZXW9RdYynNTiRveaXi667nqSUU5s0IE3t1dmA6qngMy5sAFaJ3JVNkwle1Thstx89Fm04QREEzjuHAOmEHL0B5fk8jlATztucU14jzX5EqH2Hsc42Px-RFyAWYjJvy-dhx6NQ1EiEQ8cG3M0zIyjWWuJcJIv0u4DR5tvEXsvudHo4ViwNng6pV6k4mzidizKsYKagsDLAcQyBHQsufIIDZEQ9JkN7rjgmDc_5cTKZ1vrApg6hdMZpJSoJ7M8q9rOoxkiw9nnYpG7shkY_uetVY20pjr-TUZQzpHugJC45KkKURZPYWttV1UTvkB-CpmGlKMMovt3w3J_q_HIvABso3zkcb6ni5Ol_lP4OCereFOmy47uW2pU4RhI6xrXW6qxQmSzZMwTv3xiLFq_QYN5R5Df0YsjSJQLIXQGE1wD4bmYJja9ndNLA_uc9sEinF1prDxA3ZEhpYKK7LiCxpk4xOoMqSjtduTMh8-vArQ-qC7XgIYIQ5qonoF7-DyPDIGkx9wvX_EPwdB0cQDqOlSs6wLiJmYyZc_WC0]--></g></svg>
