<svg xmlns="http://www.w3.org/2000/svg" xmlns:xlink="http://www.w3.org/1999/xlink" contentStyleType="text/css" height="1393px" preserveAspectRatio="none" style="width:760px;height:1393px;background:#FFFFFF;" version="1.1" viewBox="0 0 760 1393" width="760px" zoomAndPan="magnify"><defs/><g><!--cluster input--><g id="cluster_input"><path d="M19.5,7 L734.5,7 A12.5,12.5 0 0 1 747,19.5 L747,79.8594 L7,79.8594 L7,19.5 A12.5,12.5 0 0 1 19.5,7 " fill="#F2F2F2" style="stroke:#F2F2F2;stroke-width:1.0;"/><rect fill="none" height="164" rx="12.5" ry="12.5" style="stroke:#000000;stroke-width:0.5;" width="740" x="7" y="7"/><line style="stroke:#000000;stroke-width:0.5;" x1="7" x2="747" y1="79.8594" y2="79.8594"/><line style="stroke:#000000;stroke-width:0.5;" x1="7" x2="747" y1="32.9531" y2="32.9531"/><text fill="#000000" font-family="Fira Code" font-size="18" lengthAdjust="spacing" textLength="46.6084" x="227.5" y="27.708">Input</text><text fill="#000000" font-family="Fira Code" font-size="18" lengthAdjust="spacing" textLength="299.584" x="12" y="52.1611">- Use `path_*()` functions to help</text><text fill="#000000" font-family="Fira Code" font-size="18" lengthAdjust="spacing" textLength="183.0146" x="12" y="73.1143">create correct paths</text></g><!--cluster wrp--><g id="cluster_wrp"><path d="M96.5,236 L651.5,236 A12.5,12.5 0 0 1 664,248.5 L664,287.9063 L84,287.9063 L84,248.5 A12.5,12.5 0 0 1 96.5,236 " fill="#F2F2F2" style="stroke:#F2F2F2;stroke-width:1.0;"/><rect fill="none" height="944" rx="12.5" ry="12.5" style="stroke:#000000;stroke-width:0.5;" width="580" x="84" y="236"/><line style="stroke:#000000;stroke-width:0.5;" x1="84" x2="664" y1="287.9063" y2="287.9063"/><line style="stroke:#000000;stroke-width:0.5;" x1="84" x2="664" y1="261.9531" y2="261.9531"/><text fill="#000000" font-family="Fira Code" font-size="18" lengthAdjust="spacing" textLength="248.1943" x="249.9028" y="257.708">write_resource_properties()</text><text fill="#000000" font-family="Fira Code" font-size="18" lengthAdjust="spacing" textLength="319.377" x="89" y="281.1611">- Required arg: properties and path</text></g><g id="input.properties"><rect fill="#F2F2F2" height="61.9063" rx="12.5" ry="12.5" style="stroke:#000000;stroke-width:0.5;" width="332.7764" x="23.5" y="93"/><line style="stroke:#000000;stroke-width:0.5;" x1="23.5" x2="356.2764" y1="123.9531" y2="123.9531"/><text fill="#000000" font-family="Fira Code" font-size="18" lengthAdjust="spacing" textLength="92.25" x="143.7632" y="114.708">properties</text><text fill="#000000" font-family="Fira Code" font-size="18" lengthAdjust="spacing" textLength="312.7764" x="28.5" y="145.6611">- Properties objects in JSON format</text></g><g id="input.path"><rect fill="#F2F2F2" height="61.9063" rx="12.5" ry="12.5" style="stroke:#000000;stroke-width:0.5;" width="338.9023" x="391.5" y="93"/><line style="stroke:#000000;stroke-width:0.5;" x1="391.5" x2="730.4023" y1="123.9531" y2="123.9531"/><text fill="#000000" font-family="Fira Code" font-size="18" lengthAdjust="spacing" textLength="40.9219" x="540.4902" y="114.708">path</text><text fill="#000000" font-family="Fira Code" font-size="18" lengthAdjust="spacing" textLength="318.9023" x="396.5" y="145.6611">- Path to where properties is stored</text></g><text fill="#000000" font-family="Fira Code" font-size="18" lengthAdjust="spacing" textLength="79.7783" x="518.6108" y="213.7549">arg_path</text><ellipse cx="558.5" cy="236" fill="#F2F2F2" rx="6" ry="6" style="stroke:#000000;stroke-width:1.5;"/><text fill="#000000" font-family="Fira Code" font-size="18" lengthAdjust="spacing" textLength="131.1064" x="127.4468" y="213.7549">arg_properties</text><ellipse cx="193" cy="236" fill="#F2F2F2" rx="6" ry="6" style="stroke:#000000;stroke-width:1.5;"/><g id="wrp.vrp"><rect fill="#F2F2F2" height="166.6719" rx="12.5" ry="12.5" style="stroke:#000000;stroke-width:0.5;" width="274.0566" x="100" y="511"/><line style="stroke:#000000;stroke-width:0.5;" x1="100" x2="374.0566" y1="541.9531" y2="541.9531"/><text fill="#000000" font-family="Fira Code" font-size="18" lengthAdjust="spacing" textLength="254.0566" x="110" y="532.708">verify_resource_properties()</text><text fill="#000000" font-family="Fira Code" font-size="18" lengthAdjust="spacing" textLength="233.1475" x="105" y="563.6611">- Required arg: properties</text><text fill="#000000" font-family="Fira Code" font-size="18" lengthAdjust="spacing" textLength="205.3389" x="105" y="584.6143">- Output: JSON or Error</text><text fill="#000000" font-family="Fira Code" font-size="18" lengthAdjust="spacing" textLength="199.9336" x="105" y="605.5674">- Checks that all fields</text><text fill="#000000" font-family="Fira Code" font-size="18" lengthAdjust="spacing" textLength="208.2744" x="116.4434" y="626.5205">and values match spec</text><text fill="#000000" font-family="Fira Code" font-size="18" lengthAdjust="spacing" textLength="201.1729" x="105" y="647.4736">- Checks that required</text><text fill="#000000" font-family="Fira Code" font-size="18" lengthAdjust="spacing" textLength="157.9834" x="116.4434" y="668.4268">fields are present</text></g><g id="wrp.vif"><rect fill="#F2F2F2" height="82.8594" rx="12.5" ry="12.5" style="stroke:#000000;stroke-width:0.5;" width="221.8936" x="426" y="350"/><line style="stroke:#000000;stroke-width:0.5;" x1="426" x2="647.8936" y1="380.9531" y2="380.9531"/><text fill="#000000" font-family="Fira Code" font-size="18" lengthAdjust="spacing" textLength="124.9541" x="474.4697" y="371.708">verify_is_file()</text><text fill="#000000" font-family="Fira Code" font-size="18" lengthAdjust="spacing" textLength="181.8193" x="431" y="402.6611">- Required arg: path</text><text fill="#000000" font-family="Fira Code" font-size="18" lengthAdjust="spacing" textLength="201.8936" x="431" y="423.6143">- Output: path or Error</text></g><g id="wrp.rp"><rect fill="#F2F2F2" height="82.8594" rx="12.5" ry="12.5" style="stroke:#000000;stroke-width:0.5;" width="201.8193" x="409" y="553"/><line style="stroke:#000000;stroke-width:0.5;" x1="409" x2="610.8193" y1="583.9531" y2="583.9531"/><text fill="#000000" font-family="Fira Code" font-size="18" lengthAdjust="spacing" textLength="156.2256" x="431.7969" y="574.708">read_properties()</text><text fill="#000000" font-family="Fira Code" font-size="18" lengthAdjust="spacing" textLength="181.8193" x="414" y="605.6611">- Required arg: path</text><text fill="#000000" font-family="Fira Code" font-size="18" lengthAdjust="spacing" textLength="130.8955" x="414" y="626.6143">- Output: JSON</text></g><g id="wrp.jp"><rect fill="#F2F2F2" height="166.6719" rx="12.5" ry="12.5" style="stroke:#000000;stroke-width:0.5;" width="358.792" x="171.5" y="756"/><line style="stroke:#000000;stroke-width:0.5;" x1="171.5" x2="530.292" y1="786.9531" y2="786.9531"/><text fill="#000000" font-family="Fira Code" font-size="18" lengthAdjust="spacing" textLength="175.4385" x="263.1768" y="777.708">properties.update()</text><text fill="#000000" font-family="Fira Code" font-size="18" lengthAdjust="spacing" textLength="279.3516" x="176.5" y="808.6611">- Required arg: new_properties</text><text fill="#000000" font-family="Fira Code" font-size="18" lengthAdjust="spacing" textLength="130.8955" x="176.5" y="829.6143">- Output: JSON</text><text fill="#000000" font-family="Fira Code" font-size="18" lengthAdjust="spacing" textLength="322.3213" x="176.5" y="850.5674">- New properties overwrite old ones</text><text fill="#000000" font-family="Fira Code" font-size="18" lengthAdjust="spacing" textLength="300.1641" x="176.5" y="871.5205">- Uses built-in `update()` method</text><text fill="#000000" font-family="Fira Code" font-size="18" lengthAdjust="spacing" textLength="338.792" x="176.5" y="892.4736">- Need to join the resource properties</text><text fill="#000000" font-family="Fira Code" font-size="18" lengthAdjust="spacing" textLength="228.0234" x="187.9434" y="913.4268">to the existing properties</text></g><g id="wrp.wj"><rect fill="#F2F2F2" height="82.8594" rx="12.5" ry="12.5" style="stroke:#000000;stroke-width:0.5;" width="348.3945" x="269" y="1001"/><line style="stroke:#000000;stroke-width:0.5;" x1="269" x2="617.3945" y1="1031.9531" y2="1031.9531"/><text fill="#000000" font-family="Fira Code" font-size="18" lengthAdjust="spacing" textLength="105.0996" x="390.6475" y="1022.708">write_json()</text><text fill="#000000" font-family="Fira Code" font-size="18" lengthAdjust="spacing" textLength="328.3945" x="274" y="1053.6611">- Required arg: json_object and path</text><text fill="#000000" font-family="Fira Code" font-size="18" lengthAdjust="spacing" textLength="259.0576" x="274" y="1074.6143">- Output: path to created file</text></g><text fill="#000000" font-family="Fira Code" font-size="18" lengthAdjust="spacing" textLength="55.749" x="414.6255" y="1202.708">return</text><ellipse cx="442.5" cy="1180" fill="#F2F2F2" rx="6" ry="6" style="stroke:#000000;stroke-width:1.5;"/><line style="stroke:#000000;stroke-width:1.5;" x1="446.8891" x2="439.1109" y1="1184.3891" y2="1176.6109"/><line style="stroke:#000000;stroke-width:1.5;" x1="446.8891" x2="439.1109" y1="1176.6109" y2="1184.3891"/><path d="M257,1259 L629.4805,1259 A12.5,12.5 0 0 1 641.9805,1271.5 L641.9805,1315.9063 L244.5,1315.9063 L244.5,1271.5 A12.5,12.5 0 0 1 257,1259 " fill="#F2F2F2" style="stroke:#F2F2F2;stroke-width:1.0;"/><rect fill="none" height="128.9063" rx="12.5" ry="12.5" style="stroke:#000000;stroke-width:0.5;" width="397.4805" x="244.5" y="1259"/><line style="stroke:#000000;stroke-width:0.5;" x1="244.5" x2="641.9805" y1="1315.9063" y2="1315.9063"/><line style="stroke:#000000;stroke-width:0.5;" x1="244.5" x2="641.9805" y1="1289.9531" y2="1289.9531"/><text fill="#000000" font-family="Fira Code" font-size="18" lengthAdjust="spacing" textLength="62.5254" x="411.9775" y="1280.708">Output</text><text fill="#000000" font-family="Fira Code" font-size="18" lengthAdjust="spacing" textLength="372.4805" x="249.5" y="1306.6611">- The package parent folder is shown as /</text><g id="output.properties_file"><rect fill="#F2F2F2" height="50" rx="12.5" ry="12.5" style="stroke:#000000;stroke-width:0.5;" width="329.8408" x="256.5" y="1327.9063"/><line style="stroke:#000000;stroke-width:0.5;" x1="256.5" x2="586.3408" y1="1358.8594" y2="1358.8594"/><text fill="#000000" font-family="Fira Code" font-size="18" lengthAdjust="spacing" textLength="309.8408" x="266.5" y="1349.6143">/packages/&lt;id&gt;/datapackage.json</text></g><!--link properties to arg_properties--><g id="link_properties_arg_properties"><path d="M190.82,155.06 C191.53,181.01 192.3275,210.3722 192.6875,223.6622 " fill="none" id="properties-to-arg_properties" style="stroke:#000000;stroke-width:1.0;"/><polygon fill="#000000" points="192.85,229.66,196.6048,220.555,192.7146,224.6618,188.6078,220.7716,192.85,229.66" style="stroke:#000000;stroke-width:1.0;"/></g><!--link path to arg_path--><g id="link_path_arg_path"><path d="M560.45,155.06 C559.98,181.01 559.4483,210.371 559.2083,223.661 " fill="none" id="path-to-arg_path" style="stroke:#000000;stroke-width:1.0;"/><polygon fill="#000000" points="559.1,229.66,563.2618,220.7337,559.1903,224.6608,555.2632,220.5892,559.1,229.66" style="stroke:#000000;stroke-width:1.0;"/></g><!--link arg_properties to vrp--><g id="link_arg_properties_vrp"><path d="M193.62,242.04 C197.17,270.81 214.4049,410.4052 226.0749,504.9452 " fill="none" id="arg_properties-to-vrp" style="stroke:#000000;stroke-width:1.0;"/><polygon fill="#000000" points="226.81,510.9,229.6773,501.4778,226.1975,505.9377,221.7375,502.4578,226.81,510.9" style="stroke:#000000;stroke-width:1.0;"/></g><!--link arg_path to vif--><g id="link_arg_path_vif"><path d="M558.27,242.11 C555.9,258.65 549.1209,305.9506 543.6809,343.9206 " fill="none" id="arg_path-to-vif" style="stroke:#000000;stroke-width:1.0;"/><polygon fill="#000000" points="542.83,349.86,548.066,341.5183,543.5391,344.9105,540.1468,340.3837,542.83,349.86" style="stroke:#000000;stroke-width:1.0;"/></g><!--link vif to rp--><g id="link_vif_rp"><path d="M531.54,433.18 C526.85,468.05 520.9383,512.0834 516.2583,546.9434 " fill="none" id="vif-to-rp" style="stroke:#000000;stroke-width:1.0;"/><polygon fill="#000000" points="515.46,552.89,520.622,544.5023,516.1253,547.9345,512.6931,543.4378,515.46,552.89" style="stroke:#000000;stroke-width:1.0;"/><text fill="#000000" font-family="sans-serif" font-size="14" lengthAdjust="spacing" textLength="79.4199" x="528" y="476.9951">path object</text></g><!--link rp to jp--><g id="link_rp_jp"><path d="M483.39,636.17 C462.08,668.73 434.785,710.4492 408.385,750.7992 " fill="none" id="rp-to-jp" style="stroke:#000000;stroke-width:1.0;"/><polygon fill="#000000" points="405.1,755.82,413.3747,750.4788,407.8375,751.636,406.6803,746.0988,405.1,755.82" style="stroke:#000000;stroke-width:1.0;"/><text fill="#000000" font-family="sans-serif" font-size="14" lengthAdjust="spacing" textLength="82.0996" x="436" y="721.9951">JSON object</text></g><!--link vrp to jp--><g id="link_vrp_jp"><path d="M256.81,678.04 C261.88,694.28 267.93,710.94 275,726 C279.66,735.92 282.0516,740.7999 287.8916,750.5699 " fill="none" id="vrp-to-jp" style="stroke:#000000;stroke-width:1.0;"/><polygon fill="#000000" points="290.97,755.72,289.7857,745.9426,288.4046,751.4283,282.919,750.0472,290.97,755.72" style="stroke:#000000;stroke-width:1.0;"/><text fill="#000000" font-family="sans-serif" font-size="14" lengthAdjust="spacing" textLength="82.0996" x="276" y="721.9951">JSON object</text></g><!--link jp to wj--><g id="link_jp_wj"><path d="M388.82,923.12 C401.11,949.98 411.7147,973.1335 421.9447,995.5035 " fill="none" id="jp-to-wj" style="stroke:#000000;stroke-width:1.0;"/><polygon fill="#000000" points="424.44,1000.96,424.3347,991.1117,422.3606,996.4129,417.0594,994.4388,424.44,1000.96" style="stroke:#000000;stroke-width:1.0;"/><text fill="#000000" font-family="sans-serif" font-size="14" lengthAdjust="spacing" textLength="82.0996" x="411" y="966.9951">JSON object</text></g><!--link vif to wj--><g id="link_vif_wj"><path d="M591.21,433.12 C600.52,442.11 609.33,452.21 616,463 C653.16,523.15 630.41,669.26 629,678 C610.77,791.23 605.2,823.6 548,923 C531.55,951.59 511.6383,975.1137 490.6783,996.6137 " fill="none" id="vif-to-wj" style="stroke:#000000;stroke-width:1.0;"/><polygon fill="#000000" points="486.49,1000.91,495.6367,997.2579,489.9803,997.3298,489.9084,991.6734,486.49,1000.91" style="stroke:#000000;stroke-width:1.0;"/><text fill="#000000" font-family="sans-serif" font-size="14" lengthAdjust="spacing" textLength="79.4199" x="624" y="721.9951">path object</text></g><!--link wj to return--><g id="link_wj_return"><path d="M443,1084.15 C443,1116.58 443,1152.93 443,1167.67 " fill="none" id="wj-to-return" style="stroke:#000000;stroke-width:1.0;"/><polygon fill="#000000" points="443,1173.67,447,1164.67,443,1168.67,439,1164.67,443,1173.67" style="stroke:#000000;stroke-width:1.0;"/><text fill="#000000" font-family="sans-serif" font-size="14" lengthAdjust="spacing" textLength="79.4199" x="444" y="1127.9951">path object</text></g><!--link return to output--><g id="link_return_output"><path d="M443,1186.04 C443,1198 443,1223.35 443,1252.98 " fill="none" id="return-to-output" style="stroke:#000000;stroke-width:1.0;"/><polygon fill="#000000" points="443,1258.98,447,1249.98,443,1253.98,439,1249.98,443,1258.98" style="stroke:#000000;stroke-width:1.0;"/></g><!--SRC=[XLHBRzim3BxdLt2vh1sG-1u40OPYX-tG5dlS2YIgJSToRScZvBZ5iFy-Kh9Zf_MsNgAQvFUWABxp1TO83Z5BbKF8oTPGUD-uJPAGwjP7xOlsiNL8gJKUZL-djaw6_5L3jiJKZny2Nb8hRHOBvvL7M7usJUkNe1neES6l1SJJ1bRmWqaFZVB5_iFLzG7orgHUM-F0MoYmQXvCIYWmgILY9f1SjtWF7-dOrgp7mKh-69ErD4XUemD1lX__jOyYKlZXoxUxMyWjrSfB2OF5P3amPLSWuHH9Et3U4cQBtsT3TwqV7Dbm39Rwew1zBnX3fK_gAB_4Afcoof02N64x8xK95_M8IP_jagtETacclEg_h4jdJQ0QHUrpNU54JqVQuvxGsPPIt8-9LzUXigCcA9HVaVSLVxQQBO6YusPgLfaij6HnLiOP-z2axPPTqCkzrSRlTfVn4U1DrYIsMkrUfGyNS8vSK2zFI3f_-OUl4pMSVVgFgqbAlBXD709By8d8qYH-Ks3wnADNA0-ggY3NM6NkmK3ep4bLBVlWoKaBS0scVwcaNeZKHGIM94E5Zhl3HQ-Q9lR5oXldEjxqu5RdGgZpERVIkJ4u-0pTdVWytsQWPBoHaXzPzhR3eS7p_OsCCutjTGX5Y4OHuGLE-4QgTTlml0ykIs4ivnWDTfUpKyvozrzliPiEd-MMXcS2_0x1cYa0ho07Zwsk_8eNn66GSu0QVM6pAIPhuILHydZpLICCepbXaald58dYitPUc-FbB79Ff3K1CivXR4sSfTdGsBNuqcKb34-xb7TTphHBalOHO7pNvzoB2M6zSSbc43PBC2nAGl8haVtLXj3irHBwbeoiWcVjnqt01M4aOlIo5eRFaX7tAA-tFm00]--></g></svg>
