<svg xmlns="http://www.w3.org/2000/svg" xmlns:xlink="http://www.w3.org/1999/xlink" contentStyleType="text/css" height="1393px" preserveAspectRatio="none" style="width:755px;height:1393px;background:#FFFFFF;" version="1.1" viewBox="0 0 755 1393" width="755px" zoomAndPan="magnify"><defs/><g><!--cluster input--><g id="cluster_input"><path d="M19.5,7 L729.5,7 A12.5,12.5 0 0 1 742,19.5 L742,79.8594 L7,79.8594 L7,19.5 A12.5,12.5 0 0 1 19.5,7 " fill="#F2F2F2" style="stroke:#F2F2F2;stroke-width:1.0;"/><rect fill="none" height="164" rx="12.5" ry="12.5" style="stroke:#000000;stroke-width:0.5;" width="735" x="7" y="7"/><line style="stroke:#000000;stroke-width:0.5;" x1="7" x2="742" y1="79.8594" y2="79.8594"/><line style="stroke:#000000;stroke-width:0.5;" x1="7" x2="742" y1="32.9531" y2="32.9531"/><text fill="#000000" font-family="Fira Code" font-size="18" lengthAdjust="spacing" textLength="46" x="227.5" y="27.708">Input</text><text fill="#000000" font-family="Fira Code" font-size="18" lengthAdjust="spacing" textLength="294" x="12" y="52.1611">- Use `path_*()` functions to help</text><text fill="#000000" font-family="Fira Code" font-size="18" lengthAdjust="spacing" textLength="178" x="12" y="73.1143">create correct paths</text></g><!--cluster wrp--><g id="cluster_wrp"><path d="M97.5,236 L646.5,236 A12.5,12.5 0 0 1 659,248.5 L659,287.9063 L85,287.9063 L85,248.5 A12.5,12.5 0 0 1 97.5,236 " fill="#F2F2F2" style="stroke:#F2F2F2;stroke-width:1.0;"/><rect fill="none" height="944" rx="12.5" ry="12.5" style="stroke:#000000;stroke-width:0.5;" width="574" x="85" y="236"/><line style="stroke:#000000;stroke-width:0.5;" x1="85" x2="659" y1="287.9063" y2="287.9063"/><line style="stroke:#000000;stroke-width:0.5;" x1="85" x2="659" y1="261.9531" y2="261.9531"/><text fill="#000000" font-family="Fira Code" font-size="18" lengthAdjust="spacing" textLength="247" x="248.5" y="257.708">write_resource_properties()</text><text fill="#000000" font-family="Fira Code" font-size="18" lengthAdjust="spacing" textLength="315" x="90" y="281.1611">- Required arg: properties and path</text></g><g id="input.properties"><rect fill="#F2F2F2" height="61.9063" rx="12.5" ry="12.5" style="stroke:#000000;stroke-width:0.5;" width="330" x="23" y="93"/><line style="stroke:#000000;stroke-width:0.5;" x1="23" x2="353" y1="123.9531" y2="123.9531"/><text fill="#000000" font-family="Fira Code" font-size="18" lengthAdjust="spacing" textLength="91" x="142.5" y="114.708">properties</text><text fill="#000000" font-family="Fira Code" font-size="18" lengthAdjust="spacing" textLength="310" x="28" y="145.6611">- Properties objects in JSON format</text></g><g id="input.path"><rect fill="#F2F2F2" height="61.9063" rx="12.5" ry="12.5" style="stroke:#000000;stroke-width:0.5;" width="337" x="388.5" y="93"/><line style="stroke:#000000;stroke-width:0.5;" x1="388.5" x2="725.5" y1="123.9531" y2="123.9531"/><text fill="#000000" font-family="Fira Code" font-size="18" lengthAdjust="spacing" textLength="39" x="537.5" y="114.708">path</text><text fill="#000000" font-family="Fira Code" font-size="18" lengthAdjust="spacing" textLength="317" x="393.5" y="145.6611">- Path to where properties is stored</text></g><text fill="#000000" font-family="Fira Code" font-size="18" lengthAdjust="spacing" textLength="77" x="516.5" y="213.7549">arg_path</text><ellipse cx="555" cy="236" fill="#F2F2F2" rx="6" ry="6" style="stroke:#000000;stroke-width:1.5;"/><text fill="#000000" font-family="Fira Code" font-size="18" lengthAdjust="spacing" textLength="129" x="126" y="213.7549">arg_properties</text><ellipse cx="190.5" cy="236" fill="#F2F2F2" rx="6" ry="6" style="stroke:#000000;stroke-width:1.5;"/><g id="wrp.crp"><rect fill="#F2F2F2" height="166.6719" rx="12.5" ry="12.5" style="stroke:#000000;stroke-width:0.5;" width="270" x="101" y="511"/><line style="stroke:#000000;stroke-width:0.5;" x1="101" x2="371" y1="541.9531" y2="541.9531"/><text fill="#000000" font-family="Fira Code" font-size="18" lengthAdjust="spacing" textLength="250" x="111" y="532.708">check_resource_properties()</text><text fill="#000000" font-family="Fira Code" font-size="18" lengthAdjust="spacing" textLength="232" x="106" y="563.6611">- Required arg: properties</text><text fill="#000000" font-family="Fira Code" font-size="18" lengthAdjust="spacing" textLength="208" x="106" y="584.6143">- Output: JSON or Error</text><text fill="#000000" font-family="Fira Code" font-size="18" lengthAdjust="spacing" textLength="194" x="106" y="605.5674">- Checks that all fields</text><text fill="#000000" font-family="Fira Code" font-size="18" lengthAdjust="spacing" textLength="199" x="118" y="626.5205">and values match spec</text><text fill="#000000" font-family="Fira Code" font-size="18" lengthAdjust="spacing" textLength="198" x="106" y="647.4736">- Checks that required</text><text fill="#000000" font-family="Fira Code" font-size="18" lengthAdjust="spacing" textLength="154" x="118" y="668.4268">fields are present</text></g><g id="wrp.cif"><rect fill="#F2F2F2" height="82.8594" rx="12.5" ry="12.5" style="stroke:#000000;stroke-width:0.5;" width="222" x="421" y="350"/><line style="stroke:#000000;stroke-width:0.5;" x1="421" x2="643" y1="380.9531" y2="380.9531"/><text fill="#000000" font-family="Fira Code" font-size="18" lengthAdjust="spacing" textLength="122" x="471" y="371.708">check_is_file()</text><text fill="#000000" font-family="Fira Code" font-size="18" lengthAdjust="spacing" textLength="180" x="426" y="402.6611">- Required arg: path</text><text fill="#000000" font-family="Fira Code" font-size="18" lengthAdjust="spacing" textLength="202" x="426" y="423.6143">- Output: path or Error</text></g><g id="wrp.rp"><rect fill="#F2F2F2" height="82.8594" rx="12.5" ry="12.5" style="stroke:#000000;stroke-width:0.5;" width="200" x="406" y="553"/><line style="stroke:#000000;stroke-width:0.5;" x1="406" x2="606" y1="583.9531" y2="583.9531"/><text fill="#000000" font-family="Fira Code" font-size="18" lengthAdjust="spacing" textLength="154" x="429" y="574.708">read_properties()</text><text fill="#000000" font-family="Fira Code" font-size="18" lengthAdjust="spacing" textLength="180" x="411" y="605.6611">- Required arg: path</text><text fill="#000000" font-family="Fira Code" font-size="18" lengthAdjust="spacing" textLength="131" x="411" y="626.6143">- Output: JSON</text></g><g id="wrp.jp"><rect fill="#F2F2F2" height="166.6719" rx="12.5" ry="12.5" style="stroke:#000000;stroke-width:0.5;" width="357" x="169.5" y="756"/><line style="stroke:#000000;stroke-width:0.5;" x1="169.5" x2="526.5" y1="786.9531" y2="786.9531"/><text fill="#000000" font-family="Fira Code" font-size="18" lengthAdjust="spacing" textLength="172" x="262" y="777.708">properties.update()</text><text fill="#000000" font-family="Fira Code" font-size="18" lengthAdjust="spacing" textLength="279" x="174.5" y="808.6611">- Required arg: new_properties</text><text fill="#000000" font-family="Fira Code" font-size="18" lengthAdjust="spacing" textLength="131" x="174.5" y="829.6143">- Output: JSON</text><text fill="#000000" font-family="Fira Code" font-size="18" lengthAdjust="spacing" textLength="325" x="174.5" y="850.5674">- New properties overwrite old ones</text><text fill="#000000" font-family="Fira Code" font-size="18" lengthAdjust="spacing" textLength="295" x="174.5" y="871.5205">- Uses built-in `update()` method</text><text fill="#000000" font-family="Fira Code" font-size="18" lengthAdjust="spacing" textLength="337" x="174.5" y="892.4736">- Need to join the resource properties</text><text fill="#000000" font-family="Fira Code" font-size="18" lengthAdjust="spacing" textLength="225" x="186.5" y="913.4268">to the existing properties</text></g><g id="wrp.wj"><rect fill="#F2F2F2" height="82.8594" rx="12.5" ry="12.5" style="stroke:#000000;stroke-width:0.5;" width="342" x="270" y="1001"/><line style="stroke:#000000;stroke-width:0.5;" x1="270" x2="612" y1="1031.9531" y2="1031.9531"/><text fill="#000000" font-family="Fira Code" font-size="18" lengthAdjust="spacing" textLength="105" x="388.5" y="1022.708">write_json()</text><text fill="#000000" font-family="Fira Code" font-size="18" lengthAdjust="spacing" textLength="322" x="275" y="1053.6611">- Required arg: json_object and path</text><text fill="#000000" font-family="Fira Code" font-size="18" lengthAdjust="spacing" textLength="255" x="275" y="1074.6143">- Output: path to created file</text></g><text fill="#000000" font-family="Fira Code" font-size="18" lengthAdjust="spacing" textLength="56" x="412.5" y="1202.708">return</text><ellipse cx="440.5" cy="1180" fill="#F2F2F2" rx="6" ry="6" style="stroke:#000000;stroke-width:1.5;"/><line style="stroke:#000000;stroke-width:1.5;" x1="444.8891" x2="437.1109" y1="1184.3891" y2="1176.6109"/><line style="stroke:#000000;stroke-width:1.5;" x1="444.8891" x2="437.1109" y1="1176.6109" y2="1184.3891"/><path d="M258.5,1259 L623.5,1259 A12.5,12.5 0 0 1 636,1271.5 L636,1315.9063 L246,1315.9063 L246,1271.5 A12.5,12.5 0 0 1 258.5,1259 " fill="#F2F2F2" style="stroke:#F2F2F2;stroke-width:1.0;"/><rect fill="none" height="128.9063" rx="12.5" ry="12.5" style="stroke:#000000;stroke-width:0.5;" width="390" x="246" y="1259"/><line style="stroke:#000000;stroke-width:0.5;" x1="246" x2="636" y1="1315.9063" y2="1315.9063"/><line style="stroke:#000000;stroke-width:0.5;" x1="246" x2="636" y1="1289.9531" y2="1289.9531"/><text fill="#000000" font-family="Fira Code" font-size="18" lengthAdjust="spacing" textLength="61" x="410.5" y="1280.708">Output</text><text fill="#000000" font-family="Fira Code" font-size="18" lengthAdjust="spacing" textLength="365" x="251" y="1306.6611">- The package parent folder is shown as /</text><g id="output.properties_file"><rect fill="#F2F2F2" height="50" rx="12.5" ry="12.5" style="stroke:#000000;stroke-width:0.5;" width="315" x="258" y="1327.9063"/><line style="stroke:#000000;stroke-width:0.5;" x1="258" x2="573" y1="1358.8594" y2="1358.8594"/><text fill="#000000" font-family="Fira Code" font-size="18" lengthAdjust="spacing" textLength="295" x="268" y="1349.6143">/packages/&lt;id&gt;/datapackage.json</text></g><!--link properties to arg_properties--><g id="link_properties_arg_properties"><path d="M188.82,155.06 C189.53,181.01 190.3275,210.3722 190.6875,223.6622 " fill="none" id="properties-to-arg_properties" style="stroke:#000000;stroke-width:1.0;"/><polygon fill="#000000" points="190.85,229.66,194.6048,220.555,190.7146,224.6618,186.6078,220.7716,190.85,229.66" style="stroke:#000000;stroke-width:1.0;"/></g><!--link path to arg_path--><g id="link_path_arg_path"><path d="M556.45,155.06 C555.98,181.01 555.4483,210.371 555.2083,223.661 " fill="none" id="path-to-arg_path" style="stroke:#000000;stroke-width:1.0;"/><polygon fill="#000000" points="555.1,229.66,559.2618,220.7337,555.1903,224.6608,551.2632,220.5892,555.1,229.66" style="stroke:#000000;stroke-width:1.0;"/></g><!--link arg_properties to crp--><g id="link_arg_properties_crp"><path d="M191.64,242.04 C195.27,270.81 212.8888,410.4072 224.8188,504.9472 " fill="none" id="arg_properties-to-crp" style="stroke:#000000;stroke-width:1.0;"/><polygon fill="#000000" points="225.57,510.9,228.4118,501.47,224.944,505.9393,220.4747,502.4716,225.57,510.9" style="stroke:#000000;stroke-width:1.0;"/></g><!--link arg_path to cif--><g id="link_arg_path_cif"><path d="M554.23,242.11 C551.76,258.65 544.6692,305.9563 538.9792,343.9263 " fill="none" id="arg_path-to-cif" style="stroke:#000000;stroke-width:1.0;"/><polygon fill="#000000" points="538.09,349.86,543.3796,341.5522,538.831,344.9152,535.468,340.3666,538.09,349.86" style="stroke:#000000;stroke-width:1.0;"/></g><!--link cif to rp--><g id="link_cif_rp"><path d="M526.74,433.18 C522.23,468.05 516.5298,512.0796 512.0198,546.9396 " fill="none" id="cif-to-rp" style="stroke:#000000;stroke-width:1.0;"/><polygon fill="#000000" points="511.25,552.89,516.3717,544.4776,511.8915,547.9313,508.4378,543.4512,511.25,552.89" style="stroke:#000000;stroke-width:1.0;"/><text fill="#000000" font-family="sans-serif" font-size="14" lengthAdjust="spacing" textLength="78" x="523" y="476.9951">path object</text></g><!--link rp to jp--><g id="link_rp_jp"><path d="M479.55,636.17 C458.38,668.73 431.2601,710.4395 405.0301,750.7895 " fill="none" id="rp-to-jp" style="stroke:#000000;stroke-width:1.0;"/><polygon fill="#000000" points="401.76,755.82,410.0189,750.4543,404.4851,751.6279,403.3115,746.0941,401.76,755.82" style="stroke:#000000;stroke-width:1.0;"/><text fill="#000000" font-family="sans-serif" font-size="14" lengthAdjust="spacing" textLength="80" x="432" y="721.9951">JSON object</text></g><!--link crp to jp--><g id="link_crp_jp"><path d="M256.85,678.27 C261.99,694.41 268.05,710.98 275,726 C279.59,735.93 281.9525,740.8182 287.6525,750.6582 " fill="none" id="crp-to-jp" style="stroke:#000000;stroke-width:1.0;"/><polygon fill="#000000" points="290.66,755.85,289.61,746.0573,288.1538,751.5235,282.6876,750.0672,290.66,755.85" style="stroke:#000000;stroke-width:1.0;"/><text fill="#000000" font-family="sans-serif" font-size="14" lengthAdjust="spacing" textLength="80" x="276" y="721.9951">JSON object</text></g><!--link jp to wj--><g id="link_jp_wj"><path d="M386.23,923.12 C398.65,949.98 409.3706,973.1446 419.7206,995.5146 " fill="none" id="jp-to-wj" style="stroke:#000000;stroke-width:1.0;"/><polygon fill="#000000" points="422.24,1000.96,422.0911,991.1123,420.1405,996.4222,414.8306,994.4715,422.24,1000.96" style="stroke:#000000;stroke-width:1.0;"/><text fill="#000000" font-family="sans-serif" font-size="14" lengthAdjust="spacing" textLength="80" x="409" y="966.9951">JSON object</text></g><!--link cif to wj--><g id="link_cif_wj"><path d="M585.35,433.31 C594.56,442.29 603.31,452.33 610,463 C660.85,544.14 639.05,583.43 624,678 C606,791.12 600.48,823.34 544,923 C527.87,951.46 508.3738,974.9307 487.8138,996.4607 " fill="none" id="cif-to-wj" style="stroke:#000000;stroke-width:1.0;"/><polygon fill="#000000" points="483.67,1000.8,492.7785,997.0536,487.1231,997.1839,486.9928,991.5286,483.67,1000.8" style="stroke:#000000;stroke-width:1.0;"/><text fill="#000000" font-family="sans-serif" font-size="14" lengthAdjust="spacing" textLength="78" x="619" y="721.9951">path object</text></g><!--link wj to return--><g id="link_wj_return"><path d="M441,1084.15 C441,1116.58 441,1152.93 441,1167.67 " fill="none" id="wj-to-return" style="stroke:#000000;stroke-width:1.0;"/><polygon fill="#000000" points="441,1173.67,445,1164.67,441,1168.67,437,1164.67,441,1173.67" style="stroke:#000000;stroke-width:1.0;"/><text fill="#000000" font-family="sans-serif" font-size="14" lengthAdjust="spacing" textLength="78" x="442" y="1127.9951">path object</text></g><!--link return to output--><g id="link_return_output"><path d="M441,1186.04 C441,1198 441,1223.35 441,1252.98 " fill="none" id="return-to-output" style="stroke:#000000;stroke-width:1.0;"/><polygon fill="#000000" points="441,1258.98,445,1249.98,441,1253.98,437,1249.98,441,1258.98" style="stroke:#000000;stroke-width:1.0;"/></g><!--SRC=[XLHBRzim3BxdLt2vh1sG-1uK0OPXX-tG5dlS2YIgJCToRScZvAR3iFy-Kh9Z9_MsNgAQvFUWABu99JO87Z7NoYCKv1eeGsZz9ij87TS74yhkiVD8sjc0DgorQx8XVzMIgr27yKF4onfbx6BXWme8oq-sxS8Ib0SZ9_YrW7JQm0g-C-c-LQ7SlRkwtaFHMHsCinw2WnBhzi5gGe7HZeYPG7BzuYsyfqFNi1uFA_bZJDRI8WM37WJvVlpNFOf8uOVFN-zkeN3Kg20b39QIvS2Knn89fqZ6Wm-EC5_yFXcwwyBWoCLZjDGV1UrRoHXAFwc3_1AhPCewHufmfJjQgSsug4VC-coVtPXyc-KggFxBklBEHgfHrAumDKxq7Ca4t15wrv76tPXuTHqhZzH6XV8hyhxWZywm9L1qs4pDAfl7bYnEoZXZ5vjqSyCkwEUzCpPij-Vn4U1LrYIsMcqlqeSBE4NEg9UwHFtq3rkQMaxM_p4rIKdtjaapu0W-4ZcQn3y88KzUgGAekeR2O9tx1mknCS-gxjW63uukmRUe_r99lH2fImWiIMOAFJU7Yovw9kx5ogLna-vvC6iAuJF5d5dfsnWSRCRUJcoUxZ8oCjx8o4yiVztWsD_vzYR6cRxsEeGYHfE8-FucV2FLkcjvsWUNbJ1MSumMZ-UJKyrozrzlyJWTFVUC51y9y2i4PwS0l80yF7Qc3YjU3_j1pXuQ3ANBfvYiXLT4nSFDDuqmJEQ4IUwSKoIAByO7Om_deyWzaTP4o3I6gJLfb6P3OzVIEvU5C3piIbvrDTCkITebWF5LdtBF9eJrfXMRGzmhqR0eYSaN8lkhZQ7PgoKC7LbP12ycZ7k02-98fEXvBGoV9IDjKLvkVm00]--></g></svg>
