<?xml version="1.0" encoding="us-ascii" standalone="no"?><svg xmlns="http://www.w3.org/2000/svg" xmlns:xlink="http://www.w3.org/1999/xlink" contentStyleType="text/css" height="938px" preserveAspectRatio="none" style="width:744px;height:938px;background:#FFFFFF;" version="1.1" viewBox="0 0 744 938" width="744px" zoomAndPan="magnify"><defs/><g><rect fill="#F2F2F2" height="30.2969" style="stroke:#000000;stroke-width:1.0;" width="10" x="23" y="68.5938"/><rect fill="#F2F2F2" height="30.2969" style="stroke:#000000;stroke-width:1.0;" width="10" x="23" y="356.5625"/><rect fill="#F2F2F2" height="30.2969" style="stroke:#000000;stroke-width:1.0;" width="10" x="23" y="600.2344"/><rect fill="#F2F2F2" height="166.7813" style="stroke:#000000;stroke-width:1.0;" width="10" x="403" y="129.1875"/><rect fill="#F2F2F2" height="120.1875" style="stroke:#000000;stroke-width:1.0;" width="10" x="403" y="433.4531"/><rect fill="#F2F2F2" height="193.7813" style="stroke:#000000;stroke-width:1.0;" width="10" x="403" y="660.8281"/><rect fill="#F2F2F2" height="89.8906" style="stroke:#000000;stroke-width:1.0;" width="10" x="593" y="175.7813"/><rect fill="#F2F2F2" height="73.5938" style="stroke:#000000;stroke-width:1.0;" width="10" x="593" y="750.7188"/><line style="stroke:#000000;stroke-width:0.5;stroke-dasharray:5.0,5.0;" x1="28" x2="28" y1="36.2969" y2="902.9063"/><line style="stroke:#000000;stroke-width:0.5;stroke-dasharray:5.0,5.0;" x1="204.5" x2="204.5" y1="36.2969" y2="902.9063"/><line style="stroke:#000000;stroke-width:0.5;stroke-dasharray:5.0,5.0;" x1="407.5" x2="407.5" y1="36.2969" y2="902.9063"/><line style="stroke:#000000;stroke-width:0.5;stroke-dasharray:5.0,5.0;" x1="597.5" x2="597.5" y1="36.2969" y2="902.9063"/><rect fill="#F2F2F2" height="30.2969" rx="2.5" ry="2.5" style="stroke:#181818;stroke-width:0.5;" width="46" x="5" y="5"/><text fill="#000000" font-family="sans-serif" font-size="14" lengthAdjust="spacing" textLength="32" x="12" y="24.9951">User</text><rect fill="#F2F2F2" height="30.2969" rx="2.5" ry="2.5" style="stroke:#181818;stroke-width:0.5;" width="46" x="5" y="901.9063"/><text fill="#000000" font-family="sans-serif" font-size="14" lengthAdjust="spacing" textLength="32" x="12" y="921.9014">User</text><rect fill="#F2F2F2" height="30.2969" rx="2.5" ry="2.5" style="stroke:#181818;stroke-width:0.5;" width="77" x="166.5" y="5"/><text fill="#000000" font-family="sans-serif" font-size="14" lengthAdjust="spacing" textLength="63" x="173.5" y="24.9951">Frontend</text><rect fill="#F2F2F2" height="30.2969" rx="2.5" ry="2.5" style="stroke:#181818;stroke-width:0.5;" width="77" x="166.5" y="901.9063"/><text fill="#000000" font-family="sans-serif" font-size="14" lengthAdjust="spacing" textLength="63" x="173.5" y="921.9014">Frontend</text><rect fill="#F2F2F2" height="30.2969" rx="2.5" ry="2.5" style="stroke:#181818;stroke-width:0.5;" width="35" x="390.5" y="5"/><text fill="#000000" font-family="sans-serif" font-size="14" lengthAdjust="spacing" textLength="21" x="397.5" y="24.9951">API</text><rect fill="#F2F2F2" height="30.2969" rx="2.5" ry="2.5" style="stroke:#181818;stroke-width:0.5;" width="35" x="390.5" y="901.9063"/><text fill="#000000" font-family="sans-serif" font-size="14" lengthAdjust="spacing" textLength="21" x="397.5" y="921.9014">API</text><rect fill="#F2F2F2" height="30.2969" rx="2.5" ry="2.5" style="stroke:#181818;stroke-width:0.5;" width="75" x="560.5" y="5"/><text fill="#000000" font-family="sans-serif" font-size="14" lengthAdjust="spacing" textLength="61" x="567.5" y="24.9951">Backend</text><rect fill="#F2F2F2" height="30.2969" rx="2.5" ry="2.5" style="stroke:#181818;stroke-width:0.5;" width="75" x="560.5" y="901.9063"/><text fill="#000000" font-family="sans-serif" font-size="14" lengthAdjust="spacing" textLength="61" x="567.5" y="921.9014">Backend</text><rect fill="#F2F2F2" height="30.2969" style="stroke:#000000;stroke-width:1.0;" width="10" x="23" y="68.5938"/><rect fill="#F2F2F2" height="30.2969" style="stroke:#000000;stroke-width:1.0;" width="10" x="23" y="356.5625"/><rect fill="#F2F2F2" height="30.2969" style="stroke:#000000;stroke-width:1.0;" width="10" x="23" y="600.2344"/><rect fill="#F2F2F2" height="166.7813" style="stroke:#000000;stroke-width:1.0;" width="10" x="403" y="129.1875"/><rect fill="#F2F2F2" height="120.1875" style="stroke:#000000;stroke-width:1.0;" width="10" x="403" y="433.4531"/><rect fill="#F2F2F2" height="193.7813" style="stroke:#000000;stroke-width:1.0;" width="10" x="403" y="660.8281"/><rect fill="#F2F2F2" height="89.8906" style="stroke:#000000;stroke-width:1.0;" width="10" x="593" y="175.7813"/><rect fill="#F2F2F2" height="73.5938" style="stroke:#000000;stroke-width:1.0;" width="10" x="593" y="750.7188"/><polygon fill="#000000" points="44,64.5938,34,68.5938,44,72.5938,40,68.5938" style="stroke:#000000;stroke-width:1.0;"/><line style="stroke:#000000;stroke-width:1.0;" x1="38" x2="204" y1="68.5938" y2="68.5938"/><text fill="#000000" font-family="sans-serif" font-size="14" lengthAdjust="spacing" textLength="128" x="50" y="63.292">Show data entry UI</text><polygon fill="#000000" points="193,94.8906,203,98.8906,193,102.8906,197,98.8906" style="stroke:#000000;stroke-width:1.0;"/><line style="stroke:#000000;stroke-width:1.0;" x1="28" x2="199" y1="98.8906" y2="98.8906"/><text fill="#000000" font-family="sans-serif" font-size="14" lengthAdjust="spacing" textLength="92" x="35" y="93.5889">Entering data</text><polygon fill="#000000" points="391,125.1875,401,129.1875,391,133.1875,395,129.1875" style="stroke:#000000;stroke-width:1.0;"/><line style="stroke:#000000;stroke-width:1.0;" x1="205" x2="397" y1="129.1875" y2="129.1875"/><text fill="#000000" font-family="sans-serif" font-size="14" lengthAdjust="spacing" textLength="120" x="212" y="123.8857">Clicked save data</text><polygon fill="#000000" points="581,171.7813,591,175.7813,581,179.7813,585,175.7813" style="stroke:#000000;stroke-width:1.0;"/><line style="stroke:#000000;stroke-width:1.0;" x1="413" x2="587" y1="175.7813" y2="175.7813"/><text fill="#000000" font-family="sans-serif" font-size="14" lengthAdjust="spacing" textLength="97" x="420" y="154.1826">Post data with</text><text fill="#000000" font-family="sans-serif" font-size="14" lengthAdjust="spacing" textLength="115" x="420" y="170.4795">"Incomplete" flag</text><line style="stroke:#000000;stroke-width:1.0;" x1="603" x2="645" y1="222.375" y2="222.375"/><line style="stroke:#000000;stroke-width:1.0;" x1="645" x2="645" y1="222.375" y2="235.375"/><line style="stroke:#000000;stroke-width:1.0;" x1="604" x2="645" y1="235.375" y2="235.375"/><polygon fill="#000000" points="614,231.375,604,235.375,614,239.375,610,235.375" style="stroke:#000000;stroke-width:1.0;"/><text fill="#000000" font-family="sans-serif" font-size="14" lengthAdjust="spacing" textLength="127" x="610" y="200.7764">Create record with</text><text fill="#000000" font-family="sans-serif" font-size="14" lengthAdjust="spacing" textLength="115" x="610" y="217.0732">"Incomplete" flag</text><polygon fill="#000000" points="424,261.6719,414,265.6719,424,269.6719,420,265.6719" style="stroke:#000000;stroke-width:1.0;"/><line style="stroke:#000000;stroke-width:1.0;" x1="418" x2="597" y1="265.6719" y2="265.6719"/><text fill="#000000" font-family="sans-serif" font-size="14" lengthAdjust="spacing" textLength="139" x="430" y="260.3701">Confirm created row</text><polygon fill="#000000" points="216,291.9688,206,295.9688,216,299.9688,212,295.9688" style="stroke:#000000;stroke-width:1.0;"/><line style="stroke:#000000;stroke-width:1.0;" x1="210" x2="407" y1="295.9688" y2="295.9688"/><text fill="#000000" font-family="sans-serif" font-size="14" lengthAdjust="spacing" textLength="144" x="222" y="290.667">Receive confirmation</text><polygon fill="#000000" points="39,322.2656,29,326.2656,39,330.2656,35,326.2656" style="stroke:#000000;stroke-width:1.0;"/><line style="stroke:#000000;stroke-width:1.0;" x1="33" x2="204" y1="326.2656" y2="326.2656"/><text fill="#000000" font-family="sans-serif" font-size="14" lengthAdjust="spacing" textLength="138" x="45" y="320.9639">Display confirmation</text><polygon fill="#000000" points="44,352.5625,34,356.5625,44,360.5625,40,356.5625" style="stroke:#000000;stroke-width:1.0;"/><line style="stroke:#000000;stroke-width:1.0;" x1="38" x2="204" y1="356.5625" y2="356.5625"/><text fill="#000000" font-family="sans-serif" font-size="14" lengthAdjust="spacing" textLength="128" x="50" y="351.2607">Show data entry UI</text><polygon fill="#000000" points="193,382.8594,203,386.8594,193,390.8594,197,386.8594" style="stroke:#000000;stroke-width:1.0;"/><line style="stroke:#000000;stroke-width:1.0;" x1="28" x2="199" y1="386.8594" y2="386.8594"/><text fill="#000000" font-family="sans-serif" font-size="14" lengthAdjust="spacing" textLength="148" x="35" y="381.5576">Continuing data entry</text><polygon fill="#000000" points="391,429.4531,401,433.4531,391,437.4531,395,433.4531" style="stroke:#000000;stroke-width:1.0;"/><line style="stroke:#000000;stroke-width:1.0;" x1="205" x2="397" y1="433.4531" y2="433.4531"/><text fill="#000000" font-family="sans-serif" font-size="14" lengthAdjust="spacing" textLength="88" x="212" y="411.8545">Get previous</text><text fill="#000000" font-family="sans-serif" font-size="14" lengthAdjust="spacing" textLength="142" x="212" y="428.1514">session from user ID</text><line style="stroke:#000000;stroke-width:1.0;" x1="598" x2="640" y1="480.0469" y2="480.0469"/><line style="stroke:#000000;stroke-width:1.0;" x1="640" x2="640" y1="480.0469" y2="493.0469"/><line style="stroke:#000000;stroke-width:1.0;" x1="599" x2="640" y1="493.0469" y2="493.0469"/><polygon fill="#000000" points="609,489.0469,599,493.0469,609,497.0469,605,493.0469" style="stroke:#000000;stroke-width:1.0;"/><text fill="#000000" font-family="sans-serif" font-size="14" lengthAdjust="spacing" textLength="66" x="605" y="458.4482">Check for</text><text fill="#000000" font-family="sans-serif" font-size="14" lengthAdjust="spacing" textLength="123" x="605" y="474.7451">"Incomplete" flags</text><polygon fill="#000000" points="424,519.3438,414,523.3438,424,527.3438,420,523.3438" style="stroke:#000000;stroke-width:1.0;"/><line style="stroke:#000000;stroke-width:1.0;" x1="418" x2="597" y1="523.3438" y2="523.3438"/><text fill="#000000" font-family="sans-serif" font-size="14" lengthAdjust="spacing" textLength="161" x="430" y="518.042">Send "Incomplete" data</text><polygon fill="#000000" points="216,549.6406,206,553.6406,216,557.6406,212,553.6406" style="stroke:#000000;stroke-width:1.0;"/><line style="stroke:#000000;stroke-width:1.0;" x1="210" x2="407" y1="553.6406" y2="553.6406"/><text fill="#000000" font-family="sans-serif" font-size="14" lengthAdjust="spacing" textLength="163" x="222" y="548.3389">Show "Incomplete" data</text><polygon fill="#000000" points="44,596.2344,34,600.2344,44,604.2344,40,600.2344" style="stroke:#000000;stroke-width:1.0;"/><line style="stroke:#000000;stroke-width:1.0;" x1="38" x2="204" y1="600.2344" y2="600.2344"/><text fill="#000000" font-family="sans-serif" font-size="14" lengthAdjust="spacing" textLength="77" x="50" y="578.6357">Request to</text><text fill="#000000" font-family="sans-serif" font-size="14" lengthAdjust="spacing" textLength="134" x="50" y="594.9326">continue data entry</text><polygon fill="#000000" points="193,626.5313,203,630.5313,193,634.5313,197,630.5313" style="stroke:#000000;stroke-width:1.0;"/><line style="stroke:#000000;stroke-width:1.0;" x1="28" x2="199" y1="630.5313" y2="630.5313"/><text fill="#000000" font-family="sans-serif" font-size="14" lengthAdjust="spacing" textLength="136" x="35" y="625.2295">Finish entering data</text><polygon fill="#000000" points="391,656.8281,401,660.8281,391,664.8281,395,660.8281" style="stroke:#000000;stroke-width:1.0;"/><line style="stroke:#000000;stroke-width:1.0;" x1="205" x2="397" y1="660.8281" y2="660.8281"/><text fill="#000000" font-family="sans-serif" font-size="14" lengthAdjust="spacing" textLength="179" x="212" y="655.5264">Clicked "Save and Submit"</text><line style="stroke:#000000;stroke-width:1.0;" x1="413" x2="455" y1="691.125" y2="691.125"/><line style="stroke:#000000;stroke-width:1.0;" x1="455" x2="455" y1="691.125" y2="704.125"/><line style="stroke:#000000;stroke-width:1.0;" x1="414" x2="455" y1="704.125" y2="704.125"/><polygon fill="#000000" points="424,700.125,414,704.125,424,708.125,420,704.125" style="stroke:#000000;stroke-width:1.0;"/><text fill="#000000" font-family="sans-serif" font-size="14" lengthAdjust="spacing" textLength="88" x="420" y="685.8232">Validate data</text><polygon fill="#000000" points="581,746.7188,591,750.7188,581,754.7188,585,750.7188" style="stroke:#000000;stroke-width:1.0;"/><line style="stroke:#000000;stroke-width:1.0;" x1="413" x2="587" y1="750.7188" y2="750.7188"/><text fill="#000000" font-family="sans-serif" font-size="14" lengthAdjust="spacing" textLength="97" x="420" y="729.1201">Post data with</text><text fill="#000000" font-family="sans-serif" font-size="14" lengthAdjust="spacing" textLength="114" x="420" y="745.417">"Completed" flag</text><line style="stroke:#000000;stroke-width:1.0;" x1="603" x2="645" y1="781.0156" y2="781.0156"/><line style="stroke:#000000;stroke-width:1.0;" x1="645" x2="645" y1="781.0156" y2="794.0156"/><line style="stroke:#000000;stroke-width:1.0;" x1="604" x2="645" y1="794.0156" y2="794.0156"/><polygon fill="#000000" points="614,790.0156,604,794.0156,614,798.0156,610,794.0156" style="stroke:#000000;stroke-width:1.0;"/><text fill="#000000" font-family="sans-serif" font-size="14" lengthAdjust="spacing" textLength="95" x="610" y="775.7139">Create record</text><polygon fill="#000000" points="424,820.3125,414,824.3125,424,828.3125,420,824.3125" style="stroke:#000000;stroke-width:1.0;"/><line style="stroke:#000000;stroke-width:1.0;" x1="418" x2="597" y1="824.3125" y2="824.3125"/><text fill="#000000" font-family="sans-serif" font-size="14" lengthAdjust="spacing" textLength="139" x="430" y="819.0107">Confirm created row</text><polygon fill="#000000" points="216,850.6094,206,854.6094,216,858.6094,212,854.6094" style="stroke:#000000;stroke-width:1.0;"/><line style="stroke:#000000;stroke-width:1.0;" x1="210" x2="407" y1="854.6094" y2="854.6094"/><text fill="#000000" font-family="sans-serif" font-size="14" lengthAdjust="spacing" textLength="144" x="222" y="849.3076">Receive confirmation</text><polygon fill="#000000" points="39,880.9063,29,884.9063,39,888.9063,35,884.9063" style="stroke:#000000;stroke-width:1.0;"/><line style="stroke:#000000;stroke-width:1.0;" x1="33" x2="204" y1="884.9063" y2="884.9063"/><text fill="#000000" font-family="sans-serif" font-size="14" lengthAdjust="spacing" textLength="138" x="45" y="879.6045">Display confirmation</text><!--SRC=[lLAnRjim4Dtr5LSj6GBRkuS2ZPCK1Ze4CTB9ovayIKmaKYMFCVptEP8HOYL5awcJ0Bvtf_VUlM_SqK0GYBJ2GD1uDq37F8RrQkNnk6mDT_4G0tdbB9FbfNB3Qk8lHkyUIV7RGzwt6j3Oghg0NwvjIOEna3Q0Z9CFe94H1hGH-_wKmC5v0kxGWhD9J0Z6sMLLZUZPA3EYPQWVP4CD623Etszz5gOprion7tVR_8oZcGDNg9wc6NsegWOMto72vUKQTfqx5eaYrv_WOLl5X0fbiOQRPC7ODZFAc2pFWvlUo58D0P-fm0aHWZva_Cu5BekF4khUrbihMOuzCTNGzDXMGYnqMUO9cS2JSbv_Cf1_8zespZR63w3oh0RlZfE48lwU51aHfmeHMMAUh2VyseInnzCS_tesydysDaxf5Cuyev_4C7fwDYw6lNszT6bTRiZsUXP2H-e96kV_uZsyCx-JSyACTNw28Z3B_yWvCtXFVoB9cTZ1tghYXyxTdDczDTQ4hfJwtuseTwaIA09tyJ0OhYTPwRE6tzWRdQxzbT9iNhNhJphpFxhn0W00]--></g></svg>
