<?xml version="1.0" encoding="us-ascii" standalone="no"?><svg xmlns="http://www.w3.org/2000/svg" xmlns:xlink="http://www.w3.org/1999/xlink" contentStyleType="text/css" height="394px" preserveAspectRatio="none" style="width:645px;height:394px;background:#FFFFFF;" version="1.1" viewBox="0 0 645 394" width="645px" zoomAndPan="magnify"><defs/><g><rect fill="#FFFFFF" height="29.1328" style="stroke:#181818;stroke-width:1.0;" width="10" x="23" y="67.4297"/><rect fill="#FFFFFF" height="186.7969" style="stroke:#181818;stroke-width:1.0;" width="10" x="370" y="125.6953"/><rect fill="#FFFFFF" height="71.2656" style="stroke:#181818;stroke-width:1.0;" width="10" x="533" y="212.0938"/><line style="stroke:#181818;stroke-width:0.5;stroke-dasharray:5.0,5.0;" x1="28" x2="28" y1="36.2969" y2="359.625"/><line style="stroke:#181818;stroke-width:0.5;stroke-dasharray:5.0,5.0;" x1="181.5" x2="181.5" y1="36.2969" y2="359.625"/><line style="stroke:#181818;stroke-width:0.5;stroke-dasharray:5.0,5.0;" x1="374.5" x2="374.5" y1="36.2969" y2="359.625"/><line style="stroke:#181818;stroke-width:0.5;stroke-dasharray:5.0,5.0;" x1="537.5" x2="537.5" y1="36.2969" y2="359.625"/><rect fill="#E2E2F0" height="30.2969" rx="2.5" ry="2.5" style="stroke:#181818;stroke-width:0.5;" width="46" x="5" y="5"/><text fill="#000000" font-family="sans-serif" font-size="14" lengthAdjust="spacing" textLength="32" x="12" y="24.9951">User</text><rect fill="#E2E2F0" height="30.2969" rx="2.5" ry="2.5" style="stroke:#181818;stroke-width:0.5;" width="46" x="5" y="358.625"/><text fill="#000000" font-family="sans-serif" font-size="14" lengthAdjust="spacing" textLength="32" x="12" y="378.6201">User</text><rect fill="#E2E2F0" height="30.2969" rx="2.5" ry="2.5" style="stroke:#181818;stroke-width:0.5;" width="77" x="143.5" y="5"/><text fill="#000000" font-family="sans-serif" font-size="14" lengthAdjust="spacing" textLength="63" x="150.5" y="24.9951">Frontend</text><rect fill="#E2E2F0" height="30.2969" rx="2.5" ry="2.5" style="stroke:#181818;stroke-width:0.5;" width="77" x="143.5" y="358.625"/><text fill="#000000" font-family="sans-serif" font-size="14" lengthAdjust="spacing" textLength="63" x="150.5" y="378.6201">Frontend</text><rect fill="#E2E2F0" height="30.2969" rx="2.5" ry="2.5" style="stroke:#181818;stroke-width:0.5;" width="35" x="357.5" y="5"/><text fill="#000000" font-family="sans-serif" font-size="14" lengthAdjust="spacing" textLength="21" x="364.5" y="24.9951">API</text><rect fill="#E2E2F0" height="30.2969" rx="2.5" ry="2.5" style="stroke:#181818;stroke-width:0.5;" width="35" x="357.5" y="358.625"/><text fill="#000000" font-family="sans-serif" font-size="14" lengthAdjust="spacing" textLength="21" x="364.5" y="378.6201">API</text><rect fill="#E2E2F0" height="30.2969" rx="2.5" ry="2.5" style="stroke:#181818;stroke-width:0.5;" width="75" x="500.5" y="5"/><text fill="#000000" font-family="sans-serif" font-size="14" lengthAdjust="spacing" textLength="61" x="507.5" y="24.9951">Backend</text><rect fill="#E2E2F0" height="30.2969" rx="2.5" ry="2.5" style="stroke:#181818;stroke-width:0.5;" width="75" x="500.5" y="358.625"/><text fill="#000000" font-family="sans-serif" font-size="14" lengthAdjust="spacing" textLength="61" x="507.5" y="378.6201">Backend</text><rect fill="#FFFFFF" height="29.1328" style="stroke:#181818;stroke-width:1.0;" width="10" x="23" y="67.4297"/><rect fill="#FFFFFF" height="186.7969" style="stroke:#181818;stroke-width:1.0;" width="10" x="370" y="125.6953"/><rect fill="#FFFFFF" height="71.2656" style="stroke:#181818;stroke-width:1.0;" width="10" x="533" y="212.0938"/><polygon fill="#181818" points="44,63.4297,34,67.4297,44,71.4297,40,67.4297" style="stroke:#181818;stroke-width:1.0;"/><line style="stroke:#181818;stroke-width:1.0;" x1="38" x2="181" y1="67.4297" y2="67.4297"/><text fill="#000000" font-family="sans-serif" font-size="13" lengthAdjust="spacing" textLength="121" x="50" y="62.3638">Show data entry UI</text><polygon fill="#181818" points="170,92.5625,180,96.5625,170,100.5625,174,96.5625" style="stroke:#181818;stroke-width:1.0;"/><line style="stroke:#181818;stroke-width:1.0;" x1="28" x2="176" y1="96.5625" y2="96.5625"/><text fill="#000000" font-family="sans-serif" font-size="13" lengthAdjust="spacing" textLength="86" x="35" y="91.4966">Entering data</text><polygon fill="#181818" points="358,121.6953,368,125.6953,358,129.6953,362,125.6953" style="stroke:#181818;stroke-width:1.0;"/><line style="stroke:#181818;stroke-width:1.0;" x1="182" x2="364" y1="125.6953" y2="125.6953"/><text fill="#000000" font-family="sans-serif" font-size="13" lengthAdjust="spacing" textLength="169" x="189" y="120.6294">Clicked "Save and Submit"</text><line style="stroke:#181818;stroke-width:1.0;" x1="380" x2="422" y1="154.8281" y2="154.8281"/><line style="stroke:#181818;stroke-width:1.0;" x1="422" x2="422" y1="154.8281" y2="167.8281"/><line style="stroke:#181818;stroke-width:1.0;" x1="381" x2="422" y1="167.8281" y2="167.8281"/><polygon fill="#181818" points="391,163.8281,381,167.8281,391,171.8281,387,167.8281" style="stroke:#181818;stroke-width:1.0;"/><text fill="#000000" font-family="sans-serif" font-size="13" lengthAdjust="spacing" textLength="85" x="387" y="149.7622">Validate data</text><polygon fill="#181818" points="521,208.0938,531,212.0938,521,216.0938,525,212.0938" style="stroke:#181818;stroke-width:1.0;"/><line style="stroke:#181818;stroke-width:1.0;" x1="380" x2="527" y1="212.0938" y2="212.0938"/><text fill="#000000" font-family="sans-serif" font-size="13" lengthAdjust="spacing" textLength="90" x="387" y="191.895">Post data with</text><text fill="#000000" font-family="sans-serif" font-size="13" lengthAdjust="spacing" textLength="107" x="387" y="207.0278">"Completed" flag</text><line style="stroke:#181818;stroke-width:1.0;" x1="543" x2="585" y1="241.2266" y2="241.2266"/><line style="stroke:#181818;stroke-width:1.0;" x1="585" x2="585" y1="241.2266" y2="254.2266"/><line style="stroke:#181818;stroke-width:1.0;" x1="544" x2="585" y1="254.2266" y2="254.2266"/><polygon fill="#181818" points="554,250.2266,544,254.2266,554,258.2266,550,254.2266" style="stroke:#181818;stroke-width:1.0;"/><text fill="#000000" font-family="sans-serif" font-size="13" lengthAdjust="spacing" textLength="88" x="550" y="236.1606">Create record</text><polygon fill="#181818" points="391,279.3594,381,283.3594,391,287.3594,387,283.3594" style="stroke:#181818;stroke-width:1.0;"/><line style="stroke:#181818;stroke-width:1.0;" x1="385" x2="537" y1="283.3594" y2="283.3594"/><text fill="#000000" font-family="sans-serif" font-size="13" lengthAdjust="spacing" textLength="129" x="397" y="278.2935">Confirm created row</text><polygon fill="#181818" points="193,308.4922,183,312.4922,193,316.4922,189,312.4922" style="stroke:#181818;stroke-width:1.0;"/><line style="stroke:#181818;stroke-width:1.0;" x1="187" x2="374" y1="312.4922" y2="312.4922"/><text fill="#000000" font-family="sans-serif" font-size="13" lengthAdjust="spacing" textLength="133" x="199" y="307.4263">Receive confirmation</text><polygon fill="#181818" points="39,337.625,29,341.625,39,345.625,35,341.625" style="stroke:#181818;stroke-width:1.0;"/><line style="stroke:#181818;stroke-width:1.0;" x1="33" x2="181" y1="341.625" y2="341.625"/><text fill="#000000" font-family="sans-serif" font-size="13" lengthAdjust="spacing" textLength="130" x="45" y="336.5591">Display confirmation</text><!--SRC=[LP2zRi8m58LtFyLHbWw8Fa26IYsq4b871A9JbujzarpXs95ZD-BjwpWmPFLt_dnVyEtRbWt48OqSC7KUFRb4rjun1OayWk1uGl0JeaVi67kAX1EFFWNDhqeD5A9e6SX5L9SSKu56fFNxL_0kiZE5DMlsVZoKPnfa3Jv8tvuUSrMgmVOD2PjDZNEN1vbv2RiOxhWSL9ffbcnhVEQk8AujYiMMmujnPoM76bHd-cEGCpYdQo-nKhFY8QpnGrQocPU41pBN4d7qOrow9udThwjslXyiHyvB6qkjohf5dUi2poc1jG_c0KfQNhdphf7GGnUDcM_yR5g-SMBDabVgHKXHl7iUOUPx6GTBznN_1m00]--></g></svg>
