<?xml version="1.0" encoding="us-ascii" standalone="no"?><svg xmlns="http://www.w3.org/2000/svg" xmlns:xlink="http://www.w3.org/1999/xlink" contentStyleType="text/css" height="531px" preserveAspectRatio="none" style="width:539px;height:531px;background:#FFFFFF;" version="1.1" viewBox="0 0 539 531" width="539px" zoomAndPan="magnify"><defs/><g><text fill="#000000" font-family="sans-serif" font-size="14" font-weight="bold" lengthAdjust="spacing" textLength="282" x="127" y="32.9951">User Flow: Table Metadata Creation</text><rect fill="#F1F1F1" height="52.5938" rx="12.5" ry="12.5" style="stroke:#181818;stroke-width:0.5;" width="152" x="193.5" y="48.2969"/><text fill="#000000" font-family="sans-serif" font-size="14" lengthAdjust="spacing" textLength="86" x="203.5" y="71.292">User selects</text><text fill="#000000" font-family="sans-serif" font-size="14" lengthAdjust="spacing" textLength="132" x="203.5" y="87.5889">"Create New Table"</text><rect fill="#F1F1F1" height="36.2969" rx="12.5" ry="12.5" style="stroke:#181818;stroke-width:0.5;" width="517" x="11" y="120.8906"/><text fill="#000000" font-family="sans-serif" font-size="14" lengthAdjust="spacing" textLength="497" x="21" y="143.8857">System shows overlay where user will define table name and description</text><rect fill="#F1F1F1" height="36.2969" rx="12.5" ry="12.5" style="stroke:#181818;stroke-width:0.5;" width="428" x="55.5" y="177.1875"/><text fill="#000000" font-family="sans-serif" font-size="14" lengthAdjust="spacing" textLength="408" x="65.5" y="200.1826">User fills out table name and description and clicks "Create"</text><rect fill="#F1F1F1" height="68.8906" rx="12.5" ry="12.5" style="stroke:#181818;stroke-width:0.5;" width="252" x="143.5" y="316.8701"/><text fill="#000000" font-family="sans-serif" font-size="14" lengthAdjust="spacing" textLength="210" x="153.5" y="339.8652">System shows error message:</text><text fill="#000000" font-family="sans-serif" font-size="14" lengthAdjust="spacing" textLength="200" x="153.5" y="356.1621">"Table with this name already</text><text fill="#000000" font-family="sans-serif" font-size="14" lengthAdjust="spacing" textLength="232" x="153.5" y="372.459">exists. Please rename your table."</text><rect fill="#F1F1F1" height="36.2969" rx="12.5" ry="12.5" style="stroke:#181818;stroke-width:0.5;" width="155" x="192" y="405.7607"/><text fill="#000000" font-family="sans-serif" font-size="14" lengthAdjust="spacing" textLength="135" x="202" y="428.7559">User renames table</text><polygon fill="#F1F1F1" points="61,233.4844,478,233.4844,490,257.9297,478,282.375,61,282.375,49,257.9297,61,233.4844" style="stroke:#181818;stroke-width:0.5;"/><text fill="#000000" font-family="sans-serif" font-size="14" lengthAdjust="spacing" textLength="26" x="273.5" y="295.3701">Yes</text><text fill="#000000" font-family="sans-serif" font-size="14" lengthAdjust="spacing" textLength="4" x="61" y="246.4795">&#160;</text><text fill="#000000" font-family="sans-serif" font-size="14" lengthAdjust="spacing" textLength="417" x="61" y="262.7764">VALIDATION CHECK: Does table with this name already exist?</text><text fill="#000000" font-family="sans-serif" font-size="14" lengthAdjust="spacing" textLength="4" x="61" y="279.0732">&#160;</text><text fill="#000000" font-family="sans-serif" font-size="14" lengthAdjust="spacing" textLength="19" x="30" y="254.6279">No</text><rect fill="#F1F1F1" height="36.2969" rx="12.5" ry="12.5" style="stroke:#181818;stroke-width:0.5;" width="32" x="253.5" y="484.0576"/><text fill="#000000" font-family="sans-serif" font-size="14" lengthAdjust="spacing" textLength="12" x="263.5" y="507.0527">...</text><line style="stroke:#000000;stroke-width:1.0;" x1="269.5" x2="269.5" y1="100.8906" y2="120.8906"/><polygon fill="#000000" points="265.5,110.8906,269.5,120.8906,273.5,110.8906,269.5,114.8906" style="stroke:#000000;stroke-width:1.0;"/><line style="stroke:#000000;stroke-width:1.0;" x1="269.5" x2="269.5" y1="157.1875" y2="177.1875"/><polygon fill="#000000" points="265.5,167.1875,269.5,177.1875,273.5,167.1875,269.5,171.1875" style="stroke:#000000;stroke-width:1.0;"/><line style="stroke:#000000;stroke-width:1.0;" x1="269.5" x2="269.5" y1="385.7607" y2="405.7607"/><polygon fill="#000000" points="265.5,395.7607,269.5,405.7607,273.5,395.7607,269.5,399.7607" style="stroke:#000000;stroke-width:1.0;"/><line style="stroke:#000000;stroke-width:1.0;" x1="269.5" x2="269.5" y1="282.375" y2="316.8701"/><polygon fill="#000000" points="265.5,306.8701,269.5,316.8701,273.5,306.8701,269.5,310.8701" style="stroke:#000000;stroke-width:1.0;"/><line style="stroke:#000000;stroke-width:1.0;" x1="269.5" x2="269.5" y1="442.0576" y2="452.0576"/><line style="stroke:#000000;stroke-width:1.0;" x1="269.5" x2="502" y1="452.0576" y2="452.0576"/><polygon fill="#000000" points="498,370.5928,502,360.5928,506,370.5928,502,366.5928" style="stroke:#000000;stroke-width:1.0;"/><line style="stroke:#000000;stroke-width:1.0;" x1="502" x2="502" y1="257.9297" y2="452.0576"/><line style="stroke:#000000;stroke-width:1.0;" x1="502" x2="490" y1="257.9297" y2="257.9297"/><polygon fill="#000000" points="500,253.9297,490,257.9297,500,261.9297,496,257.9297" style="stroke:#000000;stroke-width:1.0;"/><line style="stroke:#000000;stroke-width:1.0;" x1="49" x2="37" y1="257.9297" y2="257.9297"/><polygon fill="#000000" points="33,356.5928,37,366.5928,41,356.5928,37,360.5928" style="stroke:#000000;stroke-width:1.0;"/><line style="stroke:#000000;stroke-width:1.0;" x1="37" x2="37" y1="257.9297" y2="464.0576"/><line style="stroke:#000000;stroke-width:1.0;" x1="37" x2="269.5" y1="464.0576" y2="464.0576"/><line style="stroke:#000000;stroke-width:1.0;" x1="269.5" x2="269.5" y1="464.0576" y2="484.0576"/><polygon fill="#000000" points="265.5,474.0576,269.5,484.0576,273.5,474.0576,269.5,478.0576" style="stroke:#000000;stroke-width:1.0;"/><line style="stroke:#000000;stroke-width:1.0;" x1="269.5" x2="269.5" y1="213.4844" y2="233.4844"/><polygon fill="#000000" points="265.5,223.4844,269.5,233.4844,273.5,223.4844,269.5,227.4844" style="stroke:#000000;stroke-width:1.0;"/><!--SRC=[VLBDJiCm3BxlASmksmvhx-q1eGt410ma1XBIBbdghO4qgMANihV7JJkGaDWnzlTdEnTSOeL0Y8LMXB0FleAIkQOiJODgauFXijarX45xn-WuqRvAJ_Xv7VmxQlujHBsqKiQDHcpO8hm85swiRpFOg9qK7f1LeLZ18g1YumKvqRusMFJsdTbyBuIaRYeBn2hmQCAHMvsuUk0ERO0i-X1QYKDRDuxY26jiUzjnte6UZyHO0PM-9V2V6AmwGbjYm6WBhR4M2jmRXz0xEYNxKQwGAkbWwiuq__7R2rw46Zw3ZczjZVuW66B5C6rfX37TkjUh-zNoQhDwNCFYzdfnby7I8msAhHm0k3GqQ5iHA8w0NuRuSkjc89tf6z9C5FyEY27u83iZKWVC8c2yEQCQ4L6P4dYosFs8W15nz4te4oKn_6a1VNi8cuDqKAOTHblxsV-74zpPktVzB4cIVFGD]--></g></svg>