<?xml version="1.0" encoding="us-ascii" standalone="no"?><svg xmlns="http://www.w3.org/2000/svg" xmlns:xlink="http://www.w3.org/1999/xlink" contentStyleType="text/css" height="1100px" preserveAspectRatio="none" style="width:562px;height:1100px;background:#FFFFFF;" version="1.1" viewBox="0 0 562 1100" width="562px" zoomAndPan="magnify"><defs/><g><text fill="#000000" font-family="sans-serif" font-size="14" font-weight="bold" lengthAdjust="spacing" textLength="184" x="187.5" y="32.9951">User Flow: Data Upload</text><rect fill="#F1F1F1" height="36.2969" rx="12.5" ry="12.5" style="stroke:#181818;stroke-width:0.5;" width="32" x="323" y="48.2969"/><text fill="#000000" font-family="sans-serif" font-size="14" lengthAdjust="spacing" textLength="12" x="333" y="71.292">...</text><rect fill="#F1F1F1" height="36.2969" rx="12.5" ry="12.5" style="stroke:#181818;stroke-width:0.5;" width="222" x="228" y="104.5938"/><text fill="#000000" font-family="sans-serif" font-size="14" lengthAdjust="spacing" textLength="202" x="238" y="127.5889">System initialises data upload</text><rect fill="#F1F1F1" height="68.8906" rx="12.5" ry="12.5" style="stroke:#181818;stroke-width:0.5;" width="276" x="201" y="244.2764"/><text fill="#000000" font-family="sans-serif" font-size="14" lengthAdjust="spacing" textLength="256" x="211" y="267.2715">Systems shows "Upload Failed" along</text><text fill="#000000" font-family="sans-serif" font-size="14" lengthAdjust="spacing" textLength="242" x="211" y="283.5684">with description on where data and</text><text fill="#000000" font-family="sans-serif" font-size="14" lengthAdjust="spacing" textLength="130" x="211" y="299.8652">table do not match</text><rect fill="#F1F1F1" height="36.2969" rx="12.5" ry="12.5" style="stroke:#181818;stroke-width:0.5;" width="207" x="235.5" y="391.6621"/><text fill="#000000" font-family="sans-serif" font-size="14" lengthAdjust="spacing" textLength="187" x="245.5" y="414.6572">User clicks "Cancel Upload"</text><ellipse cx="339" cy="457.959" fill="none" rx="10" ry="10" style="stroke:#222222;stroke-width:1.5;"/><line style="stroke:#222222;stroke-width:2.5;" x1="332.8128" x2="345.1872" y1="451.7718" y2="464.1462"/><line style="stroke:#222222;stroke-width:2.5;" x1="345.1872" x2="332.8128" y1="451.7718" y2="464.1462"/><polygon fill="#F1F1F1" points="185.5,333.167,492.5,333.167,504.5,345.167,492.5,357.167,185.5,357.167,173.5,345.167,185.5,333.167" style="stroke:#181818;stroke-width:0.5;"/><text fill="#000000" font-family="sans-serif" font-size="14" lengthAdjust="spacing" textLength="19" x="343" y="370.1621">No</text><text fill="#000000" font-family="sans-serif" font-size="14" lengthAdjust="spacing" textLength="307" x="185.5" y="350.0137">User decides if they want to continue upload</text><text fill="#000000" font-family="sans-serif" font-size="14" lengthAdjust="spacing" textLength="26" x="147.5" y="341.8652">Yes</text><rect fill="#ADD8E6" height="52.5938" rx="12.5" ry="12.5" style="stroke:#181818;stroke-width:0.5;" width="290" x="194" y="504.5879"/><text fill="#000000" font-family="sans-serif" font-size="14" lengthAdjust="spacing" textLength="270" x="204" y="527.583">User edits file and attempts to fix errors</text><text fill="#000000" font-family="sans-serif" font-size="14" lengthAdjust="spacing" textLength="119" x="204" y="543.8799">outside of Sprout</text><rect fill="#F1F1F1" height="36.2969" rx="12.5" ry="12.5" style="stroke:#181818;stroke-width:0.5;" width="339" x="169.5" y="577.1816"/><text fill="#000000" font-family="sans-serif" font-size="14" lengthAdjust="spacing" textLength="319" x="179.5" y="600.1768">User clicks "Upload Edited/New Version of File"</text><rect fill="#F1F1F1" height="36.2969" rx="12.5" ry="12.5" style="stroke:#181818;stroke-width:0.5;" width="301" x="188.5" y="633.4785"/><text fill="#000000" font-family="sans-serif" font-size="14" lengthAdjust="spacing" textLength="281" x="198.5" y="656.4736">System shows UI where user can add file</text><rect fill="#F1F1F1" height="36.2969" rx="12.5" ry="12.5" style="stroke:#181818;stroke-width:0.5;" width="290" x="194" y="689.7754"/><text fill="#000000" font-family="sans-serif" font-size="14" lengthAdjust="spacing" textLength="270" x="204" y="712.7705">User selects file and clicks "Upload File"</text><polygon fill="#F1F1F1" points="166,160.8906,512,160.8906,524,185.3359,512,209.7813,166,209.7813,154,185.3359,166,160.8906" style="stroke:#181818;stroke-width:0.5;"/><text fill="#000000" font-family="sans-serif" font-size="14" lengthAdjust="spacing" textLength="106" x="343" y="222.7764">Validation failed</text><text fill="#000000" font-family="sans-serif" font-size="14" lengthAdjust="spacing" textLength="4" x="166" y="173.8857">&#160;</text><text fill="#000000" font-family="sans-serif" font-size="14" lengthAdjust="spacing" textLength="346" x="166" y="190.1826">VALIDATION CHECK: Check if table and data match</text><text fill="#000000" font-family="sans-serif" font-size="14" lengthAdjust="spacing" textLength="4" x="166" y="206.4795">&#160;</text><text fill="#000000" font-family="sans-serif" font-size="14" lengthAdjust="spacing" textLength="144" x="10" y="182.0342">Validation successful</text><rect fill="#F1F1F1" height="36.2969" rx="12.5" ry="12.5" style="stroke:#181818;stroke-width:0.5;" width="207" x="235.5" y="884.0518"/><text fill="#000000" font-family="sans-serif" font-size="14" lengthAdjust="spacing" textLength="187" x="245.5" y="907.0469">User clicks "Cancel Upload"</text><ellipse cx="339" cy="950.3486" fill="none" rx="10" ry="10" style="stroke:#222222;stroke-width:1.5;"/><line style="stroke:#222222;stroke-width:2.5;" x1="332.8128" x2="345.1872" y1="944.1614" y2="956.5358"/><line style="stroke:#222222;stroke-width:2.5;" x1="345.1872" x2="332.8128" y1="944.1614" y2="956.5358"/><polygon fill="#F1F1F1" points="231,768.0723,447,768.0723,459,808.8145,447,849.5566,231,849.5566,219,808.8145,231,768.0723" style="stroke:#181818;stroke-width:0.5;"/><text fill="#000000" font-family="sans-serif" font-size="14" lengthAdjust="spacing" textLength="19" x="343" y="862.5518">No</text><text fill="#000000" font-family="sans-serif" font-size="14" lengthAdjust="spacing" textLength="4" x="231" y="781.0674">&#160;</text><text fill="#000000" font-family="sans-serif" font-size="14" lengthAdjust="spacing" textLength="212" x="231" y="797.3643">System displays the number of</text><text fill="#000000" font-family="sans-serif" font-size="14" lengthAdjust="spacing" textLength="186" x="231" y="813.6611">successfully validated rows</text><text fill="#000000" font-family="sans-serif" font-size="14" lengthAdjust="spacing" textLength="178" x="231" y="829.958">to the user for agreement</text><text fill="#000000" font-family="sans-serif" font-size="14" lengthAdjust="spacing" textLength="4" x="231" y="846.2549">&#160;</text><text fill="#000000" font-family="sans-serif" font-size="14" lengthAdjust="spacing" textLength="26" x="193" y="805.5127">Yes</text><rect fill="#F1F1F1" height="52.5938" rx="12.5" ry="12.5" style="stroke:#181818;stroke-width:0.5;" width="316" x="181" y="980.3486"/><text fill="#000000" font-family="sans-serif" font-size="14" lengthAdjust="spacing" textLength="296" x="191" y="1003.3438">User confirms by clicking: "Confirm Number</text><text fill="#000000" font-family="sans-serif" font-size="14" lengthAdjust="spacing" textLength="248" x="191" y="1019.6406">of Rows to Upload and Upload Data"</text><rect fill="#98FB98" height="36.2969" rx="12.5" ry="12.5" style="stroke:#181818;stroke-width:0.5;" width="365" x="156.5" y="1052.9424"/><text fill="#000000" font-family="sans-serif" font-size="14" lengthAdjust="spacing" textLength="345" x="166.5" y="1075.9375">System displays confirmation: "Upload Successful"</text><line style="stroke:#000000;stroke-width:1.0;" x1="339" x2="339" y1="84.5938" y2="104.5938"/><polygon fill="#000000" points="335,94.5938,339,104.5938,343,94.5938,339,98.5938" style="stroke:#000000;stroke-width:1.0;"/><line style="stroke:#000000;stroke-width:1.0;" x1="339" x2="339" y1="427.959" y2="447.959"/><polygon fill="#000000" points="335,437.959,339,447.959,343,437.959,339,441.959" style="stroke:#000000;stroke-width:1.0;"/><line style="stroke:#000000;stroke-width:1.0;" x1="339" x2="339" y1="357.167" y2="391.6621"/><polygon fill="#000000" points="335,381.6621,339,391.6621,343,381.6621,339,385.6621" style="stroke:#000000;stroke-width:1.0;"/><line style="stroke:#000000;stroke-width:1.0;" x1="173.5" x2="161.5" y1="345.167" y2="345.167"/><polygon fill="#000000" points="157.5,413.1621,161.5,423.1621,165.5,413.1621,161.5,417.1621" style="stroke:#000000;stroke-width:1.0;"/><line style="stroke:#000000;stroke-width:1.0;" x1="161.5" x2="161.5" y1="345.167" y2="489.5879"/><line style="stroke:#000000;stroke-width:1.0;" x1="161.5" x2="339" y1="489.5879" y2="489.5879"/><line style="stroke:#000000;stroke-width:1.0;" x1="339" x2="339" y1="489.5879" y2="504.5879"/><polygon fill="#000000" points="335,494.5879,339,504.5879,343,494.5879,339,498.5879" style="stroke:#000000;stroke-width:1.0;"/><line style="stroke:#000000;stroke-width:1.0;" x1="339" x2="339" y1="313.167" y2="333.167"/><polygon fill="#000000" points="335,323.167,339,333.167,343,323.167,339,327.167" style="stroke:#000000;stroke-width:1.0;"/><line style="stroke:#000000;stroke-width:1.0;" x1="339" x2="339" y1="557.1816" y2="577.1816"/><polygon fill="#000000" points="335,567.1816,339,577.1816,343,567.1816,339,571.1816" style="stroke:#000000;stroke-width:1.0;"/><line style="stroke:#000000;stroke-width:1.0;" x1="339" x2="339" y1="613.4785" y2="633.4785"/><polygon fill="#000000" points="335,623.4785,339,633.4785,343,623.4785,339,627.4785" style="stroke:#000000;stroke-width:1.0;"/><line style="stroke:#000000;stroke-width:1.0;" x1="339" x2="339" y1="669.7754" y2="689.7754"/><polygon fill="#000000" points="335,679.7754,339,689.7754,343,679.7754,339,683.7754" style="stroke:#000000;stroke-width:1.0;"/><line style="stroke:#000000;stroke-width:1.0;" x1="339" x2="339" y1="209.7813" y2="244.2764"/><polygon fill="#000000" points="335,234.2764,339,244.2764,343,234.2764,339,238.2764" style="stroke:#000000;stroke-width:1.0;"/><line style="stroke:#000000;stroke-width:1.0;" x1="339" x2="339" y1="726.0723" y2="736.0723"/><line style="stroke:#000000;stroke-width:1.0;" x1="339" x2="536" y1="736.0723" y2="736.0723"/><polygon fill="#000000" points="532,484.5879,536,474.5879,540,484.5879,536,480.5879" style="stroke:#000000;stroke-width:1.0;"/><line style="stroke:#000000;stroke-width:1.0;" x1="536" x2="536" y1="185.3359" y2="736.0723"/><line style="stroke:#000000;stroke-width:1.0;" x1="536" x2="524" y1="185.3359" y2="185.3359"/><polygon fill="#000000" points="534,181.3359,524,185.3359,534,189.3359,530,185.3359" style="stroke:#000000;stroke-width:1.0;"/><line style="stroke:#000000;stroke-width:1.0;" x1="154" x2="137.5" y1="185.3359" y2="185.3359"/><polygon fill="#000000" points="133.5,470.5879,137.5,480.5879,141.5,470.5879,137.5,474.5879" style="stroke:#000000;stroke-width:1.0;"/><line style="stroke:#000000;stroke-width:1.0;" x1="137.5" x2="137.5" y1="185.3359" y2="748.0723"/><line style="stroke:#000000;stroke-width:1.0;" x1="137.5" x2="339" y1="748.0723" y2="748.0723"/><line style="stroke:#000000;stroke-width:1.0;" x1="339" x2="339" y1="748.0723" y2="768.0723"/><polygon fill="#000000" points="335,758.0723,339,768.0723,343,758.0723,339,762.0723" style="stroke:#000000;stroke-width:1.0;"/><line style="stroke:#000000;stroke-width:1.0;" x1="339" x2="339" y1="140.8906" y2="160.8906"/><polygon fill="#000000" points="335,150.8906,339,160.8906,343,150.8906,339,154.8906" style="stroke:#000000;stroke-width:1.0;"/><line style="stroke:#000000;stroke-width:1.0;" x1="339" x2="339" y1="920.3486" y2="940.3486"/><polygon fill="#000000" points="335,930.3486,339,940.3486,343,930.3486,339,934.3486" style="stroke:#000000;stroke-width:1.0;"/><line style="stroke:#000000;stroke-width:1.0;" x1="339" x2="339" y1="849.5566" y2="884.0518"/><polygon fill="#000000" points="335,874.0518,339,884.0518,343,874.0518,339,878.0518" style="stroke:#000000;stroke-width:1.0;"/><line style="stroke:#000000;stroke-width:1.0;" x1="219" x2="207" y1="808.8145" y2="808.8145"/><polygon fill="#000000" points="203,891.1807,207,901.1807,211,891.1807,207,895.1807" style="stroke:#000000;stroke-width:1.0;"/><line style="stroke:#000000;stroke-width:1.0;" x1="207" x2="207" y1="808.8145" y2="965.3486"/><line style="stroke:#000000;stroke-width:1.0;" x1="207" x2="339" y1="965.3486" y2="965.3486"/><line style="stroke:#000000;stroke-width:1.0;" x1="339" x2="339" y1="965.3486" y2="980.3486"/><polygon fill="#000000" points="335,970.3486,339,980.3486,343,970.3486,339,974.3486" style="stroke:#000000;stroke-width:1.0;"/><line style="stroke:#000000;stroke-width:1.0;" x1="339" x2="339" y1="1032.9424" y2="1052.9424"/><polygon fill="#000000" points="335,1042.9424,339,1052.9424,343,1042.9424,339,1046.9424" style="stroke:#000000;stroke-width:1.0;"/><!--SRC=[XLFBRjim4BphAxRE8V4Xzbq-fKw21WrSeAuD5F259bSM6ueKo5LL_tsN3pjE0hI600khtPdXpF8JjTWX14GbHK1elEkW9Uf3FPzxCSuEcjfXFmJqqbb2IpFfklcf_xRtxXTAUYqal7adjAqgqcGGDZmBZyQDDTmB4h3fZHEggkhPRBQehgNhDQfC76bk6swTzKDd893mL5shE3MagLAgryT0s86schGmEc20Ywv5DRQQcMzsTdlt_7H_z-FfsmgMNnwMNsjOjYXVG3T0OiyzmgeysWcIxSvEGGUusJ8eLxMpq0Y6KjCAeB062AqR0qpoGU0nDKn066SFEpkoOQ0mIA_x1C3FsAB7JCDyEvkfbGFhA1Cl61-Wo4wEAPIQOPBI5eym2aj03c8CsWvOpfhrhjmq0SHVdSQbqVA5HIw5bMYAwPF5kGkjgih_YVOdXcbik7hMXvO-cm4p52fD0HfTt1B49lHSOJ6D_WFelVDXPzr0WHM3Qs3DQp5Gn7ehfZZsm82evYiSOOi-99CQU6I29F2KRhPvyrJi6nAIi22KIceMS2O8Q7WBBqI-OopO5uUzI3WCKc88pM2c5vjJH2WTUYEE8OO0TkZspCPYT_ProXpXTqRZFVPHCoViqa3It3WFuk2HBuQbquRbnFwNLKpfGq9boDb6Uzx6_J43Q7ke6IENOPMaSYeDV8-IM53n8jfJNkDzP9whNXYC0ctz_jI59HbLd-rSdy_Eqs_kPnJyhoiTl_y5]--></g></svg>