<?xml version="1.0" encoding="us-ascii" standalone="no"?><svg xmlns="http://www.w3.org/2000/svg" xmlns:xlink="http://www.w3.org/1999/xlink" contentStyleType="text/css" height="1167px" preserveAspectRatio="none" style="width:759px;height:1167px;background:#FFFFFF;" version="1.1" viewBox="0 0 759 1167" width="759px" zoomAndPan="magnify"><defs/><g><!--cluster input--><g id="cluster_input"><path d="M85.5,7 L733.5,7 A12.5,12.5 0 0 1 746,19.5 L746,58.9063 L73,58.9063 L73,19.5 A12.5,12.5 0 0 1 85.5,7 " fill="#F2F2F2" style="stroke:#F2F2F2;stroke-width:1.0;"/><rect fill="none" height="164" rx="12.5" ry="12.5" style="stroke:#000000;stroke-width:0.5;" width="673" x="73" y="7"/><line style="stroke:#000000;stroke-width:0.5;" x1="73" x2="746" y1="58.9063" y2="58.9063"/><line style="stroke:#000000;stroke-width:0.5;" x1="73" x2="746" y1="32.9531" y2="32.9531"/><text fill="#000000" font-family="Fira Code" font-size="18" lengthAdjust="spacing" textLength="46" x="176.5" y="27.708">Input</text><text fill="#000000" font-family="Fira Code" font-size="18" lengthAdjust="spacing" textLength="466" x="78" y="52.1611">- `path_*()` functions assist with giving correct paths</text></g><!--cluster crp--><g id="cluster_crp"><path d="M19.5,236 L712.5,236 A12.5,12.5 0 0 1 725,248.5 L725,287.9063 L7,287.9063 L7,248.5 A12.5,12.5 0 0 1 19.5,236 " fill="#F2F2F2" style="stroke:#F2F2F2;stroke-width:1.0;"/><rect fill="none" height="669" rx="12.5" ry="12.5" style="stroke:#000000;stroke-width:0.5;" width="718" x="7" y="236"/><line style="stroke:#000000;stroke-width:0.5;" x1="7" x2="725" y1="287.9063" y2="287.9063"/><line style="stroke:#000000;stroke-width:0.5;" x1="7" x2="725" y1="261.9531" y2="261.9531"/><text fill="#000000" font-family="Fira Code" font-size="18" lengthAdjust="spacing" textLength="256" x="238" y="257.708">create_resource_properties()</text><text fill="#000000" font-family="Fira Code" font-size="18" lengthAdjust="spacing" textLength="375" x="12" y="281.1611">- Required arg: path and properties object</text></g><g id="input.path"><rect fill="#F2F2F2" height="61.9063" rx="12.5" ry="12.5" style="stroke:#000000;stroke-width:0.5;" width="289" x="88.5" y="82.5"/><line style="stroke:#000000;stroke-width:0.5;" x1="88.5" x2="377.5" y1="113.4531" y2="113.4531"/><text fill="#000000" font-family="Fira Code" font-size="18" lengthAdjust="spacing" textLength="39" x="213.5" y="104.208">path</text><text fill="#000000" font-family="Fira Code" font-size="18" lengthAdjust="spacing" textLength="269" x="93.5" y="135.1611">- Path to resource &lt;id&gt; folder</text></g><g id="input.properties"><rect fill="#F2F2F2" height="82.8594" rx="12.5" ry="12.5" style="stroke:#000000;stroke-width:0.5;" width="318" x="412" y="72"/><line style="stroke:#000000;stroke-width:0.5;" x1="412" x2="730" y1="102.9531" y2="102.9531"/><text fill="#000000" font-family="Fira Code" font-size="18" lengthAdjust="spacing" textLength="91" x="525.5" y="93.708">properties</text><text fill="#000000" font-family="Fira Code" font-size="18" lengthAdjust="spacing" textLength="259" x="417" y="124.6611">- JSON object of the resource</text><text fill="#000000" font-family="Fira Code" font-size="18" lengthAdjust="spacing" textLength="286" x="429" y="145.6143">following the Data Package spec</text></g><text fill="#000000" font-family="Fira Code" font-size="18" lengthAdjust="spacing" textLength="77" x="190.5" y="213.7549">arg_path</text><ellipse cx="229" cy="236" fill="#F2F2F2" rx="6" ry="6" style="stroke:#000000;stroke-width:1.5;"/><text fill="#000000" font-family="Fira Code" font-size="18" lengthAdjust="spacing" textLength="129" x="507" y="213.7549">arg_properties</text><ellipse cx="571.5" cy="236" fill="#F2F2F2" rx="6" ry="6" style="stroke:#000000;stroke-width:1.5;"/><g id="crp.vid"><rect fill="#F2F2F2" height="82.8594" rx="12.5" ry="12.5" style="stroke:#000000;stroke-width:0.5;" width="222" x="107" y="367"/><line style="stroke:#000000;stroke-width:0.5;" x1="107" x2="329" y1="397.9531" y2="397.9531"/><text fill="#000000" font-family="Fira Code" font-size="18" lengthAdjust="spacing" textLength="121" x="157.5" y="388.708">verify_is_dir()</text><text fill="#000000" font-family="Fira Code" font-size="18" lengthAdjust="spacing" textLength="180" x="112" y="419.6611">- Required arg: path</text><text fill="#000000" font-family="Fira Code" font-size="18" lengthAdjust="spacing" textLength="202" x="112" y="440.6143">- Output: path or Error</text></g><g id="crp.crrdp"><rect fill="#F2F2F2" height="103.8125" rx="12.5" ry="12.5" style="stroke:#000000;stroke-width:0.5;" width="379" x="22.5" y="528"/><line style="stroke:#000000;stroke-width:0.5;" x1="22.5" x2="401.5" y1="558.9531" y2="558.9531"/><text fill="#000000" font-family="Fira Code" font-size="18" lengthAdjust="spacing" textLength="328" x="48" y="549.708">create_relative_resource_data_path()</text><text fill="#000000" font-family="Fira Code" font-size="18" lengthAdjust="spacing" textLength="359" x="27.5" y="580.6611">- Required arg: absolute path from input</text><text fill="#000000" font-family="Fira Code" font-size="18" lengthAdjust="spacing" textLength="199" x="27.5" y="601.6143">- Output: relative path</text><text fill="#000000" font-family="Fira Code" font-size="18" lengthAdjust="spacing" textLength="293" x="39.5" y="622.5674">(e.g. `resources/1/data.parquet`)</text></g><g id="crp.vrp"><rect fill="#F2F2F2" height="103.8125" rx="12.5" ry="12.5" style="stroke:#000000;stroke-width:0.5;" width="272" x="437" y="528"/><line style="stroke:#000000;stroke-width:0.5;" x1="437" x2="709" y1="558.9531" y2="558.9531"/><text fill="#000000" font-family="Fira Code" font-size="18" lengthAdjust="spacing" textLength="252" x="447" y="549.708">verify_resource_properties()</text><text fill="#000000" font-family="Fira Code" font-size="18" lengthAdjust="spacing" textLength="232" x="442" y="580.6611">- Required arg: properties</text><text fill="#000000" font-family="Fira Code" font-size="18" lengthAdjust="spacing" textLength="208" x="442" y="601.6143">- Output: JSON or Error</text><text fill="#000000" font-family="Fira Code" font-size="18" lengthAdjust="spacing" textLength="188" x="442" y="622.5674">- Checks against spec</text></g><g id="crp.erpf"><rect fill="#F2F2F2" height="82.8594" rx="12.5" ry="12.5" style="stroke:#000000;stroke-width:0.5;" width="370" x="207" y="726"/><line style="stroke:#000000;stroke-width:0.5;" x1="207" x2="577" y1="756.9531" y2="756.9531"/><text fill="#000000" font-family="Fira Code" font-size="18" lengthAdjust="spacing" textLength="281" x="251.5" y="747.708">edit_resource_properties_field()</text><text fill="#000000" font-family="Fira Code" font-size="18" lengthAdjust="spacing" textLength="350" x="212" y="778.6611">- Required args: properties, field, value</text><text fill="#000000" font-family="Fira Code" font-size="18" lengthAdjust="spacing" textLength="131" x="212" y="799.6143">- Output: JSON</text></g><text fill="#000000" font-family="Fira Code" font-size="18" lengthAdjust="spacing" textLength="56" x="363.5" y="927.708">return</text><ellipse cx="391.5" cy="905" fill="#F2F2F2" rx="6" ry="6" style="stroke:#000000;stroke-width:1.5;"/><line style="stroke:#000000;stroke-width:1.5;" x1="395.8891" x2="388.1109" y1="909.3891" y2="901.6109"/><line style="stroke:#000000;stroke-width:1.5;" x1="395.8891" x2="388.1109" y1="901.6109" y2="909.3891"/><path d="M211,984 L573,984 A12.5,12.5 0 0 1 585.5,996.5 L585.5,1014.9531 L198.5,1014.9531 L198.5,996.5 A12.5,12.5 0 0 1 211,984 " fill="#F2F2F2" style="stroke:#F2F2F2;stroke-width:1.0;"/><rect fill="none" height="177.7188" rx="12.5" ry="12.5" style="stroke:#000000;stroke-width:0.5;" width="387" x="198.5" y="984"/><line style="stroke:#000000;stroke-width:0.5;" x1="198.5" x2="585.5" y1="1014.9531" y2="1014.9531"/><text fill="#000000" font-family="Fira Code" font-size="18" lengthAdjust="spacing" textLength="61" x="361.5" y="1005.708">Output</text><g id="output.json_output"><rect fill="#F2F2F2" height="124.7656" rx="12.5" ry="12.5" style="stroke:#000000;stroke-width:0.5;" width="366" x="210.5" y="1026.9531"/><line style="stroke:#000000;stroke-width:0.5;" x1="210.5" x2="576.5" y1="1057.9063" y2="1057.9063"/><text fill="#000000" font-family="Fira Code" font-size="18" lengthAdjust="spacing" textLength="45" x="371" y="1048.6611">JSON</text><text fill="#000000" font-family="Fira Code" font-size="18" lengthAdjust="spacing" textLength="346" x="215.5" y="1079.6143">- JSON object of the resource following</text><text fill="#000000" font-family="Fira Code" font-size="18" lengthAdjust="spacing" textLength="199" x="227.5" y="1100.5674">the Data Package spec</text><text fill="#000000" font-family="Fira Code" font-size="18" lengthAdjust="spacing" textLength="341" x="215.5" y="1121.5205">- Use `write_resource_properties()` to</text><text fill="#000000" font-family="Fira Code" font-size="18" lengthAdjust="spacing" textLength="285" x="227.5" y="1142.4736">save back to `datapackage.json`</text></g><!--link path to arg_path--><g id="link_path_arg_path"><path d="M232,144.6 C231.04,173.6 229.8576,209.1533 229.3776,223.7233 " fill="none" id="path-to-arg_path" style="stroke:#000000;stroke-width:1.0;"/><polygon fill="#000000" points="229.18,229.72,233.4742,220.8566,229.3446,224.7227,225.4785,220.5932,229.18,229.72" style="stroke:#000000;stroke-width:1.0;"/></g><!--link properties to arg_properties--><g id="link_properties_arg_properties"><path d="M571.34,155.3 C571.57,183.15 571.798,211.2302 571.908,223.9202 " fill="none" id="properties-to-arg_properties" style="stroke:#000000;stroke-width:1.0;"/><polygon fill="#000000" points="571.96,229.92,575.8818,220.8857,571.9167,224.9202,567.8821,220.955,571.96,229.92" style="stroke:#000000;stroke-width:1.0;"/></g><!--link arg_path to vid--><g id="link_arg_path_vid"><path d="M228.66,242.29 C227.46,260.84 223.7662,318.1224 221.0162,360.7624 " fill="none" id="arg_path-to-vid" style="stroke:#000000;stroke-width:1.0;"/><polygon fill="#000000" points="220.63,366.75,225.2009,358.0261,220.9518,361.7604,217.2175,357.5112,220.63,366.75" style="stroke:#000000;stroke-width:1.0;"/><text fill="#000000" font-family="sans-serif" font-size="14" lengthAdjust="spacing" textLength="78" x="226" y="297.9951">path object</text></g><!--link vid to crrdp--><g id="link_vid_crrdp"><path d="M162.4,450.37 C154.1,459.15 146.75,469.11 142,480 C134.76,496.59 136.7938,508.3267 147.3238,523.0767 " fill="none" id="vid-to-crrdp" style="stroke:#000000;stroke-width:1.0;"/><polygon fill="#000000" points="150.81,527.96,148.8363,518.3109,147.9049,523.8906,142.3252,522.9592,150.81,527.96" style="stroke:#000000;stroke-width:1.0;"/><text fill="#000000" font-family="sans-serif" font-size="14" lengthAdjust="spacing" textLength="78" x="143" y="493.9951">path object</text></g><!--link arg_properties to vrp--><g id="link_arg_properties_vrp"><path d="M572.01,242.1 C572.11,273.47 572.5826,435.73 572.8326,521.96 " fill="none" id="arg_properties-to-vrp" style="stroke:#000000;stroke-width:1.0;"/><polygon fill="#000000" points="572.85,527.96,576.8239,518.9484,572.8355,522.96,568.8239,518.9716,572.85,527.96" style="stroke:#000000;stroke-width:1.0;"/><text fill="#000000" font-family="sans-serif" font-size="14" lengthAdjust="spacing" textLength="80" x="573" y="413.4951">JSON object</text></g><!--link crrdp to erpf--><g id="link_crrdp_erpf"><path d="M261.66,632.18 C290.28,661.67 321.582,693.9237 348.292,721.4537 " fill="none" id="crrdp-to-erpf" style="stroke:#000000;stroke-width:1.0;"/><polygon fill="#000000" points="352.47,725.76,349.0738,716.5152,348.9883,722.1714,343.3321,722.0859,352.47,725.76" style="stroke:#000000;stroke-width:1.0;"/><text fill="#000000" font-family="sans-serif" font-size="14" lengthAdjust="spacing" textLength="99" x="324" y="675.9951">Update `path`</text><text fill="#000000" font-family="sans-serif" font-size="14" lengthAdjust="spacing" textLength="58" x="344.5" y="692.292">property</text></g><!--link vrp to erpf--><g id="link_vrp_erpf"><path d="M523.06,632.18 C494.29,661.67 462.8001,693.9354 435.9401,721.4654 " fill="none" id="vrp-to-erpf" style="stroke:#000000;stroke-width:1.0;"/><polygon fill="#000000" points="431.75,725.76,440.8981,722.1115,435.2417,722.1812,435.172,716.5248,431.75,725.76" style="stroke:#000000;stroke-width:1.0;"/><text fill="#000000" font-family="sans-serif" font-size="14" lengthAdjust="spacing" textLength="80" x="494" y="683.9951">JSON object</text></g><!--link erpf to return--><g id="link_erpf_return"><path d="M392,809.15 C392,841.58 392,877.93 392,892.67 " fill="none" id="erpf-to-return" style="stroke:#000000;stroke-width:1.0;"/><polygon fill="#000000" points="392,898.67,396,889.67,392,893.67,388,889.67,392,898.67" style="stroke:#000000;stroke-width:1.0;"/><text fill="#000000" font-family="sans-serif" font-size="14" lengthAdjust="spacing" textLength="80" x="393" y="852.9951">JSON object</text></g><!--link return to output--><g id="link_return_output"><path d="M392,911.15 C392,922.86 392,946.88 392,977.86 " fill="none" id="return-to-output" style="stroke:#000000;stroke-width:1.0;"/><polygon fill="#000000" points="392,983.86,396,974.86,392,978.86,388,974.86,392,983.86" style="stroke:#000000;stroke-width:1.0;"/></g><!--SRC=[XLHDRzim3BtdLt2vh1sQ1Bi6HO1Yss4xhCM6tWhOYaqxQXF9fMXdmT3_Fb6MFv8cM0wnR3u-laTA-i0Rt24un3nJ3g4WkuCDS-MMYmMf_RpKlAdNjKFAh64qFC_iRj7XPnNPPynu-13u5ZkbpMJYM372zBkfQfw2Sg1b1Nyd45TBc45QATuadwwkKoXgax6sndciquvXxuj3gHjjIiWiaQy40dUJZt17PRtpUXpCvESv9H8e7sJ15WYThIb3kDNv2WgxpP44HxP2OerEm3z-t_y4knONO0lm-lky9mEIjRLx4I2HhugLfyzULEcRLc4sUUjjtjVS-RHX6Op6e5G9eMTdJTB6VNJq1lyHCoWHMUV5l2Tyz3DDzwGPauue6VnBqzaAdrCDmjfpIT_It3DNBV5S6DEHpOnGNM8B3ZEgWdDvYeHV-5fhmXmKbSjsIChaeob4mvE-MnwO1DpjhHym7HwiDhnQ7SU7z1DKjnDcirNFT3Jr8T9_6cfF6oHT71BjabnJjDJet0Fy_mL3es2x2w9FI_2DoCgcwpr9yHRSGawy3_tTAjRDgD4ob43HzvdoAlJPFyy8KsjdjxMd37N2mGwdxYYbazkL2s3P45SuB-UGTjNTulD21CmhHQyrSdeTFOkTZkwyeTZGonkc8R7HdDykmuW6I2UwFIr3ZxlubmrcB_uIAVqjv6-HU3HETasOGqWO7RgHRCmrdnET51gtUPIEL1K-HHxlnBkn-Xi8QJVGg6sDuvIncNuq8YuY7gjSz8HhCdqoaV8GxOw0vsqGSarcAeVaZ-RX98KaoMu19_dGVHP4lAtU_W40]--></g></svg>