<svg xmlns="http://www.w3.org/2000/svg" xmlns:xlink="http://www.w3.org/1999/xlink" contentStyleType="text/css" height="1340px" preserveAspectRatio="none" style="width:758px;height:1340px;background:#FFFFFF;" version="1.1" viewBox="0 0 758 1340" width="758px" zoomAndPan="magnify"><defs/><g><!--cluster input--><g id="cluster_input"><path d="M19.5,7 L732.5,7 A12.5,12.5 0 0 1 745,19.5 L745,58.9063 L7,58.9063 L7,19.5 A12.5,12.5 0 0 1 19.5,7 " fill="#F2F2F2" style="stroke:#F2F2F2;stroke-width:1.0;"/><rect fill="none" height="206" rx="12.5" ry="12.5" style="stroke:#000000;stroke-width:0.5;" width="738" x="7" y="7"/><line style="stroke:#000000;stroke-width:0.5;" x1="7" x2="745" y1="58.9063" y2="58.9063"/><line style="stroke:#000000;stroke-width:0.5;" x1="7" x2="745" y1="32.9531" y2="32.9531"/><text fill="#000000" font-family="Fira Code" font-size="18" lengthAdjust="spacing" textLength="46.6084" x="137" y="27.708">Input</text><text fill="#000000" font-family="Fira Code" font-size="18" lengthAdjust="spacing" textLength="478.7842" x="12" y="52.1611">- `path_*()` functions assist with giving correct paths</text></g><!--cluster cps--><g id="cluster_cps"><path d="M133.5,295 L672.5,295 A12.5,12.5 0 0 1 685,307.5 L685,388.8125 L121,388.8125 L121,307.5 A12.5,12.5 0 0 1 133.5,295 " fill="#F2F2F2" style="stroke:#F2F2F2;stroke-width:1.0;"/><rect fill="none" height="783" rx="12.5" ry="12.5" style="stroke:#000000;stroke-width:0.5;" width="564" x="121" y="295"/><line style="stroke:#000000;stroke-width:0.5;" x1="121" x2="685" y1="388.8125" y2="388.8125"/><line style="stroke:#000000;stroke-width:0.5;" x1="121" x2="685" y1="320.9531" y2="320.9531"/><text fill="#000000" font-family="Fira Code" font-size="18" lengthAdjust="spacing" textLength="258.1348" x="273.9326" y="316.708">create_package_properties()</text><text fill="#000000" font-family="Fira Code" font-size="18" lengthAdjust="spacing" textLength="319.377" x="126" y="340.1611">- Required arg: path and properties</text><text fill="#000000" font-family="Fira Code" font-size="18" lengthAdjust="spacing" textLength="512.042" x="126" y="361.1143">- Takes previously created properties template and adds</text><text fill="#000000" font-family="Fira Code" font-size="18" lengthAdjust="spacing" textLength="520.9102" x="137.4434" y="382.0674">(at least) the required properties for a valid data package</text></g><g id="input.path"><rect fill="#F2F2F2" height="124.7656" rx="12.5" ry="12.5" style="stroke:#000000;stroke-width:0.5;" width="345.5732" x="23" y="72"/><line style="stroke:#000000;stroke-width:0.5;" x1="23" x2="368.5732" y1="102.9531" y2="102.9531"/><text fill="#000000" font-family="Fira Code" font-size="18" lengthAdjust="spacing" textLength="40.9219" x="175.3257" y="93.708">path</text><text fill="#000000" font-family="Fira Code" font-size="18" lengthAdjust="spacing" textLength="292.5879" x="28" y="124.6611">- Path to `datapackage.json` file</text><text fill="#000000" font-family="Fira Code" font-size="18" lengthAdjust="spacing" textLength="261.9844" x="39.4434" y="145.6143">in the package `&lt;id&gt;` folder</text><text fill="#000000" font-family="Fira Code" font-size="18" lengthAdjust="spacing" textLength="325.5732" x="28" y="166.5674">- User may or may not have directly</text><text fill="#000000" font-family="Fira Code" font-size="18" lengthAdjust="spacing" textLength="175.5439" x="39.4434" y="187.5205">edited the JSON file</text></g><g id="input.properties"><rect fill="#F2F2F2" height="82.8594" rx="12.5" ry="12.5" style="stroke:#000000;stroke-width:0.5;" width="325.2793" x="404.5" y="93"/><line style="stroke:#000000;stroke-width:0.5;" x1="404.5" x2="729.7793" y1="123.9531" y2="123.9531"/><text fill="#000000" font-family="Fira Code" font-size="18" lengthAdjust="spacing" textLength="92.25" x="521.0146" y="114.708">properties</text><text fill="#000000" font-family="Fira Code" font-size="18" lengthAdjust="spacing" textLength="258.1348" x="409.5" y="145.6611">- JSON object of the package</text><text fill="#000000" font-family="Fira Code" font-size="18" lengthAdjust="spacing" textLength="293.8359" x="420.9434" y="166.6143">following the Data Package spec</text></g><text fill="#000000" font-family="Fira Code" font-size="18" lengthAdjust="spacing" textLength="79.7783" x="159.6108" y="272.7549">arg_path</text><ellipse cx="199.5" cy="295" fill="#F2F2F2" rx="6" ry="6" style="stroke:#000000;stroke-width:1.5;"/><text fill="#000000" font-family="Fira Code" font-size="18" lengthAdjust="spacing" textLength="131.1064" x="499.4468" y="272.7549">arg_properties</text><ellipse cx="565" cy="295" fill="#F2F2F2" rx="6" ry="6" style="stroke:#000000;stroke-width:1.5;"/><g id="cps.vif"><rect fill="#F2F2F2" height="82.8594" rx="12.5" ry="12.5" style="stroke:#000000;stroke-width:0.5;" width="221.8936" x="143" y="451"/><line style="stroke:#000000;stroke-width:0.5;" x1="143" x2="364.8936" y1="481.9531" y2="481.9531"/><text fill="#000000" font-family="Fira Code" font-size="18" lengthAdjust="spacing" textLength="124.9541" x="191.4697" y="472.708">verify_is_file()</text><text fill="#000000" font-family="Fira Code" font-size="18" lengthAdjust="spacing" textLength="181.8193" x="148" y="503.6611">- Required arg: path</text><text fill="#000000" font-family="Fira Code" font-size="18" lengthAdjust="spacing" textLength="201.8936" x="148" y="524.6143">- Output: path or Error</text></g><g id="cps.vpp"><rect fill="#F2F2F2" height="166.6719" rx="12.5" ry="12.5" style="stroke:#000000;stroke-width:0.5;" width="271.7188" x="396" y="612"/><line style="stroke:#000000;stroke-width:0.5;" x1="396" x2="667.7188" y1="642.9531" y2="642.9531"/><text fill="#000000" font-family="Fira Code" font-size="18" lengthAdjust="spacing" textLength="251.7188" x="406" y="633.708">verify_package_properties()</text><text fill="#000000" font-family="Fira Code" font-size="18" lengthAdjust="spacing" textLength="233.1475" x="401" y="664.6611">- Required arg: properties</text><text fill="#000000" font-family="Fira Code" font-size="18" lengthAdjust="spacing" textLength="205.3389" x="401" y="685.6143">- Output: JSON or Error</text><text fill="#000000" font-family="Fira Code" font-size="18" lengthAdjust="spacing" textLength="199.9336" x="401" y="706.5674">- Checks that all fields</text><text fill="#000000" font-family="Fira Code" font-size="18" lengthAdjust="spacing" textLength="208.2744" x="412.4434" y="727.5205">and values match spec</text><text fill="#000000" font-family="Fira Code" font-size="18" lengthAdjust="spacing" textLength="201.1729" x="401" y="748.4736">- Checks that required</text><text fill="#000000" font-family="Fira Code" font-size="18" lengthAdjust="spacing" textLength="157.9834" x="412.4434" y="769.4268">fields are present</text></g><g id="cps.rp"><rect fill="#F2F2F2" height="82.8594" rx="12.5" ry="12.5" style="stroke:#000000;stroke-width:0.5;" width="201.8193" x="157" y="654"/><line style="stroke:#000000;stroke-width:0.5;" x1="157" x2="358.8193" y1="684.9531" y2="684.9531"/><text fill="#000000" font-family="Fira Code" font-size="18" lengthAdjust="spacing" textLength="156.2256" x="179.7969" y="675.708">read_properties()</text><text fill="#000000" font-family="Fira Code" font-size="18" lengthAdjust="spacing" textLength="181.8193" x="162" y="706.6611">- Required arg: path</text><text fill="#000000" font-family="Fira Code" font-size="18" lengthAdjust="spacing" textLength="130.8955" x="162" y="727.6143">- Output: JSON</text></g><g id="cps.up"><rect fill="#F2F2F2" height="124.7656" rx="12.5" ry="12.5" style="stroke:#000000;stroke-width:0.5;" width="342.3213" x="211" y="857"/><line style="stroke:#000000;stroke-width:0.5;" x1="211" x2="553.3213" y1="887.9531" y2="887.9531"/><text fill="#000000" font-family="Fira Code" font-size="18" lengthAdjust="spacing" textLength="178.7168" x="292.8022" y="878.708">update_properties()</text><text fill="#000000" font-family="Fira Code" font-size="18" lengthAdjust="spacing" textLength="317.1709" x="216" y="909.6611">- Required args: current_properties</text><text fill="#000000" font-family="Fira Code" font-size="18" lengthAdjust="spacing" textLength="178.04" x="227.4434" y="930.6143">and new_properties</text><text fill="#000000" font-family="Fira Code" font-size="18" lengthAdjust="spacing" textLength="130.8955" x="216" y="951.5674">- Output: JSON</text><text fill="#000000" font-family="Fira Code" font-size="18" lengthAdjust="spacing" textLength="322.3213" x="216" y="972.5205">- New properties overwrite old ones</text></g><text fill="#000000" font-family="Fira Code" font-size="18" lengthAdjust="spacing" textLength="55.749" x="353.6255" y="1100.708">return</text><ellipse cx="381.5" cy="1078" fill="#F2F2F2" rx="6" ry="6" style="stroke:#000000;stroke-width:1.5;"/><line style="stroke:#000000;stroke-width:1.5;" x1="385.8891" x2="378.1109" y1="1082.3891" y2="1074.6109"/><line style="stroke:#000000;stroke-width:1.5;" x1="385.8891" x2="378.1109" y1="1074.6109" y2="1082.3891"/><path d="M201.5,1157 L562.2773,1157 A12.5,12.5 0 0 1 574.7773,1169.5 L574.7773,1187.9531 L189,1187.9531 L189,1169.5 A12.5,12.5 0 0 1 201.5,1157 " fill="#F2F2F2" style="stroke:#F2F2F2;stroke-width:1.0;"/><rect fill="none" height="177.7188" rx="12.5" ry="12.5" style="stroke:#000000;stroke-width:0.5;" width="385.7773" x="189" y="1157"/><line style="stroke:#000000;stroke-width:0.5;" x1="189" x2="574.7773" y1="1187.9531" y2="1187.9531"/><text fill="#000000" font-family="Fira Code" font-size="18" lengthAdjust="spacing" textLength="62.5254" x="350.626" y="1178.708">Output</text><g id="output.json_output"><rect fill="#F2F2F2" height="124.7656" rx="12.5" ry="12.5" style="stroke:#000000;stroke-width:0.5;" width="364.7773" x="201" y="1199.9531"/><line style="stroke:#000000;stroke-width:0.5;" x1="201" x2="565.7773" y1="1230.9063" y2="1230.9063"/><text fill="#000000" font-family="Fira Code" font-size="18" lengthAdjust="spacing" textLength="44.3672" x="361.2051" y="1221.6611">JSON</text><text fill="#000000" font-family="Fira Code" font-size="18" lengthAdjust="spacing" textLength="344.7773" x="206" y="1252.6143">- JSON object of the package following</text><text fill="#000000" font-family="Fira Code" font-size="18" lengthAdjust="spacing" textLength="207.1934" x="217.4434" y="1273.5674">the Data Package spec</text><text fill="#000000" font-family="Fira Code" font-size="18" lengthAdjust="spacing" textLength="339.2139" x="206" y="1294.5205">- Use `write_package_properties()` to</text><text fill="#000000" font-family="Fira Code" font-size="18" lengthAdjust="spacing" textLength="297.5186" x="217.4434" y="1315.4736">save back to `datapackage.json`</text></g><!--link path to arg_path--><g id="link_path_arg_path"><path d="M197.56,197.23 C198.47,233.39 199.358,268.6719 199.718,282.8819 " fill="none" id="path-to-arg_path" style="stroke:#000000;stroke-width:1.0;"/><polygon fill="#000000" points="199.87,288.88,203.6408,279.7816,199.7434,283.8816,195.6433,279.9842,199.87,288.88" style="stroke:#000000;stroke-width:1.0;"/><text fill="#000000" font-family="sans-serif" font-size="14" lengthAdjust="spacing" textLength="79.4199" x="199" y="242.9951">path object</text></g><!--link properties to arg_properties--><g id="link_properties_arg_properties"><path d="M566.48,176.32 C565.99,215.58 565.3529,265.4304 565.1429,282.7104 " fill="none" id="properties-to-arg_properties" style="stroke:#000000;stroke-width:1.0;"/><polygon fill="#000000" points="565.07,288.71,569.1791,279.7593,565.1308,283.7104,561.1797,279.6621,565.07,288.71" style="stroke:#000000;stroke-width:1.0;"/><text fill="#000000" font-family="sans-serif" font-size="14" lengthAdjust="spacing" textLength="82.0996" x="566" y="242.9951">JSON object</text></g><!--link arg_path to vif--><g id="link_arg_path_vif"><path d="M201.44,301.23 C207.23,322.18 227.4822,395.5067 241.1222,444.8767 " fill="none" id="arg_path-to-vif" style="stroke:#000000;stroke-width:1.0;"/><polygon fill="#000000" points="242.72,450.66,244.1788,440.9198,241.3885,445.8406,236.4677,443.0502,242.72,450.66" style="stroke:#000000;stroke-width:1.0;"/></g><!--link arg_properties to vpp--><g id="link_arg_properties_vpp"><path d="M564.58,301.04 C561.96,332.66 548.1151,499.8605 539.3551,605.6505 " fill="none" id="arg_properties-to-vpp" style="stroke:#000000;stroke-width:1.0;"/><polygon fill="#000000" points="538.86,611.63,543.5891,602.9908,539.2726,606.6471,535.6164,602.3306,538.86,611.63" style="stroke:#000000;stroke-width:1.0;"/></g><!--link vif to rp--><g id="link_vif_rp"><path d="M198.65,534.22 C186.58,548.1 178.77,564.55 184,582 C191.81,608.09 204.24,628.93 219.39,649.13 " fill="none" id="vif-to-rp" style="stroke:#000000;stroke-width:1.0;"/><polygon fill="#000000" points="222.99,653.93,220.79,644.33,219.99,649.93,214.39,649.13,222.99,653.93" style="stroke:#000000;stroke-width:1.0;"/><text fill="#000000" font-family="sans-serif" font-size="14" lengthAdjust="spacing" textLength="79.4199" x="185" y="577.9951">path object</text></g><!--link rp to up--><g id="link_rp_up"><path d="M280.74,737.22 C299.41,770.64 323.2246,813.2615 344.5346,851.4215 " fill="none" id="rp-to-up" style="stroke:#000000;stroke-width:1.0;"/><polygon fill="#000000" points="347.46,856.66,346.5643,846.852,345.0222,852.2946,339.5796,850.7525,347.46,856.66" style="stroke:#000000;stroke-width:1.0;"/><text fill="#000000" font-family="sans-serif" font-size="14" lengthAdjust="spacing" textLength="82.0996" x="328" y="822.9951">JSON object</text></g><!--link vpp to up--><g id="link_vpp_up"><path d="M476.15,779.16 C458.74,804.93 443.2091,827.9085 426.9591,851.9585 " fill="none" id="vpp-to-up" style="stroke:#000000;stroke-width:1.0;"/><polygon fill="#000000" points="423.6,856.93,431.9531,851.7121,426.3993,852.7871,425.3244,847.2333,423.6,856.93" style="stroke:#000000;stroke-width:1.0;"/><text fill="#000000" font-family="sans-serif" font-size="14" lengthAdjust="spacing" textLength="82.0996" x="453" y="822.9951">JSON object</text></g><!--link up to return--><g id="link_up_return"><path d="M382,982.35 C382,1017.55 382,1051.39 382,1065.61 " fill="none" id="up-to-return" style="stroke:#000000;stroke-width:1.0;"/><polygon fill="#000000" points="382,1071.61,386,1062.61,382,1066.61,378,1062.61,382,1071.61" style="stroke:#000000;stroke-width:1.0;"/><text fill="#000000" font-family="sans-serif" font-size="14" lengthAdjust="spacing" textLength="82.0996" x="383" y="1025.9951">JSON object</text></g><!--link return to output--><g id="link_return_output"><path d="M382,1084.15 C382,1095.86 382,1119.88 382,1150.86 " fill="none" id="return-to-output" style="stroke:#000000;stroke-width:1.0;"/><polygon fill="#000000" points="382,1156.86,386,1147.86,382,1151.86,378,1147.86,382,1156.86" style="stroke:#000000;stroke-width:1.0;"/></g><!--SRC=[VLHDRzim3BtxLt2vh1kGvXuK0OPjX-tG5lku3N1KcudLsf8cKSc2eVzzf6pNIfCiXqGHgSVt-2YzeGOxX81OLoeWRBpje25oORbOUBM_tcfguaCCw2jh20rTLxPRZFbpv-qZLZHj9Bn5fxGfYa2A46PVZ8iq0nL0omh-5Z2ibZ27jLFKbE-ltgrX4qr5sfh0kK47WZqNXwtUQRE5odhFbK3IG_4MFlXjx9XFWBby65CY2V9U5cHXNIjIJbLFQelNZy4QBg5R_6MaFZ1J68Amlj7rYgEshT7dK3zPE7Jg0BR_CPQWKJk4MWkRzY1WM6l2EW5-_Nvtcue8YBSEFMaCWfGYza6w1NQJLnS8hjpQlUYKm2VcpIfwRi5XLJo_TFCkqjXEcvQfdqDGYgIGg2txE4UpV_1_BXCHONMUooaUTmdMUyzTA0USSX8lpf8Lk22DU-24y-Pa8YkFwW9OabUva6JBhn3uXhyZ6rA3yjjbxvuoTUP0blj3FM7W4EwqZQ4zG5yipmR2phN2H51KNGUXVwK8MbI1tgN6-B5cTcx3Ow9WfrfTW-WRsrgyMCG4oyJlveQ7rn_khJQqMXt79y1NMUDepkUh2MaGtFjvD7TJthIrpDsVUCrswFNcKEfGolWEVTxf3MVmzuKkPy5-BaSk7ZvxR-KglT0KBe9tKlAYopldf81pvwhdreuf8uTUuSHXZ7zii7fYTnjsKhKjNrHiUs_5PxOjSeCwHLKpJlgvawFnwTuc1AQ4Cb61pHeb7viWKYRXF73rgLmlQhsxt6f_gd8mG4gaQ3u9KxtewdITNbUCKZ6ULkG7guhyt1hApenjChWlZxeVpz8QTczndm-aPS_JGm7yr88r2O2PYu1q8X_EllrdGtalANepavloHzDqdM9_iW-V00_RaZ6yai_5Fm00]--></g></svg>