<svg xmlns="http://www.w3.org/2000/svg" xmlns:xlink="http://www.w3.org/1999/xlink" contentStyleType="text/css" height="1167px" preserveAspectRatio="none" style="width:770px;height:1167px;background:#FFFFFF;" version="1.1" viewBox="0 0 770 1167" width="770px" zoomAndPan="magnify"><defs/><g><!--cluster input--><g id="cluster_input"><path d="M87.5,7 L744.5,7 A12.5,12.5 0 0 1 757,19.5 L757,58.9063 L75,58.9063 L75,19.5 A12.5,12.5 0 0 1 87.5,7 " fill="#F2F2F2" style="stroke:#F2F2F2;stroke-width:1.0;"/><rect fill="none" height="164" rx="12.5" ry="12.5" style="stroke:#000000;stroke-width:0.5;" width="682" x="75" y="7"/><line style="stroke:#000000;stroke-width:0.5;" x1="75" x2="757" y1="58.9063" y2="58.9063"/><line style="stroke:#000000;stroke-width:0.5;" x1="75" x2="757" y1="32.9531" y2="32.9531"/><text fill="#000000" font-family="Fira Code" font-size="18" lengthAdjust="spacing" textLength="46.6084" x="177" y="27.708">Input</text><text fill="#000000" font-family="Fira Code" font-size="18" lengthAdjust="spacing" textLength="478.7842" x="80" y="52.1611">- `path_*()` functions assist with giving correct paths</text></g><!--cluster crp--><g id="cluster_crp"><path d="M19.5,236 L721.5,236 A12.5,12.5 0 0 1 734,248.5 L734,287.9063 L7,287.9063 L7,248.5 A12.5,12.5 0 0 1 19.5,236 " fill="#F2F2F2" style="stroke:#F2F2F2;stroke-width:1.0;"/><rect fill="none" height="669" rx="12.5" ry="12.5" style="stroke:#000000;stroke-width:0.5;" width="727" x="7" y="236"/><line style="stroke:#000000;stroke-width:0.5;" x1="7" x2="734" y1="287.9063" y2="287.9063"/><line style="stroke:#000000;stroke-width:0.5;" x1="7" x2="734" y1="261.9531" y2="261.9531"/><text fill="#000000" font-family="Fira Code" font-size="18" lengthAdjust="spacing" textLength="260.4727" x="240.2637" y="257.708">create_resource_properties()</text><text fill="#000000" font-family="Fira Code" font-size="18" lengthAdjust="spacing" textLength="380.5664" x="12" y="281.1611">- Required arg: path and properties object</text></g><g id="input.path"><rect fill="#F2F2F2" height="61.9063" rx="12.5" ry="12.5" style="stroke:#000000;stroke-width:0.5;" width="291.0107" x="90.5" y="82.5"/><line style="stroke:#000000;stroke-width:0.5;" x1="90.5" x2="381.5107" y1="113.4531" y2="113.4531"/><text fill="#000000" font-family="Fira Code" font-size="18" lengthAdjust="spacing" textLength="40.9219" x="215.5444" y="104.208">path</text><text fill="#000000" font-family="Fira Code" font-size="18" lengthAdjust="spacing" textLength="271.0107" x="95.5" y="135.1611">- Path to resource &lt;id&gt; folder</text></g><g id="input.properties"><rect fill="#F2F2F2" height="82.8594" rx="12.5" ry="12.5" style="stroke:#000000;stroke-width:0.5;" width="325.2793" x="416.5" y="72"/><line style="stroke:#000000;stroke-width:0.5;" x1="416.5" x2="741.7793" y1="102.9531" y2="102.9531"/><text fill="#000000" font-family="Fira Code" font-size="18" lengthAdjust="spacing" textLength="92.25" x="533.0146" y="93.708">properties</text><text fill="#000000" font-family="Fira Code" font-size="18" lengthAdjust="spacing" textLength="260.4727" x="421.5" y="124.6611">- JSON object of the resource</text><text fill="#000000" font-family="Fira Code" font-size="18" lengthAdjust="spacing" textLength="293.8359" x="432.9434" y="145.6143">following the Data Package spec</text></g><text fill="#000000" font-family="Fira Code" font-size="18" lengthAdjust="spacing" textLength="79.7783" x="192.6108" y="213.7549">arg_path</text><ellipse cx="232.5" cy="236" fill="#F2F2F2" rx="6" ry="6" style="stroke:#000000;stroke-width:1.5;"/><text fill="#000000" font-family="Fira Code" font-size="18" lengthAdjust="spacing" textLength="131.1064" x="514.4468" y="213.7549">arg_properties</text><ellipse cx="580" cy="236" fill="#F2F2F2" rx="6" ry="6" style="stroke:#000000;stroke-width:1.5;"/><g id="crp.vid"><rect fill="#F2F2F2" height="82.8594" rx="12.5" ry="12.5" style="stroke:#000000;stroke-width:0.5;" width="221.8936" x="111" y="367"/><line style="stroke:#000000;stroke-width:0.5;" x1="111" x2="332.8936" y1="397.9531" y2="397.9531"/><text fill="#000000" font-family="Fira Code" font-size="18" lengthAdjust="spacing" textLength="121.3682" x="161.2627" y="388.708">verify_is_dir()</text><text fill="#000000" font-family="Fira Code" font-size="18" lengthAdjust="spacing" textLength="181.8193" x="116" y="419.6611">- Required arg: path</text><text fill="#000000" font-family="Fira Code" font-size="18" lengthAdjust="spacing" textLength="201.8936" x="116" y="440.6143">- Output: path or Error</text></g><g id="crp.crrdp"><rect fill="#F2F2F2" height="103.8125" rx="12.5" ry="12.5" style="stroke:#000000;stroke-width:0.5;" width="384.957" x="23.5" y="528"/><line style="stroke:#000000;stroke-width:0.5;" x1="23.5" x2="408.457" y1="558.9531" y2="558.9531"/><text fill="#000000" font-family="Fira Code" font-size="18" lengthAdjust="spacing" textLength="335.9795" x="47.9888" y="549.708">create_relative_resource_data_path()</text><text fill="#000000" font-family="Fira Code" font-size="18" lengthAdjust="spacing" textLength="364.957" x="28.5" y="580.6611">- Required arg: absolute path from input</text><text fill="#000000" font-family="Fira Code" font-size="18" lengthAdjust="spacing" textLength="201.4629" x="28.5" y="601.6143">- Output: relative path</text><text fill="#000000" font-family="Fira Code" font-size="18" lengthAdjust="spacing" textLength="300.4014" x="39.9434" y="622.5674">(e.g. `resources/1/data.parquet`)</text></g><g id="crp.vrp"><rect fill="#F2F2F2" height="103.8125" rx="12.5" ry="12.5" style="stroke:#000000;stroke-width:0.5;" width="274.0566" x="444" y="528"/><line style="stroke:#000000;stroke-width:0.5;" x1="444" x2="718.0566" y1="558.9531" y2="558.9531"/><text fill="#000000" font-family="Fira Code" font-size="18" lengthAdjust="spacing" textLength="254.0566" x="454" y="549.708">verify_resource_properties()</text><text fill="#000000" font-family="Fira Code" font-size="18" lengthAdjust="spacing" textLength="233.1475" x="449" y="580.6611">- Required arg: properties</text><text fill="#000000" font-family="Fira Code" font-size="18" lengthAdjust="spacing" textLength="205.3389" x="449" y="601.6143">- Output: JSON or Error</text><text fill="#000000" font-family="Fira Code" font-size="18" lengthAdjust="spacing" textLength="196.5146" x="449" y="622.5674">- Checks against spec</text></g><g id="crp.epf"><rect fill="#F2F2F2" height="82.8594" rx="12.5" ry="12.5" style="stroke:#000000;stroke-width:0.5;" width="373.417" x="211.5" y="726"/><line style="stroke:#000000;stroke-width:0.5;" x1="211.5" x2="584.917" y1="756.9531" y2="756.9531"/><text fill="#000000" font-family="Fira Code" font-size="18" lengthAdjust="spacing" textLength="182.8916" x="306.7627" y="747.708">edit_property_field()</text><text fill="#000000" font-family="Fira Code" font-size="18" lengthAdjust="spacing" textLength="353.417" x="216.5" y="778.6611">- Required args: properties, field, value</text><text fill="#000000" font-family="Fira Code" font-size="18" lengthAdjust="spacing" textLength="130.8955" x="216.5" y="799.6143">- Output: JSON</text></g><text fill="#000000" font-family="Fira Code" font-size="18" lengthAdjust="spacing" textLength="55.749" x="369.6255" y="927.708">return</text><ellipse cx="397.5" cy="905" fill="#F2F2F2" rx="6" ry="6" style="stroke:#000000;stroke-width:1.5;"/><line style="stroke:#000000;stroke-width:1.5;" x1="401.8891" x2="394.1109" y1="909.3891" y2="901.6109"/><line style="stroke:#000000;stroke-width:1.5;" x1="401.8891" x2="394.1109" y1="901.6109" y2="909.3891"/><path d="M216.5,984 L579.6152,984 A12.5,12.5 0 0 1 592.1152,996.5 L592.1152,1014.9531 L204,1014.9531 L204,996.5 A12.5,12.5 0 0 1 216.5,984 " fill="#F2F2F2" style="stroke:#F2F2F2;stroke-width:1.0;"/><rect fill="none" height="177.7188" rx="12.5" ry="12.5" style="stroke:#000000;stroke-width:0.5;" width="388.1152" x="204" y="984"/><line style="stroke:#000000;stroke-width:0.5;" x1="204" x2="592.1152" y1="1014.9531" y2="1014.9531"/><text fill="#000000" font-family="Fira Code" font-size="18" lengthAdjust="spacing" textLength="62.5254" x="366.7949" y="1005.708">Output</text><g id="output.json_output"><rect fill="#F2F2F2" height="124.7656" rx="12.5" ry="12.5" style="stroke:#000000;stroke-width:0.5;" width="367.1152" x="216" y="1026.9531"/><line style="stroke:#000000;stroke-width:0.5;" x1="216" x2="583.1152" y1="1057.9063" y2="1057.9063"/><text fill="#000000" font-family="Fira Code" font-size="18" lengthAdjust="spacing" textLength="44.3672" x="377.374" y="1048.6611">JSON</text><text fill="#000000" font-family="Fira Code" font-size="18" lengthAdjust="spacing" textLength="347.1152" x="221" y="1079.6143">- JSON object of the resource following</text><text fill="#000000" font-family="Fira Code" font-size="18" lengthAdjust="spacing" textLength="207.1934" x="232.4434" y="1100.5674">the Data Package spec</text><text fill="#000000" font-family="Fira Code" font-size="18" lengthAdjust="spacing" textLength="341.5518" x="221" y="1121.5205">- Use `write_resource_properties()` to</text><text fill="#000000" font-family="Fira Code" font-size="18" lengthAdjust="spacing" textLength="297.5186" x="232.4434" y="1142.4736">save back to `datapackage.json`</text></g><!--link path to arg_path--><g id="link_path_arg_path"><path d="M235.25,144.6 C234.53,173.6 233.6382,209.1518 233.2782,223.7218 " fill="none" id="path-to-arg_path" style="stroke:#000000;stroke-width:1.0;"/><polygon fill="#000000" points="233.13,229.72,237.3511,220.8215,233.2535,224.7215,229.3535,220.6239,233.13,229.72" style="stroke:#000000;stroke-width:1.0;"/></g><!--link properties to arg_properties--><g id="link_properties_arg_properties"><path d="M579.34,155.3 C579.57,183.15 579.798,211.2302 579.908,223.9202 " fill="none" id="properties-to-arg_properties" style="stroke:#000000;stroke-width:1.0;"/><polygon fill="#000000" points="579.96,229.92,583.8818,220.8857,579.9167,224.9202,575.8821,220.955,579.96,229.92" style="stroke:#000000;stroke-width:1.0;"/></g><!--link arg_path to vid--><g id="link_arg_path_vid"><path d="M232.66,242.29 C231.46,260.84 227.7662,318.1224 225.0162,360.7624 " fill="none" id="arg_path-to-vid" style="stroke:#000000;stroke-width:1.0;"/><polygon fill="#000000" points="224.63,366.75,229.2009,358.0261,224.9518,361.7604,221.2175,357.5112,224.63,366.75" style="stroke:#000000;stroke-width:1.0;"/><text fill="#000000" font-family="sans-serif" font-size="14" lengthAdjust="spacing" textLength="79.4199" x="230" y="297.9951">path object</text></g><!--link vid to crrdp--><g id="link_vid_crrdp"><path d="M166.4,450.37 C158.1,459.15 150.75,469.11 146,480 C138.76,496.59 140.7938,508.3267 151.3238,523.0767 " fill="none" id="vid-to-crrdp" style="stroke:#000000;stroke-width:1.0;"/><polygon fill="#000000" points="154.81,527.96,152.8363,518.3109,151.9049,523.8906,146.3252,522.9592,154.81,527.96" style="stroke:#000000;stroke-width:1.0;"/><text fill="#000000" font-family="sans-serif" font-size="14" lengthAdjust="spacing" textLength="79.4199" x="147" y="493.9951">path object</text></g><!--link arg_properties to vrp--><g id="link_arg_properties_vrp"><path d="M580.01,242.1 C580.11,273.47 580.5826,435.73 580.8326,521.96 " fill="none" id="arg_properties-to-vrp" style="stroke:#000000;stroke-width:1.0;"/><polygon fill="#000000" points="580.85,527.96,584.8239,518.9484,580.8355,522.96,576.8239,518.9716,580.85,527.96" style="stroke:#000000;stroke-width:1.0;"/><text fill="#000000" font-family="sans-serif" font-size="14" lengthAdjust="spacing" textLength="82.0996" x="581" y="413.4951">JSON object</text></g><!--link crrdp to epf--><g id="link_crrdp_epf"><path d="M266.21,632.18 C295.15,661.67 326.818,693.9471 353.828,721.4771 " fill="none" id="crrdp-to-epf" style="stroke:#000000;stroke-width:1.0;"/><polygon fill="#000000" points="358.03,725.76,354.5823,716.5343,354.5283,722.1909,348.8717,722.137,358.03,725.76" style="stroke:#000000;stroke-width:1.0;"/><text fill="#000000" font-family="sans-serif" font-size="14" lengthAdjust="spacing" textLength="100.9805" x="329" y="675.9951">Update `path`</text><text fill="#000000" font-family="sans-serif" font-size="14" lengthAdjust="spacing" textLength="60.2383" x="349.3711" y="692.292">property</text></g><!--link vrp to epf--><g id="link_vrp_epf"><path d="M530.51,632.18 C501.42,661.67 469.5638,693.9588 442.4038,721.4888 " fill="none" id="vrp-to-epf" style="stroke:#000000;stroke-width:1.0;"/><polygon fill="#000000" points="438.19,725.76,447.3583,722.1624,441.7015,722.2006,441.6633,716.5439,438.19,725.76" style="stroke:#000000;stroke-width:1.0;"/><text fill="#000000" font-family="sans-serif" font-size="14" lengthAdjust="spacing" textLength="82.0996" x="501" y="683.9951">JSON object</text></g><!--link epf to return--><g id="link_epf_return"><path d="M398,809.15 C398,841.58 398,877.93 398,892.67 " fill="none" id="epf-to-return" style="stroke:#000000;stroke-width:1.0;"/><polygon fill="#000000" points="398,898.67,402,889.67,398,893.67,394,889.67,398,898.67" style="stroke:#000000;stroke-width:1.0;"/><text fill="#000000" font-family="sans-serif" font-size="14" lengthAdjust="spacing" textLength="82.0996" x="399" y="852.9951">JSON object</text></g><!--link return to output--><g id="link_return_output"><path d="M398,911.15 C398,922.86 398,946.88 398,977.86 " fill="none" id="return-to-output" style="stroke:#000000;stroke-width:1.0;"/><polygon fill="#000000" points="398,983.86,402,974.86,398,978.86,394,974.86,398,983.86" style="stroke:#000000;stroke-width:1.0;"/></g><!--SRC=[XLJ1Rjim3BtdAxXSrWvDWbs38a2nxR0Trc93RmLinQOTjOdaKhIpOEY_JvGjsqaJB0TRCHyVtoCbVU0DxX0SOfufXr2GtS66kNBBnOBKVbvgtjJhsY5brZ0QdcTsjuZuMKNs6JCUFWI-nKvfCvauLemm_MwgcgUW76XPmTy9TAibp22j56-IJrVNAHIroLXRuppMQSUmzyMXr8qs9MIMo5S2WRl9HxYZijvvFGvcylES4WcK3x9W2uJErfGXtEfy1ONTvaY28riXiKOdu1-_xt-2NOiBi0Lu_NtUam79sjgz2938LyNAqsSlglHDgp2RlFKsxskEFcrO1gDTKAg4qBEp9cdZFZhw1_yHCoWHMUV5l2Tyz3DDzwGPaqYK3FwbwMo5pwa6OUsvf6zfxfchbdWkZEd8PaQeBh45XnbLmRcyHS8lVAqrOGwAocKx96NoqHGwmvE-MnwO1DpjhHym7HwiDhnQ7SU7z1DKt0cpsQfdEfhw4Ea_3RMd3P8k3ebsIQwfizJet0FyyuAXKR3T1PrFI_2DoCgcwpr9yHRSGawy3_tTAjRDgD4ob43HzvdoAlJPlyy8KsjdjxMd37N2mGwdxYWboetb0bWsn1NEopcaiRfRV5w8W7cbwBL6Jgyxps8dqfqtr3NqyePfI6mqvxVBCA814aMtfsNeSOn_sM3suY-Hqjz2_XRfZiR9hWbp20cZGpUIZRdcY3yaXSPjtkd5gl0m_todruq5tq18ke56RMiSPOpbzyCGEItWiSf5GBWNqoSJ9NJ-1jnvsOHSavdAeVYZUJWvaYEvRVma7U9dGNINqzi_]--></g></svg>
