<?xml version="1.0" encoding="us-ascii" standalone="no"?><svg xmlns="http://www.w3.org/2000/svg" xmlns:xlink="http://www.w3.org/1999/xlink" contentStyleType="text/css" height="2082px" preserveAspectRatio="none" style="width:964px;height:2082px;background:#FFFFFF;" version="1.1" viewBox="0 0 964 2082" width="964px" zoomAndPan="magnify"><defs/><g><!--cluster cps--><g id="cluster_cps"><path d="M19.5,236 L938.5,236 A12.5,12.5 0 0 1 951,248.5 L951,287.9063 L7,287.9063 L7,248.5 A12.5,12.5 0 0 1 19.5,236 " fill="#F2F2F2" style="stroke:#F2F2F2;stroke-width:1.0;"/><rect fill="none" height="1633" rx="12.5" ry="12.5" style="stroke:#000000;stroke-width:0.5;" width="944" x="7" y="236"/><line style="stroke:#000000;stroke-width:0.5;" x1="7" x2="951" y1="287.9063" y2="287.9063"/><line style="stroke:#000000;stroke-width:0.5;" x1="7" x2="951" y1="261.9531" y2="261.9531"/><text fill="#000000" font-family="Fira Code" font-size="18" lengthAdjust="spacing" textLength="240" x="359" y="257.708">create_package_structure()</text><text fill="#000000" font-family="Fira Code" font-size="18" lengthAdjust="spacing" textLength="180" x="12" y="281.1611">- Required arg: path</text></g><text fill="#000000" font-family="Fira Code" font-size="18" lengthAdjust="spacing" textLength="29" x="464.5" y="213.7549">arg</text><ellipse cx="479" cy="236" fill="#F2F2F2" rx="6" ry="6" style="stroke:#000000;stroke-width:1.5;"/><g id="cps.vid"><rect fill="#F2F2F2" height="82.8594" rx="12.5" ry="12.5" style="stroke:#000000;stroke-width:0.5;" width="222" x="368" y="338"/><line style="stroke:#000000;stroke-width:0.5;" x1="368" x2="590" y1="368.9531" y2="368.9531"/><text fill="#000000" font-family="Fira Code" font-size="18" lengthAdjust="spacing" textLength="121" x="418.5" y="359.708">verify_is_dir()</text><text fill="#000000" font-family="Fira Code" font-size="18" lengthAdjust="spacing" textLength="180" x="373" y="390.6611">- Required arg: path</text><text fill="#000000" font-family="Fira Code" font-size="18" lengthAdjust="spacing" textLength="202" x="373" y="411.6143">- Output: path or Error</text></g><g id="cps.gi"><rect fill="#F2F2F2" height="103.8125" rx="12.5" ry="12.5" style="stroke:#000000;stroke-width:0.5;" width="263" x="347.5" y="482"/><line style="stroke:#000000;stroke-width:0.5;" x1="347.5" x2="610.5" y1="512.9531" y2="512.9531"/><text fill="#000000" font-family="Fira Code" font-size="18" lengthAdjust="spacing" textLength="76" x="441" y="503.708">get_ids()</text><text fill="#000000" font-family="Fira Code" font-size="18" lengthAdjust="spacing" textLength="180" x="352.5" y="534.6611">- Required arg: path</text><text fill="#000000" font-family="Fira Code" font-size="18" lengthAdjust="spacing" textLength="243" x="352.5" y="555.6143">- Output: list of existing IDs</text><text fill="#000000" font-family="Fira Code" font-size="18" lengthAdjust="spacing" textLength="223" x="364.5" y="576.5674">(otherwise an empty list)</text></g><g id="cps.cni"><rect fill="#F2F2F2" height="82.8594" rx="12.5" ry="12.5" style="stroke:#000000;stroke-width:0.5;" width="318" x="320" y="647"/><line style="stroke:#000000;stroke-width:0.5;" x1="320" x2="638" y1="677.9531" y2="677.9531"/><text fill="#000000" font-family="Fira Code" font-size="18" lengthAdjust="spacing" textLength="144" x="407" y="668.708">create_next_id()</text><text fill="#000000" font-family="Fira Code" font-size="18" lengthAdjust="spacing" textLength="298" x="325" y="699.6611">- Required arg: list of existing IDs</text><text fill="#000000" font-family="Fira Code" font-size="18" lengthAdjust="spacing" textLength="106" x="325" y="720.6143">- Output: ID</text></g><g id="cps.cip"><rect fill="#F2F2F2" height="82.8594" rx="12.5" ry="12.5" style="stroke:#000000;stroke-width:0.5;" width="465" x="246.5" y="791"/><line style="stroke:#000000;stroke-width:0.5;" x1="246.5" x2="711.5" y1="821.9531" y2="821.9531"/><text fill="#000000" font-family="Fira Code" font-size="18" lengthAdjust="spacing" textLength="143" x="407.5" y="812.708">create_id_path()</text><text fill="#000000" font-family="Fira Code" font-size="18" lengthAdjust="spacing" textLength="445" x="251.5" y="843.6611">- Required arg: path and ID to assign for directory</text><text fill="#000000" font-family="Fira Code" font-size="18" lengthAdjust="spacing" textLength="308" x="251.5" y="864.6143">- Output: path of created directory</text></g><g id="cps.cd"><rect fill="#F2F2F2" height="103.8125" rx="12.5" ry="12.5" style="stroke:#000000;stroke-width:0.5;" width="280" x="339" y="935"/><line style="stroke:#000000;stroke-width:0.5;" x1="339" x2="619" y1="965.9531" y2="965.9531"/><text fill="#000000" font-family="Fira Code" font-size="18" lengthAdjust="spacing" textLength="111" x="423.5" y="956.708">create_dirs()</text><text fill="#000000" font-family="Fira Code" font-size="18" lengthAdjust="spacing" textLength="260" x="344" y="987.6611">- Required arg: A list of paths</text><text fill="#000000" font-family="Fira Code" font-size="18" lengthAdjust="spacing" textLength="205" x="344" y="1008.6143">- Output: A list of paths</text><text fill="#000000" font-family="Fira Code" font-size="18" lengthAdjust="spacing" textLength="190" x="356" y="1029.5674">of created directories</text></g><g id="cps.cppt"><rect fill="#F2F2F2" height="103.8125" rx="12.5" ry="12.5" style="stroke:#000000;stroke-width:0.5;" width="323" x="310.5" y="1100"/><line style="stroke:#000000;stroke-width:0.5;" x1="310.5" x2="633.5" y1="1130.9531" y2="1130.9531"/><text fill="#000000" font-family="Fira Code" font-size="18" lengthAdjust="spacing" textLength="233" x="355.5" y="1121.708">create_properties_object()</text><text fill="#000000" font-family="Fira Code" font-size="18" lengthAdjust="spacing" textLength="191" x="315.5" y="1152.6611">- Output: JSON object</text><text fill="#000000" font-family="Fira Code" font-size="18" lengthAdjust="spacing" textLength="254" x="315.5" y="1173.6143">- Uses properties dataclasses</text><text fill="#000000" font-family="Fira Code" font-size="18" lengthAdjust="spacing" textLength="291" x="327.5" y="1194.5674">internally and sets default values</text></g><g id="cps.crt"><rect fill="#F2F2F2" height="82.8594" rx="12.5" ry="12.5" style="stroke:#000000;stroke-width:0.5;" width="266" x="280" y="1265"/><line style="stroke:#000000;stroke-width:0.5;" x1="280" x2="546" y1="1295.9531" y2="1295.9531"/><text fill="#000000" font-family="Fira Code" font-size="18" lengthAdjust="spacing" textLength="192" x="317" y="1286.708">create_readme_text()</text><text fill="#000000" font-family="Fira Code" font-size="18" lengthAdjust="spacing" textLength="246" x="285" y="1317.6611">- Required arg: JSON object</text><text fill="#000000" font-family="Fira Code" font-size="18" lengthAdjust="spacing" textLength="136" x="285" y="1338.6143">- Output: string</text></g><g id="cps.crp"><rect fill="#F2F2F2" height="82.8594" rx="12.5" ry="12.5" style="stroke:#000000;stroke-width:0.5;" width="252" x="23" y="1110.5"/><line style="stroke:#000000;stroke-width:0.5;" x1="23" x2="275" y1="1141.4531" y2="1141.4531"/><text fill="#000000" font-family="Fira Code" font-size="18" lengthAdjust="spacing" textLength="195" x="51.5" y="1132.208">create_readme_path()</text><text fill="#000000" font-family="Fira Code" font-size="18" lengthAdjust="spacing" textLength="180" x="28" y="1163.1611">- Required arg: path</text><text fill="#000000" font-family="Fira Code" font-size="18" lengthAdjust="spacing" textLength="232" x="28" y="1184.1143">- Output: path to README</text></g><g id="cps.cprop"><rect fill="#F2F2F2" height="82.8594" rx="12.5" ry="12.5" style="stroke:#000000;stroke-width:0.5;" width="266" x="669" y="1110.5"/><line style="stroke:#000000;stroke-width:0.5;" x1="669" x2="935" y1="1141.4531" y2="1141.4531"/><text fill="#000000" font-family="Fira Code" font-size="18" lengthAdjust="spacing" textLength="218" x="693" y="1132.208">create_properties_path()</text><text fill="#000000" font-family="Fira Code" font-size="18" lengthAdjust="spacing" textLength="180" x="674" y="1163.1611">- Required arg: path</text><text fill="#000000" font-family="Fira Code" font-size="18" lengthAdjust="spacing" textLength="246" x="674" y="1184.1143">- Output: path to properties</text></g><g id="cps.wf"><rect fill="#F2F2F2" height="166.6719" rx="12.5" ry="12.5" style="stroke:#000000;stroke-width:0.5;" width="362" x="317" y="1537"/><line style="stroke:#000000;stroke-width:0.5;" x1="317" x2="679" y1="1567.9531" y2="1567.9531"/><text fill="#000000" font-family="Fira Code" font-size="18" lengthAdjust="spacing" textLength="97" x="449.5" y="1558.708">write_file()</text><text fill="#000000" font-family="Fira Code" font-size="18" lengthAdjust="spacing" textLength="342" x="322" y="1589.6611">- Required args: string (including JSON</text><text fill="#000000" font-family="Fira Code" font-size="18" lengthAdjust="spacing" textLength="180" x="334" y="1610.6143">as a string) and path</text><text fill="#000000" font-family="Fira Code" font-size="18" lengthAdjust="spacing" textLength="254" x="322" y="1631.5674">- Output: path of created file</text><text fill="#000000" font-family="Fira Code" font-size="18" lengthAdjust="spacing" textLength="317" x="322" y="1652.5205">- Only one string and path at a time</text><text fill="#000000" font-family="Fira Code" font-size="18" lengthAdjust="spacing" textLength="320" x="322" y="1673.4736">- Used multiple times for each write</text><text fill="#000000" font-family="Fira Code" font-size="18" lengthAdjust="spacing" textLength="85" x="334" y="1694.4268">operation</text></g><rect fill="#555555" height="8" style="stroke:none;stroke-width:1.0;" width="80" x="373" y="1422"/><rect fill="#555555" height="8" style="stroke:none;stroke-width:1.0;" width="80" x="581" y="1302.5"/><rect fill="#555555" height="8" style="stroke:none;stroke-width:1.0;" width="80" x="458" y="1782"/><text fill="#000000" font-family="Fira Code" font-size="18" lengthAdjust="spacing" textLength="56" x="469.5" y="1891.708">return</text><ellipse cx="497.5" cy="1869" fill="#F2F2F2" rx="6" ry="6" style="stroke:#000000;stroke-width:1.5;"/><line style="stroke:#000000;stroke-width:1.5;" x1="501.8891" x2="494.1109" y1="1873.3891" y2="1865.6109"/><line style="stroke:#000000;stroke-width:1.5;" x1="501.8891" x2="494.1109" y1="1865.6109" y2="1873.3891"/><path d="M307.5,7 L650.5,7 A12.5,12.5 0 0 1 663,19.5 L663,84.8594 L295,84.8594 L295,19.5 A12.5,12.5 0 0 1 307.5,7 " fill="#F2F2F2" style="stroke:#F2F2F2;stroke-width:1.0;"/><rect fill="none" height="161.7656" rx="12.5" ry="12.5" style="stroke:#000000;stroke-width:0.5;" width="368" x="295" y="7"/><line style="stroke:#000000;stroke-width:0.5;" x1="295" x2="663" y1="84.8594" y2="84.8594"/><line style="stroke:#000000;stroke-width:0.5;" x1="295" x2="663" y1="37.9531" y2="37.9531"/><text fill="#000000" font-family="Fira Code" font-size="18" lengthAdjust="spacing" textLength="46" x="456" y="28.708">Input</text><text fill="#000000" font-family="Fira Code" font-size="18" lengthAdjust="spacing" textLength="294" x="300" y="54.6611">- Use `path_*()` functions to help</text><text fill="#000000" font-family="Fira Code" font-size="18" lengthAdjust="spacing" textLength="178" x="300" y="75.6143">create correct paths</text><g id="input.path"><rect fill="#F2F2F2" height="61.9063" rx="12.5" ry="12.5" style="stroke:#000000;stroke-width:0.5;" width="342" x="307" y="96.8594"/><line style="stroke:#000000;stroke-width:0.5;" x1="307" x2="649" y1="127.8125" y2="127.8125"/><text fill="#000000" font-family="Fira Code" font-size="18" lengthAdjust="spacing" textLength="39" x="458.5" y="118.5674">path</text><text fill="#000000" font-family="Fira Code" font-size="18" lengthAdjust="spacing" textLength="322" x="312" y="149.5205">- Path to where packages are stored</text></g><path d="M193.5,1948 L802.5,1948 A12.5,12.5 0 0 1 815,1960.5 L815,2004.9063 L181,2004.9063 L181,1960.5 A12.5,12.5 0 0 1 193.5,1948 " fill="#F2F2F2" style="stroke:#F2F2F2;stroke-width:1.0;"/><rect fill="none" height="128.9063" rx="12.5" ry="12.5" style="stroke:#000000;stroke-width:0.5;" width="634" x="181" y="1948"/><line style="stroke:#000000;stroke-width:0.5;" x1="181" x2="815" y1="2004.9063" y2="2004.9063"/><line style="stroke:#000000;stroke-width:0.5;" x1="181" x2="815" y1="1978.9531" y2="1978.9531"/><text fill="#000000" font-family="Fira Code" font-size="18" lengthAdjust="spacing" textLength="61" x="467.5" y="1969.708">Output</text><text fill="#000000" font-family="Fira Code" font-size="18" lengthAdjust="spacing" textLength="365" x="186" y="1995.6611">- The package parent folder is shown as /</text><g id="output.properties_file"><rect fill="#F2F2F2" height="50" rx="12.5" ry="12.5" style="stroke:#000000;stroke-width:0.5;" width="315" x="193" y="2016.9063"/><line style="stroke:#000000;stroke-width:0.5;" x1="193" x2="508" y1="2047.8594" y2="2047.8594"/><text fill="#000000" font-family="Fira Code" font-size="18" lengthAdjust="spacing" textLength="295" x="203" y="2038.6143">/packages/&lt;id&gt;/datapackage.json</text></g><g id="output.readme"><rect fill="#F2F2F2" height="50" rx="12.5" ry="12.5" style="stroke:#000000;stroke-width:0.5;" width="275" x="526" y="2016.9063"/><line style="stroke:#000000;stroke-width:0.5;" x1="526" x2="801" y1="2047.8594" y2="2047.8594"/><text fill="#000000" font-family="Fira Code" font-size="18" lengthAdjust="spacing" textLength="255" x="536" y="2038.6143">/packages/&lt;id&gt;/README.md</text></g><!--link input to arg--><g id="link_input_arg"><path d="M479,169.26 C479,194.97 479,213.47 479,223.82 " fill="none" id="input-to-arg" style="stroke:#000000;stroke-width:1.0;"/><polygon fill="#000000" points="479,229.82,483,220.82,479,224.82,475,220.82,479,229.82" style="stroke:#000000;stroke-width:1.0;"/></g><!--link arg to vid--><g id="link_arg_vid"><path d="M479,242.04 C479,257.2 479,297.5 479,331.99 " fill="none" id="arg-to-vid" style="stroke:#000000;stroke-width:1.0;"/><polygon fill="#000000" points="479,337.99,483,328.99,479,332.99,475,328.99,479,337.99" style="stroke:#000000;stroke-width:1.0;"/></g><!--link vid to gi--><g id="link_vid_gi"><path d="M479,421.37 C479,439.98 479,456.21 479,475.92 " fill="none" id="vid-to-gi" style="stroke:#000000;stroke-width:1.0;"/><polygon fill="#000000" points="479,481.92,483,472.92,479,476.92,475,472.92,479,481.92" style="stroke:#000000;stroke-width:1.0;"/></g><!--link gi to cni--><g id="link_gi_cni"><path d="M479,586.2 C479,605.93 479,622.18 479,640.79 " fill="none" id="gi-to-cni" style="stroke:#000000;stroke-width:1.0;"/><polygon fill="#000000" points="479,646.79,483,637.79,479,641.79,475,637.79,479,646.79" style="stroke:#000000;stroke-width:1.0;"/></g><!--link cni to cip--><g id="link_cni_cip"><path d="M479,730.19 C479,749.2 479,765.79 479,784.8 " fill="none" id="cni-to-cip" style="stroke:#000000;stroke-width:1.0;"/><polygon fill="#000000" points="479,790.8,483,781.8,479,785.8,475,781.8,479,790.8" style="stroke:#000000;stroke-width:1.0;"/></g><!--link cip to cd--><g id="link_cip_cd"><path d="M479,874.37 C479,892.98 479,909.21 479,928.92 " fill="none" id="cip-to-cd" style="stroke:#000000;stroke-width:1.0;"/><polygon fill="#000000" points="479,934.92,483,925.92,479,929.92,475,925.92,479,934.92" style="stroke:#000000;stroke-width:1.0;"/></g><!--link cppt to crt--><g id="link_cppt_crt"><path d="M452.19,1204.2 C444.56,1223.93 438.115,1240.5842 430.915,1259.1942 " fill="none" id="cppt-to-crt" style="stroke:#000000;stroke-width:1.0;"/><polygon fill="#000000" points="428.75,1264.79,435.728,1257.8396,430.5541,1260.1268,428.2669,1254.953,428.75,1264.79" style="stroke:#000000;stroke-width:1.0;"/></g><!--link cd to crp--><g id="link_cd_crp"><path d="M375.49,1039.13 C328.99,1062.09 280.2693,1086.1624 236.6093,1107.7324 " fill="none" id="cd-to-crp" style="stroke:#000000;stroke-width:1.0;"/><polygon fill="#000000" points="231.23,1110.39,241.0707,1109.9898,235.7128,1108.1753,237.5272,1102.8174,231.23,1110.39" style="stroke:#000000;stroke-width:1.0;"/></g><!--link cd to cprop--><g id="link_cd_cprop"><path d="M580.31,1039.13 C625.83,1062.09 673.4235,1086.1167 716.1635,1107.6867 " fill="none" id="cd-to-cprop" style="stroke:#000000;stroke-width:1.0;"/><polygon fill="#000000" points="721.52,1110.39,715.2875,1102.764,717.0563,1108.1372,711.683,1109.906,721.52,1110.39" style="stroke:#000000;stroke-width:1.0;"/></g><!--link cppt to prop_input--><g id="link_cppt_prop_input"><path d="M522.03,1204.2 C559.23,1242.28 601.3853,1285.4299 613.6953,1298.0199 " fill="none" id="cppt-to-prop_input" style="stroke:#000000;stroke-width:1.0;"/><polygon fill="#000000" points="617.89,1302.31,614.4581,1293.0784,614.3944,1298.7349,608.7379,1298.6713,617.89,1302.31" style="stroke:#000000;stroke-width:1.0;"/></g><!--link crt to readme_input--><g id="link_crt_readme_input"><path d="M413,1348.27 C413,1376.64 413,1405.2 413,1415.77 " fill="none" id="crt-to-readme_input" style="stroke:#000000;stroke-width:1.0;"/><polygon fill="#000000" points="413,1421.77,417,1412.77,413,1416.77,409,1412.77,413,1421.77" style="stroke:#000000;stroke-width:1.0;"/></g><!--link cprop to prop_input--><g id="link_cprop_prop_input"><path d="M753.5,1193.87 C707,1233.04 646.0984,1284.3539 629.5184,1298.3239 " fill="none" id="cprop-to-prop_input" style="stroke:#000000;stroke-width:1.0;"/><polygon fill="#000000" points="624.93,1302.19,634.39,1299.4498,628.7537,1298.9683,629.2352,1293.3319,624.93,1302.19" style="stroke:#000000;stroke-width:1.0;"/></g><!--link crp to readme_input--><g id="link_crp_readme_input"><path d="M164.66,1193.71 C182.85,1236.61 216.44,1303.92 263,1348 C306.58,1389.25 370.8218,1412.0247 396.9718,1420.1747 " fill="none" id="crp-to-readme_input" style="stroke:#000000;stroke-width:1.0;"/><polygon fill="#000000" points="402.7,1421.96,395.2978,1415.4632,397.9265,1420.4723,392.9174,1423.1009,402.7,1421.96" style="stroke:#000000;stroke-width:1.0;"/></g><!--link prop_input to wf--><g id="link_prop_input_wf"><path d="M619.93,1310.57 C613.48,1329.1 578.89,1427.85 547,1507 C543.1,1516.68 541.2468,1521.258 536.9968,1531.258 " fill="none" id="prop_input-to-wf" style="stroke:#000000;stroke-width:1.0;"/><polygon fill="#000000" points="534.65,1536.78,541.8516,1530.0616,536.6057,1532.1783,534.4889,1526.9325,534.65,1536.78" style="stroke:#000000;stroke-width:1.0;"/><text fill="#000000" font-family="sans-serif" font-size="14" lengthAdjust="spacing" textLength="90" x="587" y="1422.9951">input to write</text><text fill="#000000" font-family="sans-serif" font-size="14" lengthAdjust="spacing" textLength="94" x="585" y="1439.292">properties file</text></g><!--link readme_input to wf--><g id="link_readme_input_wf"><path d="M414.34,1430.02 C419.86,1442.53 439.1363,1486.2013 459.0563,1531.3113 " fill="none" id="readme_input-to-wf" style="stroke:#000000;stroke-width:1.0;"/><polygon fill="#000000" points="461.48,1536.8,461.5035,1526.9512,459.4602,1532.2261,454.1853,1530.1828,461.48,1536.8" style="stroke:#000000;stroke-width:1.0;"/><text fill="#000000" font-family="sans-serif" font-size="14" lengthAdjust="spacing" textLength="90" x="448" y="1486.9951">input to write</text><text fill="#000000" font-family="sans-serif" font-size="14" lengthAdjust="spacing" textLength="76" x="455" y="1503.292">readme file</text></g><!--link wf to as_list--><g id="link_wf_as_list"><path d="M498,1704.21 C498,1738.11 498,1765.79 498,1775.93 " fill="none" id="wf-to-as_list" style="stroke:#000000;stroke-width:1.0;"/><polygon fill="#000000" points="498,1781.93,502,1772.93,498,1776.93,494,1772.93,498,1781.93" style="stroke:#000000;stroke-width:1.0;"/><text fill="#000000" font-family="sans-serif" font-size="14" lengthAdjust="spacing" textLength="95" x="499" y="1747.9951">Convert to list</text></g><!--link as_list to return--><g id="link_as_list_return"><path d="M498,1790.08 C498,1802.33 498,1841.73 498,1856.97 " fill="none" id="as_list-to-return" style="stroke:#000000;stroke-width:1.0;"/><polygon fill="#000000" points="498,1862.97,502,1853.97,498,1857.97,494,1853.97,498,1862.97" style="stroke:#000000;stroke-width:1.0;"/></g><!--link return to output--><g id="link_return_output"><path d="M498,1875.04 C498,1887 498,1912.35 498,1941.98 " fill="none" id="return-to-output" style="stroke:#000000;stroke-width:1.0;"/><polygon fill="#000000" points="498,1947.98,502,1938.98,498,1942.98,494,1938.98,498,1947.98" style="stroke:#000000;stroke-width:1.0;"/></g><!--link crp to cppt--><!--link cppt to cprop--><!--SRC=[VLR9Rjim4BtxAwQvD2cG-1uO1e8cXnJeWYwdjb1PSIGnbKYLfE8OHV-zCrmaERQQWqrpblVuPeRC2zzWX-0GPIaSGcLD1uttlRjUhwtONTNADyFFmQ4jZVQe_LLfkdNsl-ojUS3IJniXtxeJIgzMpWkFS7Ql-y6VWN2WU0L_LX1Nrt09NmZqHozyKxmwl_W1rQ1Bhunsu0qqsFRVT6cHqvJ6Ma82zdMhbt1Zww4ZFWuk-OzoiWKuvmTUKFokGOkqNVuIDJeGzCDvOr6k_exatWy-ipDX6UYb9IVxt8mfwDiI8bIcbMX1EN2DsMcENLDGohZEWEkDajkr55wadQi7PtI08jbwj5wXAohLucBmnxkRsxTtLvqCKII4x716FafJf9Z2UJkKVh1uVX7yozw5q_0t7-KZ_XuK7P-KgA-3NAiHcRPWiw7JsVq7exJVRdELIDyjcoVViqUqgjeNoXLIsGJsg2GvqESIr6ICciTjC1Rkh3MMxCo1mJZL15QZBvHq2QPMPAdLCaYoPOnMEG-c0doYXT8rtD-wRnhWt52dsfsYzXCQiElzFlXU99xCWx0c6abhZKzC9okicGvzdk1p2ddcd0dUtqRI3CZfZX2LBFXe6L7rd4Jr2mhGQIJbvFONpgbQKxTQe3BHx1YxdyKULg6222SFVNKYHgX7nCWnLwNasfUdIdypwX07TtJByCySk3OdoD2a9Eg1ZZncCnifyvFlf748UXzceFS7k6y-lNy7qNDkfljeFfx0urks92K6QZGPQBLestqGsY7TFn8hCRGU7aKx19g7nEBK5fuQ9rEo0TBw4tezesKFITE4KoTbla4AohK4EMyR6zh6zik3auq7VK5j5E-WMBY8sFzN_JagRmUszFqVvD7y77jAEyCFIIS6Ewk805-Z2NLNaN5N7U6vh1-SArssW-Gbwys5fJYHp1UXj8bRohCqBEdspbwQ-i9ep3Wv3mXFsRtgPhxKQ18wwXlLjnXiBemgYhA1SAOm2dHymGyY1Ov7JkMDj_Dcyq3tTRYkevNbMR89LuHfEp9Of7T3ymlmf7n-0EPzDcLDRScRSo9Z7KzuzwUy-SMUgB93K2R-vDSxQZ2RnIJsmV4Nuw9NZecwXvSiIN0DhuscXop4y0u_GCaMsR8Y0Iv8mtlntu9LFjFNHac9-ljsViaSx7Ad_btz0m00]--></g></svg>