<?xml version="1.0" encoding="us-ascii" standalone="no"?><svg xmlns="http://www.w3.org/2000/svg" xmlns:xlink="http://www.w3.org/1999/xlink" contentStyleType="text/css" height="2144px" preserveAspectRatio="none" style="width:964px;height:2144px;background:#FFFFFF;" version="1.1" viewBox="0 0 964 2144" width="964px" zoomAndPan="magnify"><defs/><g><!--cluster cps--><g id="cluster_cps"><path d="M19.5,236 L938.5,236 A12.5,12.5 0 0 1 951,248.5 L951,287.9063 L7,287.9063 L7,248.5 A12.5,12.5 0 0 1 19.5,236 " fill="#F2F2F2" style="stroke:#F2F2F2;stroke-width:1.0;"/><rect fill="none" height="1695" rx="12.5" ry="12.5" style="stroke:#000000;stroke-width:0.5;" width="944" x="7" y="236"/><line style="stroke:#000000;stroke-width:0.5;" x1="7" x2="951" y1="287.9063" y2="287.9063"/><line style="stroke:#000000;stroke-width:0.5;" x1="7" x2="951" y1="261.9531" y2="261.9531"/><text fill="#000000" font-family="Fira Code" font-size="18" lengthAdjust="spacing" textLength="240" x="359" y="257.708">create_package_structure()</text><text fill="#000000" font-family="Fira Code" font-size="18" lengthAdjust="spacing" textLength="180" x="12" y="281.1611">- Required arg: path</text></g><text fill="#000000" font-family="Fira Code" font-size="18" lengthAdjust="spacing" textLength="29" x="372.5" y="213.7549">arg</text><ellipse cx="387" cy="236" fill="#F2F2F2" rx="6" ry="6" style="stroke:#000000;stroke-width:1.5;"/><g id="cps.vid"><rect fill="#F2F2F2" height="82.8594" rx="12.5" ry="12.5" style="stroke:#000000;stroke-width:0.5;" width="222" x="153" y="400"/><line style="stroke:#000000;stroke-width:0.5;" x1="153" x2="375" y1="430.9531" y2="430.9531"/><text fill="#000000" font-family="Fira Code" font-size="18" lengthAdjust="spacing" textLength="121" x="203.5" y="421.708">verify_is_dir()</text><text fill="#000000" font-family="Fira Code" font-size="18" lengthAdjust="spacing" textLength="180" x="158" y="452.6611">- Required arg: path</text><text fill="#000000" font-family="Fira Code" font-size="18" lengthAdjust="spacing" textLength="202" x="158" y="473.6143">- Output: path or Error</text></g><g id="cps.gi"><rect fill="#F2F2F2" height="103.8125" rx="12.5" ry="12.5" style="stroke:#000000;stroke-width:0.5;" width="263" x="105.5" y="544"/><line style="stroke:#000000;stroke-width:0.5;" x1="105.5" x2="368.5" y1="574.9531" y2="574.9531"/><text fill="#000000" font-family="Fira Code" font-size="18" lengthAdjust="spacing" textLength="76" x="199" y="565.708">get_ids()</text><text fill="#000000" font-family="Fira Code" font-size="18" lengthAdjust="spacing" textLength="180" x="110.5" y="596.6611">- Required arg: path</text><text fill="#000000" font-family="Fira Code" font-size="18" lengthAdjust="spacing" textLength="243" x="110.5" y="617.6143">- Output: list of existing IDs</text><text fill="#000000" font-family="Fira Code" font-size="18" lengthAdjust="spacing" textLength="223" x="122.5" y="638.5674">(otherwise an empty list)</text></g><g id="cps.cni"><rect fill="#F2F2F2" height="82.8594" rx="12.5" ry="12.5" style="stroke:#000000;stroke-width:0.5;" width="318" x="60" y="709"/><line style="stroke:#000000;stroke-width:0.5;" x1="60" x2="378" y1="739.9531" y2="739.9531"/><text fill="#000000" font-family="Fira Code" font-size="18" lengthAdjust="spacing" textLength="144" x="147" y="730.708">create_next_id()</text><text fill="#000000" font-family="Fira Code" font-size="18" lengthAdjust="spacing" textLength="298" x="65" y="761.6611">- Required arg: list of existing IDs</text><text fill="#000000" font-family="Fira Code" font-size="18" lengthAdjust="spacing" textLength="106" x="65" y="782.6143">- Output: ID</text></g><g id="cps.cip"><rect fill="#F2F2F2" height="82.8594" rx="12.5" ry="12.5" style="stroke:#000000;stroke-width:0.5;" width="465" x="102.5" y="853"/><line style="stroke:#000000;stroke-width:0.5;" x1="102.5" x2="567.5" y1="883.9531" y2="883.9531"/><text fill="#000000" font-family="Fira Code" font-size="18" lengthAdjust="spacing" textLength="143" x="263.5" y="874.708">create_id_path()</text><text fill="#000000" font-family="Fira Code" font-size="18" lengthAdjust="spacing" textLength="445" x="107.5" y="905.6611">- Required arg: path and ID to assign for directory</text><text fill="#000000" font-family="Fira Code" font-size="18" lengthAdjust="spacing" textLength="308" x="107.5" y="926.6143">- Output: path of created directory</text></g><g id="cps.cd"><rect fill="#F2F2F2" height="103.8125" rx="12.5" ry="12.5" style="stroke:#000000;stroke-width:0.5;" width="280" x="195" y="997"/><line style="stroke:#000000;stroke-width:0.5;" x1="195" x2="475" y1="1027.9531" y2="1027.9531"/><text fill="#000000" font-family="Fira Code" font-size="18" lengthAdjust="spacing" textLength="111" x="279.5" y="1018.708">create_dirs()</text><text fill="#000000" font-family="Fira Code" font-size="18" lengthAdjust="spacing" textLength="260" x="200" y="1049.6611">- Required arg: A list of paths</text><text fill="#000000" font-family="Fira Code" font-size="18" lengthAdjust="spacing" textLength="205" x="200" y="1070.6143">- Output: A list of paths</text><text fill="#000000" font-family="Fira Code" font-size="18" lengthAdjust="spacing" textLength="190" x="212" y="1091.5674">of created directories</text></g><g id="cps.cppt"><rect fill="#F2F2F2" height="103.8125" rx="12.5" ry="12.5" style="stroke:#000000;stroke-width:0.5;" width="323" x="310.5" y="1162"/><line style="stroke:#000000;stroke-width:0.5;" x1="310.5" x2="633.5" y1="1192.9531" y2="1192.9531"/><text fill="#000000" font-family="Fira Code" font-size="18" lengthAdjust="spacing" textLength="233" x="355.5" y="1183.708">create_properties_object()</text><text fill="#000000" font-family="Fira Code" font-size="18" lengthAdjust="spacing" textLength="191" x="315.5" y="1214.6611">- Output: JSON object</text><text fill="#000000" font-family="Fira Code" font-size="18" lengthAdjust="spacing" textLength="254" x="315.5" y="1235.6143">- Uses properties dataclasses</text><text fill="#000000" font-family="Fira Code" font-size="18" lengthAdjust="spacing" textLength="291" x="327.5" y="1256.5674">internally and sets default values</text></g><g id="cps.crt"><rect fill="#F2F2F2" height="82.8594" rx="12.5" ry="12.5" style="stroke:#000000;stroke-width:0.5;" width="266" x="280" y="1327"/><line style="stroke:#000000;stroke-width:0.5;" x1="280" x2="546" y1="1357.9531" y2="1357.9531"/><text fill="#000000" font-family="Fira Code" font-size="18" lengthAdjust="spacing" textLength="192" x="317" y="1348.708">create_readme_text()</text><text fill="#000000" font-family="Fira Code" font-size="18" lengthAdjust="spacing" textLength="246" x="285" y="1379.6611">- Required arg: JSON object</text><text fill="#000000" font-family="Fira Code" font-size="18" lengthAdjust="spacing" textLength="136" x="285" y="1400.6143">- Output: string</text></g><g id="cps.crp"><rect fill="#F2F2F2" height="82.8594" rx="12.5" ry="12.5" style="stroke:#000000;stroke-width:0.5;" width="252" x="23" y="1172.5"/><line style="stroke:#000000;stroke-width:0.5;" x1="23" x2="275" y1="1203.4531" y2="1203.4531"/><text fill="#000000" font-family="Fira Code" font-size="18" lengthAdjust="spacing" textLength="195" x="51.5" y="1194.208">create_readme_path()</text><text fill="#000000" font-family="Fira Code" font-size="18" lengthAdjust="spacing" textLength="180" x="28" y="1225.1611">- Required arg: path</text><text fill="#000000" font-family="Fira Code" font-size="18" lengthAdjust="spacing" textLength="232" x="28" y="1246.1143">- Output: path to README</text></g><g id="cps.cprop"><rect fill="#F2F2F2" height="82.8594" rx="12.5" ry="12.5" style="stroke:#000000;stroke-width:0.5;" width="266" x="669" y="1172.5"/><line style="stroke:#000000;stroke-width:0.5;" x1="669" x2="935" y1="1203.4531" y2="1203.4531"/><text fill="#000000" font-family="Fira Code" font-size="18" lengthAdjust="spacing" textLength="218" x="693" y="1194.208">create_properties_path()</text><text fill="#000000" font-family="Fira Code" font-size="18" lengthAdjust="spacing" textLength="180" x="674" y="1225.1611">- Required arg: path</text><text fill="#000000" font-family="Fira Code" font-size="18" lengthAdjust="spacing" textLength="246" x="674" y="1246.1143">- Output: path to properties</text></g><g id="cps.wf"><rect fill="#F2F2F2" height="166.6719" rx="12.5" ry="12.5" style="stroke:#000000;stroke-width:0.5;" width="362" x="317" y="1599"/><line style="stroke:#000000;stroke-width:0.5;" x1="317" x2="679" y1="1629.9531" y2="1629.9531"/><text fill="#000000" font-family="Fira Code" font-size="18" lengthAdjust="spacing" textLength="97" x="449.5" y="1620.708">write_file()</text><text fill="#000000" font-family="Fira Code" font-size="18" lengthAdjust="spacing" textLength="342" x="322" y="1651.6611">- Required args: string (including JSON</text><text fill="#000000" font-family="Fira Code" font-size="18" lengthAdjust="spacing" textLength="180" x="334" y="1672.6143">as a string) and path</text><text fill="#000000" font-family="Fira Code" font-size="18" lengthAdjust="spacing" textLength="254" x="322" y="1693.5674">- Output: path of created file</text><text fill="#000000" font-family="Fira Code" font-size="18" lengthAdjust="spacing" textLength="317" x="322" y="1714.5205">- Only one string and path at a time</text><text fill="#000000" font-family="Fira Code" font-size="18" lengthAdjust="spacing" textLength="320" x="322" y="1735.4736">- Used multiple times for each write</text><text fill="#000000" font-family="Fira Code" font-size="18" lengthAdjust="spacing" textLength="85" x="334" y="1756.4268">operation</text></g><rect fill="#555555" height="8" style="stroke:none;stroke-width:1.0;" width="80" x="373" y="1484"/><rect fill="#555555" height="8" style="stroke:none;stroke-width:1.0;" width="80" x="581" y="1364.5"/><rect fill="#555555" height="8" style="stroke:none;stroke-width:1.0;" width="80" x="458" y="1844"/><text fill="#000000" font-family="Fira Code" font-size="18" lengthAdjust="spacing" textLength="56" x="469.5" y="1953.708">return</text><ellipse cx="497.5" cy="1931" fill="#F2F2F2" rx="6" ry="6" style="stroke:#000000;stroke-width:1.5;"/><line style="stroke:#000000;stroke-width:1.5;" x1="501.8891" x2="494.1109" y1="1935.3891" y2="1927.6109"/><line style="stroke:#000000;stroke-width:1.5;" x1="501.8891" x2="494.1109" y1="1927.6109" y2="1935.3891"/><path d="M215.5,7 L558.5,7 A12.5,12.5 0 0 1 571,19.5 L571,84.8594 L203,84.8594 L203,19.5 A12.5,12.5 0 0 1 215.5,7 " fill="#F2F2F2" style="stroke:#F2F2F2;stroke-width:1.0;"/><rect fill="none" height="161.7656" rx="12.5" ry="12.5" style="stroke:#000000;stroke-width:0.5;" width="368" x="203" y="7"/><line style="stroke:#000000;stroke-width:0.5;" x1="203" x2="571" y1="84.8594" y2="84.8594"/><line style="stroke:#000000;stroke-width:0.5;" x1="203" x2="571" y1="37.9531" y2="37.9531"/><text fill="#000000" font-family="Fira Code" font-size="18" lengthAdjust="spacing" textLength="46" x="364" y="28.708">Input</text><text fill="#000000" font-family="Fira Code" font-size="18" lengthAdjust="spacing" textLength="294" x="208" y="54.6611">- Use `path_*()` functions to help</text><text fill="#000000" font-family="Fira Code" font-size="18" lengthAdjust="spacing" textLength="178" x="208" y="75.6143">create correct paths</text><g id="input.path"><rect fill="#F2F2F2" height="61.9063" rx="12.5" ry="12.5" style="stroke:#000000;stroke-width:0.5;" width="342" x="215" y="96.8594"/><line style="stroke:#000000;stroke-width:0.5;" x1="215" x2="557" y1="127.8125" y2="127.8125"/><text fill="#000000" font-family="Fira Code" font-size="18" lengthAdjust="spacing" textLength="39" x="366.5" y="118.5674">path</text><text fill="#000000" font-family="Fira Code" font-size="18" lengthAdjust="spacing" textLength="322" x="220" y="149.5205">- Path to where packages are stored</text></g><path d="M193.5,2010 L802.5,2010 A12.5,12.5 0 0 1 815,2022.5 L815,2066.9063 L181,2066.9063 L181,2022.5 A12.5,12.5 0 0 1 193.5,2010 " fill="#F2F2F2" style="stroke:#F2F2F2;stroke-width:1.0;"/><rect fill="none" height="128.9063" rx="12.5" ry="12.5" style="stroke:#000000;stroke-width:0.5;" width="634" x="181" y="2010"/><line style="stroke:#000000;stroke-width:0.5;" x1="181" x2="815" y1="2066.9063" y2="2066.9063"/><line style="stroke:#000000;stroke-width:0.5;" x1="181" x2="815" y1="2040.9531" y2="2040.9531"/><text fill="#000000" font-family="Fira Code" font-size="18" lengthAdjust="spacing" textLength="61" x="467.5" y="2031.708">Output</text><text fill="#000000" font-family="Fira Code" font-size="18" lengthAdjust="spacing" textLength="365" x="186" y="2057.6611">- The package parent folder is shown as /</text><g id="output.properties_file"><rect fill="#F2F2F2" height="50" rx="12.5" ry="12.5" style="stroke:#000000;stroke-width:0.5;" width="315" x="193" y="2078.9063"/><line style="stroke:#000000;stroke-width:0.5;" x1="193" x2="508" y1="2109.8594" y2="2109.8594"/><text fill="#000000" font-family="Fira Code" font-size="18" lengthAdjust="spacing" textLength="295" x="203" y="2100.6143">/packages/&lt;id&gt;/datapackage.json</text></g><g id="output.readme"><rect fill="#F2F2F2" height="50" rx="12.5" ry="12.5" style="stroke:#000000;stroke-width:0.5;" width="275" x="526" y="2078.9063"/><line style="stroke:#000000;stroke-width:0.5;" x1="526" x2="801" y1="2109.8594" y2="2109.8594"/><text fill="#000000" font-family="Fira Code" font-size="18" lengthAdjust="spacing" textLength="255" x="536" y="2100.6143">/packages/&lt;id&gt;/README.md</text></g><!--link input to arg--><g id="link_input_arg"><path d="M387,169.26 C387,194.97 387,213.47 387,223.82 " fill="none" id="input-to-arg" style="stroke:#000000;stroke-width:1.0;"/><polygon fill="#000000" points="387,229.82,391,220.82,387,224.82,383,220.82,387,229.82" style="stroke:#000000;stroke-width:1.0;"/></g><!--link arg to vid--><g id="link_arg_vid"><path d="M383.96,242.03 C371.01,263.45 322.8137,343.1951 291.6437,394.7651 " fill="none" id="arg-to-vid" style="stroke:#000000;stroke-width:1.0;"/><polygon fill="#000000" points="288.54,399.9,296.6188,394.2667,291.1264,395.6209,289.7722,390.1285,288.54,399.9" style="stroke:#000000;stroke-width:1.0;"/></g><!--link vid to gi--><g id="link_vid_gi"><path d="M251.79,483.25 C249.23,492.93 246.77,503.27 245,513 C243.2,522.85 242.4333,527.4746 241.3333,537.6746 " fill="none" id="vid-to-gi" style="stroke:#000000;stroke-width:1.0;"/><polygon fill="#000000" points="240.69,543.64,245.6319,535.1208,241.2261,538.6688,237.6781,534.263,240.69,543.64" style="stroke:#000000;stroke-width:1.0;"/></g><!--link gi to cni--><g id="link_gi_cni"><path d="M230.96,648.2 C228.63,667.93 226.7012,684.2211 224.5112,702.8311 " fill="none" id="gi-to-cni" style="stroke:#000000;stroke-width:1.0;"/><polygon fill="#000000" points="223.81,708.79,228.8344,700.3192,224.3944,703.8243,220.8893,699.3842,223.81,708.79" style="stroke:#000000;stroke-width:1.0;"/></g><!--link cni to cip--><g id="link_cni_cip"><path d="M252.24,792.19 C267.77,811.2 282.424,829.1434 297.954,848.1534 " fill="none" id="cni-to-cip" style="stroke:#000000;stroke-width:1.0;"/><polygon fill="#000000" points="301.75,852.8,299.1538,843.2995,298.5867,848.9279,292.9583,848.3608,301.75,852.8" style="stroke:#000000;stroke-width:1.0;"/></g><!--link arg to cip--><g id="link_arg_cip"><path d="M390.75,242.18 C398.17,252.94 414,278.74 414,303 C414,303 414,303 414,751.5 C414,789.16 396.1738,821.4008 375.6138,848.1808 " fill="none" id="arg-to-cip" style="stroke:#000000;stroke-width:1.0;"/><polygon fill="#000000" points="371.96,852.94,380.6135,848.2371,375.0048,848.974,374.2679,843.3654,371.96,852.94" style="stroke:#000000;stroke-width:1.0;"/></g><!--link cip to cd--><g id="link_cip_cd"><path d="M335,936.37 C335,954.98 335,971.21 335,990.92 " fill="none" id="cip-to-cd" style="stroke:#000000;stroke-width:1.0;"/><polygon fill="#000000" points="335,996.92,339,987.92,335,991.92,331,987.92,335,996.92" style="stroke:#000000;stroke-width:1.0;"/></g><!--link cppt to crt--><g id="link_cppt_crt"><path d="M452.19,1266.2 C444.56,1285.93 438.115,1302.5842 430.915,1321.1942 " fill="none" id="cppt-to-crt" style="stroke:#000000;stroke-width:1.0;"/><polygon fill="#000000" points="428.75,1326.79,435.728,1319.8396,430.5541,1322.1268,428.2669,1316.953,428.75,1326.79" style="stroke:#000000;stroke-width:1.0;"/></g><!--link cd to crp--><g id="link_cd_crp"><path d="M276.66,1101.13 C250.45,1124.09 224.4722,1146.8652 199.8622,1168.4352 " fill="none" id="cd-to-crp" style="stroke:#000000;stroke-width:1.0;"/><polygon fill="#000000" points="195.35,1172.39,204.7548,1169.4659,199.1101,1169.0943,199.4817,1163.4497,195.35,1172.39" style="stroke:#000000;stroke-width:1.0;"/></g><!--link cd to cprop--><g id="link_cd_cprop"><path d="M475.12,1098.91 C542.42,1122.4 616.4453,1148.2324 680.2953,1170.5224 " fill="none" id="cd-to-cprop" style="stroke:#000000;stroke-width:1.0;"/><polygon fill="#000000" points="685.96,1172.5,678.7813,1165.7572,681.2394,1170.852,676.1445,1173.3102,685.96,1172.5" style="stroke:#000000;stroke-width:1.0;"/></g><!--link cppt to prop_input--><g id="link_cppt_prop_input"><path d="M522.03,1266.2 C559.23,1304.28 601.3853,1347.4299 613.6953,1360.0199 " fill="none" id="cppt-to-prop_input" style="stroke:#000000;stroke-width:1.0;"/><polygon fill="#000000" points="617.89,1364.31,614.4581,1355.0784,614.3944,1360.7349,608.7379,1360.6713,617.89,1364.31" style="stroke:#000000;stroke-width:1.0;"/></g><!--link crt to readme_input--><g id="link_crt_readme_input"><path d="M413,1410.27 C413,1438.64 413,1467.2 413,1477.77 " fill="none" id="crt-to-readme_input" style="stroke:#000000;stroke-width:1.0;"/><polygon fill="#000000" points="413,1483.77,417,1474.77,413,1478.77,409,1474.77,413,1483.77" style="stroke:#000000;stroke-width:1.0;"/></g><!--link cprop to prop_input--><g id="link_cprop_prop_input"><path d="M753.5,1255.87 C707,1295.04 646.0984,1346.3539 629.5184,1360.3239 " fill="none" id="cprop-to-prop_input" style="stroke:#000000;stroke-width:1.0;"/><polygon fill="#000000" points="624.93,1364.19,634.39,1361.4498,628.7537,1360.9683,629.2352,1355.3319,624.93,1364.19" style="stroke:#000000;stroke-width:1.0;"/></g><!--link crp to readme_input--><g id="link_crp_readme_input"><path d="M164.66,1255.71 C182.85,1298.61 216.44,1365.92 263,1410 C306.58,1451.25 370.8218,1474.0247 396.9718,1482.1747 " fill="none" id="crp-to-readme_input" style="stroke:#000000;stroke-width:1.0;"/><polygon fill="#000000" points="402.7,1483.96,395.2978,1477.4632,397.9265,1482.4723,392.9174,1485.1009,402.7,1483.96" style="stroke:#000000;stroke-width:1.0;"/></g><!--link prop_input to wf--><g id="link_prop_input_wf"><path d="M619.93,1372.57 C613.48,1391.1 578.89,1489.85 547,1569 C543.1,1578.68 541.2468,1583.258 536.9968,1593.258 " fill="none" id="prop_input-to-wf" style="stroke:#000000;stroke-width:1.0;"/><polygon fill="#000000" points="534.65,1598.78,541.8516,1592.0616,536.6057,1594.1783,534.4889,1588.9325,534.65,1598.78" style="stroke:#000000;stroke-width:1.0;"/><text fill="#000000" font-family="sans-serif" font-size="14" lengthAdjust="spacing" textLength="90" x="587" y="1484.9951">input to write</text><text fill="#000000" font-family="sans-serif" font-size="14" lengthAdjust="spacing" textLength="94" x="585" y="1501.292">properties file</text></g><!--link readme_input to wf--><g id="link_readme_input_wf"><path d="M414.34,1492.02 C419.86,1504.53 439.1363,1548.2013 459.0563,1593.3113 " fill="none" id="readme_input-to-wf" style="stroke:#000000;stroke-width:1.0;"/><polygon fill="#000000" points="461.48,1598.8,461.5035,1588.9512,459.4602,1594.2261,454.1853,1592.1828,461.48,1598.8" style="stroke:#000000;stroke-width:1.0;"/><text fill="#000000" font-family="sans-serif" font-size="14" lengthAdjust="spacing" textLength="90" x="448" y="1548.9951">input to write</text><text fill="#000000" font-family="sans-serif" font-size="14" lengthAdjust="spacing" textLength="76" x="455" y="1565.292">readme file</text></g><!--link wf to as_list--><g id="link_wf_as_list"><path d="M498,1766.21 C498,1800.11 498,1827.79 498,1837.93 " fill="none" id="wf-to-as_list" style="stroke:#000000;stroke-width:1.0;"/><polygon fill="#000000" points="498,1843.93,502,1834.93,498,1838.93,494,1834.93,498,1843.93" style="stroke:#000000;stroke-width:1.0;"/><text fill="#000000" font-family="sans-serif" font-size="14" lengthAdjust="spacing" textLength="95" x="499" y="1809.9951">Convert to list</text></g><!--link as_list to return--><g id="link_as_list_return"><path d="M498,1852.08 C498,1864.33 498,1903.73 498,1918.97 " fill="none" id="as_list-to-return" style="stroke:#000000;stroke-width:1.0;"/><polygon fill="#000000" points="498,1924.97,502,1915.97,498,1919.97,494,1915.97,498,1924.97" style="stroke:#000000;stroke-width:1.0;"/></g><!--link return to output--><g id="link_return_output"><path d="M498,1937.04 C498,1949 498,1974.35 498,2003.98 " fill="none" id="return-to-output" style="stroke:#000000;stroke-width:1.0;"/><polygon fill="#000000" points="498,2009.98,502,2000.98,498,2004.98,494,2000.98,498,2009.98" style="stroke:#000000;stroke-width:1.0;"/></g><!--link crp to cppt--><!--link cppt to cprop--><!--SRC=[VLR9Rjim4BtxAwQvD2cG-1uO1e8cXnJeWYwdjb1PSIGnbKYLfE8OHV-zCrmaERQQWqrpblVcSORC2zzWX-0GPIaSGcLD1uttlRjUhwtONTNADyFFmQ4jZVQe_LLfkdNsl-ojUS3IJniXtxeJIgzMpWkFS7Ql-y6VWN2WU0L_LX1Nrt09NmZqHozyKxmwl_W1rQ1Bhunsu0qqsFRVT6cHqvJ6Ma82zdMhbt1Zww4ZFWuk-OzoiWKuvmTUKFokGOkqNVuIDJeGzCDvOr6k_exatWy-ipDX6UYb9IVxt8mfwDiI8bIcbMX1EN2DsMcENLDGohZEWEkDajkr55wadQi7PtI08jbwj5wXAohLucBmnxkRsxTtLvqCKII4x716FafJf9Z2UJkKVh1uVX7yozw5QlYRI_c8lmT5vPCIzNMGQpKYqnPiDbITtNymIlljDfyIwRjby-HxzeXMLVj2kK8gcy0UbIG7-bo2cenHyxWDniATjSQIdJam6AUQm6hqXP8kmTIABBLQ1acsZD4gvy5KW4-qKBg6-rltJGES6-fKkrFKVa83ThtV1z-Bn9Dv4DP48scjyOdfP8Krqw7F4tnE8S-SCy7xsqYQ0JdT4QAI1PUM4LNFILI_e01L8oadjxzmJjMQkjK27HFDZh7xMUpXALGGuUIXhqx40ce-7_vrH9F2yXcLt0dbgKQu6LM9OpowPJBF7FYaJb2ZkKc513hocCrimCnFlg76aUXzc8ZU7-2- -VJ-7KJFkPbkf_cm0WzpsPAm6AZHdA3LecttGNQ7T1j9hCJGUdWKxH1e7XABCrnuQgDCoGP8wq_ezOoMFIHDyqvzbVa6AIZN4kIyYMne8jilZr4s7dG9DLMyaUB1HSJ-l-hFKNaxiANl_o2FvkVOKzePVaWwCTXPHGJuKasekugCk-e8psNzu5pfiXqaBrblFbYA4yby4OusSKjvbaOdtUNPIrDV68qP9-S1uIcxLztCbnfDGaTze_eMWys5mKLHDX1g2gD0vGj-7YbmB3aTRxohDvi7kht3vHsjBC-IJRWYJDkHmIAz8fhVWoVbytCmxxCfQsfBtfmJ6S_nX7T_oflVxuagEmHbuaz-owC6irbCOX-KlnWNlN9Cr3syQqc2QtXjD3rh8OPt-BfBjiYM5GbmGHhUY_yah79DNnib9Uhls_abSx3BdVftzGy0]--></g></svg>