<?xml version="1.0" encoding="us-ascii" standalone="no"?><svg xmlns="http://www.w3.org/2000/svg" xmlns:xlink="http://www.w3.org/1999/xlink" contentStyleType="text/css" height="1253px" preserveAspectRatio="none" style="width:534px;height:1253px;background:#FFFFFF;" version="1.1" viewBox="0 0 534 1253" width="534px" zoomAndPan="magnify"><defs/><g><!--cluster cpt--><g id="cluster_cpt"><path d="M19.5,47.6982 L397.5,47.6982 A12.5,12.5 0 0 1 410,60.1982 L410,99.6045 L7,99.6045 L7,60.1982 A12.5,12.5 0 0 1 19.5,47.6982 " fill="#F2F2F2" style="stroke:#F2F2F2;stroke-width:1.0;"/><rect fill="none" height="1175" rx="12.5" ry="12.5" style="stroke:#000000;stroke-width:0.5;" width="403" x="7" y="47.6982"/><line style="stroke:#000000;stroke-width:0.5;" x1="7" x2="410" y1="99.6045" y2="99.6045"/><line style="stroke:#000000;stroke-width:0.5;" x1="7" x2="410" y1="73.6514" y2="73.6514"/><text fill="#000000" font-family="Fira Code" font-size="18" lengthAdjust="spacing" textLength="258" x="79.5" y="69.4063">create_properties_template()</text><text fill="#000000" font-family="Fira Code" font-size="18" lengthAdjust="spacing" textLength="370" x="12" y="92.8594">- Required arg: path to where to save file</text></g><text fill="#000000" font-family="Fira Code" font-size="18" lengthAdjust="spacing" textLength="29" x="267.5" y="25.4531">arg</text><ellipse cx="282" cy="47.6982" fill="#F2F2F2" rx="6" ry="6" style="stroke:#000000;stroke-width:1.5;"/><g id="cpt.url"><rect fill="#F2F2F2" height="82.8594" rx="12.5" ry="12.5" style="stroke:#000000;stroke-width:0.5;" width="265" x="23.5" y="273.6982"/><line style="stroke:#000000;stroke-width:0.5;" x1="23.5" x2="288.5" y1="304.6514" y2="304.6514"/><text fill="#000000" font-family="Fira Code" font-size="18" lengthAdjust="spacing" textLength="245" x="33.5" y="295.4063">DATA_PACKAGE_SPEC_URL</text><text fill="#000000" font-family="Fira Code" font-size="18" lengthAdjust="spacing" textLength="245" x="28.5" y="326.3594">- Variable of the URL to the</text><text fill="#000000" font-family="Fira Code" font-size="18" lengthAdjust="spacing" textLength="167" x="40.5" y="347.3125">Data Package Spec</text></g><g id="cpt.su"><rect fill="#F2F2F2" height="124.7656" rx="12.5" ry="12.5" style="stroke:#000000;stroke-width:0.5;" width="187" x="72.5" y="434.6982"/><line style="stroke:#000000;stroke-width:0.5;" x1="72.5" x2="259.5" y1="465.6514" y2="465.6514"/><text fill="#000000" font-family="Fira Code" font-size="18" lengthAdjust="spacing" textLength="104" x="114" y="456.4063">scrape_url()</text><text fill="#000000" font-family="Fira Code" font-size="18" lengthAdjust="spacing" textLength="165" x="77.5" y="487.3594">- Required arg: url</text><text fill="#000000" font-family="Fira Code" font-size="18" lengthAdjust="spacing" textLength="131" x="77.5" y="508.3125">- Output: JSON</text><text fill="#000000" font-family="Fira Code" font-size="18" lengthAdjust="spacing" textLength="167" x="77.5" y="529.2656">- Scrapes the JSON</text><text fill="#000000" font-family="Fira Code" font-size="18" lengthAdjust="spacing" textLength="125" x="89.5" y="550.2188">using web API</text></g><g id="cpt.dpf"><rect fill="#F2F2F2" height="124.7656" rx="12.5" ry="12.5" style="stroke:#000000;stroke-width:0.5;" width="286" x="37" y="637.6982"/><line style="stroke:#000000;stroke-width:0.5;" x1="37" x2="323" y1="668.6514" y2="668.6514"/><text fill="#000000" font-family="Fira Code" font-size="18" lengthAdjust="spacing" textLength="197" x="81.5" y="659.4063">drop_property_fields()</text><text fill="#000000" font-family="Fira Code" font-size="18" lengthAdjust="spacing" textLength="238" x="42" y="690.3594">- Required arg: properties,</text><text fill="#000000" font-family="Fira Code" font-size="18" lengthAdjust="spacing" textLength="186" x="54" y="711.3125">field (a list of strings)</text><text fill="#000000" font-family="Fira Code" font-size="18" lengthAdjust="spacing" textLength="131" x="42" y="732.2656">- Output: JSON</text><text fill="#000000" font-family="Fira Code" font-size="18" lengthAdjust="spacing" textLength="266" x="42" y="753.2188">- Drop any fields we don't use</text></g><g id="cpt.epf"><rect fill="#F2F2F2" height="124.7656" rx="12.5" ry="12.5" style="stroke:#000000;stroke-width:0.5;" width="341" x="23.5" y="840.6982"/><line style="stroke:#000000;stroke-width:0.5;" x1="23.5" x2="364.5" y1="871.6514" y2="871.6514"/><text fill="#000000" font-family="Fira Code" font-size="18" lengthAdjust="spacing" textLength="182" x="103" y="862.4063">edit_property_field()</text><text fill="#000000" font-family="Fira Code" font-size="18" lengthAdjust="spacing" textLength="305" x="28.5" y="893.3594">- Required arg: properties, field (a</text><text fill="#000000" font-family="Fira Code" font-size="18" lengthAdjust="spacing" textLength="203" x="40.5" y="914.3125">string), value (a string)</text><text fill="#000000" font-family="Fira Code" font-size="18" lengthAdjust="spacing" textLength="131" x="28.5" y="935.2656">- Output: JSON</text><text fill="#000000" font-family="Fira Code" font-size="18" lengthAdjust="spacing" textLength="321" x="28.5" y="956.2188">- Edit field values to defaults we use</text></g><g id="cpt.wf"><rect fill="#F2F2F2" height="82.8594" rx="12.5" ry="12.5" style="stroke:#000000;stroke-width:0.5;" width="289" x="90.5" y="1043.6982"/><line style="stroke:#000000;stroke-width:0.5;" x1="90.5" x2="379.5" y1="1074.6514" y2="1074.6514"/><text fill="#000000" font-family="Fira Code" font-size="18" lengthAdjust="spacing" textLength="97" x="186.5" y="1065.4063">write_file()</text><text fill="#000000" font-family="Fira Code" font-size="18" lengthAdjust="spacing" textLength="269" x="95.5" y="1096.3594">- Required arg: JSON and path</text><text fill="#000000" font-family="Fira Code" font-size="18" lengthAdjust="spacing" textLength="125" x="95.5" y="1117.3125">- Output: path</text></g><text fill="#000000" font-family="Fira Code" font-size="18" lengthAdjust="spacing" textLength="56" x="206.5" y="1245.4063">return</text><ellipse cx="234.5" cy="1222.6982" fill="#F2F2F2" rx="6" ry="6" style="stroke:#000000;stroke-width:1.5;"/><line style="stroke:#000000;stroke-width:1.5;" x1="238.8891" x2="231.1109" y1="1227.0873" y2="1219.3092"/><line style="stroke:#000000;stroke-width:1.5;" x1="238.8891" x2="231.1109" y1="1219.3092" y2="1227.0873"/><!--link arg to url--><!--link url to su--><g id="link_url_su"><path d="M135.63,356.7682 C130.4,371.6782 126.99,388.8082 130,404.6982 C131.55,412.8882 133.83,421.2882 136.49,429.5182 " fill="none" id="url-to-su" style="stroke:#000000;stroke-width:1.0;"/><polygon fill="#000000" points="138.19,434.6182,139.1298,424.8143,136.6046,429.8763,131.5426,427.351,138.19,434.6182" style="stroke:#000000;stroke-width:1.0;"/><text fill="#000000" font-family="sans-serif" font-size="14" lengthAdjust="spacing" textLength="39" x="131" y="400.6934">string</text></g><!--link su to dpf--><g id="link_su_dpf"><path d="M108.63,559.7982 C100.74,574.9682 97.1,591.5282 103,607.6982 C106.21,616.4982 110.68,625.0482 115.87,633.1482 " fill="none" id="su-to-dpf" style="stroke:#000000;stroke-width:1.0;"/><polygon fill="#000000" points="118.83,637.6082,117.1659,627.901,116.0565,633.448,110.5095,632.3386,118.83,637.6082" style="stroke:#000000;stroke-width:1.0;"/><text fill="#000000" font-family="sans-serif" font-size="14" lengthAdjust="spacing" textLength="80" x="104" y="603.6934">JSON object</text></g><!--link dpf to epf--><g id="link_dpf_epf"><path d="M120.71,762.9582 C112.67,778.0582 108.99,794.5382 115,810.6982 C118.27,819.4982 122.81,828.0082 128.08,836.0782 " fill="none" id="dpf-to-epf" style="stroke:#000000;stroke-width:1.0;"/><polygon fill="#000000" points="131.07,840.5082,129.3444,830.8117,128.2702,836.3657,122.7163,835.2914,131.07,840.5082" style="stroke:#000000;stroke-width:1.0;"/><text fill="#000000" font-family="sans-serif" font-size="14" lengthAdjust="spacing" textLength="80" x="116" y="806.6934">JSON object</text></g><!--link arg to wf--><g id="link_arg_wf"><path d="M288.34,53.7682 C300.31,63.9482 325,88.1682 325,114.6982 C325,114.6982 325,114.6982 325,208.6982 C325,546.0982 527.59,661.3282 382,965.6982 C367.43,996.1582 340.79,1021.2882 314.15,1040.4482 " fill="none" id="arg-to-wf" style="stroke:#000000;stroke-width:1.0;"/><polygon fill="#000000" points="309.88,1043.4682,319.5389,1041.5433,313.964,1040.5837,314.9237,1035.0088,309.88,1043.4682" style="stroke:#000000;stroke-width:1.0;"/><text fill="#000000" font-family="sans-serif" font-size="14" lengthAdjust="spacing" textLength="78" x="349" y="400.6934">path object</text></g><!--link epf to wf--><g id="link_epf_wf"><path d="M150.01,965.7882 C143.84,981.5482 141.75,998.3682 149,1013.6982 C153.54,1023.2982 160.1,1032.0282 167.6,1039.8082 " fill="none" id="epf-to-wf" style="stroke:#000000;stroke-width:1.0;"/><polygon fill="#000000" points="171.36,1043.5582,167.8245,1034.3659,167.8245,1040.0227,162.1676,1040.0227,171.36,1043.5582" style="stroke:#000000;stroke-width:1.0;"/><text fill="#000000" font-family="sans-serif" font-size="14" lengthAdjust="spacing" textLength="80" x="150" y="1009.6934">JSON object</text></g><!--link wf to return--><g id="link_wf_return"><path d="M235,1126.8482 C235,1155.9882 235,1193.1282 235,1211.0582 " fill="none" id="wf-to-return" style="stroke:#000000;stroke-width:1.0;"/><polygon fill="#000000" points="235,1216.3682,239,1207.3682,235,1211.3682,231,1207.3682,235,1216.3682" style="stroke:#000000;stroke-width:1.0;"/><text fill="#000000" font-family="sans-serif" font-size="14" lengthAdjust="spacing" textLength="78" x="236" y="1170.6934">path object</text></g><!--SRC=[XPDDZzCm48Rl-HL3BsobxVPUhIfLsmhn8RRQ0XT0aHjF6aFY17kyeKByTsQSf0rL1PSwcezttgVslA02AmIFg3Fb4N9NLr0GDNundplLtXqC5M4VFBgijeIMxhAwcW_riyRLtp2ZSo3gpIjbR99uKeGmoHpocN9fWuuC-fImQagEtKmde3na3S6l1EAvW1ayuOzW76fGxh20Hb41L4DRe4FvyEgPZPeI4-xfPd0XtD-pEtVSriRISYavYSu-5qPhj5-N45nvxfYiLnzMwNRry7RrQfFkjfk7zEFJksY7wu3hv10tdvGpQbyYr3am7N2PkE3FBnPWhKZ1LcNVrG5Xrs0s6k4pfnfCMQW7zK6IuGgaU3kb7WCrWHRmPlVu_XpTHJKVFKX6fWTlx05QtCDg-xhtF9ijknPFZhCZFvflOBY6OveRBBNldUacvph-lNO1fukxbPcn3suKbCQJ_2dT73yT2LmG3E4rAu6onqx3it7GjNr9p84Tg9ZlggKLwhsyhX42QaCN23q1HWBy7y79lg1qpgUtyApAWCBKHqPA5oX3UCD6UgtOxELDQCnLA2c2TKZ28apu3wRM6LuFUT0zIYiaxJMGAA2iZajnBXeyzj7uxdbepCRrwMTsza-fgtOSKd1MjkcdeT4ojLrZd_vRztVo1m00]--></g></svg>