<?xml version="1.0" encoding="us-ascii" standalone="no"?><svg xmlns="http://www.w3.org/2000/svg" xmlns:xlink="http://www.w3.org/1999/xlink" contentStyleType="text/css" height="2103px" preserveAspectRatio="none" style="width:964px;height:2103px;background:#FFFFFF;" version="1.1" viewBox="0 0 964 2103" width="964px" zoomAndPan="magnify"><defs/><g><!--cluster cps--><g id="cluster_cps"><path d="M19.5,236 L938.5,236 A12.5,12.5 0 0 1 951,248.5 L951,287.9063 L7,287.9063 L7,248.5 A12.5,12.5 0 0 1 19.5,236 " fill="#F2F2F2" style="stroke:#F2F2F2;stroke-width:1.0;"/><rect fill="none" height="1654" rx="12.5" ry="12.5" style="stroke:#000000;stroke-width:0.5;" width="944" x="7" y="236"/><line style="stroke:#000000;stroke-width:0.5;" x1="7" x2="951" y1="287.9063" y2="287.9063"/><line style="stroke:#000000;stroke-width:0.5;" x1="7" x2="951" y1="261.9531" y2="261.9531"/><text fill="#000000" font-family="Fira Code" font-size="18" lengthAdjust="spacing" textLength="240" x="359" y="257.708">create_package_structure()</text><text fill="#000000" font-family="Fira Code" font-size="18" lengthAdjust="spacing" textLength="180" x="12" y="281.1611">- Required arg: path</text></g><text fill="#000000" font-family="Fira Code" font-size="18" lengthAdjust="spacing" textLength="29" x="457.5" y="213.7549">arg</text><ellipse cx="472" cy="236" fill="#F2F2F2" rx="6" ry="6" style="stroke:#000000;stroke-width:1.5;"/><g id="cps.vid"><rect fill="#F2F2F2" height="82.8594" rx="12.5" ry="12.5" style="stroke:#000000;stroke-width:0.5;" width="222" x="361" y="338"/><line style="stroke:#000000;stroke-width:0.5;" x1="361" x2="583" y1="368.9531" y2="368.9531"/><text fill="#000000" font-family="Fira Code" font-size="18" lengthAdjust="spacing" textLength="121" x="411.5" y="359.708">verify_is_dir()</text><text fill="#000000" font-family="Fira Code" font-size="18" lengthAdjust="spacing" textLength="180" x="366" y="390.6611">- Required arg: path</text><text fill="#000000" font-family="Fira Code" font-size="18" lengthAdjust="spacing" textLength="202" x="366" y="411.6143">- Output: path or Error</text></g><g id="cps.gi"><rect fill="#F2F2F2" height="103.8125" rx="12.5" ry="12.5" style="stroke:#000000;stroke-width:0.5;" width="263" x="340.5" y="482"/><line style="stroke:#000000;stroke-width:0.5;" x1="340.5" x2="603.5" y1="512.9531" y2="512.9531"/><text fill="#000000" font-family="Fira Code" font-size="18" lengthAdjust="spacing" textLength="76" x="434" y="503.708">get_ids()</text><text fill="#000000" font-family="Fira Code" font-size="18" lengthAdjust="spacing" textLength="180" x="345.5" y="534.6611">- Required arg: path</text><text fill="#000000" font-family="Fira Code" font-size="18" lengthAdjust="spacing" textLength="243" x="345.5" y="555.6143">- Output: list of existing IDs</text><text fill="#000000" font-family="Fira Code" font-size="18" lengthAdjust="spacing" textLength="223" x="357.5" y="576.5674">(otherwise an empty list)</text></g><g id="cps.cni"><rect fill="#F2F2F2" height="82.8594" rx="12.5" ry="12.5" style="stroke:#000000;stroke-width:0.5;" width="318" x="313" y="647"/><line style="stroke:#000000;stroke-width:0.5;" x1="313" x2="631" y1="677.9531" y2="677.9531"/><text fill="#000000" font-family="Fira Code" font-size="18" lengthAdjust="spacing" textLength="144" x="400" y="668.708">create_next_id()</text><text fill="#000000" font-family="Fira Code" font-size="18" lengthAdjust="spacing" textLength="298" x="318" y="699.6611">- Required arg: list of existing IDs</text><text fill="#000000" font-family="Fira Code" font-size="18" lengthAdjust="spacing" textLength="106" x="318" y="720.6143">- Output: ID</text></g><g id="cps.cip"><rect fill="#F2F2F2" height="82.8594" rx="12.5" ry="12.5" style="stroke:#000000;stroke-width:0.5;" width="465" x="239.5" y="791"/><line style="stroke:#000000;stroke-width:0.5;" x1="239.5" x2="704.5" y1="821.9531" y2="821.9531"/><text fill="#000000" font-family="Fira Code" font-size="18" lengthAdjust="spacing" textLength="143" x="400.5" y="812.708">create_id_path()</text><text fill="#000000" font-family="Fira Code" font-size="18" lengthAdjust="spacing" textLength="445" x="244.5" y="843.6611">- Required arg: path and ID to assign for directory</text><text fill="#000000" font-family="Fira Code" font-size="18" lengthAdjust="spacing" textLength="308" x="244.5" y="864.6143">- Output: path of created directory</text></g><g id="cps.cd"><rect fill="#F2F2F2" height="103.8125" rx="12.5" ry="12.5" style="stroke:#000000;stroke-width:0.5;" width="280" x="332" y="935"/><line style="stroke:#000000;stroke-width:0.5;" x1="332" x2="612" y1="965.9531" y2="965.9531"/><text fill="#000000" font-family="Fira Code" font-size="18" lengthAdjust="spacing" textLength="111" x="416.5" y="956.708">create_dirs()</text><text fill="#000000" font-family="Fira Code" font-size="18" lengthAdjust="spacing" textLength="260" x="337" y="987.6611">- Required arg: A list of paths</text><text fill="#000000" font-family="Fira Code" font-size="18" lengthAdjust="spacing" textLength="205" x="337" y="1008.6143">- Output: A list of paths</text><text fill="#000000" font-family="Fira Code" font-size="18" lengthAdjust="spacing" textLength="190" x="349" y="1029.5674">of created directories</text></g><g id="cps.cppt"><rect fill="#F2F2F2" height="124.7656" rx="12.5" ry="12.5" style="stroke:#000000;stroke-width:0.5;" width="323" x="310.5" y="1100"/><line style="stroke:#000000;stroke-width:0.5;" x1="310.5" x2="633.5" y1="1130.9531" y2="1130.9531"/><text fill="#000000" font-family="Fira Code" font-size="18" lengthAdjust="spacing" textLength="233" x="355.5" y="1121.708">create_properties_object()</text><text fill="#000000" font-family="Fira Code" font-size="18" lengthAdjust="spacing" textLength="180" x="315.5" y="1152.6611">- Required arg: path</text><text fill="#000000" font-family="Fira Code" font-size="18" lengthAdjust="spacing" textLength="191" x="315.5" y="1173.6143">- Output: JSON object</text><text fill="#000000" font-family="Fira Code" font-size="18" lengthAdjust="spacing" textLength="254" x="315.5" y="1194.5674">- Uses properties dataclasses</text><text fill="#000000" font-family="Fira Code" font-size="18" lengthAdjust="spacing" textLength="291" x="327.5" y="1215.5205">internally and sets default values</text></g><g id="cps.crt"><rect fill="#F2F2F2" height="82.8594" rx="12.5" ry="12.5" style="stroke:#000000;stroke-width:0.5;" width="266" x="280" y="1286"/><line style="stroke:#000000;stroke-width:0.5;" x1="280" x2="546" y1="1316.9531" y2="1316.9531"/><text fill="#000000" font-family="Fira Code" font-size="18" lengthAdjust="spacing" textLength="192" x="317" y="1307.708">create_readme_text()</text><text fill="#000000" font-family="Fira Code" font-size="18" lengthAdjust="spacing" textLength="246" x="285" y="1338.6611">- Required arg: JSON object</text><text fill="#000000" font-family="Fira Code" font-size="18" lengthAdjust="spacing" textLength="136" x="285" y="1359.6143">- Output: string</text></g><g id="cps.crp"><rect fill="#F2F2F2" height="82.8594" rx="12.5" ry="12.5" style="stroke:#000000;stroke-width:0.5;" width="252" x="23" y="1121"/><line style="stroke:#000000;stroke-width:0.5;" x1="23" x2="275" y1="1151.9531" y2="1151.9531"/><text fill="#000000" font-family="Fira Code" font-size="18" lengthAdjust="spacing" textLength="195" x="51.5" y="1142.708">create_readme_path()</text><text fill="#000000" font-family="Fira Code" font-size="18" lengthAdjust="spacing" textLength="180" x="28" y="1173.6611">- Required arg: path</text><text fill="#000000" font-family="Fira Code" font-size="18" lengthAdjust="spacing" textLength="232" x="28" y="1194.6143">- Output: path to README</text></g><g id="cps.cprop"><rect fill="#F2F2F2" height="82.8594" rx="12.5" ry="12.5" style="stroke:#000000;stroke-width:0.5;" width="266" x="669" y="1121"/><line style="stroke:#000000;stroke-width:0.5;" x1="669" x2="935" y1="1151.9531" y2="1151.9531"/><text fill="#000000" font-family="Fira Code" font-size="18" lengthAdjust="spacing" textLength="218" x="693" y="1142.708">create_properties_path()</text><text fill="#000000" font-family="Fira Code" font-size="18" lengthAdjust="spacing" textLength="180" x="674" y="1173.6611">- Required arg: path</text><text fill="#000000" font-family="Fira Code" font-size="18" lengthAdjust="spacing" textLength="246" x="674" y="1194.6143">- Output: path to properties</text></g><g id="cps.wf"><rect fill="#F2F2F2" height="166.6719" rx="12.5" ry="12.5" style="stroke:#000000;stroke-width:0.5;" width="362" x="317" y="1558"/><line style="stroke:#000000;stroke-width:0.5;" x1="317" x2="679" y1="1588.9531" y2="1588.9531"/><text fill="#000000" font-family="Fira Code" font-size="18" lengthAdjust="spacing" textLength="97" x="449.5" y="1579.708">write_file()</text><text fill="#000000" font-family="Fira Code" font-size="18" lengthAdjust="spacing" textLength="342" x="322" y="1610.6611">- Required args: string (including JSON</text><text fill="#000000" font-family="Fira Code" font-size="18" lengthAdjust="spacing" textLength="180" x="334" y="1631.6143">as a string) and path</text><text fill="#000000" font-family="Fira Code" font-size="18" lengthAdjust="spacing" textLength="254" x="322" y="1652.5674">- Output: path of created file</text><text fill="#000000" font-family="Fira Code" font-size="18" lengthAdjust="spacing" textLength="317" x="322" y="1673.5205">- Only one string and path at a time</text><text fill="#000000" font-family="Fira Code" font-size="18" lengthAdjust="spacing" textLength="320" x="322" y="1694.4736">- Used multiple times for each write</text><text fill="#000000" font-family="Fira Code" font-size="18" lengthAdjust="spacing" textLength="85" x="334" y="1715.4268">operation</text></g><rect fill="#555555" height="8" style="stroke:none;stroke-width:1.0;" width="80" x="373" y="1443"/><rect fill="#555555" height="8" style="stroke:none;stroke-width:1.0;" width="80" x="581" y="1323.5"/><rect fill="#555555" height="8" style="stroke:none;stroke-width:1.0;" width="80" x="458" y="1803"/><text fill="#000000" font-family="Fira Code" font-size="18" lengthAdjust="spacing" textLength="56" x="469.5" y="1912.708">return</text><ellipse cx="497.5" cy="1890" fill="#F2F2F2" rx="6" ry="6" style="stroke:#000000;stroke-width:1.5;"/><line style="stroke:#000000;stroke-width:1.5;" x1="501.8891" x2="494.1109" y1="1894.3891" y2="1886.6109"/><line style="stroke:#000000;stroke-width:1.5;" x1="501.8891" x2="494.1109" y1="1886.6109" y2="1894.3891"/><path d="M300.5,7 L643.5,7 A12.5,12.5 0 0 1 656,19.5 L656,84.8594 L288,84.8594 L288,19.5 A12.5,12.5 0 0 1 300.5,7 " fill="#F2F2F2" style="stroke:#F2F2F2;stroke-width:1.0;"/><rect fill="none" height="161.7656" rx="12.5" ry="12.5" style="stroke:#000000;stroke-width:0.5;" width="368" x="288" y="7"/><line style="stroke:#000000;stroke-width:0.5;" x1="288" x2="656" y1="84.8594" y2="84.8594"/><line style="stroke:#000000;stroke-width:0.5;" x1="288" x2="656" y1="37.9531" y2="37.9531"/><text fill="#000000" font-family="Fira Code" font-size="18" lengthAdjust="spacing" textLength="46" x="449" y="28.708">Input</text><text fill="#000000" font-family="Fira Code" font-size="18" lengthAdjust="spacing" textLength="294" x="293" y="54.6611">- Use `path_*()` functions to help</text><text fill="#000000" font-family="Fira Code" font-size="18" lengthAdjust="spacing" textLength="178" x="293" y="75.6143">create correct paths</text><g id="input.path"><rect fill="#F2F2F2" height="61.9063" rx="12.5" ry="12.5" style="stroke:#000000;stroke-width:0.5;" width="342" x="300" y="96.8594"/><line style="stroke:#000000;stroke-width:0.5;" x1="300" x2="642" y1="127.8125" y2="127.8125"/><text fill="#000000" font-family="Fira Code" font-size="18" lengthAdjust="spacing" textLength="39" x="451.5" y="118.5674">path</text><text fill="#000000" font-family="Fira Code" font-size="18" lengthAdjust="spacing" textLength="322" x="305" y="149.5205">- Path to where packages are stored</text></g><path d="M193.5,1969 L802.5,1969 A12.5,12.5 0 0 1 815,1981.5 L815,2025.9063 L181,2025.9063 L181,1981.5 A12.5,12.5 0 0 1 193.5,1969 " fill="#F2F2F2" style="stroke:#F2F2F2;stroke-width:1.0;"/><rect fill="none" height="128.9063" rx="12.5" ry="12.5" style="stroke:#000000;stroke-width:0.5;" width="634" x="181" y="1969"/><line style="stroke:#000000;stroke-width:0.5;" x1="181" x2="815" y1="2025.9063" y2="2025.9063"/><line style="stroke:#000000;stroke-width:0.5;" x1="181" x2="815" y1="1999.9531" y2="1999.9531"/><text fill="#000000" font-family="Fira Code" font-size="18" lengthAdjust="spacing" textLength="61" x="467.5" y="1990.708">Output</text><text fill="#000000" font-family="Fira Code" font-size="18" lengthAdjust="spacing" textLength="365" x="186" y="2016.6611">- The package parent folder is shown as /</text><g id="output.properties_file"><rect fill="#F2F2F2" height="50" rx="12.5" ry="12.5" style="stroke:#000000;stroke-width:0.5;" width="315" x="193" y="2037.9063"/><line style="stroke:#000000;stroke-width:0.5;" x1="193" x2="508" y1="2068.8594" y2="2068.8594"/><text fill="#000000" font-family="Fira Code" font-size="18" lengthAdjust="spacing" textLength="295" x="203" y="2059.6143">/packages/&lt;id&gt;/datapackage.json</text></g><g id="output.readme"><rect fill="#F2F2F2" height="50" rx="12.5" ry="12.5" style="stroke:#000000;stroke-width:0.5;" width="275" x="526" y="2037.9063"/><line style="stroke:#000000;stroke-width:0.5;" x1="526" x2="801" y1="2068.8594" y2="2068.8594"/><text fill="#000000" font-family="Fira Code" font-size="18" lengthAdjust="spacing" textLength="255" x="536" y="2059.6143">/packages/&lt;id&gt;/README.md</text></g><!--link input to arg--><g id="link_input_arg"><path d="M472,169.26 C472,194.97 472,213.47 472,223.82 " fill="none" id="input-to-arg" style="stroke:#000000;stroke-width:1.0;"/><polygon fill="#000000" points="472,229.82,476,220.82,472,224.82,468,220.82,472,229.82" style="stroke:#000000;stroke-width:1.0;"/></g><!--link arg to vid--><g id="link_arg_vid"><path d="M472,242.04 C472,257.2 472,297.5 472,331.99 " fill="none" id="arg-to-vid" style="stroke:#000000;stroke-width:1.0;"/><polygon fill="#000000" points="472,337.99,476,328.99,472,332.99,468,328.99,472,337.99" style="stroke:#000000;stroke-width:1.0;"/></g><!--link vid to gi--><g id="link_vid_gi"><path d="M472,421.37 C472,439.98 472,456.21 472,475.92 " fill="none" id="vid-to-gi" style="stroke:#000000;stroke-width:1.0;"/><polygon fill="#000000" points="472,481.92,476,472.92,472,476.92,468,472.92,472,481.92" style="stroke:#000000;stroke-width:1.0;"/></g><!--link gi to cni--><g id="link_gi_cni"><path d="M472,586.2 C472,605.93 472,622.18 472,640.79 " fill="none" id="gi-to-cni" style="stroke:#000000;stroke-width:1.0;"/><polygon fill="#000000" points="472,646.79,476,637.79,472,641.79,468,637.79,472,646.79" style="stroke:#000000;stroke-width:1.0;"/></g><!--link cni to cip--><g id="link_cni_cip"><path d="M472,730.19 C472,749.2 472,765.79 472,784.8 " fill="none" id="cni-to-cip" style="stroke:#000000;stroke-width:1.0;"/><polygon fill="#000000" points="472,790.8,476,781.8,472,785.8,468,781.8,472,790.8" style="stroke:#000000;stroke-width:1.0;"/></g><!--link cip to cd--><g id="link_cip_cd"><path d="M472,874.37 C472,892.98 472,909.21 472,928.92 " fill="none" id="cip-to-cd" style="stroke:#000000;stroke-width:1.0;"/><polygon fill="#000000" points="472,934.92,476,925.92,472,929.92,468,925.92,472,934.92" style="stroke:#000000;stroke-width:1.0;"/></g><!--link cd to cppt--><g id="link_cd_cppt"><path d="M472,1039.12 C472,1058.11 472,1073.86 472,1093.7 " fill="none" id="cd-to-cppt" style="stroke:#000000;stroke-width:1.0;"/><polygon fill="#000000" points="472,1099.7,476,1090.7,472,1094.7,468,1090.7,472,1099.7" style="stroke:#000000;stroke-width:1.0;"/></g><!--link cppt to crt--><g id="link_cppt_crt"><path d="M449.69,1225.12 C442.38,1245.32 436.493,1261.6085 429.873,1279.8885 " fill="none" id="cppt-to-crt" style="stroke:#000000;stroke-width:1.0;"/><polygon fill="#000000" points="427.83,1285.53,434.6555,1278.4298,429.5325,1280.8288,427.1336,1275.7058,427.83,1285.53" style="stroke:#000000;stroke-width:1.0;"/></g><!--link cd to crp--><g id="link_cd_crp"><path d="M376.84,1039.12 C328.27,1065.21 275.2959,1093.6611 229.8459,1118.0711 " fill="none" id="cd-to-crp" style="stroke:#000000;stroke-width:1.0;"/><polygon fill="#000000" points="224.56,1120.91,234.3814,1120.1756,228.9649,1118.5442,230.5962,1113.1277,224.56,1120.91" style="stroke:#000000;stroke-width:1.0;"/></g><!--link cd to cprop--><g id="link_cd_cprop"><path d="M569.23,1039.12 C618.85,1065.21 673.0592,1093.7079 719.4892,1118.1179 " fill="none" id="cd-to-cprop" style="stroke:#000000;stroke-width:1.0;"/><polygon fill="#000000" points="724.8,1120.91,718.6952,1113.1814,720.3744,1118.5833,714.9725,1120.2624,724.8,1120.91" style="stroke:#000000;stroke-width:1.0;"/></g><!--link cppt to prop_input--><g id="link_cppt_prop_input"><path d="M528.33,1225.12 C564.59,1264.79 602.9214,1306.7218 614.1214,1318.9718 " fill="none" id="cppt-to-prop_input" style="stroke:#000000;stroke-width:1.0;"/><polygon fill="#000000" points="618.17,1323.4,615.0492,1314.0587,614.7962,1319.7099,609.145,1319.4568,618.17,1323.4" style="stroke:#000000;stroke-width:1.0;"/></g><!--link crt to readme_input--><g id="link_crt_readme_input"><path d="M413,1369.27 C413,1397.64 413,1426.2 413,1436.77 " fill="none" id="crt-to-readme_input" style="stroke:#000000;stroke-width:1.0;"/><polygon fill="#000000" points="413,1442.77,417,1433.77,413,1437.77,409,1433.77,413,1442.77" style="stroke:#000000;stroke-width:1.0;"/></g><!--link cprop to prop_input--><g id="link_cprop_prop_input"><path d="M756.79,1204.21 C709.88,1246.46 645.5576,1304.3838 629.0976,1319.2138 " fill="none" id="cprop-to-prop_input" style="stroke:#000000;stroke-width:1.0;"/><polygon fill="#000000" points="624.64,1323.23,634.0039,1320.1775,628.3547,1319.8832,628.649,1314.234,624.64,1323.23" style="stroke:#000000;stroke-width:1.0;"/></g><!--link crp to readme_input--><g id="link_crp_readme_input"><path d="M163.32,1204.37 C180.86,1249.47 214.34,1321.89 263,1369 C305.9,1410.54 369.9424,1433.015 396.5224,1441.145 " fill="none" id="crp-to-readme_input" style="stroke:#000000;stroke-width:1.0;"/><polygon fill="#000000" points="402.26,1442.9,394.8236,1436.4425,397.4787,1441.4375,392.4836,1444.0926,402.26,1442.9" style="stroke:#000000;stroke-width:1.0;"/></g><!--link prop_input to wf--><g id="link_prop_input_wf"><path d="M619.93,1331.57 C613.48,1350.1 578.89,1448.85 547,1528 C543.1,1537.68 541.2468,1542.258 536.9968,1552.258 " fill="none" id="prop_input-to-wf" style="stroke:#000000;stroke-width:1.0;"/><polygon fill="#000000" points="534.65,1557.78,541.8516,1551.0616,536.6057,1553.1783,534.4889,1547.9325,534.65,1557.78" style="stroke:#000000;stroke-width:1.0;"/><text fill="#000000" font-family="sans-serif" font-size="14" lengthAdjust="spacing" textLength="90" x="587" y="1443.9951">input to write</text><text fill="#000000" font-family="sans-serif" font-size="14" lengthAdjust="spacing" textLength="94" x="585" y="1460.292">properties file</text></g><!--link readme_input to wf--><g id="link_readme_input_wf"><path d="M414.34,1451.02 C419.86,1463.53 439.1363,1507.2013 459.0563,1552.3113 " fill="none" id="readme_input-to-wf" style="stroke:#000000;stroke-width:1.0;"/><polygon fill="#000000" points="461.48,1557.8,461.5035,1547.9512,459.4602,1553.2261,454.1853,1551.1828,461.48,1557.8" style="stroke:#000000;stroke-width:1.0;"/><text fill="#000000" font-family="sans-serif" font-size="14" lengthAdjust="spacing" textLength="90" x="448" y="1507.9951">input to write</text><text fill="#000000" font-family="sans-serif" font-size="14" lengthAdjust="spacing" textLength="76" x="455" y="1524.292">readme file</text></g><!--link wf to as_list--><g id="link_wf_as_list"><path d="M498,1725.21 C498,1759.11 498,1786.79 498,1796.93 " fill="none" id="wf-to-as_list" style="stroke:#000000;stroke-width:1.0;"/><polygon fill="#000000" points="498,1802.93,502,1793.93,498,1797.93,494,1793.93,498,1802.93" style="stroke:#000000;stroke-width:1.0;"/><text fill="#000000" font-family="sans-serif" font-size="14" lengthAdjust="spacing" textLength="95" x="499" y="1768.9951">Convert to list</text></g><!--link as_list to return--><g id="link_as_list_return"><path d="M498,1811.08 C498,1823.33 498,1862.73 498,1877.97 " fill="none" id="as_list-to-return" style="stroke:#000000;stroke-width:1.0;"/><polygon fill="#000000" points="498,1883.97,502,1874.97,498,1878.97,494,1874.97,498,1883.97" style="stroke:#000000;stroke-width:1.0;"/></g><!--link return to output--><g id="link_return_output"><path d="M498,1896.04 C498,1908 498,1933.35 498,1962.98 " fill="none" id="return-to-output" style="stroke:#000000;stroke-width:1.0;"/><polygon fill="#000000" points="498,1968.98,502,1959.98,498,1963.98,494,1959.98,498,1968.98" style="stroke:#000000;stroke-width:1.0;"/></g><!--link crp to cppt--><!--link cppt to cprop--><!--SRC=[VLPHRziu37xFh-3wSkq1RTwB841nxKC7x3RiRa-tmTCisbRFbdoKt3GOzj-FbANOQUBs8L54Yj_7ZwJKTw713i4Zwb9vX8fS1qq8lRzThqdjRceJck77u95APmFQS5EwRftzhtjoJrY6QIF6MtVAsDNA1nKGBXvjFuGBK1wChE3d2iRLBLp35mRztglG5BzVNds7Qh1bCCvw20uQRFkljYIKCAKZOYGGNx_w3Uwe7Zhcu-5Q_ZYcM41YVf85dzyrICZRvR-gHW-AV_ZW2FNgru7Sno5aTYuk8xsqb61_DuSG_4sC29LhDH8O3xvnEojdrtmeHLndmFN6wErQgw3IpisJTpP2iMmzKZ3eYygqk7ZuyyFT_OU7cqx7Koo4xd16VfIcI6SA7sWemq1uUHNzozx7REHRKlcC_ms6qsSbwjier-g0p5kmsN1sjF_aZ0tRRQuIwxiLy-HxyOnagdrXVA4D9R1dezc1FvUW9kEe-RWDZk21o17RXOE0IQW9hCPG6EqJJ6tOKfjba6JB6Atn0Lm5-C8BOsjulFTVBS2buqwbdU7sKnQmwyC- -bubdiA3iIOQIMkBBq8dAso53d-UuNCEUUQS2JxUZwG5KCAT81fTI6ePqVGInFGB2d0sccDA-ollJMsvMmcuJ3mxZlQpiyTLg624qyU-DX5Zr1DYx9YhKahjotEblpleC0xkmIt3ltAGsfmXmvEIg4Sw-fJDRAJS3xcJ3aFGXpW3VLXkceCrith_ryS_OOmpD_DjDHzUaE4kMnOQ8t6U6oIhsdOVo-2HRoUDbHhQ0C-g7J3b7tCGNYTPZ2DU1Ewop9yY0ph7_XLBEiw1hmDkkqm_Oj8ovBp7AFOOzMy8HcUQY7jklB1cMLB_PgdcgB8TsVBtMwNAvjVOKzYvoX9qOh0ZmmJapasekugDk-e4psVzuDBOiXsqB4LlgJEVKyby5IkTkAKuIvELhlhiPRbDdCMCa-E02Xmzc6xcotsdeUCsCdsBqURZNACg6uWvnRdXz9Myddpma78gxtYLRpPFVBd7ktsqYZnBDkMBE9ed1a9-PAmy5oycvDTYtcTJrDIMiZadSgZZ6U_-dBSyxnDLSOZAZ3_bgHyrc8rc4lie_SLperS-C-eUdxqamItyuIo_Ul6CxCXhbMmZMr4amaLfP6_y7sALS_gdCLgZ_RQTtqX7kzAflrR_0m00]--></g></svg>