<svg xmlns="http://www.w3.org/2000/svg" xmlns:xlink="http://www.w3.org/1999/xlink" contentStyleType="text/css" height="2144px" preserveAspectRatio="none" style="width:996px;height:2144px;background:#FFFFFF;" version="1.1" viewBox="0 0 996 2144" width="996px" zoomAndPan="magnify"><defs/><g><!--cluster cps--><g id="cluster_cps"><path d="M19.5,236 L970.5,236 A12.5,12.5 0 0 1 983,248.5 L983,287.9063 L7,287.9063 L7,248.5 A12.5,12.5 0 0 1 19.5,236 " fill="#F2F2F2" style="stroke:#F2F2F2;stroke-width:1.0;"/><rect fill="none" height="1695" rx="12.5" ry="12.5" style="stroke:#000000;stroke-width:0.5;" width="976" x="7" y="236"/><line style="stroke:#000000;stroke-width:0.5;" x1="7" x2="983" y1="287.9063" y2="287.9063"/><line style="stroke:#000000;stroke-width:0.5;" x1="7" x2="983" y1="261.9531" y2="261.9531"/><text fill="#000000" font-family="Fira Code" font-size="18" lengthAdjust="spacing" textLength="247.9658" x="371.0171" y="257.708">create_package_structure()</text><text fill="#000000" font-family="Fira Code" font-size="18" lengthAdjust="spacing" textLength="181.8193" x="12" y="281.1611">- Required arg: path</text></g><text fill="#000000" font-family="Fira Code" font-size="18" lengthAdjust="spacing" textLength="29.8564" x="376.0718" y="213.7549">arg</text><ellipse cx="391" cy="236" fill="#F2F2F2" rx="6" ry="6" style="stroke:#000000;stroke-width:1.5;"/><g id="cps.vid"><rect fill="#F2F2F2" height="82.8594" rx="12.5" ry="12.5" style="stroke:#000000;stroke-width:0.5;" width="221.8936" x="156" y="400"/><line style="stroke:#000000;stroke-width:0.5;" x1="156" x2="377.8936" y1="430.9531" y2="430.9531"/><text fill="#000000" font-family="Fira Code" font-size="18" lengthAdjust="spacing" textLength="121.3682" x="206.2627" y="421.708">verify_is_dir()</text><text fill="#000000" font-family="Fira Code" font-size="18" lengthAdjust="spacing" textLength="181.8193" x="161" y="452.6611">- Required arg: path</text><text fill="#000000" font-family="Fira Code" font-size="18" lengthAdjust="spacing" textLength="201.8936" x="161" y="473.6143">- Output: path or Error</text></g><g id="cps.gi"><rect fill="#F2F2F2" height="103.8125" rx="12.5" ry="12.5" style="stroke:#000000;stroke-width:0.5;" width="267.0254" x="105.5" y="544"/><line style="stroke:#000000;stroke-width:0.5;" x1="105.5" x2="372.5254" y1="574.9531" y2="574.9531"/><text fill="#000000" font-family="Fira Code" font-size="18" lengthAdjust="spacing" textLength="78.4072" x="199.8091" y="565.708">get_ids()</text><text fill="#000000" font-family="Fira Code" font-size="18" lengthAdjust="spacing" textLength="181.8193" x="110.5" y="596.6611">- Required arg: path</text><text fill="#000000" font-family="Fira Code" font-size="18" lengthAdjust="spacing" textLength="247.0254" x="110.5" y="617.6143">- Output: list of existing IDs</text><text fill="#000000" font-family="Fira Code" font-size="18" lengthAdjust="spacing" textLength="225.958" x="121.9434" y="638.5674">(otherwise an empty list)</text></g><g id="cps.cni"><rect fill="#F2F2F2" height="82.8594" rx="12.5" ry="12.5" style="stroke:#000000;stroke-width:0.5;" width="321.3945" x="60.5" y="709"/><line style="stroke:#000000;stroke-width:0.5;" x1="60.5" x2="381.8945" y1="739.9531" y2="739.9531"/><text fill="#000000" font-family="Fira Code" font-size="18" lengthAdjust="spacing" textLength="146.1973" x="148.0986" y="730.708">create_next_id()</text><text fill="#000000" font-family="Fira Code" font-size="18" lengthAdjust="spacing" textLength="301.3945" x="65.5" y="761.6611">- Required arg: list of existing IDs</text><text fill="#000000" font-family="Fira Code" font-size="18" lengthAdjust="spacing" textLength="105.6973" x="65.5" y="782.6143">- Output: ID</text></g><g id="cps.cip"><rect fill="#F2F2F2" height="82.8594" rx="12.5" ry="12.5" style="stroke:#000000;stroke-width:0.5;" width="470.5449" x="102.5" y="853"/><line style="stroke:#000000;stroke-width:0.5;" x1="102.5" x2="573.0449" y1="883.9531" y2="883.9531"/><text fill="#000000" font-family="Fira Code" font-size="18" lengthAdjust="spacing" textLength="146.9268" x="264.3091" y="874.708">create_id_path()</text><text fill="#000000" font-family="Fira Code" font-size="18" lengthAdjust="spacing" textLength="450.5449" x="107.5" y="905.6611">- Required arg: path and ID to assign for directory</text><text fill="#000000" font-family="Fira Code" font-size="18" lengthAdjust="spacing" textLength="311.8447" x="107.5" y="926.6143">- Output: path of created directory</text></g><g id="cps.cd"><rect fill="#F2F2F2" height="103.8125" rx="12.5" ry="12.5" style="stroke:#000000;stroke-width:0.5;" width="284.4629" x="196" y="997"/><line style="stroke:#000000;stroke-width:0.5;" x1="196" x2="480.4629" y1="1027.9531" y2="1027.9531"/><text fill="#000000" font-family="Fira Code" font-size="18" lengthAdjust="spacing" textLength="113.7832" x="281.3398" y="1018.708">create_dirs()</text><text fill="#000000" font-family="Fira Code" font-size="18" lengthAdjust="spacing" textLength="264.4629" x="201" y="1049.6611">- Required arg: A list of paths</text><text fill="#000000" font-family="Fira Code" font-size="18" lengthAdjust="spacing" textLength="210.0938" x="201" y="1070.6143">- Output: A list of paths</text><text fill="#000000" font-family="Fira Code" font-size="18" lengthAdjust="spacing" textLength="193.4736" x="212.4434" y="1091.5674">of created directories</text></g><g id="cps.cdpp"><rect fill="#F2F2F2" height="103.8125" rx="12.5" ry="12.5" style="stroke:#000000;stroke-width:0.5;" width="350.4688" x="312" y="1162"/><line style="stroke:#000000;stroke-width:0.5;" x1="312" x2="662.4688" y1="1192.9531" y2="1192.9531"/><text fill="#000000" font-family="Fira Code" font-size="18" lengthAdjust="spacing" textLength="330.4688" x="322" y="1183.708">create_default_package_properties()</text><text fill="#000000" font-family="Fira Code" font-size="18" lengthAdjust="spacing" textLength="192.085" x="317" y="1214.6611">- Output: JSON object</text><text fill="#000000" font-family="Fira Code" font-size="18" lengthAdjust="spacing" textLength="264.5947" x="317" y="1235.6143">- Uses properties dataclasses</text><text fill="#000000" font-family="Fira Code" font-size="18" lengthAdjust="spacing" textLength="300.5508" x="328.4434" y="1256.5674">internally and sets default values</text></g><g id="cps.crt"><rect fill="#F2F2F2" height="82.8594" rx="12.5" ry="12.5" style="stroke:#000000;stroke-width:0.5;" width="266.4541" x="290" y="1327"/><line style="stroke:#000000;stroke-width:0.5;" x1="290" x2="556.4541" y1="1357.9531" y2="1357.9531"/><text fill="#000000" font-family="Fira Code" font-size="18" lengthAdjust="spacing" textLength="194.959" x="325.7476" y="1348.708">create_readme_text()</text><text fill="#000000" font-family="Fira Code" font-size="18" lengthAdjust="spacing" textLength="246.4541" x="295" y="1379.6611">- Required arg: JSON object</text><text fill="#000000" font-family="Fira Code" font-size="18" lengthAdjust="spacing" textLength="138.1992" x="295" y="1400.6143">- Output: string</text></g><g id="cps.crp"><rect fill="#F2F2F2" height="82.8594" rx="12.5" ry="12.5" style="stroke:#000000;stroke-width:0.5;" width="253.9209" x="23" y="1172.5"/><line style="stroke:#000000;stroke-width:0.5;" x1="23" x2="276.9209" y1="1203.4531" y2="1203.4531"/><text fill="#000000" font-family="Fira Code" font-size="18" lengthAdjust="spacing" textLength="200.0391" x="49.9409" y="1194.208">create_readme_path()</text><text fill="#000000" font-family="Fira Code" font-size="18" lengthAdjust="spacing" textLength="181.8193" x="28" y="1225.1611">- Required arg: path</text><text fill="#000000" font-family="Fira Code" font-size="18" lengthAdjust="spacing" textLength="233.9209" x="28" y="1246.1143">- Output: path to README</text></g><g id="cps.cprop"><rect fill="#F2F2F2" height="82.8594" rx="12.5" ry="12.5" style="stroke:#000000;stroke-width:0.5;" width="269.2139" x="697.5" y="1172.5"/><line style="stroke:#000000;stroke-width:0.5;" x1="697.5" x2="966.7139" y1="1203.4531" y2="1203.4531"/><text fill="#000000" font-family="Fira Code" font-size="18" lengthAdjust="spacing" textLength="222.75" x="720.7319" y="1194.208">create_properties_path()</text><text fill="#000000" font-family="Fira Code" font-size="18" lengthAdjust="spacing" textLength="181.8193" x="702.5" y="1225.1611">- Required arg: path</text><text fill="#000000" font-family="Fira Code" font-size="18" lengthAdjust="spacing" textLength="249.2139" x="702.5" y="1246.1143">- Output: path to properties</text></g><g id="cps.wf"><rect fill="#F2F2F2" height="166.6719" rx="12.5" ry="12.5" style="stroke:#000000;stroke-width:0.5;" width="366.7549" x="322.5" y="1599"/><line style="stroke:#000000;stroke-width:0.5;" x1="322.5" x2="689.2549" y1="1629.9531" y2="1629.9531"/><text fill="#000000" font-family="Fira Code" font-size="18" lengthAdjust="spacing" textLength="95.7129" x="458.021" y="1620.708">write_file()</text><text fill="#000000" font-family="Fira Code" font-size="18" lengthAdjust="spacing" textLength="346.7549" x="327.5" y="1651.6611">- Required args: string (including JSON</text><text fill="#000000" font-family="Fira Code" font-size="18" lengthAdjust="spacing" textLength="187.8047" x="338.9434" y="1672.6143">as a string) and path</text><text fill="#000000" font-family="Fira Code" font-size="18" lengthAdjust="spacing" textLength="258.3369" x="327.5" y="1693.5674">- Output: path of created file</text><text fill="#000000" font-family="Fira Code" font-size="18" lengthAdjust="spacing" textLength="323.2354" x="327.5" y="1714.5205">- Only one string and path at a time</text><text fill="#000000" font-family="Fira Code" font-size="18" lengthAdjust="spacing" textLength="322.8398" x="327.5" y="1735.4736">- Used multiple times for each write</text><text fill="#000000" font-family="Fira Code" font-size="18" lengthAdjust="spacing" textLength="86.4229" x="338.9434" y="1756.4268">operation</text></g><rect fill="#555555" height="8" style="stroke:none;stroke-width:1.0;" width="80" x="383" y="1484"/><rect fill="#555555" height="8" style="stroke:none;stroke-width:1.0;" width="80" x="591" y="1364.5"/><rect fill="#555555" height="8" style="stroke:none;stroke-width:1.0;" width="80" x="466" y="1844"/><text fill="#000000" font-family="Fira Code" font-size="18" lengthAdjust="spacing" textLength="55.749" x="477.6255" y="1953.708">return</text><ellipse cx="505.5" cy="1931" fill="#F2F2F2" rx="6" ry="6" style="stroke:#000000;stroke-width:1.5;"/><line style="stroke:#000000;stroke-width:1.5;" x1="509.8891" x2="502.1109" y1="1935.3891" y2="1927.6109"/><line style="stroke:#000000;stroke-width:1.5;" x1="509.8891" x2="502.1109" y1="1927.6109" y2="1935.3891"/><path d="M217,7 L565.4629,7 A12.5,12.5 0 0 1 577.9629,19.5 L577.9629,84.8594 L204.5,84.8594 L204.5,19.5 A12.5,12.5 0 0 1 217,7 " fill="#F2F2F2" style="stroke:#F2F2F2;stroke-width:1.0;"/><rect fill="none" height="161.7656" rx="12.5" ry="12.5" style="stroke:#000000;stroke-width:0.5;" width="373.4629" x="204.5" y="7"/><line style="stroke:#000000;stroke-width:0.5;" x1="204.5" x2="577.9629" y1="84.8594" y2="84.8594"/><line style="stroke:#000000;stroke-width:0.5;" x1="204.5" x2="577.9629" y1="37.9531" y2="37.9531"/><text fill="#000000" font-family="Fira Code" font-size="18" lengthAdjust="spacing" textLength="46.6084" x="367.9272" y="28.708">Input</text><text fill="#000000" font-family="Fira Code" font-size="18" lengthAdjust="spacing" textLength="299.584" x="209.5" y="54.6611">- Use `path_*()` functions to help</text><text fill="#000000" font-family="Fira Code" font-size="18" lengthAdjust="spacing" textLength="183.0146" x="209.5" y="75.6143">create correct paths</text><g id="input.path"><rect fill="#F2F2F2" height="61.9063" rx="12.5" ry="12.5" style="stroke:#000000;stroke-width:0.5;" width="347.4629" x="216.5" y="96.8594"/><line style="stroke:#000000;stroke-width:0.5;" x1="216.5" x2="563.9629" y1="127.8125" y2="127.8125"/><text fill="#000000" font-family="Fira Code" font-size="18" lengthAdjust="spacing" textLength="40.9219" x="369.7705" y="118.5674">path</text><text fill="#000000" font-family="Fira Code" font-size="18" lengthAdjust="spacing" textLength="327.4629" x="221.5" y="149.5205">- Path to where packages are stored</text></g><path d="M190.5,2010 L821.6074,2010 A12.5,12.5 0 0 1 834.1074,2022.5 L834.1074,2066.9063 L178,2066.9063 L178,2022.5 A12.5,12.5 0 0 1 190.5,2010 " fill="#F2F2F2" style="stroke:#F2F2F2;stroke-width:1.0;"/><rect fill="none" height="128.9063" rx="12.5" ry="12.5" style="stroke:#000000;stroke-width:0.5;" width="656.1074" x="178" y="2010"/><line style="stroke:#000000;stroke-width:0.5;" x1="178" x2="834.1074" y1="2066.9063" y2="2066.9063"/><line style="stroke:#000000;stroke-width:0.5;" x1="178" x2="834.1074" y1="2040.9531" y2="2040.9531"/><text fill="#000000" font-family="Fira Code" font-size="18" lengthAdjust="spacing" textLength="62.5254" x="474.791" y="2031.708">Output</text><text fill="#000000" font-family="Fira Code" font-size="18" lengthAdjust="spacing" textLength="372.4805" x="183" y="2057.6611">- The package parent folder is shown as /</text><g id="output.properties_file"><rect fill="#F2F2F2" height="50" rx="12.5" ry="12.5" style="stroke:#000000;stroke-width:0.5;" width="329.8408" x="190" y="2078.9063"/><line style="stroke:#000000;stroke-width:0.5;" x1="190" x2="519.8408" y1="2109.8594" y2="2109.8594"/><text fill="#000000" font-family="Fira Code" font-size="18" lengthAdjust="spacing" textLength="309.8408" x="200" y="2100.6143">/packages/&lt;id&gt;/datapackage.json</text></g><g id="output.readme"><rect fill="#F2F2F2" height="50" rx="12.5" ry="12.5" style="stroke:#000000;stroke-width:0.5;" width="282.1074" x="538" y="2078.9063"/><line style="stroke:#000000;stroke-width:0.5;" x1="538" x2="820.1074" y1="2109.8594" y2="2109.8594"/><text fill="#000000" font-family="Fira Code" font-size="18" lengthAdjust="spacing" textLength="262.1074" x="548" y="2100.6143">/packages/&lt;id&gt;/README.md</text></g><!--link input to arg--><g id="link_input_arg"><path d="M391,169.26 C391,194.97 391,213.47 391,223.82 " fill="none" id="input-to-arg" style="stroke:#000000;stroke-width:1.0;"/><polygon fill="#000000" points="391,229.82,395,220.82,391,224.82,387,220.82,391,229.82" style="stroke:#000000;stroke-width:1.0;"/></g><!--link arg to vid--><g id="link_arg_vid"><path d="M387.93,242.03 C374.88,263.45 326.2818,343.2061 294.8618,394.7761 " fill="none" id="arg-to-vid" style="stroke:#000000;stroke-width:1.0;"/><polygon fill="#000000" points="291.74,399.9,299.8387,394.2954,294.3415,395.6301,293.0068,390.133,291.74,399.9" style="stroke:#000000;stroke-width:1.0;"/></g><!--link vid to gi--><g id="link_vid_gi"><path d="M254.11,483.21 C251.42,492.9 248.84,503.25 247,513 C245.14,522.84 244.3497,527.4653 243.2397,537.6553 " fill="none" id="vid-to-gi" style="stroke:#000000;stroke-width:1.0;"/><polygon fill="#000000" points="242.59,543.62,247.5411,535.1061,243.1314,538.6494,239.5881,534.2398,242.59,543.62" style="stroke:#000000;stroke-width:1.0;"/></g><!--link gi to cni--><g id="link_gi_cni"><path d="M232.96,648.2 C230.63,667.93 228.7012,684.2211 226.5112,702.8311 " fill="none" id="gi-to-cni" style="stroke:#000000;stroke-width:1.0;"/><polygon fill="#000000" points="225.81,708.79,230.8344,700.3192,226.3944,703.8243,222.8893,699.3842,225.81,708.79" style="stroke:#000000;stroke-width:1.0;"/></g><!--link cni to cip--><g id="link_cni_cip"><path d="M254.53,792.19 C270.19,811.2 284.9836,829.1602 300.6536,848.1702 " fill="none" id="cni-to-cip" style="stroke:#000000;stroke-width:1.0;"/><polygon fill="#000000" points="304.47,852.8,301.832,843.311,301.2897,848.9418,295.6589,848.3995,304.47,852.8" style="stroke:#000000;stroke-width:1.0;"/></g><!--link arg to cip--><g id="link_arg_cip"><path d="M394.75,242.18 C402.17,252.94 418,278.74 418,303 C418,303 418,303 418,751.5 C418,789.13 400.0892,821.2505 379.3392,847.9805 " fill="none" id="arg-to-cip" style="stroke:#000000;stroke-width:1.0;"/><polygon fill="#000000" points="375.66,852.72,384.3385,848.0635,378.726,848.7704,378.0191,843.1579,375.66,852.72" style="stroke:#000000;stroke-width:1.0;"/></g><!--link cip to cd--><g id="link_cip_cd"><path d="M338,936.37 C338,954.98 338,971.21 338,990.92 " fill="none" id="cip-to-cd" style="stroke:#000000;stroke-width:1.0;"/><polygon fill="#000000" points="338,996.92,342,987.92,338,991.92,334,987.92,338,996.92" style="stroke:#000000;stroke-width:1.0;"/></g><!--link cdpp to crt--><g id="link_cdpp_crt"><path d="M465.51,1266.2 C457.23,1285.93 450.2218,1302.6474 442.4118,1321.2574 " fill="none" id="cdpp-to-crt" style="stroke:#000000;stroke-width:1.0;"/><polygon fill="#000000" points="440.09,1326.79,447.2611,1320.0391,442.0249,1322.1795,439.8844,1316.9433,440.09,1326.79" style="stroke:#000000;stroke-width:1.0;"/></g><!--link cd to crp--><g id="link_cd_crp"><path d="M279.03,1101.13 C252.54,1124.09 226.2535,1146.8897 201.3735,1168.4597 " fill="none" id="cd-to-crp" style="stroke:#000000;stroke-width:1.0;"/><polygon fill="#000000" points="196.84,1172.39,206.2604,1169.5168,200.6179,1169.1147,201.02,1163.4722,196.84,1172.39" style="stroke:#000000;stroke-width:1.0;"/></g><!--link cd to cprop--><g id="link_cd_cprop"><path d="M480.34,1096.36 C541.79,1116.44 614.47,1140.28 680,1162 C690.17,1165.37 695.0295,1166.9778 705.6195,1170.5178 " fill="none" id="cd-to-cprop" style="stroke:#000000;stroke-width:1.0;"/><polygon fill="#000000" points="711.31,1172.42,704.0424,1165.773,706.5679,1170.8348,701.5061,1173.3604,711.31,1172.42" style="stroke:#000000;stroke-width:1.0;"/></g><!--link cdpp to prop_input--><g id="link_cdpp_prop_input"><path d="M535.35,1266.2 C571.3,1304.28 611.9804,1347.3578 623.8704,1359.9478 " fill="none" id="cdpp-to-prop_input" style="stroke:#000000;stroke-width:1.0;"/><polygon fill="#000000" points="627.99,1364.31,624.7187,1355.0203,624.557,1360.6749,618.9024,1360.5132,627.99,1364.31" style="stroke:#000000;stroke-width:1.0;"/></g><!--link crt to readme_input--><g id="link_crt_readme_input"><path d="M423,1410.27 C423,1438.64 423,1467.2 423,1477.77 " fill="none" id="crt-to-readme_input" style="stroke:#000000;stroke-width:1.0;"/><polygon fill="#000000" points="423,1483.77,427,1474.77,423,1478.77,419,1474.77,423,1483.77" style="stroke:#000000;stroke-width:1.0;"/></g><!--link cprop to prop_input--><g id="link_cprop_prop_input"><path d="M778.4,1255.67 C726.53,1295.02 657.9593,1347.0425 639.9093,1360.7425 " fill="none" id="cprop-to-prop_input" style="stroke:#000000;stroke-width:1.0;"/><polygon fill="#000000" points="635.13,1364.37,644.7172,1362.115,639.1127,1361.3471,639.8806,1355.7426,635.13,1364.37" style="stroke:#000000;stroke-width:1.0;"/></g><!--link crp to readme_input--><g id="link_crp_readme_input"><path d="M167.66,1255.67 C187.94,1298.53 224.72,1365.82 273,1410 C317.48,1450.71 381.7867,1473.9275 407.4467,1482.1575 " fill="none" id="crp-to-readme_input" style="stroke:#000000;stroke-width:1.0;"/><polygon fill="#000000" points="413.16,1483.99,405.8116,1477.4324,408.3989,1482.463,403.3684,1485.0502,413.16,1483.99" style="stroke:#000000;stroke-width:1.0;"/></g><!--link prop_input to wf--><g id="link_prop_input_wf"><path d="M630.06,1372.6 C624.38,1391.28 593.71,1490.77 561,1569 C556.93,1578.73 554.9568,1583.368 550.3368,1593.318 " fill="none" id="prop_input-to-wf" style="stroke:#000000;stroke-width:1.0;"/><polygon fill="#000000" points="547.81,1598.76,555.2282,1592.2816,549.9157,1594.225,547.9723,1588.9125,547.81,1598.76" style="stroke:#000000;stroke-width:1.0;"/><text fill="#000000" font-family="sans-serif" font-size="14" lengthAdjust="spacing" textLength="94.165" x="599.6782" y="1484.9951">input to write</text><text fill="#000000" font-family="sans-serif" font-size="14" lengthAdjust="spacing" textLength="97.5215" x="598" y="1501.292">properties file</text></g><!--link readme_input to wf--><g id="link_readme_input_wf"><path d="M424.3,1492.02 C429.7,1504.53 448.5144,1548.1803 467.9644,1593.2903 " fill="none" id="readme_input-to-wf" style="stroke:#000000;stroke-width:1.0;"/><polygon fill="#000000" points="470.34,1598.8,470.4497,1588.9518,468.3603,1594.2086,463.1035,1592.1192,470.34,1598.8" style="stroke:#000000;stroke-width:1.0;"/><text fill="#000000" font-family="sans-serif" font-size="14" lengthAdjust="spacing" textLength="94.165" x="458" y="1548.9951">input to write</text><text fill="#000000" font-family="sans-serif" font-size="14" lengthAdjust="spacing" textLength="79.8574" x="465.1538" y="1565.292">readme file</text></g><!--link wf to as_list--><g id="link_wf_as_list"><path d="M506,1766.21 C506,1800.11 506,1827.79 506,1837.93 " fill="none" id="wf-to-as_list" style="stroke:#000000;stroke-width:1.0;"/><polygon fill="#000000" points="506,1843.93,510,1834.93,506,1838.93,502,1834.93,506,1843.93" style="stroke:#000000;stroke-width:1.0;"/><text fill="#000000" font-family="sans-serif" font-size="14" lengthAdjust="spacing" textLength="98.875" x="507" y="1809.9951">Convert to list</text></g><!--link as_list to return--><g id="link_as_list_return"><path d="M506,1852.08 C506,1864.33 506,1903.73 506,1918.97 " fill="none" id="as_list-to-return" style="stroke:#000000;stroke-width:1.0;"/><polygon fill="#000000" points="506,1924.97,510,1915.97,506,1919.97,502,1915.97,506,1924.97" style="stroke:#000000;stroke-width:1.0;"/></g><!--link return to output--><g id="link_return_output"><path d="M506,1937.04 C506,1949 506,1974.35 506,2003.98 " fill="none" id="return-to-output" style="stroke:#000000;stroke-width:1.0;"/><polygon fill="#000000" points="506,2009.98,510,2000.98,506,2004.98,502,2000.98,506,2009.98" style="stroke:#000000;stroke-width:1.0;"/></g><!--link crp to cdpp--><!--link cdpp to cprop--><!--SRC=[VLRBRjiw4DtxAwRPtAH0udrW60YQB7A1snPzhDf2PSMHn5GYTKagZb7qtpl3XoGdKhEm9CxZ71xE3FFADzWXE4HP2eTGMTD1uttlhhTRAmvNjVBDy6DmQ4kZFMf_LPfkc_qlUsiUiFJJGiYtxOJIcutpmYEStUj-y6SW72X-WryRY6_NS0cV2VHxBtnJl3w_-0xLe4klZ7RW3JJOzbzrQP7JbCPQGWBsTPj_uCRMGqTy75po7-La2t3Ez_n2yOS6BT9o-LFKw43GX_F6ejpy7icz6tncPy9he9TUETcdPan1Jqk8K9bMeWNbm3Nce3bsIq4fupO3RdTAxhTIU95MhXwSqG6APElHUeMkg5IBgy4Vxcvk_xkxwcI88Y5aXpFoKPeYnHJEsw7qWyNpY-1VzYxiXf-ybG_u_w1e-wH4VHtasep8j0Ix7UtE7jyRfVr-dq-9zDspUV8zUqIhgcEXN26LJM2FIf83_Qv1JSQeULm6O-7EMcF9pXmOZ5DDO3NwGacNO6f5bbgjWoHRncYLys0gm2TwKRg6-rltLGES6wfKUr1KVa83Thq_1j-Bn9Dv4DP48scjyOdfP8Krqw7V1JvBo3FdJF3-Df9cG4xt0b79WhUM4LNFILI_eW3jHb9EBd_XdAerLQi5EYRg7MEFizZJKwWWmibJNvs81THyFlprWYQ5vJCgkHBAfKAu6LM9RJowPJBF7FYa5gXHtwID13foWGrMOcZzs1fJmuqS-o0aFKu8_FlntLimFtYepSqqfkPT2zpLPKiAO-183ODMYxOz1lqTqbXA5E1Hj4FWUyemDdFXgPuo9HiWhLyGxXcjv9D9K-DJWMM-GHFAjGOvhoORHB3zUZzbuqcvK7N5qHHFC28k5CLipirHUJdC9Nh-1NaqFyUUqixmGzA9mS4g8i3JDQ4UAZ8UgXTuBki7vqgNxI3vbVNcWwKuaSmNuMWJjvHdhOVIKCzUckh2QCmuEGy8JzczwcQ-L6WIEgeRrRSOR2vqC8goWR2dq1EqVS7t90MEMqx76uVsRlT0OpnCyMXbUTPimXMXxLuOBD9relbYU58-tmlpEfkofhBanJcHyHmNlFibRxx89whi49I9dtofHmrclPZ4Fjd-QbpqoZ5Hzt319GckuOtHTB-565xXkPTiaIqh4k22DBmM_rlOv3rzQPIKgB_jvqDclXegzVVc3m00]--></g></svg>