<svg xmlns="http://www.w3.org/2000/svg" xmlns:xlink="http://www.w3.org/1999/xlink" contentStyleType="text/css" height="1340px" preserveAspectRatio="none" style="width:758px;height:1340px;background:#FFFFFF;" version="1.1" viewBox="0 0 758 1340" width="758px" zoomAndPan="magnify"><defs/><g><!--cluster input--><g id="cluster_input"><path d="M19.5,7 L732.5,7 A12.5,12.5 0 0 1 745,19.5 L745,58.9063 L7,58.9063 L7,19.5 A12.5,12.5 0 0 1 19.5,7 " fill="#F2F2F2" style="stroke:#F2F2F2;stroke-width:1.0;"/><rect fill="none" height="206" rx="12.5" ry="12.5" style="stroke:#000000;stroke-width:0.5;" width="738" x="7" y="7"/><line style="stroke:#000000;stroke-width:0.5;" x1="7" x2="745" y1="58.9063" y2="58.9063"/><line style="stroke:#000000;stroke-width:0.5;" x1="7" x2="745" y1="32.9531" y2="32.9531"/><text fill="#000000" font-family="Fira Code" font-size="18" lengthAdjust="spacing" textLength="46.6084" x="137" y="27.708">Input</text><text fill="#000000" font-family="Fira Code" font-size="18" lengthAdjust="spacing" textLength="478.7842" x="12" y="52.1611">- `path_*()` functions assist with giving correct paths</text></g><!--cluster cps--><g id="cluster_cps"><path d="M146.5,295 L662.5,295 A12.5,12.5 0 0 1 675,307.5 L675,388.8125 L134,388.8125 L134,307.5 A12.5,12.5 0 0 1 146.5,295 " fill="#F2F2F2" style="stroke:#F2F2F2;stroke-width:1.0;"/><rect fill="none" height="783" rx="12.5" ry="12.5" style="stroke:#000000;stroke-width:0.5;" width="541" x="134" y="295"/><line style="stroke:#000000;stroke-width:0.5;" x1="134" x2="675" y1="388.8125" y2="388.8125"/><line style="stroke:#000000;stroke-width:0.5;" x1="134" x2="675" y1="320.9531" y2="320.9531"/><text fill="#000000" font-family="Fira Code" font-size="18" lengthAdjust="spacing" textLength="235.1602" x="286.9199" y="316.708">edit_package_properties()</text><text fill="#000000" font-family="Fira Code" font-size="18" lengthAdjust="spacing" textLength="319.377" x="139" y="340.1611">- Required arg: path and properties</text><text fill="#000000" font-family="Fira Code" font-size="18" lengthAdjust="spacing" textLength="420.9609" x="139" y="361.1143">- Takes the current properties file and updates</text><text fill="#000000" font-family="Fira Code" font-size="18" lengthAdjust="spacing" textLength="315.9053" x="150.4434" y="382.0674">the properties with the given fields</text></g><g id="input.path"><rect fill="#F2F2F2" height="124.7656" rx="12.5" ry="12.5" style="stroke:#000000;stroke-width:0.5;" width="345.5732" x="23" y="72"/><line style="stroke:#000000;stroke-width:0.5;" x1="23" x2="368.5732" y1="102.9531" y2="102.9531"/><text fill="#000000" font-family="Fira Code" font-size="18" lengthAdjust="spacing" textLength="40.9219" x="175.3257" y="93.708">path</text><text fill="#000000" font-family="Fira Code" font-size="18" lengthAdjust="spacing" textLength="292.5879" x="28" y="124.6611">- Path to `datapackage.json` file</text><text fill="#000000" font-family="Fira Code" font-size="18" lengthAdjust="spacing" textLength="261.9844" x="39.4434" y="145.6143">in the package `&lt;id&gt;` folder</text><text fill="#000000" font-family="Fira Code" font-size="18" lengthAdjust="spacing" textLength="325.5732" x="28" y="166.5674">- User may or may not have directly</text><text fill="#000000" font-family="Fira Code" font-size="18" lengthAdjust="spacing" textLength="175.5439" x="39.4434" y="187.5205">edited the JSON file</text></g><g id="input.properties"><rect fill="#F2F2F2" height="82.8594" rx="12.5" ry="12.5" style="stroke:#000000;stroke-width:0.5;" width="325.2793" x="404.5" y="93"/><line style="stroke:#000000;stroke-width:0.5;" x1="404.5" x2="729.7793" y1="123.9531" y2="123.9531"/><text fill="#000000" font-family="Fira Code" font-size="18" lengthAdjust="spacing" textLength="92.25" x="521.0146" y="114.708">properties</text><text fill="#000000" font-family="Fira Code" font-size="18" lengthAdjust="spacing" textLength="258.1348" x="409.5" y="145.6611">- JSON object of the package</text><text fill="#000000" font-family="Fira Code" font-size="18" lengthAdjust="spacing" textLength="293.8359" x="420.9434" y="166.6143">following the Data Package spec</text></g><text fill="#000000" font-family="Fira Code" font-size="18" lengthAdjust="spacing" textLength="79.7783" x="161.6108" y="272.7549">arg_path</text><ellipse cx="201.5" cy="295" fill="#F2F2F2" rx="6" ry="6" style="stroke:#000000;stroke-width:1.5;"/><text fill="#000000" font-family="Fira Code" font-size="18" lengthAdjust="spacing" textLength="131.1064" x="498.4468" y="272.7549">arg_properties</text><ellipse cx="564" cy="295" fill="#F2F2F2" rx="6" ry="6" style="stroke:#000000;stroke-width:1.5;"/><g id="cps.vif"><rect fill="#F2F2F2" height="82.8594" rx="12.5" ry="12.5" style="stroke:#000000;stroke-width:0.5;" width="221.8936" x="150" y="451"/><line style="stroke:#000000;stroke-width:0.5;" x1="150" x2="371.8936" y1="481.9531" y2="481.9531"/><text fill="#000000" font-family="Fira Code" font-size="18" lengthAdjust="spacing" textLength="124.9541" x="198.4697" y="472.708">verify_is_file()</text><text fill="#000000" font-family="Fira Code" font-size="18" lengthAdjust="spacing" textLength="181.8193" x="155" y="503.6611">- Required arg: path</text><text fill="#000000" font-family="Fira Code" font-size="18" lengthAdjust="spacing" textLength="201.8936" x="155" y="524.6143">- Output: path or Error</text></g><g id="cps.vpp"><rect fill="#F2F2F2" height="166.6719" rx="12.5" ry="12.5" style="stroke:#000000;stroke-width:0.5;" width="271.7188" x="387" y="612"/><line style="stroke:#000000;stroke-width:0.5;" x1="387" x2="658.7188" y1="642.9531" y2="642.9531"/><text fill="#000000" font-family="Fira Code" font-size="18" lengthAdjust="spacing" textLength="251.7188" x="397" y="633.708">verify_package_properties()</text><text fill="#000000" font-family="Fira Code" font-size="18" lengthAdjust="spacing" textLength="233.1475" x="392" y="664.6611">- Required arg: properties</text><text fill="#000000" font-family="Fira Code" font-size="18" lengthAdjust="spacing" textLength="205.3389" x="392" y="685.6143">- Output: JSON or Error</text><text fill="#000000" font-family="Fira Code" font-size="18" lengthAdjust="spacing" textLength="199.9336" x="392" y="706.5674">- Checks that all fields</text><text fill="#000000" font-family="Fira Code" font-size="18" lengthAdjust="spacing" textLength="208.2744" x="403.4434" y="727.5205">and values match spec</text><text fill="#000000" font-family="Fira Code" font-size="18" lengthAdjust="spacing" textLength="201.1729" x="392" y="748.4736">- Checks that required</text><text fill="#000000" font-family="Fira Code" font-size="18" lengthAdjust="spacing" textLength="157.9834" x="403.4434" y="769.4268">fields are present</text></g><g id="cps.rp"><rect fill="#F2F2F2" height="82.8594" rx="12.5" ry="12.5" style="stroke:#000000;stroke-width:0.5;" width="201.8193" x="150" y="654"/><line style="stroke:#000000;stroke-width:0.5;" x1="150" x2="351.8193" y1="684.9531" y2="684.9531"/><text fill="#000000" font-family="Fira Code" font-size="18" lengthAdjust="spacing" textLength="156.2256" x="172.7969" y="675.708">read_properties()</text><text fill="#000000" font-family="Fira Code" font-size="18" lengthAdjust="spacing" textLength="181.8193" x="155" y="706.6611">- Required arg: path</text><text fill="#000000" font-family="Fira Code" font-size="18" lengthAdjust="spacing" textLength="130.8955" x="155" y="727.6143">- Output: JSON</text></g><g id="cps.jp"><rect fill="#F2F2F2" height="124.7656" rx="12.5" ry="12.5" style="stroke:#000000;stroke-width:0.5;" width="342.3213" x="214" y="857"/><line style="stroke:#000000;stroke-width:0.5;" x1="214" x2="556.3213" y1="887.9531" y2="887.9531"/><text fill="#000000" font-family="Fira Code" font-size="18" lengthAdjust="spacing" textLength="147.7178" x="311.3018" y="878.708">join_properties()</text><text fill="#000000" font-family="Fira Code" font-size="18" lengthAdjust="spacing" textLength="317.1709" x="219" y="909.6611">- Required args: current_properties</text><text fill="#000000" font-family="Fira Code" font-size="18" lengthAdjust="spacing" textLength="178.04" x="230.4434" y="930.6143">and new_properties</text><text fill="#000000" font-family="Fira Code" font-size="18" lengthAdjust="spacing" textLength="130.8955" x="219" y="951.5674">- Output: JSON</text><text fill="#000000" font-family="Fira Code" font-size="18" lengthAdjust="spacing" textLength="322.3213" x="219" y="972.5205">- New properties overwrite old ones</text></g><text fill="#000000" font-family="Fira Code" font-size="18" lengthAdjust="spacing" textLength="55.749" x="356.6255" y="1100.708">return</text><ellipse cx="384.5" cy="1078" fill="#F2F2F2" rx="6" ry="6" style="stroke:#000000;stroke-width:1.5;"/><line style="stroke:#000000;stroke-width:1.5;" x1="388.8891" x2="381.1109" y1="1082.3891" y2="1074.6109"/><line style="stroke:#000000;stroke-width:1.5;" x1="388.8891" x2="381.1109" y1="1074.6109" y2="1082.3891"/><path d="M204.5,1157 L565.2773,1157 A12.5,12.5 0 0 1 577.7773,1169.5 L577.7773,1187.9531 L192,1187.9531 L192,1169.5 A12.5,12.5 0 0 1 204.5,1157 " fill="#F2F2F2" style="stroke:#F2F2F2;stroke-width:1.0;"/><rect fill="none" height="177.7188" rx="12.5" ry="12.5" style="stroke:#000000;stroke-width:0.5;" width="385.7773" x="192" y="1157"/><line style="stroke:#000000;stroke-width:0.5;" x1="192" x2="577.7773" y1="1187.9531" y2="1187.9531"/><text fill="#000000" font-family="Fira Code" font-size="18" lengthAdjust="spacing" textLength="62.5254" x="353.626" y="1178.708">Output</text><g id="output.json_output"><rect fill="#F2F2F2" height="124.7656" rx="12.5" ry="12.5" style="stroke:#000000;stroke-width:0.5;" width="364.7773" x="204" y="1199.9531"/><line style="stroke:#000000;stroke-width:0.5;" x1="204" x2="568.7773" y1="1230.9063" y2="1230.9063"/><text fill="#000000" font-family="Fira Code" font-size="18" lengthAdjust="spacing" textLength="44.3672" x="364.2051" y="1221.6611">JSON</text><text fill="#000000" font-family="Fira Code" font-size="18" lengthAdjust="spacing" textLength="344.7773" x="209" y="1252.6143">- JSON object of the package following</text><text fill="#000000" font-family="Fira Code" font-size="18" lengthAdjust="spacing" textLength="207.1934" x="220.4434" y="1273.5674">the Data Package spec</text><text fill="#000000" font-family="Fira Code" font-size="18" lengthAdjust="spacing" textLength="339.2139" x="209" y="1294.5205">- Use `write_package_properties()` to</text><text fill="#000000" font-family="Fira Code" font-size="18" lengthAdjust="spacing" textLength="297.5186" x="220.4434" y="1315.4736">save back to `datapackage.json`</text></g><!--link path to arg_path--><g id="link_path_arg_path"><path d="M198.34,197.23 C199.71,233.39 201.0422,268.6743 201.5822,282.8843 " fill="none" id="path-to-arg_path" style="stroke:#000000;stroke-width:1.0;"/><polygon fill="#000000" points="201.81,288.88,205.4653,279.7346,201.6201,283.8836,197.4711,280.0384,201.81,288.88" style="stroke:#000000;stroke-width:1.0;"/><text fill="#000000" font-family="sans-serif" font-size="14" lengthAdjust="spacing" textLength="79.4199" x="201" y="242.9951">path object</text></g><!--link properties to arg_properties--><g id="link_properties_arg_properties"><path d="M566.23,176.32 C565.48,215.58 564.5446,265.4311 564.2146,282.7111 " fill="none" id="properties-to-arg_properties" style="stroke:#000000;stroke-width:1.0;"/><polygon fill="#000000" points="564.1,288.71,568.2711,279.788,564.1955,283.7109,560.2726,279.6353,564.1,288.71" style="stroke:#000000;stroke-width:1.0;"/><text fill="#000000" font-family="sans-serif" font-size="14" lengthAdjust="spacing" textLength="82.0996" x="566" y="242.9951">JSON object</text></g><!--link arg_path to vif--><g id="link_arg_path_vif"><path d="M203.58,301.23 C209.9,322.18 232.0353,395.5462 246.9453,444.9162 " fill="none" id="arg_path-to-vif" style="stroke:#000000;stroke-width:1.0;"/><polygon fill="#000000" points="248.68,450.66,249.9072,440.8879,247.2345,445.8735,242.2488,443.2008,248.68,450.66" style="stroke:#000000;stroke-width:1.0;"/></g><!--link arg_properties to vpp--><g id="link_arg_properties_vpp"><path d="M563.48,301.04 C560.23,332.66 543.0238,499.8715 532.1438,605.6615 " fill="none" id="arg_properties-to-vpp" style="stroke:#000000;stroke-width:1.0;"/><polygon fill="#000000" points="531.53,611.63,536.4298,603.0864,532.0415,606.6562,528.4717,602.268,531.53,611.63" style="stroke:#000000;stroke-width:1.0;"/></g><!--link vif to rp--><g id="link_vif_rp"><path d="M205.4,534.37 C197.1,543.15 189.75,553.11 185,564 C171.6,594.72 185.7933,623.7797 206.3433,649.2597 " fill="none" id="vif-to-rp" style="stroke:#000000;stroke-width:1.0;"/><polygon fill="#000000" points="210.11,653.93,207.5735,644.4134,206.9711,650.0381,201.3464,649.4356,210.11,653.93" style="stroke:#000000;stroke-width:1.0;"/><text fill="#000000" font-family="sans-serif" font-size="14" lengthAdjust="spacing" textLength="79.4199" x="186" y="577.9951">path object</text></g><!--link rp to jp--><g id="link_rp_jp"><path d="M275.58,737.22 C295.75,770.64 321.5398,813.363 344.5698,851.523 " fill="none" id="rp-to-jp" style="stroke:#000000;stroke-width:1.0;"/><polygon fill="#000000" points="347.67,856.66,346.4443,846.8877,345.0865,852.3792,339.595,851.0213,347.67,856.66" style="stroke:#000000;stroke-width:1.0;"/><text fill="#000000" font-family="sans-serif" font-size="14" lengthAdjust="spacing" textLength="82.0996" x="327" y="822.9951">JSON object</text></g><!--link vpp to jp--><g id="link_vpp_jp"><path d="M471.61,779.16 C455.6,804.93 441.3991,827.7852 426.4391,851.8352 " fill="none" id="vpp-to-jp" style="stroke:#000000;stroke-width:1.0;"/><polygon fill="#000000" points="423.27,856.93,431.4202,851.4006,425.9109,852.6844,424.6272,847.1751,423.27,856.93" style="stroke:#000000;stroke-width:1.0;"/><text fill="#000000" font-family="sans-serif" font-size="14" lengthAdjust="spacing" textLength="82.0996" x="450" y="822.9951">JSON object</text></g><!--link jp to return--><g id="link_jp_return"><path d="M385,982.35 C385,1017.55 385,1051.39 385,1065.61 " fill="none" id="jp-to-return" style="stroke:#000000;stroke-width:1.0;"/><polygon fill="#000000" points="385,1071.61,389,1062.61,385,1066.61,381,1062.61,385,1071.61" style="stroke:#000000;stroke-width:1.0;"/><text fill="#000000" font-family="sans-serif" font-size="14" lengthAdjust="spacing" textLength="82.0996" x="386" y="1025.9951">JSON object</text></g><!--link return to output--><g id="link_return_output"><path d="M385,1084.15 C385,1095.86 385,1119.88 385,1150.86 " fill="none" id="return-to-output" style="stroke:#000000;stroke-width:1.0;"/><polygon fill="#000000" points="385,1156.86,389,1147.86,385,1151.86,381,1147.86,385,1156.86" style="stroke:#000000;stroke-width:1.0;"/></g><!--SRC=[VLHBZzem4BxdLqovz241TxH2gjeUsiFkgezRfM2IWJWajcixK5JjV- -CusnCaoq729dnDzzZabU-mXR18PQ5S0W7grkel3TkirvRSLaTfQ-wVUVG5bfvL7vLw7Ozz2-DrJKMVhmHyDQja2hBd1SUOV5PcSulG3YGV0L_CeXN6rZ2pWXVvU_UlDt1eLE5brevwdNIURZGS3ZAirH7ABIrD0cutMMluRqzTYtnSR3a3s5o9K0-yeNNi2k55qOK9t74LUsqeX6omP-AvmCnXLY4tPqijrJLJOasXVf1mg4LLz3zZz8UAd56A2MpQQuCXgNqM0R0BzyUxiCG1h7QeFKI7IE5YjwpMw0FwNI6eCcDlh1EBdmatgIYv-OC5jdJiviFdH_irE4o-1cBF2IKM6tUrwcQ_8F_Snc9CAjvBbCySWbs5qikv14d7yLpibupd6FZzjGm7quYaXsTXGhY2kE2QFxbyL_nLqTnb23iSTDd9rIP-9_qVXSdT45OqT52AP-qXU32qSuGEtI31qbBM4c-Hsk9YavWKxhiEG5Ya0S2TtU4RQ-FMYg_tTxMHxH_keRDMowt8r9KrCTrirPZttXhauOxybgSqSh3DPSkPv7HoBCyK0Tzls1ZKkpNRk1YuPErcf-KPvhCXV4c8r-CyMmC3p1cRdgQtT0oSEWLZXo6-eSAYnE7Apo8fedXS8YSwLaq7HdK2bzKmoBFdRIHI7Wi0m9HuXr0Hs4Dacz3O2cZS8kYdCgrhDQQbwssKvKn01uHgkacZFDgMf_fl9hdrTDvz3QAgv-S6KnIUCbllAzdISMxztX9rr5Juk4j0FGU1Qq20F5c-k54kfgz-REbr4dVMRNWv-ItzEF3LFSd-_84EDxcZlWAVCh-0W00]--></g></svg>
