<svg xmlns="http://www.w3.org/2000/svg" xmlns:xlink="http://www.w3.org/1999/xlink" contentStyleType="text/css" height="1510px" preserveAspectRatio="none" style="width:760px;height:1510px;background:#FFFFFF;" version="1.1" viewBox="0 0 760 1510" width="760px" zoomAndPan="magnify"><defs/><g><!--cluster input--><g id="cluster_input"><path d="M168.5,7 L637.5,7 A12.5,12.5 0 0 1 650,19.5 L650,58.9063 L156,58.9063 L156,19.5 A12.5,12.5 0 0 1 168.5,7 " fill="#F2F2F2" style="stroke:#F2F2F2;stroke-width:1.0;"/><rect fill="none" height="164" rx="12.5" ry="12.5" style="stroke:#000000;stroke-width:0.5;" width="494" x="156" y="7"/><line style="stroke:#000000;stroke-width:0.5;" x1="156" x2="650" y1="58.9063" y2="58.9063"/><line style="stroke:#000000;stroke-width:0.5;" x1="156" x2="650" y1="32.9531" y2="32.9531"/><text fill="#000000" font-family="Fira Code" font-size="18" lengthAdjust="spacing" textLength="46.6084" x="164" y="27.708">Input</text><text fill="#000000" font-family="Fira Code" font-size="18" lengthAdjust="spacing" textLength="478.7842" x="161" y="52.1611">- `path_*()` functions assist with giving correct paths</text></g><!--cluster erp--><g id="cluster_erp"><path d="M19.5,236 L734.5,236 A12.5,12.5 0 0 1 747,248.5 L747,287.9063 L7,287.9063 L7,248.5 A12.5,12.5 0 0 1 19.5,236 " fill="#F2F2F2" style="stroke:#F2F2F2;stroke-width:1.0;"/><rect fill="none" height="1012" rx="12.5" ry="12.5" style="stroke:#000000;stroke-width:0.5;" width="740" x="7" y="236"/><line style="stroke:#000000;stroke-width:0.5;" x1="7" x2="747" y1="287.9063" y2="287.9063"/><line style="stroke:#000000;stroke-width:0.5;" x1="7" x2="747" y1="261.9531" y2="261.9531"/><text fill="#000000" font-family="Fira Code" font-size="18" lengthAdjust="spacing" textLength="267.1084" x="243.4458" y="257.708">extract_resource_properties()</text><text fill="#000000" font-family="Fira Code" font-size="18" lengthAdjust="spacing" textLength="283.7285" x="12" y="281.1611">- Required arg: path, data_path</text></g><g id="input.path"><rect fill="#F2F2F2" height="82.8594" rx="12.5" ry="12.5" style="stroke:#000000;stroke-width:0.5;" width="170.0908" x="213" y="72"/><line style="stroke:#000000;stroke-width:0.5;" x1="213" x2="383.0908" y1="102.9531" y2="102.9531"/><text fill="#000000" font-family="Fira Code" font-size="18" lengthAdjust="spacing" textLength="40.9219" x="277.5845" y="93.708">path</text><text fill="#000000" font-family="Fira Code" font-size="18" lengthAdjust="spacing" textLength="150.0908" x="218" y="124.6611">- Path to specific</text><text fill="#000000" font-family="Fira Code" font-size="18" lengthAdjust="spacing" textLength="136.6172" x="229.4434" y="145.6143">resource folder</text></g><g id="input.data_path"><rect fill="#F2F2F2" height="82.8594" rx="12.5" ry="12.5" style="stroke:#000000;stroke-width:0.5;" width="173.4043" x="418.5" y="72"/><line style="stroke:#000000;stroke-width:0.5;" x1="418.5" x2="591.9043" y1="102.9531" y2="102.9531"/><text fill="#000000" font-family="Fira Code" font-size="18" lengthAdjust="spacing" textLength="90.4658" x="459.9692" y="93.708">data_path</text><text fill="#000000" font-family="Fira Code" font-size="18" lengthAdjust="spacing" textLength="153.4043" x="423.5" y="124.6611">- Path to file with</text><text fill="#000000" font-family="Fira Code" font-size="18" lengthAdjust="spacing" textLength="80.4551" x="434.9434" y="145.6143">data in it</text></g><text fill="#000000" font-family="Fira Code" font-size="18" lengthAdjust="spacing" textLength="79.7783" x="235.6108" y="213.7549">arg_path</text><ellipse cx="275.5" cy="236" fill="#F2F2F2" rx="6" ry="6" style="stroke:#000000;stroke-width:1.5;"/><text fill="#000000" font-family="Fira Code" font-size="18" lengthAdjust="spacing" textLength="129.3223" x="449.8389" y="213.7549">arg_data_path</text><ellipse cx="514.5" cy="236" fill="#F2F2F2" rx="6" ry="6" style="stroke:#000000;stroke-width:1.5;"/><g id="erp.vid"><rect fill="#F2F2F2" height="82.8594" rx="12.5" ry="12.5" style="stroke:#000000;stroke-width:0.5;" width="221.8936" x="137" y="528"/><line style="stroke:#000000;stroke-width:0.5;" x1="137" x2="358.8936" y1="558.9531" y2="558.9531"/><text fill="#000000" font-family="Fira Code" font-size="18" lengthAdjust="spacing" textLength="121.3682" x="187.2627" y="549.708">verify_is_dir()</text><text fill="#000000" font-family="Fira Code" font-size="18" lengthAdjust="spacing" textLength="181.8193" x="142" y="580.6611">- Required arg: path</text><text fill="#000000" font-family="Fira Code" font-size="18" lengthAdjust="spacing" textLength="201.8936" x="142" y="601.6143">- Output: path or Error</text></g><g id="erp.crrdp"><rect fill="#F2F2F2" height="103.8125" rx="12.5" ry="12.5" style="stroke:#000000;stroke-width:0.5;" width="384.957" x="23.5" y="689"/><line style="stroke:#000000;stroke-width:0.5;" x1="23.5" x2="408.457" y1="719.9531" y2="719.9531"/><text fill="#000000" font-family="Fira Code" font-size="18" lengthAdjust="spacing" textLength="335.9795" x="47.9888" y="710.708">create_relative_resource_data_path()</text><text fill="#000000" font-family="Fira Code" font-size="18" lengthAdjust="spacing" textLength="364.957" x="28.5" y="741.6611">- Required arg: absolute path from input</text><text fill="#000000" font-family="Fira Code" font-size="18" lengthAdjust="spacing" textLength="201.4629" x="28.5" y="762.6143">- Output: relative path</text><text fill="#000000" font-family="Fira Code" font-size="18" lengthAdjust="spacing" textLength="300.4014" x="39.9434" y="783.5674">(e.g. `resources/1/data.parquet`)</text></g><g id="erp.vif"><rect fill="#F2F2F2" height="82.8594" rx="12.5" ry="12.5" style="stroke:#000000;stroke-width:0.5;" width="221.8936" x="411" y="367"/><line style="stroke:#000000;stroke-width:0.5;" x1="411" x2="632.8936" y1="397.9531" y2="397.9531"/><text fill="#000000" font-family="Fira Code" font-size="18" lengthAdjust="spacing" textLength="124.9541" x="459.4697" y="388.708">verify_is_file()</text><text fill="#000000" font-family="Fira Code" font-size="18" lengthAdjust="spacing" textLength="181.8193" x="416" y="419.6611">- Required arg: path</text><text fill="#000000" font-family="Fira Code" font-size="18" lengthAdjust="spacing" textLength="201.8936" x="416" y="440.6143">- Output: path or Error</text></g><g id="erp.vsf"><rect fill="#F2F2F2" height="82.8594" rx="12.5" ry="12.5" style="stroke:#000000;stroke-width:0.5;" width="278.5215" x="436.5" y="528"/><line style="stroke:#000000;stroke-width:0.5;" x1="436.5" x2="715.0215" y1="558.9531" y2="558.9531"/><text fill="#000000" font-family="Fira Code" font-size="18" lengthAdjust="spacing" textLength="258.5215" x="446.5" y="549.708">verify_is_supported_format()</text><text fill="#000000" font-family="Fira Code" font-size="18" lengthAdjust="spacing" textLength="181.8193" x="441.5" y="580.6611">- Required arg: path</text><text fill="#000000" font-family="Fira Code" font-size="18" lengthAdjust="spacing" textLength="201.8936" x="441.5" y="601.6143">- Output: path or Error</text></g><g id="erp.epff"><rect fill="#F2F2F2" height="82.8594" rx="12.5" ry="12.5" style="stroke:#000000;stroke-width:0.5;" width="287.1611" x="443.5" y="699.5"/><line style="stroke:#000000;stroke-width:0.5;" x1="443.5" x2="730.6611" y1="730.4531" y2="730.4531"/><text fill="#000000" font-family="Fira Code" font-size="18" lengthAdjust="spacing" textLength="267.1611" x="453.5" y="721.208">extract_properties_from_file()</text><text fill="#000000" font-family="Fira Code" font-size="18" lengthAdjust="spacing" textLength="181.8193" x="448.5" y="752.1611">- Required arg: path</text><text fill="#000000" font-family="Fira Code" font-size="18" lengthAdjust="spacing" textLength="130.8955" x="448.5" y="773.1143">- Output: JSON</text></g><g id="erp.epf"><rect fill="#F2F2F2" height="82.8594" rx="12.5" ry="12.5" style="stroke:#000000;stroke-width:0.5;" width="373.417" x="214.5" y="887"/><line style="stroke:#000000;stroke-width:0.5;" x1="214.5" x2="587.917" y1="917.9531" y2="917.9531"/><text fill="#000000" font-family="Fira Code" font-size="18" lengthAdjust="spacing" textLength="182.8916" x="309.7627" y="908.708">edit_property_field()</text><text fill="#000000" font-family="Fira Code" font-size="18" lengthAdjust="spacing" textLength="353.417" x="219.5" y="939.6611">- Required args: properties, field, value</text><text fill="#000000" font-family="Fira Code" font-size="18" lengthAdjust="spacing" textLength="130.8955" x="219.5" y="960.6143">- Output: JSON</text></g><g id="erp.vrp"><rect fill="#F2F2F2" height="103.8125" rx="12.5" ry="12.5" style="stroke:#000000;stroke-width:0.5;" width="274.0566" x="264" y="1048"/><line style="stroke:#000000;stroke-width:0.5;" x1="264" x2="538.0566" y1="1078.9531" y2="1078.9531"/><text fill="#000000" font-family="Fira Code" font-size="18" lengthAdjust="spacing" textLength="254.0566" x="274" y="1069.708">verify_resource_properties()</text><text fill="#000000" font-family="Fira Code" font-size="18" lengthAdjust="spacing" textLength="233.1475" x="269" y="1100.6611">- Required arg: properties</text><text fill="#000000" font-family="Fira Code" font-size="18" lengthAdjust="spacing" textLength="205.3389" x="269" y="1121.6143">- Output: JSON or Error</text><text fill="#000000" font-family="Fira Code" font-size="18" lengthAdjust="spacing" textLength="196.5146" x="269" y="1142.5674">- Checks against spec</text></g><text fill="#000000" font-family="Fira Code" font-size="18" lengthAdjust="spacing" textLength="55.749" x="372.6255" y="1270.708">return</text><ellipse cx="400.5" cy="1248" fill="#F2F2F2" rx="6" ry="6" style="stroke:#000000;stroke-width:1.5;"/><line style="stroke:#000000;stroke-width:1.5;" x1="404.8891" x2="397.1109" y1="1252.3891" y2="1244.6109"/><line style="stroke:#000000;stroke-width:1.5;" x1="404.8891" x2="397.1109" y1="1244.6109" y2="1252.3891"/><path d="M219.5,1327 L582.6152,1327 A12.5,12.5 0 0 1 595.1152,1339.5 L595.1152,1357.9531 L207,1357.9531 L207,1339.5 A12.5,12.5 0 0 1 219.5,1327 " fill="#F2F2F2" style="stroke:#F2F2F2;stroke-width:1.0;"/><rect fill="none" height="177.7188" rx="12.5" ry="12.5" style="stroke:#000000;stroke-width:0.5;" width="388.1152" x="207" y="1327"/><line style="stroke:#000000;stroke-width:0.5;" x1="207" x2="595.1152" y1="1357.9531" y2="1357.9531"/><text fill="#000000" font-family="Fira Code" font-size="18" lengthAdjust="spacing" textLength="62.5254" x="369.7949" y="1348.708">Output</text><g id="output.json_output"><rect fill="#F2F2F2" height="124.7656" rx="12.5" ry="12.5" style="stroke:#000000;stroke-width:0.5;" width="367.1152" x="219" y="1369.9531"/><line style="stroke:#000000;stroke-width:0.5;" x1="219" x2="586.1152" y1="1400.9063" y2="1400.9063"/><text fill="#000000" font-family="Fira Code" font-size="18" lengthAdjust="spacing" textLength="44.3672" x="380.374" y="1391.6611">JSON</text><text fill="#000000" font-family="Fira Code" font-size="18" lengthAdjust="spacing" textLength="347.1152" x="224" y="1422.6143">- JSON object of the resource following</text><text fill="#000000" font-family="Fira Code" font-size="18" lengthAdjust="spacing" textLength="207.1934" x="235.4434" y="1443.5674">the Data Package spec</text><text fill="#000000" font-family="Fira Code" font-size="18" lengthAdjust="spacing" textLength="341.5518" x="224" y="1464.5205">- Use `write_resource_properties()` to</text><text fill="#000000" font-family="Fira Code" font-size="18" lengthAdjust="spacing" textLength="297.5186" x="235.4434" y="1485.4736">save back to `datapackage.json`</text></g><!--link path to data_path--><!--link path to arg_path--><g id="link_path_arg_path"><path d="M290.55,155.3 C285.47,183.15 280.329,211.3278 278.009,224.0178 " fill="none" id="path-to-arg_path" style="stroke:#000000;stroke-width:1.0;"/><polygon fill="#000000" points="276.93,229.92,282.4833,221.7861,277.8292,225.0015,274.6138,220.3474,276.93,229.92" style="stroke:#000000;stroke-width:1.0;"/></g><!--link data_path to arg_data_path--><g id="link_data_path_arg_data_path"><path d="M508.39,155.3 C510.7,183.15 513.0206,211.2508 514.0806,223.9408 " fill="none" id="data_path-to-arg_data_path" style="stroke:#000000;stroke-width:1.0;"/><polygon fill="#000000" points="514.58,229.92,517.817,220.6183,514.1638,224.9374,509.8447,221.2842,514.58,229.92" style="stroke:#000000;stroke-width:1.0;"/></g><!--link arg_path to vid--><g id="link_arg_path_vid"><path d="M275.56,242.21 C272.84,274.41 258.7052,441.7413 251.9352,521.8613 " fill="none" id="arg_path-to-vid" style="stroke:#000000;stroke-width:1.0;"/><polygon fill="#000000" points="251.43,527.84,256.1736,519.2088,251.851,522.8578,248.202,518.5352,251.43,527.84" style="stroke:#000000;stroke-width:1.0;"/><text fill="#000000" font-family="sans-serif" font-size="14" lengthAdjust="spacing" textLength="79.4199" x="270" y="413.4951">path object</text></g><!--link vid to crrdp--><g id="link_vid_crrdp"><path d="M240.34,611.1 C235.93,634.41 231.4833,658.0042 226.7833,682.8942 " fill="none" id="vid-to-crrdp" style="stroke:#000000;stroke-width:1.0;"/><polygon fill="#000000" points="225.67,688.79,231.2705,680.6885,226.5978,683.8768,223.4094,679.2041,225.67,688.79" style="stroke:#000000;stroke-width:1.0;"/><text fill="#000000" font-family="sans-serif" font-size="14" lengthAdjust="spacing" textLength="79.4199" x="234" y="654.9951">path object</text></g><!--link arg_data_path to vif--><g id="link_arg_data_path_vif"><path d="M515.22,242.29 C515.98,260.84 518.334,318.115 520.084,360.755 " fill="none" id="arg_data_path-to-vif" style="stroke:#000000;stroke-width:1.0;"/><polygon fill="#000000" points="520.33,366.75,523.9576,357.5935,520.125,361.7542,515.9643,357.9216,520.33,366.75" style="stroke:#000000;stroke-width:1.0;"/><text fill="#000000" font-family="sans-serif" font-size="14" lengthAdjust="spacing" textLength="79.4199" x="518" y="297.9951">path object</text></g><!--link vif to vsf--><g id="link_vif_vsf"><path d="M535.77,450.03 C543.86,473.86 552.1291,498.2192 560.2391,522.0792 " fill="none" id="vif-to-vsf" style="stroke:#000000;stroke-width:1.0;"/><polygon fill="#000000" points="562.17,527.76,563.0609,517.9515,560.5609,523.026,555.4864,520.5261,562.17,527.76" style="stroke:#000000;stroke-width:1.0;"/><text fill="#000000" font-family="sans-serif" font-size="14" lengthAdjust="spacing" textLength="79.4199" x="551" y="493.9951">path object</text></g><!--link vsf to epff--><g id="link_vsf_epff"><path d="M578.63,611.1 C580.37,637.84 582.2403,666.7227 583.9803,693.4527 " fill="none" id="vsf-to-epff" style="stroke:#000000;stroke-width:1.0;"/><polygon fill="#000000" points="584.37,699.44,587.7769,690.1992,584.0452,694.4506,579.7938,690.7188,584.37,699.44" style="stroke:#000000;stroke-width:1.0;"/><text fill="#000000" font-family="sans-serif" font-size="14" lengthAdjust="spacing" textLength="79.4199" x="582" y="654.9951">path object</text></g><!--link epff to epf--><g id="link_epff_epf"><path d="M546.18,782.71 C515.17,813.64 476.9581,851.7428 445.9681,882.6528 " fill="none" id="epff-to-epf" style="stroke:#000000;stroke-width:1.0;"/><polygon fill="#000000" points="441.72,886.89,450.9169,883.3663,445.2601,883.359,445.2674,877.7022,441.72,886.89" style="stroke:#000000;stroke-width:1.0;"/><text fill="#000000" font-family="sans-serif" font-size="14" lengthAdjust="spacing" textLength="82.0996" x="506" y="844.9951">JSON object</text></g><!--link crrdp to epf--><g id="link_crrdp_epf"><path d="M267.04,793.18 C296.45,822.67 328.6835,854.9812 356.1335,882.5112 " fill="none" id="crrdp-to-epf" style="stroke:#000000;stroke-width:1.0;"/><polygon fill="#000000" points="360.37,886.76,356.8478,877.5625,356.8396,883.2193,351.1828,883.2111,360.37,886.76" style="stroke:#000000;stroke-width:1.0;"/><text fill="#000000" font-family="sans-serif" font-size="14" lengthAdjust="spacing" textLength="100.9805" x="331" y="836.9951">Update `path`</text><text fill="#000000" font-family="sans-serif" font-size="14" lengthAdjust="spacing" textLength="60.2383" x="351.3711" y="853.292">property</text></g><!--link epf to vrp--><g id="link_epf_vrp"><path d="M401,970.1 C401,993.41 401,1016.9 401,1041.79 " fill="none" id="epf-to-vrp" style="stroke:#000000;stroke-width:1.0;"/><polygon fill="#000000" points="401,1047.79,405,1038.79,401,1042.79,397,1038.79,401,1047.79" style="stroke:#000000;stroke-width:1.0;"/><text fill="#000000" font-family="sans-serif" font-size="14" lengthAdjust="spacing" textLength="82.0996" x="402" y="1013.9951">JSON object</text></g><!--link vrp to return--><g id="link_vrp_return"><path d="M401,1152.06 C401,1186.27 401,1221.56 401,1235.85 " fill="none" id="vrp-to-return" style="stroke:#000000;stroke-width:1.0;"/><polygon fill="#000000" points="401,1241.85,405,1232.85,401,1236.85,397,1232.85,401,1241.85" style="stroke:#000000;stroke-width:1.0;"/><text fill="#000000" font-family="sans-serif" font-size="14" lengthAdjust="spacing" textLength="82.0996" x="402" y="1195.9951">JSON object</text></g><!--link return to output--><g id="link_return_output"><path d="M401,1254.15 C401,1265.86 401,1289.88 401,1320.86 " fill="none" id="return-to-output" style="stroke:#000000;stroke-width:1.0;"/><polygon fill="#000000" points="401,1326.86,405,1317.86,401,1321.86,397,1317.86,401,1326.86" style="stroke:#000000;stroke-width:1.0;"/></g><!--SRC=[XPLDRzim38Rl-HLSBck79i6kGH6Ws7RO3ckneQTri1MPTjGwbalHJekX_tsY_9acQNke5PDy-P2qf0-ymIs2GqoqSWWfsIric4ktN2n8xUQPuKsrhXoIjWLZmNDjjulEVrQIlKVDmukWjzWgKqmcZXKZJByNPSLJK0wChE3V1DhL4cOGbuetqQUpynZIgj1iRE6yhpEEOUUJGsPgKsIWBP7F1EBk9X_XYh9gwtaSpEJFQuebIDx8WYsu4hL9ZRuh00YThKZx2csU87dtHB6A3c9IasF8Aq7Yub71S2S_-xCnIOB5tzKGFtdfIxskkAlLXcKejZN- -7tzCvZkdIsYnkwjer-1HDp0hgMjO5Fm3Ts3p-tEjqFenF9L26-KVb0PXdgF2DxwkSOxCenH9nJvkPL8RD19uzcAdbCrmjfhIHzYAQziXEUY68_An2ScfVcuN2WHgGoborCOVk5ZPGWJK9GjGoilHWtiU-IjpKWkB_rewVd6ce9NgptxCBTNJlsCPgjUQ6_EdU58uccDPDBdoBWeCTGMKPl4E_Z_9qeO6Pl1Dw_14dmZilAHzGL9xiQvSGdp7UNNX2eCA5Tiwj6aUjWMIXCbfOyBpoDWQkriNdd9a2Vivx3Pza8wt2vTS9Plu0pdsHpYBhjRV5u8mBnKz5WXn-TjpL9E9tUyeA6XigNwZgP187she-cx7TqVQHFn7eMhoj8IOnAbbhQAEo8NYDnRHEvj8iaVEDnfZcx731ibaj6CUuDbAYZoECtIMpiOEIrQHc5exISW4jCJFFlKc2T3xaRy8BFpOZtp1OIW2wXLNk4euXLDe6XnO3a-qVglSB3UbedGXNiWlYiwliCXdZvjQf8TKHy_QthdaSkOTs-KhVtB1lM3luOoVu_vUwWzM8Kt33fuZQiQM0cvec8gPzEJuU7yaXY9RUm7JMbVYqTxCRpy1m00]--></g></svg>