<?xml version="1.0" encoding="us-ascii" standalone="no"?><svg xmlns="http://www.w3.org/2000/svg" xmlns:xlink="http://www.w3.org/1999/xlink" contentStyleType="text/css" height="1510px" preserveAspectRatio="none" style="width:750px;height:1510px;background:#FFFFFF;" version="1.1" viewBox="0 0 750 1510" width="750px" zoomAndPan="magnify"><defs/><g><!--cluster input--><g id="cluster_input"><path d="M168.5,7 L625.5,7 A12.5,12.5 0 0 1 638,19.5 L638,58.9063 L156,58.9063 L156,19.5 A12.5,12.5 0 0 1 168.5,7 " fill="#F2F2F2" style="stroke:#F2F2F2;stroke-width:1.0;"/><rect fill="none" height="164" rx="12.5" ry="12.5" style="stroke:#000000;stroke-width:0.5;" width="482" x="156" y="7"/><line style="stroke:#000000;stroke-width:0.5;" x1="156" x2="638" y1="58.9063" y2="58.9063"/><line style="stroke:#000000;stroke-width:0.5;" x1="156" x2="638" y1="32.9531" y2="32.9531"/><text fill="#000000" font-family="Fira Code" font-size="18" lengthAdjust="spacing" textLength="46" x="164" y="27.708">Input</text><text fill="#000000" font-family="Fira Code" font-size="18" lengthAdjust="spacing" textLength="466" x="161" y="52.1611">- `path_*()` functions assist with giving correct paths</text></g><!--cluster erp--><g id="cluster_erp"><path d="M19.5,236 L724.5,236 A12.5,12.5 0 0 1 737,248.5 L737,287.9063 L7,287.9063 L7,248.5 A12.5,12.5 0 0 1 19.5,236 " fill="#F2F2F2" style="stroke:#F2F2F2;stroke-width:1.0;"/><rect fill="none" height="1012" rx="12.5" ry="12.5" style="stroke:#000000;stroke-width:0.5;" width="730" x="7" y="236"/><line style="stroke:#000000;stroke-width:0.5;" x1="7" x2="737" y1="287.9063" y2="287.9063"/><line style="stroke:#000000;stroke-width:0.5;" x1="7" x2="737" y1="261.9531" y2="261.9531"/><text fill="#000000" font-family="Fira Code" font-size="18" lengthAdjust="spacing" textLength="263" x="240.5" y="257.708">extract_resource_properties()</text><text fill="#000000" font-family="Fira Code" font-size="18" lengthAdjust="spacing" textLength="278" x="12" y="281.1611">- Required arg: path, data_path</text></g><g id="input.path"><rect fill="#F2F2F2" height="82.8594" rx="12.5" ry="12.5" style="stroke:#000000;stroke-width:0.5;" width="167" x="208.5" y="72"/><line style="stroke:#000000;stroke-width:0.5;" x1="208.5" x2="375.5" y1="102.9531" y2="102.9531"/><text fill="#000000" font-family="Fira Code" font-size="18" lengthAdjust="spacing" textLength="39" x="272.5" y="93.708">path</text><text fill="#000000" font-family="Fira Code" font-size="18" lengthAdjust="spacing" textLength="146" x="213.5" y="124.6611">- Path to specific</text><text fill="#000000" font-family="Fira Code" font-size="18" lengthAdjust="spacing" textLength="135" x="225.5" y="145.6143">resource folder</text></g><g id="input.data_path"><rect fill="#F2F2F2" height="82.8594" rx="12.5" ry="12.5" style="stroke:#000000;stroke-width:0.5;" width="174" x="411" y="72"/><line style="stroke:#000000;stroke-width:0.5;" x1="411" x2="585" y1="102.9531" y2="102.9531"/><text fill="#000000" font-family="Fira Code" font-size="18" lengthAdjust="spacing" textLength="86" x="455" y="93.708">data_path</text><text fill="#000000" font-family="Fira Code" font-size="18" lengthAdjust="spacing" textLength="154" x="416" y="124.6611">- Path to file with</text><text fill="#000000" font-family="Fira Code" font-size="18" lengthAdjust="spacing" textLength="78" x="428" y="145.6143">data in it</text></g><text fill="#000000" font-family="Fira Code" font-size="18" lengthAdjust="spacing" textLength="77" x="232.5" y="213.7549">arg_path</text><ellipse cx="271" cy="236" fill="#F2F2F2" rx="6" ry="6" style="stroke:#000000;stroke-width:1.5;"/><text fill="#000000" font-family="Fira Code" font-size="18" lengthAdjust="spacing" textLength="124" x="446" y="213.7549">arg_data_path</text><ellipse cx="508" cy="236" fill="#F2F2F2" rx="6" ry="6" style="stroke:#000000;stroke-width:1.5;"/><g id="erp.vid"><rect fill="#F2F2F2" height="82.8594" rx="12.5" ry="12.5" style="stroke:#000000;stroke-width:0.5;" width="222" x="132" y="528"/><line style="stroke:#000000;stroke-width:0.5;" x1="132" x2="354" y1="558.9531" y2="558.9531"/><text fill="#000000" font-family="Fira Code" font-size="18" lengthAdjust="spacing" textLength="121" x="182.5" y="549.708">verify_is_dir()</text><text fill="#000000" font-family="Fira Code" font-size="18" lengthAdjust="spacing" textLength="180" x="137" y="580.6611">- Required arg: path</text><text fill="#000000" font-family="Fira Code" font-size="18" lengthAdjust="spacing" textLength="202" x="137" y="601.6143">- Output: path or Error</text></g><g id="erp.crrdp"><rect fill="#F2F2F2" height="103.8125" rx="12.5" ry="12.5" style="stroke:#000000;stroke-width:0.5;" width="379" x="22.5" y="689"/><line style="stroke:#000000;stroke-width:0.5;" x1="22.5" x2="401.5" y1="719.9531" y2="719.9531"/><text fill="#000000" font-family="Fira Code" font-size="18" lengthAdjust="spacing" textLength="328" x="48" y="710.708">create_relative_resource_data_path()</text><text fill="#000000" font-family="Fira Code" font-size="18" lengthAdjust="spacing" textLength="359" x="27.5" y="741.6611">- Required arg: absolute path from input</text><text fill="#000000" font-family="Fira Code" font-size="18" lengthAdjust="spacing" textLength="199" x="27.5" y="762.6143">- Output: relative path</text><text fill="#000000" font-family="Fira Code" font-size="18" lengthAdjust="spacing" textLength="293" x="39.5" y="783.5674">(e.g. `resources/1/data.parquet`)</text></g><g id="erp.vif"><rect fill="#F2F2F2" height="82.8594" rx="12.5" ry="12.5" style="stroke:#000000;stroke-width:0.5;" width="222" x="404" y="367"/><line style="stroke:#000000;stroke-width:0.5;" x1="404" x2="626" y1="397.9531" y2="397.9531"/><text fill="#000000" font-family="Fira Code" font-size="18" lengthAdjust="spacing" textLength="124" x="453" y="388.708">verify_is_file()</text><text fill="#000000" font-family="Fira Code" font-size="18" lengthAdjust="spacing" textLength="180" x="409" y="419.6611">- Required arg: path</text><text fill="#000000" font-family="Fira Code" font-size="18" lengthAdjust="spacing" textLength="202" x="409" y="440.6143">- Output: path or Error</text></g><g id="erp.vsf"><rect fill="#F2F2F2" height="82.8594" rx="12.5" ry="12.5" style="stroke:#000000;stroke-width:0.5;" width="274" x="431" y="528"/><line style="stroke:#000000;stroke-width:0.5;" x1="431" x2="705" y1="558.9531" y2="558.9531"/><text fill="#000000" font-family="Fira Code" font-size="18" lengthAdjust="spacing" textLength="254" x="441" y="549.708">verify_is_supported_format()</text><text fill="#000000" font-family="Fira Code" font-size="18" lengthAdjust="spacing" textLength="180" x="436" y="580.6611">- Required arg: path</text><text fill="#000000" font-family="Fira Code" font-size="18" lengthAdjust="spacing" textLength="202" x="436" y="601.6143">- Output: path or Error</text></g><g id="erp.epff"><rect fill="#F2F2F2" height="82.8594" rx="12.5" ry="12.5" style="stroke:#000000;stroke-width:0.5;" width="284" x="437" y="699.5"/><line style="stroke:#000000;stroke-width:0.5;" x1="437" x2="721" y1="730.4531" y2="730.4531"/><text fill="#000000" font-family="Fira Code" font-size="18" lengthAdjust="spacing" textLength="264" x="447" y="721.208">extract_properties_from_file()</text><text fill="#000000" font-family="Fira Code" font-size="18" lengthAdjust="spacing" textLength="180" x="442" y="752.1611">- Required arg: path</text><text fill="#000000" font-family="Fira Code" font-size="18" lengthAdjust="spacing" textLength="131" x="442" y="773.1143">- Output: JSON</text></g><g id="erp.erpf"><rect fill="#F2F2F2" height="82.8594" rx="12.5" ry="12.5" style="stroke:#000000;stroke-width:0.5;" width="370" x="210" y="887"/><line style="stroke:#000000;stroke-width:0.5;" x1="210" x2="580" y1="917.9531" y2="917.9531"/><text fill="#000000" font-family="Fira Code" font-size="18" lengthAdjust="spacing" textLength="281" x="254.5" y="908.708">edit_resource_properties_field()</text><text fill="#000000" font-family="Fira Code" font-size="18" lengthAdjust="spacing" textLength="350" x="215" y="939.6611">- Required args: properties, field, value</text><text fill="#000000" font-family="Fira Code" font-size="18" lengthAdjust="spacing" textLength="131" x="215" y="960.6143">- Output: JSON</text></g><g id="erp.vrp"><rect fill="#F2F2F2" height="103.8125" rx="12.5" ry="12.5" style="stroke:#000000;stroke-width:0.5;" width="272" x="259" y="1048"/><line style="stroke:#000000;stroke-width:0.5;" x1="259" x2="531" y1="1078.9531" y2="1078.9531"/><text fill="#000000" font-family="Fira Code" font-size="18" lengthAdjust="spacing" textLength="252" x="269" y="1069.708">verify_resource_properties()</text><text fill="#000000" font-family="Fira Code" font-size="18" lengthAdjust="spacing" textLength="232" x="264" y="1100.6611">- Required arg: properties</text><text fill="#000000" font-family="Fira Code" font-size="18" lengthAdjust="spacing" textLength="208" x="264" y="1121.6143">- Output: JSON or Error</text><text fill="#000000" font-family="Fira Code" font-size="18" lengthAdjust="spacing" textLength="188" x="264" y="1142.5674">- Checks against spec</text></g><text fill="#000000" font-family="Fira Code" font-size="18" lengthAdjust="spacing" textLength="56" x="366.5" y="1270.708">return</text><ellipse cx="394.5" cy="1248" fill="#F2F2F2" rx="6" ry="6" style="stroke:#000000;stroke-width:1.5;"/><line style="stroke:#000000;stroke-width:1.5;" x1="398.8891" x2="391.1109" y1="1252.3891" y2="1244.6109"/><line style="stroke:#000000;stroke-width:1.5;" x1="398.8891" x2="391.1109" y1="1244.6109" y2="1252.3891"/><path d="M214,1327 L576,1327 A12.5,12.5 0 0 1 588.5,1339.5 L588.5,1357.9531 L201.5,1357.9531 L201.5,1339.5 A12.5,12.5 0 0 1 214,1327 " fill="#F2F2F2" style="stroke:#F2F2F2;stroke-width:1.0;"/><rect fill="none" height="177.7188" rx="12.5" ry="12.5" style="stroke:#000000;stroke-width:0.5;" width="387" x="201.5" y="1327"/><line style="stroke:#000000;stroke-width:0.5;" x1="201.5" x2="588.5" y1="1357.9531" y2="1357.9531"/><text fill="#000000" font-family="Fira Code" font-size="18" lengthAdjust="spacing" textLength="61" x="364.5" y="1348.708">Output</text><g id="output.json_output"><rect fill="#F2F2F2" height="124.7656" rx="12.5" ry="12.5" style="stroke:#000000;stroke-width:0.5;" width="366" x="213.5" y="1369.9531"/><line style="stroke:#000000;stroke-width:0.5;" x1="213.5" x2="579.5" y1="1400.9063" y2="1400.9063"/><text fill="#000000" font-family="Fira Code" font-size="18" lengthAdjust="spacing" textLength="45" x="374" y="1391.6611">JSON</text><text fill="#000000" font-family="Fira Code" font-size="18" lengthAdjust="spacing" textLength="346" x="218.5" y="1422.6143">- JSON object of the resource following</text><text fill="#000000" font-family="Fira Code" font-size="18" lengthAdjust="spacing" textLength="199" x="230.5" y="1443.5674">the Data Package spec</text><text fill="#000000" font-family="Fira Code" font-size="18" lengthAdjust="spacing" textLength="341" x="218.5" y="1464.5205">- Use `write_resource_properties()` to</text><text fill="#000000" font-family="Fira Code" font-size="18" lengthAdjust="spacing" textLength="285" x="230.5" y="1485.4736">save back to `datapackage.json`</text></g><!--link path to data_path--><!--link path to arg_path--><g id="link_path_arg_path"><path d="M284.89,155.3 C280.6,179.89 275.47,209.33 272.81,224.62 " fill="none" id="path-to-arg_path" style="stroke:#000000;stroke-width:1.0;"/><polygon fill="#000000" points="271.89,229.92,277.3729,221.7385,272.7467,224.9939,269.4912,220.3677,271.89,229.92" style="stroke:#000000;stroke-width:1.0;"/></g><!--link data_path to arg_data_path--><g id="link_data_path_arg_data_path"><path d="M501.39,155.3 C503.43,179.89 505.87,209.33 507.14,224.62 " fill="none" id="data_path-to-arg_data_path" style="stroke:#000000;stroke-width:1.0;"/><polygon fill="#000000" points="507.58,229.92,510.821,220.6197,507.166,224.9372,502.8485,221.2821,507.58,229.92" style="stroke:#000000;stroke-width:1.0;"/></g><!--link arg_path to vid--><g id="link_arg_path_vid"><path d="M270.56,242.21 C267.9,273.72 253.82,440.34 246.88,522.55 " fill="none" id="arg_path-to-vid" style="stroke:#000000;stroke-width:1.0;"/><polygon fill="#000000" points="246.43,527.84,251.1615,519.2021,246.844,522.8572,243.189,518.5397,246.43,527.84" style="stroke:#000000;stroke-width:1.0;"/><text fill="#000000" font-family="sans-serif" font-size="14" lengthAdjust="spacing" textLength="78" x="265" y="413.4951">path object</text></g><!--link vid to crrdp--><g id="link_vid_crrdp"><path d="M235.57,611.1 C231.59,632.86 226.63,660.01 222.28,683.77 " fill="none" id="vid-to-crrdp" style="stroke:#000000;stroke-width:1.0;"/><polygon fill="#000000" points="221.37,688.79,226.9217,680.655,222.2682,683.8713,219.0518,679.2179,221.37,688.79" style="stroke:#000000;stroke-width:1.0;"/><text fill="#000000" font-family="sans-serif" font-size="14" lengthAdjust="spacing" textLength="78" x="230" y="654.9951">path object</text></g><!--link arg_data_path to vif--><g id="link_arg_data_path_vif"><path d="M508.22,242.29 C508.95,260.11 511.38,319.23 513.12,361.66 " fill="none" id="arg_data_path-to-vif" style="stroke:#000000;stroke-width:1.0;"/><polygon fill="#000000" points="513.33,366.75,516.9671,357.5973,513.1302,361.754,508.9735,357.9171,513.33,366.75" style="stroke:#000000;stroke-width:1.0;"/><text fill="#000000" font-family="sans-serif" font-size="14" lengthAdjust="spacing" textLength="78" x="511" y="297.9951">path object</text></g><!--link vif to vsf--><g id="link_vif_vsf"><path d="M528.51,450.03 C535.93,472.28 545.15,499.94 552.81,522.93 " fill="none" id="vif-to-vsf" style="stroke:#000000;stroke-width:1.0;"/><polygon fill="#000000" points="554.42,527.76,555.3864,517.9587,552.8474,523.0137,547.7924,520.4748,554.42,527.76" style="stroke:#000000;stroke-width:1.0;"/><text fill="#000000" font-family="sans-serif" font-size="14" lengthAdjust="spacing" textLength="78" x="544" y="493.9951">path object</text></g><!--link vsf to epff--><g id="link_vsf_epff"><path d="M570.63,611.1 C572.26,636.17 574.35,668.38 576.04,694.34 " fill="none" id="vsf-to-epff" style="stroke:#000000;stroke-width:1.0;"/><polygon fill="#000000" points="576.37,699.44,579.7959,690.2062,576.0554,694.4499,571.8117,690.7095,576.37,699.44" style="stroke:#000000;stroke-width:1.0;"/><text fill="#000000" font-family="sans-serif" font-size="14" lengthAdjust="spacing" textLength="78" x="574" y="654.9951">path object</text></g><!--link epff to erpf--><g id="link_epff_erpf"><path d="M538.62,782.71 C509.14,812.43 469.2,852.69 438.93,883.21 " fill="none" id="epff-to-erpf" style="stroke:#000000;stroke-width:1.0;"/><polygon fill="#000000" points="435.29,886.89,444.4681,883.3174,438.8112,883.3402,438.7884,877.6834,435.29,886.89" style="stroke:#000000;stroke-width:1.0;"/><text fill="#000000" font-family="sans-serif" font-size="14" lengthAdjust="spacing" textLength="80" x="499" y="844.9951">JSON object</text></g><!--link crrdp to erpf--><g id="link_crrdp_erpf"><path d="M262.49,793.18 C290.33,821.4 324.56,856.1 351.26,883.16 " fill="none" id="crrdp-to-erpf" style="stroke:#000000;stroke-width:1.0;"/><polygon fill="#000000" points="354.81,886.76,351.3302,877.5464,351.296,883.2031,345.6392,883.1688,354.81,886.76" style="stroke:#000000;stroke-width:1.0;"/><text fill="#000000" font-family="sans-serif" font-size="14" lengthAdjust="spacing" textLength="99" x="326" y="836.9951">Update `path`</text><text fill="#000000" font-family="sans-serif" font-size="14" lengthAdjust="spacing" textLength="58" x="346.5" y="853.292">property</text></g><!--link erpf to vrp--><g id="link_erpf_vrp"><path d="M395,970.1 C395,991.86 395,1019.01 395,1042.77 " fill="none" id="erpf-to-vrp" style="stroke:#000000;stroke-width:1.0;"/><polygon fill="#000000" points="395,1047.79,399,1038.79,395,1042.79,391,1038.79,395,1047.79" style="stroke:#000000;stroke-width:1.0;"/><text fill="#000000" font-family="sans-serif" font-size="14" lengthAdjust="spacing" textLength="80" x="396" y="1013.9951">JSON object</text></g><!--link vrp to return--><g id="link_vrp_return"><path d="M395,1152.06 C395,1182.8 395,1219.25 395,1236.69 " fill="none" id="vrp-to-return" style="stroke:#000000;stroke-width:1.0;"/><polygon fill="#000000" points="395,1241.85,399,1232.85,395,1236.85,391,1232.85,395,1241.85" style="stroke:#000000;stroke-width:1.0;"/><text fill="#000000" font-family="sans-serif" font-size="14" lengthAdjust="spacing" textLength="80" x="396" y="1195.9951">JSON object</text></g><!--link return to output--><g id="link_return_output"><path d="M395,1254.15 C395,1265.22 395,1292.65 395,1321.79 " fill="none" id="return-to-output" style="stroke:#000000;stroke-width:1.0;"/><polygon fill="#000000" points="395,1326.86,399,1317.86,395,1321.86,391,1317.86,395,1326.86" style="stroke:#000000;stroke-width:1.0;"/></g><!--SRC=[XPLBRzim383l-HLSBck79i6knH1Ws7RO3ckneQTri1MPTjGwbalHJekX_tsY_4pZj3tKYldwI9hKEzxY3i4X9bevX9Ji3hRCfRjShKZjbvdXRRMf79As1MF1Isrtgqv_KPAzGyt3Y-1ljLEccCqSAqQOVo_AYkUW71WvmRyPjATBM41SAjv67yxEOqYhGhEnXVEwpZY6lGyEcQbDaO6sH3uIYBgRlOVFb5Kxp-DW8N_UfqY2osivi0LNeZQfqRS50A6p5McVeSqJ9A-UA5RHaKrgSWnnnKXKF2eOxjml_cnDac3nTptOpvxxLAygxdAruHYIROK_Vb_z3A8xPukeaNlfw5SW4JMm6oahs1HyGG_WSxltvH0waNmLmckbxrM68Ty9XpU-h_6U36FKEOfytqeaDkYay6p5drCrmiRxaZh4abxPE5wAntYK9ZuoAStJxaAAI6L8NPx2y0iVAaEOWABiCfJoObJ0laPUshJaqoVVMdgwjgRWzVf0FlJjXLBVeyMwTtJGvqum4NXU8vdqAJ8kIWorITGcyGh-_uaKHiAcySrhi0JVYAnyP7r24hjHRbH2VqVnDQ4A3SeLcthKgHwsXT94IUdjmdC2J6sSpIllCiG9yno6xS2am-t21MNv1ivmcIqXxgAxrSUL02nBHGyLSdpUvYpfTEwc4neAAYFLLpGD3jBNAfg-MT73bZOMRr6ugYmjCIPHQccdk2DoWSYzHkHU9vBuWSETvkWcPXYKI5ephWsMgQ38upHBB-rWP5kqZCBGoaz096PoPZq5viamkMapkCSOpdlkhIuWc5r0hV8AnoOls09JW6iKHWkk_oX7ufio4TfmByItHHlmwRYffxTFJJ8XzVJkwPL7AcFYWzQsyYzRrFV-MihylURlfNRH1k3G-Q0spck09UIAYhaigqV3mq8J6x5jv4TbQL-BHdjJFFy7]--></g></svg>