<svg xmlns="http://www.w3.org/2000/svg" xmlns:xlink="http://www.w3.org/1999/xlink" contentStyleType="text/css" height="642px" preserveAspectRatio="none" style="width:511px;height:642px;background:#FFFFFF;" version="1.1" viewBox="0 0 511 642" width="511px" zoomAndPan="magnify"><defs/><g><!--cluster prs--><g id="cluster_prs"><path d="M19.5,7 L485.5,7 A12.5,12.5 0 0 1 498,19.5 L498,32.9531 L7,32.9531 L7,19.5 A12.5,12.5 0 0 1 19.5,7 " fill="#F2F2F2" style="stroke:#F2F2F2;stroke-width:1.0;"/><rect fill="none" height="604" rx="12.5" ry="12.5" style="stroke:#000000;stroke-width:0.5;" width="491" x="7" y="7"/><line style="stroke:#000000;stroke-width:0.5;" x1="7" x2="498" y1="32.9531" y2="32.9531"/><text fill="#000000" font-family="Fira Code" font-size="18" lengthAdjust="spacing" textLength="167.1328" x="168.9336" y="28.708">path_sprout_root()</text></g><g id="prs.gre"><rect fill="#F2F2F2" height="82.8594" rx="12.5" ry="12.5" style="stroke:#000000;stroke-width:0.5;" width="324.4004" x="121" y="46"/><line style="stroke:#000000;stroke-width:0.5;" x1="121" x2="445.4004" y1="76.9531" y2="76.9531"/><text fill="#000000" font-family="Fira Code" font-size="18" lengthAdjust="spacing" textLength="160.3037" x="203.0483" y="67.708">get_root_envvar()</text><text fill="#000000" font-family="Fira Code" font-size="18" lengthAdjust="spacing" textLength="304.4004" x="126" y="98.6611">- If user sets the `SPROUT_ROOT`</text><text fill="#000000" font-family="Fira Code" font-size="18" lengthAdjust="spacing" textLength="193.3682" x="137.4434" y="119.6143">environment variable</text></g><g id="elem_condition"><polygon fill="#F1F1F1" points="283,207,295,219,283,231,271,219,283,207" style="stroke:#181818;stroke-width:0.5;"/></g><g id="prs.crp"><rect fill="#F2F2F2" height="103.8125" rx="12.5" ry="12.5" style="stroke:#000000;stroke-width:0.5;" width="290.9756" x="22.5" y="325"/><line style="stroke:#000000;stroke-width:0.5;" x1="22.5" x2="313.4756" y1="355.9531" y2="355.9531"/><text fill="#000000" font-family="Fira Code" font-size="18" lengthAdjust="spacing" textLength="166.9834" x="84.4961" y="346.708">create_root_path()</text><text fill="#000000" font-family="Fira Code" font-size="18" lengthAdjust="spacing" textLength="270.9756" x="27.5" y="377.6611">- Uses `platformdirs` package</text><text fill="#000000" font-family="Fira Code" font-size="18" lengthAdjust="spacing" textLength="85.0342" x="38.9434" y="398.6143">internally</text><text fill="#000000" font-family="Fira Code" font-size="18" lengthAdjust="spacing" textLength="187.1807" x="27.5" y="419.5674">- Ends with `sprout/`</text></g><rect fill="#555555" height="8" style="stroke:none;stroke-width:1.0;" width="80" x="289" y="507"/><text fill="#000000" font-family="Fira Code" font-size="18" lengthAdjust="spacing" textLength="55.749" x="300.6255" y="633.708">return</text><ellipse cx="328.5" cy="611" fill="#F2F2F2" rx="6" ry="6" style="stroke:#000000;stroke-width:1.5;"/><line style="stroke:#000000;stroke-width:1.5;" x1="332.8891" x2="325.1109" y1="615.3891" y2="607.6109"/><line style="stroke:#000000;stroke-width:1.5;" x1="332.8891" x2="325.1109" y1="607.6109" y2="615.3891"/><!--link gre to condition--><g id="link_gre_condition"><path d="M283,129.12 C283,156.12 283,183.65 283,200.78 " fill="none" id="gre-to-condition" style="stroke:#000000;stroke-width:1.0;"/><polygon fill="#000000" points="283,206.78,287,197.78,283,201.78,279,197.78,283,206.78" style="stroke:#000000;stroke-width:1.0;"/><text fill="#000000" font-family="sans-serif" font-size="14" lengthAdjust="spacing" textLength="89.9746" x="284" y="172.9951">path or none</text></g><!--link condition to crp--><g id="link_condition_crp"><path d="M278.06,226.7 C265.68,243.5 235.9598,283.8101 209.2198,320.0901 " fill="none" id="condition-to-crp" style="stroke:#000000;stroke-width:1.0;"/><polygon fill="#000000" points="205.66,324.92,214.2197,320.0484,208.6265,320.8951,207.7798,315.302,205.66,324.92" style="stroke:#000000;stroke-width:1.0;"/><text fill="#000000" font-family="sans-serif" font-size="14" lengthAdjust="spacing" textLength="52.8418" x="260.3315" y="274.9951">env var</text><text fill="#000000" font-family="sans-serif" font-size="14" lengthAdjust="spacing" textLength="67.5049" x="253" y="291.292">not found</text></g><!--link crp to select--><g id="link_crp_select"><path d="M230.25,429.03 C268.47,460.38 307.86,492.666 320.68,503.176 " fill="none" id="crp-to-select" style="stroke:#000000;stroke-width:1.0;"/><polygon fill="#000000" points="325.32,506.98,320.8959,498.1807,321.4533,503.81,315.824,504.3674,325.32,506.98" style="stroke:#000000;stroke-width:1.0;"/><text fill="#000000" font-family="sans-serif" font-size="14" lengthAdjust="spacing" textLength="79.4199" x="286" y="472.9951">path object</text></g><!--link condition to select--><g id="link_condition_select"><path d="M290.17,224.31 C300.45,230.88 319.21,244.42 329,261 C374.87,338.72 363.94,369.32 374,459 C374.89,466.95 377.62,469.86 374,477 C366.21,492.38 352.9941,499.9416 342.3241,504.5716 " fill="none" id="condition-to-select" style="stroke:#000000;stroke-width:1.0;"/><polygon fill="#000000" points="336.82,506.96,346.6685,507.0468,341.4068,504.9697,343.4839,499.708,336.82,506.96" style="stroke:#000000;stroke-width:1.0;"/><text fill="#000000" font-family="sans-serif" font-size="14" lengthAdjust="spacing" textLength="97.1387" x="372.1401" y="373.9951">path object, if</text><text fill="#000000" font-family="sans-serif" font-size="14" lengthAdjust="spacing" textLength="97.4189" x="372" y="390.292">env var found</text></g><!--link select to return--><g id="link_select_return"><path d="M329,515.26 C329,529.61 329,581.19 329,598.83 " fill="none" id="select-to-return" style="stroke:#000000;stroke-width:1.0;"/><polygon fill="#000000" points="329,604.83,333,595.83,329,599.83,325,595.83,329,604.83" style="stroke:#000000;stroke-width:1.0;"/><text fill="#000000" font-family="sans-serif" font-size="14" lengthAdjust="spacing" textLength="79.4199" x="330" y="558.9951">path object</text></g><!--SRC=[RP5FRy8m3CNl_HGUfqrQwHqXRZli169mGsf3whPXRL8vBcoQzjtdb33OdqiYnS_l_UpSSOCTWaSijV885RaE6kRUpxACr6bQ6sw6_U2HjBECbgVQTTb5d_Ra3gZv-Z3wPPqoDaayAqQOz8gRt8jou9oSu_k72IWFFNduI1A0AAlnNCxH7e-Aegec58cSC8CKdYi8ACBB7YGAYfVLUhdTvElbSbFiB80q6tAs4r8G5wFsBLv3P8RIi74MvdFTEADniOZsQRguASyWK8CZiCxU64mqeTndq229c9fwqSWvOcuzUYZwLd7bg2iD-KByzAkgCJ0QMIHPrRRlDprFjlHmacr3STvLLeJgDz78Dsfbn33Qpbh7KBd1bbS-ZwryXqntSCQEiuMUq1ihby7suTl-1FmdUWHJxMmC_Pr7o0E5RUARuPLayXWQVO9bLFpC_Ko-0000]--></g></svg>
