<svg xmlns="http://www.w3.org/2000/svg" xmlns:xlink="http://www.w3.org/1999/xlink" contentStyleType="text/css" height="987px" preserveAspectRatio="none" style="width:760px;height:987px;background:#FFFFFF;" version="1.1" viewBox="0 0 760 987" width="760px" zoomAndPan="magnify"><defs/><g><!--cluster input--><g id="cluster_input"><path d="M19.5,7 L734.5,7 A12.5,12.5 0 0 1 747,19.5 L747,79.8594 L7,79.8594 L7,19.5 A12.5,12.5 0 0 1 19.5,7 " fill="#F2F2F2" style="stroke:#F2F2F2;stroke-width:1.0;"/><rect fill="none" height="164" rx="12.5" ry="12.5" style="stroke:#000000;stroke-width:0.5;" width="740" x="7" y="7"/><line style="stroke:#000000;stroke-width:0.5;" x1="7" x2="747" y1="79.8594" y2="79.8594"/><line style="stroke:#000000;stroke-width:0.5;" x1="7" x2="747" y1="32.9531" y2="32.9531"/><text fill="#000000" font-family="Fira Code" font-size="18" lengthAdjust="spacing" textLength="46.6084" x="227.5" y="27.708">Input</text><text fill="#000000" font-family="Fira Code" font-size="18" lengthAdjust="spacing" textLength="299.584" x="12" y="52.1611">- Use `path_*()` functions to help</text><text fill="#000000" font-family="Fira Code" font-size="18" lengthAdjust="spacing" textLength="183.0146" x="12" y="73.1143">create correct paths</text></g><!--cluster wpp--><g id="cluster_wpp"><path d="M167.5,236 L546,236 A12.5,12.5 0 0 1 558.5,248.5 L558.5,287.9063 L155,287.9063 L155,248.5 A12.5,12.5 0 0 1 167.5,236 " fill="#F2F2F2" style="stroke:#F2F2F2;stroke-width:1.0;"/><rect fill="none" height="538" rx="12.5" ry="12.5" style="stroke:#000000;stroke-width:0.5;" width="403.5" x="155" y="236"/><line style="stroke:#000000;stroke-width:0.5;" x1="155" x2="558.5" y1="287.9063" y2="287.9063"/><line style="stroke:#000000;stroke-width:0.5;" x1="155" x2="558.5" y1="261.9531" y2="261.9531"/><text fill="#000000" font-family="Fira Code" font-size="18" lengthAdjust="spacing" textLength="245.8564" x="233.8218" y="257.708">write_package_properties()</text><text fill="#000000" font-family="Fira Code" font-size="18" lengthAdjust="spacing" textLength="319.377" x="160" y="281.1611">- Required arg: properties and path</text></g><g id="input.properties"><rect fill="#F2F2F2" height="61.9063" rx="12.5" ry="12.5" style="stroke:#000000;stroke-width:0.5;" width="332.7764" x="23.5" y="93"/><line style="stroke:#000000;stroke-width:0.5;" x1="23.5" x2="356.2764" y1="123.9531" y2="123.9531"/><text fill="#000000" font-family="Fira Code" font-size="18" lengthAdjust="spacing" textLength="92.25" x="143.7632" y="114.708">properties</text><text fill="#000000" font-family="Fira Code" font-size="18" lengthAdjust="spacing" textLength="312.7764" x="28.5" y="145.6611">- Properties objects in JSON format</text></g><g id="input.path"><rect fill="#F2F2F2" height="61.9063" rx="12.5" ry="12.5" style="stroke:#000000;stroke-width:0.5;" width="338.9023" x="391.5" y="93"/><line style="stroke:#000000;stroke-width:0.5;" x1="391.5" x2="730.4023" y1="123.9531" y2="123.9531"/><text fill="#000000" font-family="Fira Code" font-size="18" lengthAdjust="spacing" textLength="40.9219" x="540.4902" y="114.708">path</text><text fill="#000000" font-family="Fira Code" font-size="18" lengthAdjust="spacing" textLength="318.9023" x="396.5" y="145.6611">- Path to where properties is stored</text></g><text fill="#000000" font-family="Fira Code" font-size="18" lengthAdjust="spacing" textLength="79.7783" x="500.6108" y="213.7549">arg_path</text><ellipse cx="540.5" cy="236" fill="#F2F2F2" rx="6" ry="6" style="stroke:#000000;stroke-width:1.5;"/><text fill="#000000" font-family="Fira Code" font-size="18" lengthAdjust="spacing" textLength="131.1064" x="181.4468" y="213.7549">arg_properties</text><ellipse cx="247" cy="236" fill="#F2F2F2" rx="6" ry="6" style="stroke:#000000;stroke-width:1.5;"/><g id="wpp.vpp"><rect fill="#F2F2F2" height="166.6719" rx="12.5" ry="12.5" style="stroke:#000000;stroke-width:0.5;" width="271.7188" x="171" y="350"/><line style="stroke:#000000;stroke-width:0.5;" x1="171" x2="442.7188" y1="380.9531" y2="380.9531"/><text fill="#000000" font-family="Fira Code" font-size="18" lengthAdjust="spacing" textLength="251.7188" x="181" y="371.708">verify_package_properties()</text><text fill="#000000" font-family="Fira Code" font-size="18" lengthAdjust="spacing" textLength="233.1475" x="176" y="402.6611">- Required arg: properties</text><text fill="#000000" font-family="Fira Code" font-size="18" lengthAdjust="spacing" textLength="205.3389" x="176" y="423.6143">- Output: JSON or Error</text><text fill="#000000" font-family="Fira Code" font-size="18" lengthAdjust="spacing" textLength="199.9336" x="176" y="444.5674">- Checks that all fields</text><text fill="#000000" font-family="Fira Code" font-size="18" lengthAdjust="spacing" textLength="208.2744" x="187.4434" y="465.5205">and values match spec</text><text fill="#000000" font-family="Fira Code" font-size="18" lengthAdjust="spacing" textLength="201.1729" x="176" y="486.4736">- Checks that required</text><text fill="#000000" font-family="Fira Code" font-size="18" lengthAdjust="spacing" textLength="157.9834" x="187.4434" y="507.4268">fields are present</text></g><g id="wpp.wj"><rect fill="#F2F2F2" height="82.8594" rx="12.5" ry="12.5" style="stroke:#000000;stroke-width:0.5;" width="348.3945" x="171" y="595"/><line style="stroke:#000000;stroke-width:0.5;" x1="171" x2="519.3945" y1="625.9531" y2="625.9531"/><text fill="#000000" font-family="Fira Code" font-size="18" lengthAdjust="spacing" textLength="105.0996" x="292.6475" y="616.708">write_json()</text><text fill="#000000" font-family="Fira Code" font-size="18" lengthAdjust="spacing" textLength="328.3945" x="176" y="647.6611">- Required arg: json_object and path</text><text fill="#000000" font-family="Fira Code" font-size="18" lengthAdjust="spacing" textLength="259.0576" x="176" y="668.6143">- Output: path to created file</text></g><text fill="#000000" font-family="Fira Code" font-size="18" lengthAdjust="spacing" textLength="55.749" x="316.6255" y="796.708">return</text><ellipse cx="344.5" cy="774" fill="#F2F2F2" rx="6" ry="6" style="stroke:#000000;stroke-width:1.5;"/><line style="stroke:#000000;stroke-width:1.5;" x1="348.8891" x2="341.1109" y1="778.3891" y2="770.6109"/><line style="stroke:#000000;stroke-width:1.5;" x1="348.8891" x2="341.1109" y1="770.6109" y2="778.3891"/><path d="M159,853 L531.4805,853 A12.5,12.5 0 0 1 543.9805,865.5 L543.9805,909.9063 L146.5,909.9063 L146.5,865.5 A12.5,12.5 0 0 1 159,853 " fill="#F2F2F2" style="stroke:#F2F2F2;stroke-width:1.0;"/><rect fill="none" height="128.9063" rx="12.5" ry="12.5" style="stroke:#000000;stroke-width:0.5;" width="397.4805" x="146.5" y="853"/><line style="stroke:#000000;stroke-width:0.5;" x1="146.5" x2="543.9805" y1="909.9063" y2="909.9063"/><line style="stroke:#000000;stroke-width:0.5;" x1="146.5" x2="543.9805" y1="883.9531" y2="883.9531"/><text fill="#000000" font-family="Fira Code" font-size="18" lengthAdjust="spacing" textLength="62.5254" x="313.9775" y="874.708">Output</text><text fill="#000000" font-family="Fira Code" font-size="18" lengthAdjust="spacing" textLength="372.4805" x="151.5" y="900.6611">- The package parent folder is shown as /</text><g id="output.properties_file"><rect fill="#F2F2F2" height="50" rx="12.5" ry="12.5" style="stroke:#000000;stroke-width:0.5;" width="329.8408" x="158.5" y="921.9063"/><line style="stroke:#000000;stroke-width:0.5;" x1="158.5" x2="488.3408" y1="952.8594" y2="952.8594"/><text fill="#000000" font-family="Fira Code" font-size="18" lengthAdjust="spacing" textLength="309.8408" x="168.5" y="943.6143">/packages/&lt;id&gt;/datapackage.json</text></g><!--link properties to arg_properties--><g id="link_properties_arg_properties"><path d="M205.58,155.06 C219.02,181.01 234.5784,211.0433 241.4684,224.3333 " fill="none" id="properties-to-arg_properties" style="stroke:#000000;stroke-width:1.0;"/><polygon fill="#000000" points="244.23,229.66,243.6388,219.8289,241.9287,225.2211,236.5365,223.511,244.23,229.66" style="stroke:#000000;stroke-width:1.0;"/></g><!--link path to arg_path--><g id="link_path_arg_path"><path d="M555.53,155.06 C550.82,181.01 545.4649,210.4671 543.0449,223.7571 " fill="none" id="path-to-arg_path" style="stroke:#000000;stroke-width:1.0;"/><polygon fill="#000000" points="541.97,229.66,547.5176,221.5222,542.8657,224.7409,539.647,220.089,541.97,229.66" style="stroke:#000000;stroke-width:1.0;"/></g><!--link arg_properties to vpp--><g id="link_arg_properties_vpp"><path d="M248.6,242.23 C253.4,257.87 266.3896,300.1641 279.8596,344.0541 " fill="none" id="arg_properties-to-vpp" style="stroke:#000000;stroke-width:1.0;"/><polygon fill="#000000" points="281.62,349.79,282.8034,340.0125,280.153,345.01,275.1555,342.3597,281.62,349.79" style="stroke:#000000;stroke-width:1.0;"/></g><!--link vpp to wj--><g id="link_vpp_wj"><path d="M249.86,517 C244.98,533.08 244.4,549.7 252,565 C257.59,576.25 261.4965,582.1472 270.9165,590.7372 " fill="none" id="vpp-to-wj" style="stroke:#000000;stroke-width:1.0;"/><polygon fill="#000000" points="275.35,594.78,271.395,585.7601,271.6555,591.411,266.0046,591.6714,275.35,594.78" style="stroke:#000000;stroke-width:1.0;"/><text fill="#000000" font-family="sans-serif" font-size="14" lengthAdjust="spacing" textLength="82.0996" x="253" y="560.9951">JSON object</text></g><!--link arg_path to wj--><g id="link_arg_path_wj"><path d="M540.46,242.35 C537.29,271.83 519.18,416.91 461,517 C443.93,546.37 422.3776,569.7908 399.3276,590.8708 " fill="none" id="arg_path-to-wj" style="stroke:#000000;stroke-width:1.0;"/><polygon fill="#000000" points="394.9,594.92,404.2409,591.7979,398.5897,591.5457,398.842,585.8944,394.9,594.92" style="stroke:#000000;stroke-width:1.0;"/><text fill="#000000" font-family="sans-serif" font-size="14" lengthAdjust="spacing" textLength="79.4199" x="534" y="438.4951">path object</text></g><!--link wj to return--><g id="link_wj_return"><path d="M345,678.15 C345,710.58 345,746.93 345,761.67 " fill="none" id="wj-to-return" style="stroke:#000000;stroke-width:1.0;"/><polygon fill="#000000" points="345,767.67,349,758.67,345,762.67,341,758.67,345,767.67" style="stroke:#000000;stroke-width:1.0;"/><text fill="#000000" font-family="sans-serif" font-size="14" lengthAdjust="spacing" textLength="79.4199" x="346" y="721.9951">path object</text></g><!--link return to output--><g id="link_return_output"><path d="M345,780.04 C345,792 345,817.35 345,846.98 " fill="none" id="return-to-output" style="stroke:#000000;stroke-width:1.0;"/><polygon fill="#000000" points="345,852.98,349,843.98,345,847.98,341,843.98,345,852.98" style="stroke:#000000;stroke-width:1.0;"/></g><!--SRC=[XLDDRzim3BtdLt2vh1sG-1u40OPYX-sm5lku5N1LcuwLsf96qScAOVzzf6p7JhTYlbWM7n_V8-atN6EB417BmaI4YdmBDNE8comZSrhlBTVTOnUH2kyO7QyBtsOZVXN87x3WwIBnPQsnRh68R1XX-T65ZfTW8bWzmQy5zASDhE2x57q8XklytTNr0rITAzXw5u4zrDY4UrSGAatXYQGIA3Okti9xsdUjw8cmqaSuHKj0OeiHbFbk-lIFAbBhmwUljv-XyjGQrXGXwy5wa9Ad6WddJ3P2P4zOBdwV3TrsF3howPWi3KTb-rOBXocUp5xV92gbP5CY9RhQdvpcPf8qC6O3EcPRM-woqh0PRjQ7w5qgDOdAAzlWJC-9B6C-9EGJxkew9Pv2I0BrhUg-u8_EYYCmjD_ClHfNfeuipi84aQSURRTYWfxll7Mysrt69uA_KBFOQhLx0H_xVuvSb5uUaMpr_BgjOmW2Flx7r0pIZstJhu0d-43aQHQ_gR5uaiMh3ODf6gWiDcMyTv0QSpHD9pPaRueQOi3YbKmQX6XUpo2ITAKmIdCawKNFrBrQcOptuzIvZmCywFGE__2feBpVxcbwP-neE0pBtVz99QJrwTLhzOJkcvAOHetZR58yVGtnirH2xiZfs7zQdgOk2PetH2zpORnMHF_Bo2R_0G00]--></g></svg>