<svg xmlns="http://www.w3.org/2000/svg" xmlns:xlink="http://www.w3.org/1999/xlink" contentStyleType="text/css" height="1454px" preserveAspectRatio="none" style="width:872px;height:1454px;background:#FFFFFF;" version="1.1" viewBox="0 0 872 1454" width="872px" zoomAndPan="magnify"><defs/><g><!--cluster input--><g id="cluster_input"><path d="M29.5,7 L498.5,7 A12.5,12.5 0 0 1 511,19.5 L511,58.9063 L17,58.9063 L17,19.5 A12.5,12.5 0 0 1 29.5,7 " fill="#F2F2F2" style="stroke:#F2F2F2;stroke-width:1.0;"/><rect fill="none" height="164" rx="12.5" ry="12.5" style="stroke:#000000;stroke-width:0.5;" width="494" x="17" y="7"/><line style="stroke:#000000;stroke-width:0.5;" x1="17" x2="511" y1="58.9063" y2="58.9063"/><line style="stroke:#000000;stroke-width:0.5;" x1="17" x2="511" y1="32.9531" y2="32.9531"/><text fill="#000000" font-family="Fira Code" font-size="18" lengthAdjust="spacing" textLength="46.6084" x="25" y="27.708">Input</text><text fill="#000000" font-family="Fira Code" font-size="18" lengthAdjust="spacing" textLength="478.7842" x="22" y="52.1611">- `path_*()` functions assist with giving correct paths</text></g><!--cluster wrdtr--><g id="cluster_wrdtr"><path d="M19.5,236 L846.5,236 A12.5,12.5 0 0 1 859,248.5 L859,287.9063 L7,287.9063 L7,248.5 A12.5,12.5 0 0 1 19.5,236 " fill="#F2F2F2" style="stroke:#F2F2F2;stroke-width:1.0;"/><rect fill="none" height="1019" rx="12.5" ry="12.5" style="stroke:#000000;stroke-width:0.5;" width="852" x="7" y="236"/><line style="stroke:#000000;stroke-width:0.5;" x1="7" x2="859" y1="287.9063" y2="287.9063"/><line style="stroke:#000000;stroke-width:0.5;" x1="7" x2="859" y1="261.9531" y2="261.9531"/><text fill="#000000" font-family="Fira Code" font-size="18" lengthAdjust="spacing" textLength="265.7109" x="300.1445" y="257.708">write_resource_data_to_raw()</text><text fill="#000000" font-family="Fira Code" font-size="18" lengthAdjust="spacing" textLength="317.5928" x="12" y="281.1611">- Required arg: path and data_path</text></g><g id="input.path"><rect fill="#F2F2F2" height="82.8594" rx="12.5" ry="12.5" style="stroke:#000000;stroke-width:0.5;" width="233.0381" x="34.5" y="72"/><line style="stroke:#000000;stroke-width:0.5;" x1="34.5" x2="267.5381" y1="102.9531" y2="102.9531"/><text fill="#000000" font-family="Fira Code" font-size="18" lengthAdjust="spacing" textLength="40.9219" x="130.5581" y="93.708">path</text><text fill="#000000" font-family="Fira Code" font-size="18" lengthAdjust="spacing" textLength="213.0381" x="39.5" y="124.6611">- Path to resource &lt;id&gt;</text><text fill="#000000" font-family="Fira Code" font-size="18" lengthAdjust="spacing" textLength="52.251" x="50.9434" y="145.6143">folder</text></g><g id="input.data_path"><rect fill="#F2F2F2" height="82.8594" rx="12.5" ry="12.5" style="stroke:#000000;stroke-width:0.5;" width="189.1631" x="302.5" y="72"/><line style="stroke:#000000;stroke-width:0.5;" x1="302.5" x2="491.6631" y1="102.9531" y2="102.9531"/><text fill="#000000" font-family="Fira Code" font-size="18" lengthAdjust="spacing" textLength="90.4658" x="351.8486" y="93.708">data_path</text><text fill="#000000" font-family="Fira Code" font-size="18" lengthAdjust="spacing" textLength="151.7695" x="307.5" y="124.6611">- Path to file that</text><text fill="#000000" font-family="Fira Code" font-size="18" lengthAdjust="spacing" textLength="157.7197" x="318.9434" y="145.6143">contains the data</text></g><text fill="#000000" font-family="Fira Code" font-size="18" lengthAdjust="spacing" textLength="79.7783" x="104.6108" y="213.7549">arg_path</text><ellipse cx="144.5" cy="236" fill="#F2F2F2" rx="6" ry="6" style="stroke:#000000;stroke-width:1.5;"/><text fill="#000000" font-family="Fira Code" font-size="18" lengthAdjust="spacing" textLength="129.3223" x="333.8389" y="213.7549">arg_data_path</text><ellipse cx="398.5" cy="236" fill="#F2F2F2" rx="6" ry="6" style="stroke:#000000;stroke-width:1.5;"/><g id="wrdtr.vid"><rect fill="#F2F2F2" height="82.8594" rx="12.5" ry="12.5" style="stroke:#000000;stroke-width:0.5;" width="221.8936" x="23" y="570"/><line style="stroke:#000000;stroke-width:0.5;" x1="23" x2="244.8936" y1="600.9531" y2="600.9531"/><text fill="#000000" font-family="Fira Code" font-size="18" lengthAdjust="spacing" textLength="121.3682" x="73.2627" y="591.708">verify_is_dir()</text><text fill="#000000" font-family="Fira Code" font-size="18" lengthAdjust="spacing" textLength="181.8193" x="28" y="622.6611">- Required arg: path</text><text fill="#000000" font-family="Fira Code" font-size="18" lengthAdjust="spacing" textLength="201.8936" x="28" y="643.6143">- Output: path or Error</text></g><g id="wrdtr.vif"><rect fill="#F2F2F2" height="82.8594" rx="12.5" ry="12.5" style="stroke:#000000;stroke-width:0.5;" width="221.8936" x="294" y="367"/><line style="stroke:#000000;stroke-width:0.5;" x1="294" x2="515.8936" y1="397.9531" y2="397.9531"/><text fill="#000000" font-family="Fira Code" font-size="18" lengthAdjust="spacing" textLength="124.9541" x="342.4697" y="388.708">verify_is_file()</text><text fill="#000000" font-family="Fira Code" font-size="18" lengthAdjust="spacing" textLength="181.8193" x="299" y="419.6611">- Required arg: path</text><text fill="#000000" font-family="Fira Code" font-size="18" lengthAdjust="spacing" textLength="201.8936" x="299" y="440.6143">- Output: path or Error</text></g><g id="wrdtr.crfn"><rect fill="#F2F2F2" height="166.6719" rx="12.5" ry="12.5" style="stroke:#000000;stroke-width:0.5;" width="249.0869" x="280.5" y="528"/><line style="stroke:#000000;stroke-width:0.5;" x1="280.5" x2="529.5869" y1="558.9531" y2="558.9531"/><text fill="#000000" font-family="Fira Code" font-size="18" lengthAdjust="spacing" textLength="210.1904" x="299.9482" y="549.708">create_raw_file_name()</text><text fill="#000000" font-family="Fira Code" font-size="18" lengthAdjust="spacing" textLength="181.8193" x="285.5" y="580.6611">- Required arg: path</text><text fill="#000000" font-family="Fira Code" font-size="18" lengthAdjust="spacing" textLength="188.6396" x="285.5" y="601.6143">- Output: path object</text><text fill="#000000" font-family="Fira Code" font-size="18" lengthAdjust="spacing" textLength="170.1914" x="285.5" y="622.5674">- Internally creates</text><text fill="#000000" font-family="Fira Code" font-size="18" lengthAdjust="spacing" textLength="217.6436" x="296.9434" y="643.5205">`timestamp` and `uuid`</text><text fill="#000000" font-family="Fira Code" font-size="18" lengthAdjust="spacing" textLength="193.2012" x="285.5" y="664.4736">- Uses `data_path` to</text><text fill="#000000" font-family="Fira Code" font-size="18" lengthAdjust="spacing" textLength="123.3457" x="296.9434" y="685.4268">get extension</text></g><g id="wrdtr.verify_rd"><rect fill="#F2F2F2" height="124.7656" rx="12.5" ry="12.5" style="stroke:#000000;stroke-width:0.5;" width="277.6338" x="565" y="549"/><line style="stroke:#000000;stroke-width:0.5;" x1="565" x2="842.6338" y1="579.9531" y2="579.9531"/><text fill="#000000" font-family="Fira Code" font-size="18" lengthAdjust="spacing" textLength="156.8584" x="625.3877" y="570.708">verify_raw_data()</text><text fill="#000000" font-family="Fira Code" font-size="18" lengthAdjust="spacing" textLength="181.8193" x="570" y="601.6611">- Required arg: path</text><text fill="#000000" font-family="Fira Code" font-size="18" lengthAdjust="spacing" textLength="201.8936" x="570" y="622.6143">- Output: path or Error</text><text fill="#000000" font-family="Fira Code" font-size="18" lengthAdjust="spacing" textLength="257.6338" x="570" y="643.5674">- Basic checks on readability</text><text fill="#000000" font-family="Fira Code" font-size="18" lengthAdjust="spacing" textLength="191.0039" x="581.4434" y="664.5205">and structure of data</text></g><g id="wrdtr.validate_rd"><rect fill="#F2F2F2" height="124.7656" rx="12.5" ry="12.5" style="stroke:#000000;stroke-width:0.5;" width="283.9531" x="519" y="773"/><line style="stroke:#000000;stroke-width:0.5;" x1="519" x2="802.9531" y1="803.9531" y2="803.9531"/><text fill="#000000" font-family="Fira Code" font-size="18" lengthAdjust="spacing" textLength="178.0137" x="571.9697" y="794.708">validate_raw_data()</text><text fill="#000000" font-family="Fira Code" font-size="18" lengthAdjust="spacing" textLength="181.8193" x="524" y="825.6611">- Required arg: path</text><text fill="#000000" font-family="Fira Code" font-size="18" lengthAdjust="spacing" textLength="201.8936" x="524" y="846.6143">- Output: path or Error</text><text fill="#000000" font-family="Fira Code" font-size="18" lengthAdjust="spacing" textLength="263.9531" x="524" y="867.5674">- Validate against constraints</text><text fill="#000000" font-family="Fira Code" font-size="18" lengthAdjust="spacing" textLength="218.1533" x="535.4434" y="888.5205">properties (if they exist)</text></g><g id="wrdtr.wcf"><rect fill="#F2F2F2" height="103.8125" rx="12.5" ry="12.5" style="stroke:#000000;stroke-width:0.5;" width="411.7197" x="273" y="1055"/><line style="stroke:#000000;stroke-width:0.5;" x1="273" x2="684.7197" y1="1085.9531" y2="1085.9531"/><text fill="#000000" font-family="Fira Code" font-size="18" lengthAdjust="spacing" textLength="214.3125" x="371.7036" y="1076.708">write_compressed_file()</text><text fill="#000000" font-family="Fira Code" font-size="18" lengthAdjust="spacing" textLength="391.7197" x="278" y="1107.6611">- Required arg: input_path and output_path</text><text fill="#000000" font-family="Fira Code" font-size="18" lengthAdjust="spacing" textLength="188.6396" x="278" y="1128.6143">- Output: path object</text><text fill="#000000" font-family="Fira Code" font-size="18" lengthAdjust="spacing" textLength="307.7842" x="278" y="1149.5674">- Internally uses gzip compression</text></g><rect fill="#555555" height="8" style="stroke:none;stroke-width:1.0;" width="80" x="365" y="831.5"/><rect fill="#555555" height="8" style="stroke:none;stroke-width:1.0;" width="80" x="583" y="964"/><text fill="#000000" font-family="Fira Code" font-size="18" lengthAdjust="spacing" textLength="55.749" x="450.6255" y="1277.708">return</text><ellipse cx="478.5" cy="1255" fill="#F2F2F2" rx="6" ry="6" style="stroke:#000000;stroke-width:1.5;"/><line style="stroke:#000000;stroke-width:1.5;" x1="482.8891" x2="475.1109" y1="1259.3891" y2="1251.6109"/><line style="stroke:#000000;stroke-width:1.5;" x1="482.8891" x2="475.1109" y1="1251.6109" y2="1259.3891"/><path d="M228,1334 L730.4482,1334 A12.5,12.5 0 0 1 742.9482,1346.5 L742.9482,1364.9531 L215.5,1364.9531 L215.5,1346.5 A12.5,12.5 0 0 1 228,1334 " fill="#F2F2F2" style="stroke:#F2F2F2;stroke-width:1.0;"/><rect fill="none" height="114.8594" rx="12.5" ry="12.5" style="stroke:#000000;stroke-width:0.5;" width="527.4482" x="215.5" y="1334"/><line style="stroke:#000000;stroke-width:0.5;" x1="215.5" x2="742.9482" y1="1364.9531" y2="1364.9531"/><text fill="#000000" font-family="Fira Code" font-size="18" lengthAdjust="spacing" textLength="62.5254" x="447.9614" y="1355.708">Output</text><g id="output.raw_file"><rect fill="#F2F2F2" height="61.9063" rx="12.5" ry="12.5" style="stroke:#000000;stroke-width:0.5;" width="506.4482" x="227.5" y="1376.9531"/><line style="stroke:#000000;stroke-width:0.5;" x1="227.5" x2="733.9482" y1="1407.9063" y2="1407.9063"/><text fill="#000000" font-family="Fira Code" font-size="18" lengthAdjust="spacing" textLength="486.4482" x="237.5" y="1398.6611">/resources/&lt;id&gt;/raw/&lt;timestamp&gt;-&lt;uuid&gt;.&lt;ext&gt;.gz</text><text fill="#000000" font-family="Fira Code" font-size="18" lengthAdjust="spacing" textLength="331.6553" x="232.5" y="1429.6143">Raw folder with assigned ID (e.g. '1')</text></g><!--link path to arg_path--><g id="link_path_arg_path"><path d="M148.97,155.3 C147.58,183.15 146.1922,211.2376 145.5522,223.9276 " fill="none" id="path-to-arg_path" style="stroke:#000000;stroke-width:1.0;"/><polygon fill="#000000" points="145.25,229.92,149.6982,221.1329,145.5018,224.9263,141.7084,220.7299,145.25,229.92" style="stroke:#000000;stroke-width:1.0;"/></g><!--link data_path to arg_data_path--><g id="link_data_path_arg_data_path"><path d="M397.68,155.3 C398.14,183.15 398.596,211.2309 398.816,223.9209 " fill="none" id="data_path-to-arg_data_path" style="stroke:#000000;stroke-width:1.0;"/><polygon fill="#000000" points="398.92,229.92,402.7634,220.852,398.8333,224.9208,394.7646,220.9907,398.92,229.92" style="stroke:#000000;stroke-width:1.0;"/></g><!--link arg_path to vid--><g id="link_arg_path_vid"><path d="M144.84,242.28 C143.8,277.66 137.9767,475.5226 135.3767,563.7826 " fill="none" id="arg_path-to-vid" style="stroke:#000000;stroke-width:1.0;"/><polygon fill="#000000" points="135.2,569.78,139.4633,560.9017,135.3472,564.7822,131.4667,560.6661,135.2,569.78" style="stroke:#000000;stroke-width:1.0;"/><text fill="#000000" font-family="sans-serif" font-size="14" lengthAdjust="spacing" textLength="79.4199" x="143" y="413.4951">path object</text></g><!--link arg_data_path to vif--><g id="link_arg_data_path_vif"><path d="M399.19,242.29 C399.84,260.84 401.8591,318.1137 403.3591,360.7537 " fill="none" id="arg_data_path-to-vif" style="stroke:#000000;stroke-width:1.0;"/><polygon fill="#000000" points="403.57,366.75,407.2511,357.6149,403.3942,361.7531,399.2561,357.8962,403.57,366.75" style="stroke:#000000;stroke-width:1.0;"/><text fill="#000000" font-family="sans-serif" font-size="14" lengthAdjust="spacing" textLength="79.4199" x="402" y="297.9951">path object</text></g><!--link vif to crfn--><g id="link_vif_crfn"><path d="M405,450.18 C405,472.54 405,495.13 405,521.95 " fill="none" id="vif-to-crfn" style="stroke:#000000;stroke-width:1.0;"/><polygon fill="#000000" points="405,527.95,409,518.95,405,522.95,401,518.95,405,527.95" style="stroke:#000000;stroke-width:1.0;"/><text fill="#000000" font-family="sans-serif" font-size="14" lengthAdjust="spacing" textLength="79.4199" x="406" y="493.9951">path object</text></g><!--link vif to verify_rd--><g id="link_vif_verify_rd"><path d="M465.51,450.18 C507.66,478.51 559.6603,513.473 607.3603,545.533 " fill="none" id="vif-to-verify_rd" style="stroke:#000000;stroke-width:1.0;"/><polygon fill="#000000" points="612.34,548.88,607.1017,540.5397,608.1902,546.0909,602.6391,547.1794,612.34,548.88" style="stroke:#000000;stroke-width:1.0;"/></g><!--link verify_rd to validate_rd--><g id="link_verify_rd_validate_rd"><path d="M692.08,674.04 C686.11,704.84 680.051,736.1295 674.081,766.9495 " fill="none" id="verify_rd-to-validate_rd" style="stroke:#000000;stroke-width:1.0;"/><polygon fill="#000000" points="672.94,772.84,678.5785,764.7649,673.8909,767.9312,670.7245,763.2436,672.94,772.84" style="stroke:#000000;stroke-width:1.0;"/></g><!--link crfn to output_path--><g id="link_crfn_output_path"><path d="M405,695.16 C405,750.39 405,809.65 405,825.1 " fill="none" id="crfn-to-output_path" style="stroke:#000000;stroke-width:1.0;"/><polygon fill="#000000" points="405,831.1,409,822.1,405,826.1,401,822.1,405,831.1" style="stroke:#000000;stroke-width:1.0;"/><text fill="#000000" font-family="sans-serif" font-size="14" lengthAdjust="spacing" textLength="79.4199" x="406" y="738.9951">path object</text></g><!--link vid to output_path--><g id="link_vid_output_path"><path d="M183.71,653.22 C254.3,711.05 373.039,808.3172 396.459,827.5072 " fill="none" id="vid-to-output_path" style="stroke:#000000;stroke-width:1.0;"/><polygon fill="#000000" points="401.1,831.31,396.6737,822.5118,397.2325,828.141,391.6033,828.6998,401.1,831.31" style="stroke:#000000;stroke-width:1.0;"/><text fill="#000000" font-family="sans-serif" font-size="14" lengthAdjust="spacing" textLength="79.4199" x="286" y="738.9951">path object</text></g><!--link output_path to wcf--><g id="link_output_path_wcf"><path d="M405.83,839.53 C411.55,860.34 443.8116,977.8441 463.4016,1049.2041 " fill="none" id="output_path-to-wcf" style="stroke:#000000;stroke-width:1.0;"/><polygon fill="#000000" points="464.99,1054.99,466.4647,1045.2522,463.6664,1050.1684,458.7501,1047.37,464.99,1054.99" style="stroke:#000000;stroke-width:1.0;"/><text fill="#000000" font-family="sans-serif" font-size="14" lengthAdjust="spacing" textLength="79.4199" x="444" y="972.9951">path object</text></g><!--link validate_rd to input_path--><g id="link_validate_rd_input_path"><path d="M643,898.31 C635.02,925.72 628.4768,948.1691 625.6768,957.7891 " fill="none" id="validate_rd-to-input_path" style="stroke:#000000;stroke-width:1.0;"/><polygon fill="#000000" points="624,963.55,630.3558,956.0264,625.3973,958.7492,622.6745,953.7907,624,963.55" style="stroke:#000000;stroke-width:1.0;"/></g><!--link input_path to wcf--><g id="link_input_path_wcf"><path d="M619.72,972.12 C608.04,983.23 571.6573,1017.8547 536.9973,1050.8247 " fill="none" id="input_path-to-wcf" style="stroke:#000000;stroke-width:1.0;"/><polygon fill="#000000" points="532.65,1054.96,541.9278,1051.6552,536.2728,1051.5139,536.4141,1045.8588,532.65,1054.96" style="stroke:#000000;stroke-width:1.0;"/><text fill="#000000" font-family="sans-serif" font-size="14" lengthAdjust="spacing" textLength="79.4199" x="581" y="1020.9951">path object</text></g><!--link wcf to return--><g id="link_wcf_return"><path d="M479,1159.06 C479,1193.27 479,1228.56 479,1242.85 " fill="none" id="wcf-to-return" style="stroke:#000000;stroke-width:1.0;"/><polygon fill="#000000" points="479,1248.85,483,1239.85,479,1243.85,475,1239.85,479,1248.85" style="stroke:#000000;stroke-width:1.0;"/><text fill="#000000" font-family="sans-serif" font-size="14" lengthAdjust="spacing" textLength="79.4199" x="480" y="1202.9951">path object</text></g><!--link return to output--><g id="link_return_output"><path d="M479,1261.11 C479,1273.25 479,1298.98 479,1327.99 " fill="none" id="return-to-output" style="stroke:#000000;stroke-width:1.0;"/><polygon fill="#000000" points="479,1333.99,483,1324.99,479,1328.99,475,1324.99,479,1333.99" style="stroke:#000000;stroke-width:1.0;"/></g><!--SRC=[ZLLDRzim3BtdLt2vD1cG1BiMGO0Dsw6d5GMsqm1RjMb7NInv4jqq7VRVHyfVIfQaoy6HnIUIZwIUtz4MAmIFc6VA8nJELh0bgltjQkNKVbbgsZQFZKUNMKDeQ9dPQjNZ5xMpJvZHk17yhIgbpMJYIH72zCxK3Kr1UT2oWjyJw5Qti82qLhHDti_cAHIDoKXRundhjIVOSt0ezRCs9MJMEOu40lUJ6_ZeogRYV3mivCS-nH9Stik2B3Zqjd4Pmbhdcny6eB2x71r3SqKg4NmCB_GEWRQA12ficOJd3GpmoP-1qDU6UaOsB0EbphZge_gLX9KYhjQaAsHxLMyMwwRXxUKQNsYpB5-35yOa4fszz4icyg3sNSPj8QGefS4SxZx339Vb4cu-tCoZlFPE4oPz_2IG99kmozaynDcxd5n8jbq9-mVyrMZ7NfKhRziQAfEF5PeCr1WGTc2zvhgxmxtLXZQR8_jmx1JKzsUns0oEuaOCXZE1fy_eT758j4zoxJekppfd03yli8YCRRywSjR15-UiJC50I6Atu1RoA3DzDhwqPaYW236AQmaKRoPmN87snFaiCeTA-jjDI69KrUUIkS8mKFukPpDOZzDfmqJcExxdpgZTxW1jI2yN8XrcE0q3aieSf_6vRnuzf0EVbE-K72oHW8STZUUhtHL5g7RdhbPSk8h3lkJTRkXylxvI_YF8fIOSepufhpF8jfZzvDjjM4DKhXxrJjD1o0XpJwx9g748jcYbOIGrPXXnKJkTzvsBsGpxWS_uTeNH2UWYfnFSz-uTL2cYHY9lJ8FN59hBCbwZ8yqDd34Jrhm3zumbU7vKeC0modhas4eFVnfgbX-FUNnHzfbS57wUuHM-0ycWEgsSzkBG7pa_hxqr6jT69h1yrJNqcSZ83Lb6tbcUdbYPWdg5GHHgiVqqciZ3MvZO9jWsmxC37l6ECedR9Wv6LF_9_2_dKuSydcOg6loYQTHfEIDdM_i_-NVR8yt9dxy0]--></g></svg>
