<?xml version="1.0" encoding="us-ascii" standalone="no"?><svg xmlns="http://www.w3.org/2000/svg" xmlns:xlink="http://www.w3.org/1999/xlink" contentStyleType="text/css" height="1094px" preserveAspectRatio="none" style="width:1333px;height:1094px;background:#FFFFFF;" version="1.1" viewBox="0 0 1333 1094" width="1333px" zoomAndPan="magnify"><defs/><g><text fill="#000000" font-family="sans-serif" font-size="14" font-weight="bold" lengthAdjust="spacing" textLength="250" x="543" y="27.9951">Data Upload from Existing Table</text><rect fill="none" height="432.3438" style="stroke:#000000;stroke-width:1.5;" width="1030" x="10" y="380.8594"/><rect fill="none" height="215.375" style="stroke:#000000;stroke-width:1.5;" width="1317" x="10" y="827.2031"/><line style="stroke:#000000;stroke-width:0.5;stroke-dasharray:5.0,5.0;" x1="43" x2="43" y1="73.5938" y2="1059.5781"/><line style="stroke:#000000;stroke-width:0.5;stroke-dasharray:5.0,5.0;" x1="467.5" x2="467.5" y1="73.5938" y2="1059.5781"/><line style="stroke:#000000;stroke-width:0.5;stroke-dasharray:5.0,5.0;" x1="808.5" x2="808.5" y1="73.5938" y2="1059.5781"/><line style="stroke:#000000;stroke-width:0.5;stroke-dasharray:5.0,5.0;" x1="1151.5" x2="1151.5" y1="73.5938" y2="1059.5781"/><rect fill="#F2F2F2" height="30.2969" rx="2.5" ry="2.5" style="stroke:#181818;stroke-width:0.5;" width="46" x="20" y="42.2969"/><text fill="#000000" font-family="sans-serif" font-size="14" lengthAdjust="spacing" textLength="32" x="27" y="62.292">User</text><rect fill="#F2F2F2" height="30.2969" rx="2.5" ry="2.5" style="stroke:#181818;stroke-width:0.5;" width="46" x="20" y="1058.5781"/><text fill="#000000" font-family="sans-serif" font-size="14" lengthAdjust="spacing" textLength="32" x="27" y="1078.5732">User</text><rect fill="#F2F2F2" height="30.2969" rx="2.5" ry="2.5" style="stroke:#181818;stroke-width:0.5;" width="81" x="427.5" y="42.2969"/><text fill="#000000" font-family="sans-serif" font-size="14" lengthAdjust="spacing" textLength="67" x="434.5" y="62.292">Front end</text><rect fill="#F2F2F2" height="30.2969" rx="2.5" ry="2.5" style="stroke:#181818;stroke-width:0.5;" width="81" x="427.5" y="1058.5781"/><text fill="#000000" font-family="sans-serif" font-size="14" lengthAdjust="spacing" textLength="67" x="434.5" y="1078.5732">Front end</text><rect fill="#F2F2F2" height="30.2969" rx="2.5" ry="2.5" style="stroke:#181818;stroke-width:0.5;" width="35" x="791.5" y="42.2969"/><text fill="#000000" font-family="sans-serif" font-size="14" lengthAdjust="spacing" textLength="21" x="798.5" y="62.292">API</text><rect fill="#F2F2F2" height="30.2969" rx="2.5" ry="2.5" style="stroke:#181818;stroke-width:0.5;" width="35" x="791.5" y="1058.5781"/><text fill="#000000" font-family="sans-serif" font-size="14" lengthAdjust="spacing" textLength="21" x="798.5" y="1078.5732">API</text><rect fill="#F2F2F2" height="30.2969" rx="2.5" ry="2.5" style="stroke:#181818;stroke-width:0.5;" width="75" x="1114.5" y="42.2969"/><text fill="#000000" font-family="sans-serif" font-size="14" lengthAdjust="spacing" textLength="61" x="1121.5" y="62.292">Backend</text><rect fill="#F2F2F2" height="30.2969" rx="2.5" ry="2.5" style="stroke:#181818;stroke-width:0.5;" width="75" x="1114.5" y="1058.5781"/><text fill="#000000" font-family="sans-serif" font-size="14" lengthAdjust="spacing" textLength="61" x="1121.5" y="1078.5732">Backend</text><polygon fill="#000000" points="456,118.1875,466,122.1875,456,126.1875,460,122.1875" style="stroke:#000000;stroke-width:1.0;"/><line style="stroke:#000000;stroke-width:1.0;" x1="43" x2="462" y1="122.1875" y2="122.1875"/><text fill="#000000" font-family="sans-serif" font-size="14" lengthAdjust="spacing" textLength="305" x="50" y="100.5889">User selects "Upload Data based on Existing</text><text fill="#000000" font-family="sans-serif" font-size="14" lengthAdjust="spacing" textLength="43" x="50" y="116.8857">Table"</text><polygon fill="#000000" points="54,164.7813,44,168.7813,54,172.7813,50,168.7813" style="stroke:#000000;stroke-width:1.0;"/><line style="stroke:#000000;stroke-width:1.0;" x1="48" x2="467" y1="168.7813" y2="168.7813"/><text fill="#000000" font-family="sans-serif" font-size="14" lengthAdjust="spacing" textLength="295" x="60" y="147.1826">Systems shows UI with overview of existing</text><text fill="#000000" font-family="sans-serif" font-size="14" lengthAdjust="spacing" textLength="151" x="60" y="163.4795">tables to choose from</text><polygon fill="#000000" points="456,211.375,466,215.375,456,219.375,460,215.375" style="stroke:#000000;stroke-width:1.0;"/><line style="stroke:#000000;stroke-width:1.0;" x1="43" x2="462" y1="215.375" y2="215.375"/><text fill="#000000" font-family="sans-serif" font-size="14" lengthAdjust="spacing" textLength="307" x="50" y="193.7764">User selects existing table (from dropdown?)</text><text fill="#000000" font-family="sans-serif" font-size="14" lengthAdjust="spacing" textLength="166" x="50" y="210.0732">and data to upload (csv)</text><polygon fill="#000000" points="797,241.6719,807,245.6719,797,249.6719,801,245.6719" style="stroke:#000000;stroke-width:1.0;"/><line style="stroke:#000000;stroke-width:1.0;" x1="468" x2="803" y1="245.6719" y2="245.6719"/><text fill="#000000" font-family="sans-serif" font-size="14" lengthAdjust="spacing" textLength="317" x="475" y="240.3701">System transfers data and ID of selected table</text><polygon fill="#000000" points="1140,271.9688,1150,275.9688,1140,279.9688,1144,275.9688" style="stroke:#000000;stroke-width:1.0;"/><line style="stroke:#000000;stroke-width:1.0;" x1="809" x2="1146" y1="275.9688" y2="275.9688"/><text fill="#000000" font-family="sans-serif" font-size="14" lengthAdjust="spacing" textLength="253" x="816" y="270.667">System transfers ID of selected table</text><polygon fill="#000000" points="820,302.2656,810,306.2656,820,310.2656,816,306.2656" style="stroke:#000000;stroke-width:1.0;"/><line style="stroke:#000000;stroke-width:1.0;" x1="814" x2="1151" y1="306.2656" y2="306.2656"/><text fill="#000000" font-family="sans-serif" font-size="14" lengthAdjust="spacing" textLength="210" x="826" y="300.9639">System retrieves existing table</text><line style="stroke:#000000;stroke-width:1.0;" x1="809" x2="851" y1="352.8594" y2="352.8594"/><line style="stroke:#000000;stroke-width:1.0;" x1="851" x2="851" y1="352.8594" y2="365.8594"/><line style="stroke:#000000;stroke-width:1.0;" x1="810" x2="851" y1="365.8594" y2="365.8594"/><polygon fill="#000000" points="820,361.8594,810,365.8594,820,369.8594,816,365.8594" style="stroke:#000000;stroke-width:1.0;"/><text fill="#000000" font-family="sans-serif" font-size="14" lengthAdjust="spacing" textLength="212" x="816" y="331.2607">System validates by comparing</text><text fill="#000000" font-family="sans-serif" font-size="14" lengthAdjust="spacing" textLength="86" x="816" y="347.5576">data to table</text><path d="M10,380.8594 L401,380.8594 L401,389.1563 L391,399.1563 L10,399.1563 L10,380.8594 " fill="#EEEEEE" style="stroke:#000000;stroke-width:1.5;"/><rect fill="none" height="432.3438" style="stroke:#000000;stroke-width:1.5;" width="1030" x="10" y="380.8594"/><text fill="#000000" font-family="sans-serif" font-size="14" font-weight="bold" lengthAdjust="spacing" textLength="346" x="25" y="394.8545">Validation error (data does not match table)</text><polygon fill="#000000" points="479,433.75,469,437.75,479,441.75,475,437.75" style="stroke:#000000;stroke-width:1.0;"/><line style="stroke:#000000;stroke-width:1.0;stroke-dasharray:2.0,2.0;" x1="473" x2="808" y1="437.75" y2="437.75"/><text fill="#000000" font-family="sans-serif" font-size="14" lengthAdjust="spacing" textLength="274" x="485" y="416.1514">System sends back error "Upload failed"</text><text fill="#000000" font-family="sans-serif" font-size="14" lengthAdjust="spacing" textLength="298" x="489" y="432.4482">with information on where they don't match</text><polygon fill="#000000" points="54,480.3438,44,484.3438,54,488.3438,50,484.3438" style="stroke:#000000;stroke-width:1.0;"/><line style="stroke:#000000;stroke-width:1.0;stroke-dasharray:2.0,2.0;" x1="48" x2="467" y1="484.3438" y2="484.3438"/><text fill="#000000" font-family="sans-serif" font-size="14" lengthAdjust="spacing" textLength="294" x="60" y="462.7451">System shows error messages with details</text><text fill="#000000" font-family="sans-serif" font-size="14" lengthAdjust="spacing" textLength="261" x="60" y="479.042">on why and where the validation failed</text><path d="M48,497.3438 L48,572.3438 L356,572.3438 L356,507.3438 L346,497.3438 L48,497.3438 " fill="#FEFFDD" style="stroke:#181818;stroke-width:0.5;"/><path d="M346,497.3438 L346,507.3438 L356,507.3438 L346,497.3438 " fill="#FEFFDD" style="stroke:#181818;stroke-width:0.5;"/><text fill="#000000" font-family="sans-serif" font-size="14" lengthAdjust="spacing" textLength="180" x="54" y="515.3389">Example of error message</text><text fill="#000000" font-family="sans-serif" font-size="14" lengthAdjust="spacing" textLength="283" x="54" y="531.6357">Upload failed. Data does not match table.</text><text fill="#000000" font-family="sans-serif" font-size="14" lengthAdjust="spacing" textLength="224" x="54" y="547.9326">NULL values in column A, line 22.</text><text fill="#000000" font-family="sans-serif" font-size="14" lengthAdjust="spacing" textLength="259" x="54" y="564.2295">Column A cannot contain NULL values</text><path d="M48,582.5313 L48,640.5313 L429,640.5313 L429,592.5313 L419,582.5313 L48,582.5313 " fill="#FEFFDD" style="stroke:#181818;stroke-width:0.5;"/><path d="M419,582.5313 L419,592.5313 L429,592.5313 L419,582.5313 " fill="#FEFFDD" style="stroke:#181818;stroke-width:0.5;"/><text fill="#000000" font-family="sans-serif" font-size="14" lengthAdjust="spacing" textLength="345" x="54" y="600.5264">Now, user has the option to 1) cancel upload or 2)</text><text fill="#000000" font-family="sans-serif" font-size="14" lengthAdjust="spacing" textLength="360" x="54" y="616.8232">manually attempt to fix errors in the raw data outside</text><text fill="#000000" font-family="sans-serif" font-size="14" lengthAdjust="spacing" textLength="261" x="54" y="633.1201">of Sprout and attempt to upload again</text><ellipse cx="467.5" cy="667.9688" fill="none" rx="4" ry="4" style="stroke:#000000;stroke-width:1.5;"/><polygon fill="#000000" points="450.5,664.7188,460.5,668.7188,450.5,672.7188,454.5,668.7188" style="stroke:#000000;stroke-width:1.0;"/><line style="stroke:#000000;stroke-width:1.0;stroke-dasharray:2.0,2.0;" x1="43" x2="456.5" y1="668.7188" y2="668.7188"/><text fill="#000000" font-family="sans-serif" font-size="14" lengthAdjust="spacing" textLength="285" x="50" y="663.417">User clicks "Cancel Upload" (endpoint), or</text><polygon fill="#000000" points="456,711.3125,466,715.3125,456,719.3125,460,715.3125" style="stroke:#000000;stroke-width:1.0;"/><line style="stroke:#000000;stroke-width:1.0;stroke-dasharray:2.0,2.0;" x1="43" x2="462" y1="715.3125" y2="715.3125"/><text fill="#000000" font-family="sans-serif" font-size="14" lengthAdjust="spacing" textLength="375" x="50" y="693.7139">User has edited file and attempted to fix errors outside</text><text fill="#000000" font-family="sans-serif" font-size="14" lengthAdjust="spacing" textLength="401" x="50" y="710.0107">of Sprout and selects "Upload Edited/New Version of Data"</text><polygon fill="#000000" points="797,741.6094,807,745.6094,797,749.6094,801,745.6094" style="stroke:#000000;stroke-width:1.0;"/><line style="stroke:#000000;stroke-width:1.0;stroke-dasharray:2.0,2.0;" x1="468" x2="803" y1="745.6094" y2="745.6094"/><text fill="#000000" font-family="sans-serif" font-size="14" lengthAdjust="spacing" textLength="251" x="475" y="740.3076">System sends new data to validation</text><line style="stroke:#000000;stroke-width:1.0;stroke-dasharray:2.0,2.0;" x1="809" x2="851" y1="792.2031" y2="792.2031"/><line style="stroke:#000000;stroke-width:1.0;stroke-dasharray:2.0,2.0;" x1="851" x2="851" y1="792.2031" y2="805.2031"/><line style="stroke:#000000;stroke-width:1.0;stroke-dasharray:2.0,2.0;" x1="810" x2="851" y1="805.2031" y2="805.2031"/><polygon fill="#000000" points="820,801.2031,810,805.2031,820,809.2031,816,805.2031" style="stroke:#000000;stroke-width:1.0;"/><text fill="#000000" font-family="sans-serif" font-size="14" lengthAdjust="spacing" textLength="212" x="816" y="770.6045">System validates by comparing</text><text fill="#000000" font-family="sans-serif" font-size="14" lengthAdjust="spacing" textLength="86" x="816" y="786.9014">data to table</text><path d="M10,827.2031 L369,827.2031 L369,835.5 L359,845.5 L10,845.5 L10,827.2031 " fill="#EEEEEE" style="stroke:#000000;stroke-width:1.5;"/><rect fill="none" height="215.375" style="stroke:#000000;stroke-width:1.5;" width="1317" x="10" y="827.2031"/><text fill="#000000" font-family="sans-serif" font-size="14" font-weight="bold" lengthAdjust="spacing" textLength="314" x="25" y="841.1982">Validation success (data matches table)</text><polygon fill="#000000" points="1140,863.7969,1150,867.7969,1140,871.7969,1144,867.7969" style="stroke:#000000;stroke-width:1.0;"/><line style="stroke:#000000;stroke-width:1.0;" x1="809" x2="1146" y1="867.7969" y2="867.7969"/><text fill="#000000" font-family="sans-serif" font-size="14" lengthAdjust="spacing" textLength="319" x="816" y="862.4951">System logs data upload with "Completed" flag</text><line style="stroke:#000000;stroke-width:1.0;" x1="1152" x2="1194" y1="914.3906" y2="914.3906"/><line style="stroke:#000000;stroke-width:1.0;" x1="1194" x2="1194" y1="914.3906" y2="927.3906"/><line style="stroke:#000000;stroke-width:1.0;" x1="1153" x2="1194" y1="927.3906" y2="927.3906"/><polygon fill="#000000" points="1163,923.3906,1153,927.3906,1163,931.3906,1159,927.3906" style="stroke:#000000;stroke-width:1.0;"/><text fill="#000000" font-family="sans-serif" font-size="14" lengthAdjust="spacing" textLength="156" x="1159" y="892.792">System creates record</text><text fill="#000000" font-family="sans-serif" font-size="14" lengthAdjust="spacing" textLength="155" x="1159" y="909.0889">and saves data upload</text><polygon fill="#000000" points="820,953.6875,810,957.6875,820,961.6875,816,957.6875" style="stroke:#000000;stroke-width:1.0;"/><line style="stroke:#000000;stroke-width:1.0;" x1="814" x2="1151" y1="957.6875" y2="957.6875"/><text fill="#000000" font-family="sans-serif" font-size="14" lengthAdjust="spacing" textLength="199" x="826" y="952.3857">System confirms data upload</text><polygon fill="#000000" points="479,983.9844,469,987.9844,479,991.9844,475,987.9844" style="stroke:#000000;stroke-width:1.0;"/><line style="stroke:#000000;stroke-width:1.0;" x1="473" x2="808" y1="987.9844" y2="987.9844"/><text fill="#000000" font-family="sans-serif" font-size="14" lengthAdjust="spacing" textLength="204" x="485" y="982.6826">System retrieves confirmation</text><polygon fill="#000000" points="54,1030.5781,44,1034.5781,54,1038.5781,50,1034.5781" style="stroke:#000000;stroke-width:1.0;"/><line style="stroke:#000000;stroke-width:1.0;" x1="48" x2="467" y1="1034.5781" y2="1034.5781"/><text fill="#000000" font-family="sans-serif" font-size="14" lengthAdjust="spacing" textLength="204" x="60" y="1012.9795">System displays confirmation:</text><text fill="#000000" font-family="sans-serif" font-size="14" lengthAdjust="spacing" textLength="141" x="60" y="1029.2764">"Upload Succeeded"</text><!--SRC=[bLHDRzim3BtxLt2-D07Q1EinXmrTsm45YdH0cvroKIGwrcfBXYGdpRyVHTcEamO35kHayV4zFdvy2INM21vHIU4H2cThA4De_68-Ts8_s-fGjflMevFM13HX9cqzx-Dl6cV_e0p73vnlNWjjikmAtbuUNXQmf4S85jf6YO0GIkspBEXG8Jo8863LL5QenFtueNtGPWjlObDXrWWNjDIDC07o5Qd8GNXeJx__T2GDq2X-B4uVxtuzyMVHwDE77qA-zvXDbhLmymsA1KGIygEYgZnH9caiSqFrAR1cqBWsB3BFYeXj5_1wy05h3xwqUm-h9zYJUs1tw7OQzs0Bm04Q8jH7MsHfRMVzPHKz21W34pPAETiekpVVfsiZZ08L9RB9h7WY_MwQX57blJG8JXXVeFCfFWAV7gAmn1NxnBuJ9a8t5u2NuY7Rd3Cv34xZ3i_bzwd7iJjHwJWQr8W3q7nHdzYZlgO4pBREjWtyJi6Q6e7EMGSJ3bEMuCO6g4MGPO9CCw0V4oPREpvFVISk6e0kHT_dGkWALRusgNFQ5DRLYOl- -n9T75yy49kvwgYOes26ziZ04v2Ir-Yzs98wpgam48bV6qvuu1OCYNid8c7ImjcfB0IdjsM8rhVyBVuUFqJTaFjniCPKC4ISr3LBStp9gTaHibmzFqSTBKLfG-sesjh0tJLKsY3Stev2xxitaCB4XF54qEQFKt0isSqr_BEOfTrVGpmqKD96HZDimqRG07oTHWg9LJ_ULEljT83MmhIYgiZCGEOt8K8A_P5CuIfYEZfdQUfj6xnMEC19nYiTiZPmCqOvEZAnZUViKo5jxBaTjbLMMhxJoRXFGfFpEKm8qrXjmlIQL1-10ovMYqh7NIgeIsCDwMoEAkcKq_2SI3u_Lu-SRhwac_ERLfR7j-3cvwDf7MzWsWY3- -6EZ2RnP8l-VsyfzUVLzQsKDApTyl8ancjujhNZ2rJPRNUrkhRmEkNtDgu0bPj3KOajO_aORM20IeUiqg6qJgLxwKMyJQDyH-IuH1hfGhlwSsIdhxXmy3eC5zhxFJuEIlkc4eVJmCNQzErxZTwWefBOkxy0]--></g></svg>