<?xml version="1.0" encoding="us-ascii" standalone="no"?><svg xmlns="http://www.w3.org/2000/svg" xmlns:xlink="http://www.w3.org/1999/xlink" contentStyleType="text/css" height="1491px" preserveAspectRatio="none" style="width:1301px;height:1491px;background:#FFFFFF;" version="1.1" viewBox="0 0 1301 1491" width="1301px" zoomAndPan="magnify"><defs/><g><!--cluster group_projects--><g id="cluster_group_projects"><path d="M156.5,7 L1063.5,7 A12.5,12.5 0 0 1 1076,19.5 L1076,32.9531 L144,32.9531 L144,19.5 A12.5,12.5 0 0 1 156.5,7 " fill="#F2F2F2" style="stroke:#F2F2F2;stroke-width:1.0;"/><rect fill="none" height="444" rx="12.5" ry="12.5" style="stroke:#000000;stroke-width:0.5;" width="932" x="144" y="7"/><line style="stroke:#000000;stroke-width:0.5;" x1="144" x2="1076" y1="32.9531" y2="32.9531"/><text fill="#000000" font-family="Fira Code" font-size="18" lengthAdjust="spacing" textLength="185" x="517.5" y="27.708">Projects functionality</text></g><!--cluster group_metadata--><g id="cluster_group_metadata"><path d="M19.5,491 L1158.5,491 A12.5,12.5 0 0 1 1171,503.5 L1171,516.9531 L7,516.9531 L7,503.5 A12.5,12.5 0 0 1 19.5,491 " fill="#F2F2F2" style="stroke:#F2F2F2;stroke-width:1.0;"/><rect fill="none" height="695" rx="12.5" ry="12.5" style="stroke:#000000;stroke-width:0.5;" width="1164" x="7" y="491"/><line style="stroke:#000000;stroke-width:0.5;" x1="7" x2="1171" y1="516.9531" y2="516.9531"/><text fill="#000000" font-family="Fira Code" font-size="18" lengthAdjust="spacing" textLength="197" x="490.5" y="511.708">Metadata functionality</text></g><!--cluster group_data--><g id="cluster_group_data"><path d="M125.5,1226 L1026.5,1226 A12.5,12.5 0 0 1 1039,1238.5 L1039,1251.9531 L113,1251.9531 L113,1238.5 A12.5,12.5 0 0 1 125.5,1226 " fill="#F2F2F2" style="stroke:#F2F2F2;stroke-width:1.0;"/><rect fill="none" height="259" rx="12.5" ry="12.5" style="stroke:#000000;stroke-width:0.5;" width="926" x="113" y="1226"/><line style="stroke:#000000;stroke-width:0.5;" x1="113" x2="1039" y1="1251.9531" y2="1251.9531"/><text fill="#000000" font-family="Fira Code" font-size="18" lengthAdjust="spacing" textLength="156" x="498" y="1246.708">Data functionality</text></g><g id="group_projects.projects"><rect fill="#F2F2F2" height="166.6719" rx="12.5" ry="12.5" style="stroke:#000000;stroke-width:0.5;" width="255" x="170.5" y="54"/><line style="stroke:#000000;stroke-width:0.5;" x1="170.5" x2="425.5" y1="84.9531" y2="84.9531"/><text fill="#000000" font-family="Fira Code" font-size="18" lengthAdjust="spacing" textLength="70" x="263" y="75.708">projects</text><text fill="#000000" font-family="Fira Code" font-size="18" lengthAdjust="spacing" textLength="235" x="175.5" y="106.6611">- could be a separate page</text><text fill="#000000" font-family="Fira Code" font-size="18" lengthAdjust="spacing" textLength="140" x="175.5" y="127.6143">- list all projects</text><text fill="#000000" font-family="Fira Code" font-size="18" lengthAdjust="spacing" textLength="148" x="175.5" y="148.5674">- select a project</text><text fill="#000000" font-family="Fira Code" font-size="18" lengthAdjust="spacing" textLength="181" x="175.5" y="169.5205">- create new project</text><text fill="#000000" font-family="Fira Code" font-size="18" lengthAdjust="spacing" textLength="142" x="175.5" y="190.4736">- update project</text><text fill="#000000" font-family="Fira Code" font-size="18" lengthAdjust="spacing" textLength="137" x="175.5" y="211.4268">- delete project</text></g><g id="group_projects.projects_create"><rect fill="#F2F2F2" height="166.6719" rx="12.5" ry="12.5" style="stroke:#000000;stroke-width:0.5;" width="338" x="461" y="54"/><line style="stroke:#000000;stroke-width:0.5;" x1="461" x2="799" y1="84.9531" y2="84.9531"/><path d="M559.5,63.4531 L559.5,67.9531 L555,67.9531 L555,70.9531 L559.5,70.9531 L559.5,75.4531 L562.5,75.4531 L562.5,70.9531 L567,70.9531 L567,67.9531 L562.5,67.9531 L562.5,63.4531 L559.5,63.4531 " fill="#000000" style="stroke:;stroke-width:0.0;stroke-dasharray:;"/><text fill="#000000" font-family="Fira Code" font-size="18" lengthAdjust="spacing" textLength="132" x="574" y="75.708">projects create</text><text fill="#000000" font-family="Fira Code" font-size="18" lengthAdjust="spacing" textLength="235" x="466" y="106.6611">- could be a separate page</text><text fill="#000000" font-family="Fira Code" font-size="18" lengthAdjust="spacing" textLength="131" x="466" y="127.6143">- write a name</text><text fill="#000000" font-family="Fira Code" font-size="18" lengthAdjust="spacing" textLength="179" x="466" y="148.5674">- write a description</text><text fill="#000000" font-family="Fira Code" font-size="18" lengthAdjust="spacing" textLength="188" x="466" y="169.5205">- (optional) add users</text><text fill="#000000" font-family="Fira Code" font-size="18" lengthAdjust="spacing" textLength="283" x="466" y="190.4736">- (optional) set user permissions</text><text fill="#000000" font-family="Fira Code" font-size="18" lengthAdjust="spacing" textLength="318" x="466" y="211.4268">- link to view newly created project</text></g><g id="group_projects.projects_id"><rect fill="#F2F2F2" height="145.7188" rx="12.5" ry="12.5" style="stroke:#000000;stroke-width:0.5;" width="263" x="168.5" y="281"/><line style="stroke:#000000;stroke-width:0.5;" x1="168.5" x2="431.5" y1="311.9531" y2="311.9531"/><path d="M235.25,290.4531 C232.355,290.4531 230,292.8081 230,295.7031 C230,298.5981 232.355,300.9531 235.25,300.9531 C236.135,300.9531 237.005,300.7431 237.74,300.3381 A1.5,1.5 0 0 0 237.935,300.5331 L239.435,302.0331 A1.53,1.53 0 1 0 241.595,299.8731 L240.095,298.3731 A1.5,1.5 0 0 0 239.855,298.1781 C240.26,297.4431 240.515,296.5881 240.515,295.6881 C240.515,292.7931 238.16,290.4381 235.265,290.4381 M235.25,291.9531 C237.335,291.9531 239,293.6181 239,295.7031 C239,296.6931 238.64,297.6081 238.01,298.2831 C237.995,298.2981 237.98,298.3131 237.965,298.3281 A1.5,1.5 0 0 0 237.77,298.5231 C237.11,299.1231 236.21,299.4681 235.235,299.4681 C233.15,299.4681 231.485,297.8031 231.485,295.7181 C231.485,293.6331 233.15,291.9681 235.235,291.9681 " fill="#000000" style="stroke:;stroke-width:0.0;stroke-dasharray:;"/><text fill="#000000" font-family="Fira Code" font-size="18" lengthAdjust="spacing" textLength="122" x="249" y="302.708">projects &lt;id&gt;</text><text fill="#000000" font-family="Fira Code" font-size="18" lengthAdjust="spacing" textLength="235" x="173.5" y="333.6611">- could be a separate page</text><text fill="#000000" font-family="Fira Code" font-size="18" lengthAdjust="spacing" textLength="243" x="173.5" y="354.6143">- view project landing page</text><text fill="#000000" font-family="Fira Code" font-size="18" lengthAdjust="spacing" textLength="159" x="173.5" y="375.5674">- view description</text><text fill="#000000" font-family="Fira Code" font-size="18" lengthAdjust="spacing" textLength="108" x="173.5" y="396.5205">- view users</text><text fill="#000000" font-family="Fira Code" font-size="18" lengthAdjust="spacing" textLength="171" x="173.5" y="417.4736">- link to (meta)data</text></g><g id="group_projects.projects_id_update"><rect fill="#F2F2F2" height="124.7656" rx="12.5" ry="12.5" style="stroke:#000000;stroke-width:0.5;" width="255" x="788.5" y="291.5"/><line style="stroke:#000000;stroke-width:0.5;" x1="788.5" x2="1043.5" y1="322.4531" y2="322.4531"/><path d="M821.5,300.9531 L820,302.4531 L823,305.4531 L824.5,303.9531 L821.5,300.9531 M818.5,303.9531 L812.5,309.9531 L812.5,312.9531 L815.5,312.9531 L821.5,306.9531 L818.5,303.9531 " fill="#000000" style="stroke:;stroke-width:0.0;stroke-dasharray:;"/><text fill="#000000" font-family="Fira Code" font-size="18" lengthAdjust="spacing" textLength="189" x="831.5" y="313.208">projects &lt;id&gt; update</text><text fill="#000000" font-family="Fira Code" font-size="18" lengthAdjust="spacing" textLength="235" x="793.5" y="344.1611">- could be a separate page</text><text fill="#000000" font-family="Fira Code" font-size="18" lengthAdjust="spacing" textLength="129" x="793.5" y="365.1143">- update name</text><text fill="#000000" font-family="Fira Code" font-size="18" lengthAdjust="spacing" textLength="177" x="793.5" y="386.0674">- update description</text><text fill="#000000" font-family="Fira Code" font-size="18" lengthAdjust="spacing" textLength="136" x="793.5" y="407.0205">- update users?</text></g><g id="group_projects.projects_id_delete"><rect fill="#F2F2F2" height="82.8594" rx="12.5" ry="12.5" style="stroke:#000000;stroke-width:0.5;" width="287" x="466.5" y="312.5"/><line style="stroke:#000000;stroke-width:0.5;" x1="466.5" x2="753.5" y1="343.4531" y2="343.4531"/><path d="M513.5,321.9531 C512.675,321.9531 512,322.6281 512,323.4531 L510.5,323.4531 C509.675,323.4531 509,324.1281 509,324.9531 L519.5,324.9531 C519.5,324.1281 518.825,323.4531 518,323.4531 L516.5,323.4531 C516.5,322.6281 515.825,321.9531 515,321.9531 L513.5,321.9531 M510.5,326.4531 L510.5,333.6681 C510.5,333.8331 510.62,333.9531 510.785,333.9531 L517.73,333.9531 C517.895,333.9531 518.015,333.8331 518.015,333.6681 L518.015,326.4531 L516.515,326.4531 L516.515,331.7031 C516.515,332.1231 516.185,332.4531 515.765,332.4531 C515.345,332.4531 515.015,332.1231 515.015,331.7031 L515.015,326.4531 L513.515,326.4531 L513.515,331.7031 C513.515,332.1231 513.185,332.4531 512.765,332.4531 C512.345,332.4531 512.015,332.1231 512.015,331.7031 L512.015,326.4531 L510.515,326.4531 " fill="#000000" style="stroke:;stroke-width:0.0;stroke-dasharray:;"/><text fill="#000000" font-family="Fira Code" font-size="18" lengthAdjust="spacing" textLength="184" x="528" y="334.208">projects &lt;id&gt; delete</text><text fill="#000000" font-family="Fira Code" font-size="18" lengthAdjust="spacing" textLength="212" x="471.5" y="365.1611">- could be a button only</text><text fill="#000000" font-family="Fira Code" font-size="18" lengthAdjust="spacing" textLength="267" x="471.5" y="386.1143">- delete all contents of project</text></g><g id="group_metadata.projects_id_metadata"><rect fill="#F2F2F2" height="145.7188" rx="12.5" ry="12.5" style="stroke:#000000;stroke-width:0.5;" width="348" x="31" y="663.5"/><line style="stroke:#000000;stroke-width:0.5;" x1="31" x2="379" y1="694.4531" y2="694.4531"/><path d="M95.75,672.9531 C92.855,672.9531 90.5,675.3081 90.5,678.2031 C90.5,681.0981 92.855,683.4531 95.75,683.4531 C96.635,683.4531 97.505,683.2431 98.24,682.8381 A1.5,1.5 0 0 0 98.435,683.0331 L99.935,684.5331 A1.53,1.53 0 1 0 102.095,682.3731 L100.595,680.8731 A1.5,1.5 0 0 0 100.355,680.6781 C100.76,679.9431 101.015,679.0881 101.015,678.1881 C101.015,675.2931 98.66,672.9381 95.765,672.9381 M95.75,674.4531 C97.835,674.4531 99.5,676.1181 99.5,678.2031 C99.5,679.1931 99.14,680.1081 98.51,680.7831 C98.495,680.7981 98.48,680.8131 98.465,680.8281 A1.5,1.5 0 0 0 98.27,681.0231 C97.61,681.6231 96.71,681.9681 95.735,681.9681 C93.65,681.9681 91.985,680.3031 91.985,678.2181 C91.985,676.1331 93.65,674.4681 95.735,674.4681 " fill="#000000" style="stroke:;stroke-width:0.0;stroke-dasharray:;"/><text fill="#000000" font-family="Fira Code" font-size="18" lengthAdjust="spacing" textLength="211" x="109.5" y="685.208">projects &lt;id&gt; metadata</text><text fill="#000000" font-family="Fira Code" font-size="18" lengthAdjust="spacing" textLength="235" x="36" y="716.1611">- could be a separate page</text><text fill="#000000" font-family="Fira Code" font-size="18" lengthAdjust="spacing" textLength="275" x="36" y="737.1143">- view all (meta)data in project</text><text fill="#000000" font-family="Fira Code" font-size="18" lengthAdjust="spacing" textLength="323" x="36" y="758.0674">- link to create (meta)data in project</text><text fill="#000000" font-family="Fira Code" font-size="18" lengthAdjust="spacing" textLength="328" x="36" y="779.0205">- link to update (meta)data in project</text><text fill="#000000" font-family="Fira Code" font-size="18" lengthAdjust="spacing" textLength="323" x="36" y="799.9736">- link to delete (meta)data in project</text></g><g id="group_metadata.projects_id_metadata_create"><rect fill="#F2F2F2" height="397.1563" rx="12.5" ry="12.5" style="stroke:#000000;stroke-width:0.5;" width="382" x="414" y="538"/><line style="stroke:#000000;stroke-width:0.5;" x1="414" x2="796" y1="568.9531" y2="568.9531"/><path d="M464,547.4531 L464,551.9531 L459.5,551.9531 L459.5,554.9531 L464,554.9531 L464,559.4531 L467,559.4531 L467,554.9531 L471.5,554.9531 L471.5,551.9531 L467,551.9531 L467,547.4531 L464,547.4531 " fill="#000000" style="stroke:;stroke-width:0.0;stroke-dasharray:;"/><text fill="#000000" font-family="Fira Code" font-size="18" lengthAdjust="spacing" textLength="273" x="478.5" y="559.708">projects &lt;id&gt; metadata create</text><text fill="#000000" font-family="Fira Code" font-size="18" lengthAdjust="spacing" textLength="235" x="419" y="590.6611">- could be a separate page</text><text fill="#000000" font-family="Fira Code" font-size="18" lengthAdjust="spacing" textLength="137" x="419" y="611.6143">- write in name</text><text fill="#000000" font-family="Fira Code" font-size="18" lengthAdjust="spacing" textLength="185" x="419" y="632.5674">- write in description</text><text fill="#000000" font-family="Fira Code" font-size="18" lengthAdjust="spacing" textLength="211" x="419" y="653.5205">- create id for metadata</text><text fill="#000000" font-family="Fira Code" font-size="18" lengthAdjust="spacing" textLength="326" x="419" y="674.4736">- get metadata on data file's columns</text><text fill="#000000" font-family="Fira Code" font-size="18" lengthAdjust="spacing" textLength="227" x="419" y="695.4268">- update a column's name</text><text fill="#000000" font-family="Fira Code" font-size="18" lengthAdjust="spacing" textLength="275" x="419" y="716.3799">- update a column's description</text><text fill="#000000" font-family="Fira Code" font-size="18" lengthAdjust="spacing" textLength="362" x="419" y="737.333">- update a column's detailed description?</text><text fill="#000000" font-family="Fira Code" font-size="18" lengthAdjust="spacing" textLength="262" x="419" y="758.2861">- update a column's data type</text><text fill="#000000" font-family="Fira Code" font-size="18" lengthAdjust="spacing" textLength="333" x="419" y="779.2393">- exclude a column from being stored</text><text fill="#000000" font-family="Fira Code" font-size="18" lengthAdjust="spacing" textLength="135" x="419" y="800.1924">- save progress</text><text fill="#000000" font-family="Fira Code" font-size="18" lengthAdjust="spacing" textLength="253" x="419" y="821.1455">- create database of data file</text><text fill="#000000" font-family="Fira Code" font-size="18" lengthAdjust="spacing" textLength="248" x="419" y="842.0986">- check for problems in data</text><text fill="#000000" font-family="Fira Code" font-size="18" lengthAdjust="spacing" textLength="292" x="419" y="863.0518">- inform user of problems in data</text><text fill="#000000" font-family="Fira Code" font-size="18" lengthAdjust="spacing" textLength="333" x="419" y="884.0049">- provide a file with a list of problems</text><text fill="#000000" font-family="Fira Code" font-size="18" lengthAdjust="spacing" textLength="226" x="419" y="904.958">- finish metadata creation</text><text fill="#000000" font-family="Fira Code" font-size="18" lengthAdjust="spacing" textLength="353" x="419" y="925.9111">- link to view newly created (meta)data</text></g><g id="group_metadata.projects_id_metadata_id"><rect fill="#F2F2F2" height="145.7188" rx="12.5" ry="12.5" style="stroke:#000000;stroke-width:0.5;" width="303" x="31.5" y="1005.5"/><line style="stroke:#000000;stroke-width:0.5;" x1="31.5" x2="334.5" y1="1036.4531" y2="1036.4531"/><path d="M47.75,1014.9531 C44.855,1014.9531 42.5,1017.3081 42.5,1020.2031 C42.5,1023.0981 44.855,1025.4531 47.75,1025.4531 C48.635,1025.4531 49.505,1025.2431 50.24,1024.8381 A1.5,1.5 0 0 0 50.435,1025.0331 L51.935,1026.5331 A1.53,1.53 0 1 0 54.095,1024.3731 L52.595,1022.8731 A1.5,1.5 0 0 0 52.355,1022.6781 C52.76,1021.9431 53.015,1021.0881 53.015,1020.1881 C53.015,1017.2931 50.66,1014.9381 47.765,1014.9381 M47.75,1016.4531 C49.835,1016.4531 51.5,1018.1181 51.5,1020.2031 C51.5,1021.1931 51.14,1022.1081 50.51,1022.7831 C50.495,1022.7981 50.48,1022.8131 50.465,1022.8281 A1.5,1.5 0 0 0 50.27,1023.0231 C49.61,1023.6231 48.71,1023.9681 47.735,1023.9681 C45.65,1023.9681 43.985,1022.3031 43.985,1020.2181 C43.985,1018.1331 45.65,1016.4681 47.735,1016.4681 " fill="#000000" style="stroke:;stroke-width:0.0;stroke-dasharray:;"/><text fill="#000000" font-family="Fira Code" font-size="18" lengthAdjust="spacing" textLength="263" x="61.5" y="1027.208">projects &lt;id&gt; metadata &lt;id&gt;</text><text fill="#000000" font-family="Fira Code" font-size="18" lengthAdjust="spacing" textLength="235" x="36.5" y="1058.1611">- could be a separate page</text><text fill="#000000" font-family="Fira Code" font-size="18" lengthAdjust="spacing" textLength="159" x="36.5" y="1079.1143">- view description</text><text fill="#000000" font-family="Fira Code" font-size="18" lengthAdjust="spacing" textLength="220" x="36.5" y="1100.0674">- view details of columns</text><text fill="#000000" font-family="Fira Code" font-size="18" lengthAdjust="spacing" textLength="224" x="36.5" y="1121.0205">- link to update metadata</text><text fill="#000000" font-family="Fira Code" font-size="18" lengthAdjust="spacing" textLength="158" x="36.5" y="1141.9736">- delete metadata</text></g><g id="group_metadata.projects_id_metadata_id_update"><rect fill="#F2F2F2" height="166.6719" rx="12.5" ry="12.5" style="stroke:#000000;stroke-width:0.5;" width="370" x="769" y="995"/><line style="stroke:#000000;stroke-width:0.5;" x1="769" x2="1139" y1="1025.9531" y2="1025.9531"/><path d="M789,1004.4531 L787.5,1005.9531 L790.5,1008.9531 L792,1007.4531 L789,1004.4531 M786,1007.4531 L780,1013.4531 L780,1016.4531 L783,1016.4531 L789,1010.4531 L786,1007.4531 " fill="#000000" style="stroke:;stroke-width:0.0;stroke-dasharray:;"/><text fill="#000000" font-family="Fira Code" font-size="18" lengthAdjust="spacing" textLength="330" x="799" y="1016.708">projects &lt;id&gt; metadata &lt;id&gt; update</text><text fill="#000000" font-family="Fira Code" font-size="18" lengthAdjust="spacing" textLength="235" x="774" y="1047.6611">- could be a separate page</text><text fill="#000000" font-family="Fira Code" font-size="18" lengthAdjust="spacing" textLength="177" x="774" y="1068.6143">- update description</text><text fill="#000000" font-family="Fira Code" font-size="18" lengthAdjust="spacing" textLength="199" x="774" y="1089.5674">- update column name</text><text fill="#000000" font-family="Fira Code" font-size="18" lengthAdjust="spacing" textLength="247" x="774" y="1110.5205">- update column description</text><text fill="#000000" font-family="Fira Code" font-size="18" lengthAdjust="spacing" textLength="334" x="774" y="1131.4736">- update column detailed description?</text><text fill="#000000" font-family="Fira Code" font-size="18" lengthAdjust="spacing" textLength="135" x="774" y="1152.4268">- save progress</text></g><g id="group_metadata.projects_id_metadata_id_delete"><rect fill="#F2F2F2" height="82.8594" rx="12.5" ry="12.5" style="stroke:#000000;stroke-width:0.5;" width="365" x="369.5" y="1037"/><line style="stroke:#000000;stroke-width:0.5;" x1="369.5" x2="734.5" y1="1067.9531" y2="1067.9531"/><path d="M385,1046.4531 C384.175,1046.4531 383.5,1047.1281 383.5,1047.9531 L382,1047.9531 C381.175,1047.9531 380.5,1048.6281 380.5,1049.4531 L391,1049.4531 C391,1048.6281 390.325,1047.9531 389.5,1047.9531 L388,1047.9531 C388,1047.1281 387.325,1046.4531 386.5,1046.4531 L385,1046.4531 M382,1050.9531 L382,1058.1681 C382,1058.3331 382.12,1058.4531 382.285,1058.4531 L389.23,1058.4531 C389.395,1058.4531 389.515,1058.3331 389.515,1058.1681 L389.515,1050.9531 L388.015,1050.9531 L388.015,1056.2031 C388.015,1056.6231 387.685,1056.9531 387.265,1056.9531 C386.845,1056.9531 386.515,1056.6231 386.515,1056.2031 L386.515,1050.9531 L385.015,1050.9531 L385.015,1056.2031 C385.015,1056.6231 384.685,1056.9531 384.265,1056.9531 C383.845,1056.9531 383.515,1056.6231 383.515,1056.2031 L383.515,1050.9531 L382.015,1050.9531 " fill="#000000" style="stroke:;stroke-width:0.0;stroke-dasharray:;"/><text fill="#000000" font-family="Fira Code" font-size="18" lengthAdjust="spacing" textLength="325" x="399.5" y="1058.708">projects &lt;id&gt; metadata &lt;id&gt; delete</text><text fill="#000000" font-family="Fira Code" font-size="18" lengthAdjust="spacing" textLength="212" x="374.5" y="1089.6611">- could be a button only</text><text fill="#000000" font-family="Fira Code" font-size="18" lengthAdjust="spacing" textLength="302" x="374.5" y="1110.6143">- delete all contents of (meta)data</text></g><g id="group_data.projects_id_metadata_id_data_update"><rect fill="#F2F2F2" height="187.625" rx="12.5" ry="12.5" style="stroke:#000000;stroke-width:0.5;" width="414" x="582" y="1273"/><line style="stroke:#000000;stroke-width:0.5;" x1="582" x2="996" y1="1303.9531" y2="1303.9531"/><path d="M602,1282.4531 L600.5,1283.9531 L603.5,1286.9531 L605,1285.4531 L602,1282.4531 M599,1285.4531 L593,1291.4531 L593,1294.4531 L596,1294.4531 L602,1288.4531 L599,1285.4531 " fill="#000000" style="stroke:;stroke-width:0.0;stroke-dasharray:;"/><text fill="#000000" font-family="Fira Code" font-size="18" lengthAdjust="spacing" textLength="374" x="612" y="1294.708">projects &lt;id&gt; metadata &lt;id&gt; data update</text><text fill="#000000" font-family="Fira Code" font-size="18" lengthAdjust="spacing" textLength="235" x="587" y="1325.6611">- could be a separate page</text><text fill="#000000" font-family="Fira Code" font-size="18" lengthAdjust="spacing" textLength="303" x="587" y="1346.6143">- upload new data to existing data</text><text fill="#000000" font-family="Fira Code" font-size="18" lengthAdjust="spacing" textLength="222" x="587" y="1367.5674">- verify against metadata</text><text fill="#000000" font-family="Fira Code" font-size="18" lengthAdjust="spacing" textLength="283" x="587" y="1388.5205">- check for problems in the data</text><text fill="#000000" font-family="Fira Code" font-size="18" lengthAdjust="spacing" textLength="292" x="587" y="1409.4736">- inform user of problems in data</text><text fill="#000000" font-family="Fira Code" font-size="18" lengthAdjust="spacing" textLength="333" x="587" y="1430.4268">- provide a file with a list of problems</text><text fill="#000000" font-family="Fira Code" font-size="18" lengthAdjust="spacing" textLength="323" x="587" y="1451.3799">- merge new data with existing data</text></g><g id="group_data.projects_id_metadata_id_data_delete"><rect fill="#F2F2F2" height="82.8594" rx="12.5" ry="12.5" style="stroke:#000000;stroke-width:0.5;" width="409" x="137.5" y="1325.5"/><line style="stroke:#000000;stroke-width:0.5;" x1="137.5" x2="546.5" y1="1356.4531" y2="1356.4531"/><path d="M153,1334.9531 C152.175,1334.9531 151.5,1335.6281 151.5,1336.4531 L150,1336.4531 C149.175,1336.4531 148.5,1337.1281 148.5,1337.9531 L159,1337.9531 C159,1337.1281 158.325,1336.4531 157.5,1336.4531 L156,1336.4531 C156,1335.6281 155.325,1334.9531 154.5,1334.9531 L153,1334.9531 M150,1339.4531 L150,1346.6681 C150,1346.8331 150.12,1346.9531 150.285,1346.9531 L157.23,1346.9531 C157.395,1346.9531 157.515,1346.8331 157.515,1346.6681 L157.515,1339.4531 L156.015,1339.4531 L156.015,1344.7031 C156.015,1345.1231 155.685,1345.4531 155.265,1345.4531 C154.845,1345.4531 154.515,1345.1231 154.515,1344.7031 L154.515,1339.4531 L153.015,1339.4531 L153.015,1344.7031 C153.015,1345.1231 152.685,1345.4531 152.265,1345.4531 C151.845,1345.4531 151.515,1345.1231 151.515,1344.7031 L151.515,1339.4531 L150.015,1339.4531 " fill="#000000" style="stroke:;stroke-width:0.0;stroke-dasharray:;"/><text fill="#000000" font-family="Fira Code" font-size="18" lengthAdjust="spacing" textLength="369" x="167.5" y="1347.208">projects &lt;id&gt; metadata &lt;id&gt; data delete</text><text fill="#000000" font-family="Fira Code" font-size="18" lengthAdjust="spacing" textLength="212" x="142.5" y="1378.1611">- could be a button only</text><text fill="#000000" font-family="Fira Code" font-size="18" lengthAdjust="spacing" textLength="278" x="142.5" y="1399.1143">- delete all contents of the data</text></g><!--link group_projects to group_data--><!--link group_metadata to group_data--><!--link projects to projects_create--><g id="link_projects_projects_create"><path d="M425.74,137.5 C437.44,137.5 443.15,137.5 454.85,137.5 " fill="none" id="projects-to-projects_create" style="stroke:#000000;stroke-width:1.0;"/><polygon fill="#000000" points="460.85,137.5,451.85,133.5,455.85,137.5,451.85,141.5,460.85,137.5" style="stroke:#000000;stroke-width:1.0;"/></g><!--link projects_create to projects_id--><g id="link_projects_create_projects_id"><path d="M502.89,221.12 C472.56,240.83 445.471,258.4506 415.941,277.6406 " fill="none" id="projects_create-to-projects_id" style="stroke:#000000;stroke-width:1.0;"/><polygon fill="#000000" points="410.91,280.91,420.6361,279.3599,415.1025,278.1855,416.2769,272.6519,410.91,280.91" style="stroke:#000000;stroke-width:1.0;"/></g><!--link projects to projects_id--><g id="link_projects_projects_id"><path d="M298.77,221.12 C298.95,240.83 299.0937,255.7203 299.2737,274.9103 " fill="none" id="projects-to-projects_id" style="stroke:#000000;stroke-width:1.0;"/><polygon fill="#000000" points="299.33,280.91,303.2454,271.8729,299.2831,275.9102,295.2458,271.9479,299.33,280.91" style="stroke:#000000;stroke-width:1.0;"/></g><!--link projects_id to projects_id_update--><g id="link_projects_id_projects_id_update"><path d="M398.36,280.97 C419.82,268.61 443.12,257.65 466.5,251 C589.19,216.12 631,215.45 753.5,251 C782.69,259.47 806.6309,271.6677 831.8509,288.0777 " fill="none" id="projects_id-to-projects_id_update" style="stroke:#000000;stroke-width:1.0;"/><polygon fill="#000000" points="836.88,291.35,831.5179,283.0888,832.6891,288.6231,827.1548,289.7943,836.88,291.35" style="stroke:#000000;stroke-width:1.0;"/></g><!--link projects_id to projects_id_delete--><g id="link_projects_id_projects_id_delete"><path d="M431.69,354 C443.18,354 448.67,354 460.17,354 " fill="none" id="projects_id-to-projects_id_delete" style="stroke:#000000;stroke-width:1.0;"/><polygon fill="#000000" points="466.17,354,457.17,350,461.17,354,457.17,358,466.17,354" style="stroke:#000000;stroke-width:1.0;"/></g><!--link projects_id to projects_id_metadata--><g id="link_projects_id_projects_id_metadata"><path d="M282.02,427.02 C265.1,494.78 241.3634,589.8687 224.4434,657.6387 " fill="none" id="projects_id-to-projects_id_metadata" style="stroke:#000000;stroke-width:1.0;"/><polygon fill="#000000" points="222.99,663.46,229.051,655.697,224.2012,658.6089,221.2892,653.7591,222.99,663.46" style="stroke:#000000;stroke-width:1.0;"/></g><!--link projects_id_metadata to projects_id_metadata_create--><g id="link_projects_id_metadata_projects_id_metadata_create"><path d="M379.22,736.5 C390.68,736.5 396.15,736.5 407.62,736.5 " fill="none" id="projects_id_metadata-to-projects_id_metadata_create" style="stroke:#000000;stroke-width:1.0;"/><polygon fill="#000000" points="413.62,736.5,404.62,732.5,408.62,736.5,404.62,740.5,413.62,736.5" style="stroke:#000000;stroke-width:1.0;"/></g><!--link projects_id_metadata to projects_id_metadata_id--><g id="link_projects_id_metadata_projects_id_metadata_id"><path d="M200.33,809.61 C196.6,867.3 191.7773,941.8425 188.0473,999.5125 " fill="none" id="projects_id_metadata-to-projects_id_metadata_id" style="stroke:#000000;stroke-width:1.0;"/><polygon fill="#000000" points="187.66,1005.5,192.2326,996.7769,187.9827,1000.5104,184.2492,996.2606,187.66,1005.5" style="stroke:#000000;stroke-width:1.0;"/></g><!--link projects_id_metadata_create to projects_id_metadata_id--><g id="link_projects_id_metadata_create_projects_id_metadata_id"><path d="M413.93,920.38 C407.94,925.37 401.95,930.25 396,935 C365.39,959.42 335.6535,980.5636 303.2435,1002.1536 " fill="none" id="projects_id_metadata_create-to-projects_id_metadata_id" style="stroke:#000000;stroke-width:1.0;"/><polygon fill="#000000" points="298.25,1005.48,307.9578,1003.8194,302.4112,1002.708,303.5226,997.1614,298.25,1005.48" style="stroke:#000000;stroke-width:1.0;"/></g><!--link projects_id_metadata_id to projects_id_metadata_id_update--><g id="link_projects_id_metadata_id_projects_id_metadata_id_update"><path d="M280.92,1005.28 C308.23,988.77 338.84,973.6 369.5,965 C447.6,943.1 655.69,945.83 734.5,965 C762.12,971.72 784.7088,980.0102 811.0788,992.3902 " fill="none" id="projects_id_metadata_id-to-projects_id_metadata_id_update" style="stroke:#000000;stroke-width:1.0;"/><polygon fill="#000000" points="816.51,994.94,810.063,987.4944,811.984,992.8151,806.6633,994.7361,816.51,994.94" style="stroke:#000000;stroke-width:1.0;"/></g><!--link projects_id_metadata_id to projects_id_metadata_id_delete--><g id="link_projects_id_metadata_id_projects_id_metadata_id_delete"><path d="M334.71,1078.5 C346.17,1078.5 351.63,1078.5 363.08,1078.5 " fill="none" id="projects_id_metadata_id-to-projects_id_metadata_id_delete" style="stroke:#000000;stroke-width:1.0;"/><polygon fill="#000000" points="369.08,1078.5,360.08,1074.5,364.08,1078.5,360.08,1082.5,369.08,1078.5" style="stroke:#000000;stroke-width:1.0;"/></g><!--link projects_id_metadata_id to projects_id_metadata_id_data_update--><g id="link_projects_id_metadata_id_projects_id_metadata_id_data_update"><path d="M262.12,1151.55 C288.8,1171.62 319.97,1190.94 352,1202 C396.56,1217.39 519.28,1195.08 564,1210 C605.48,1223.84 641.3284,1244.3914 676.4784,1269.5114 " fill="none" id="projects_id_metadata_id-to-projects_id_metadata_id_data_update" style="stroke:#000000;stroke-width:1.0;"/><polygon fill="#000000" points="681.36,1273,676.3634,1264.5127,677.292,1270.0928,671.7119,1271.0215,681.36,1273" style="stroke:#000000;stroke-width:1.0;"/></g><!--link projects_id_metadata_id to projects_id_metadata_id_data_delete--><g id="link_projects_id_metadata_id_projects_id_metadata_id_data_delete"><path d="M223.12,1151.8 C253.57,1206.67 291.4287,1274.8736 316.4387,1319.9436 " fill="none" id="projects_id_metadata_id-to-projects_id_metadata_id_data_delete" style="stroke:#000000;stroke-width:1.0;"/><polygon fill="#000000" points="319.35,1325.19,318.4806,1315.3796,316.9239,1320.818,311.4855,1319.2613,319.35,1325.19" style="stroke:#000000;stroke-width:1.0;"/></g><!--SRC=[fLZDZzmc5B_xhw1xQ9B3PDLR5KMRGwhSMbLARb6rOWpZeOl10hoRQPJ_lG-CRMp0NpaDUln-3zudR_oBkTAQ8aqfAR6cwA9aZQx6DFhT_Rt2BsyhPgxjkTLKbL8OAipRKjRtFVxKAFalBSqeSFhkQyn4eP-OQB32DVfiiA6VWFzHSgdGcUFoARNzcVr7qM-_fxR-md3DJqnXz54IMXJQRg2xlxlpDRgqeZHC2ioPkTqXh56bPDiyDZtWUu5GHnf481dMxz09bRBb19qfmk0GUxu5uuf6GCwqGPZpGJe7QCfX3NgyD3f9KQjSq9SSecr8SDVvBW7zmUvWsjtxNnlUweSHtPta7DBB7ZjPeDDBDZiXnByePYnOG81M88JgKh76XYc3V2sRBeXl42O4sRJJwr1DZOEYXggQQGtY78ipyOICHCyCN0_kvpVl8P9qPeqhmIut9gfJnR4E7VkUaOUfMna93sLakpizrbtA2n77Wi2v3fp3PXmQGY8N-itU4QzhQl0Ro3KypI8gIiPdvlgad5lzs8cdXtZX7X-45B-S9rKIbFL20klSyM5Ygb5ON-UMTWKMMTg9PwVuOfnPUcwDaG99mMzvl5_QLkBRgqRoCkH0yMDeT7z2c6oKieskxW7VToGmwbcHfVt6xEx3ANlYEY6vhBG6Zvc7c4WqkeZPfwmlvyDydmg7-JveQVv2AvuuFDcOWnCJJJhUFHI5k3F3zHE5jeZFrrpoYjqIMiy5dl-Lr0g95NJsmMDGJLq5C4vVmSicULiBlK6B3pZs5E1kD3ScxhCxnJSOhaz2HH-EQRAkCBTcYntqMybRCjAxCUzCxVkYZLIKR52YyRERE2f5jTuUT2i-sz4I-jeGlYtqAosVNBu0yinfhLtUMGqRs4m0i-wcWgwXxbO1-y_CEStU6Bt080nhD_e56ZSekZ31z7LM-TiIQ65S2TfFSQJZ9mUOyH8icnBx1fk8jpouvE2sQjpJk5Bri-d6byrQn_4itzW7zFf0D75cRZmAZacFIZ7Wg8TtJKVBFDyfbZhb4kydZztL9wUAfdrgTTARXZ0pzuL79MV06B1z7inmCxDXCB2Fq-4VIvDXF1LkIMQtsf3HxdSrhGFKOcxlKD4sN6BY_aDtRw64TmwwittKbeizKlLC5RHCX2lCX3ORsaLiJ_ArCbUwzoeh3zSEJJ_tVYKKrbHLTFItKpZr-DvYiwij5MT_ryjkH1silPc2J04EGONoUuM-I3UaWiu68WQbLuaQaCNiwzFfzFNA2A7YduUWAelPNxSCgXZLF4HVSUPVEKuX1bxnu0hJZIBy933Tw-jv0U73CK7C8ECxclnBbK57TaquETBCdcYOsa-CJKwyumUOtd5vwX8twBM7-Tq5_WS0]--></g></svg>