<?xml version="1.0" encoding="us-ascii" standalone="no"?><svg xmlns="http://www.w3.org/2000/svg" xmlns:xlink="http://www.w3.org/1999/xlink" contentStyleType="text/css" height="971px" preserveAspectRatio="none" style="width:432px;height:971px;background:#FFFFFF;" version="1.1" viewBox="0 0 432 971" width="432px" zoomAndPan="magnify"><defs/><g><ellipse cx="211.5" cy="20" fill="#222222" rx="10" ry="10" style="stroke:#222222;stroke-width:1.0;"/><rect fill="#F1F1F1" height="36.2969" rx="12.5" ry="12.5" style="stroke:#181818;stroke-width:0.5;" width="279" x="72" y="50"/><text fill="#000000" font-family="sans-serif" font-size="14" lengthAdjust="spacing" textLength="259" x="82" y="72.9951">User selects option to upload new file</text><rect fill="#F1F1F1" height="52.5938" rx="12.5" ry="12.5" style="stroke:#181818;stroke-width:0.5;" width="269" x="77" y="106.2969"/><text fill="#000000" font-family="sans-serif" font-size="14" lengthAdjust="spacing" textLength="241" x="87" y="129.292">System loads file and displays back</text><text fill="#000000" font-family="sans-serif" font-size="14" lengthAdjust="spacing" textLength="249" x="87" y="145.5889">headers and data types from upload</text><rect fill="#F1F1F1" height="52.5938" rx="12.5" ry="12.5" style="stroke:#181818;stroke-width:0.5;" width="273" x="75" y="237.6328"/><text fill="#000000" font-family="sans-serif" font-size="14" lengthAdjust="spacing" textLength="253" x="85" y="260.6279">System fetches list of CDMs from db,</text><text fill="#000000" font-family="sans-serif" font-size="14" lengthAdjust="spacing" textLength="145" x="85" y="276.9248">displays back to user</text><rect fill="#F1F1F1" height="36.2969" rx="12.5" ry="12.5" style="stroke:#181818;stroke-width:0.5;" width="289" x="67" y="310.2266"/><text fill="#000000" font-family="sans-serif" font-size="14" lengthAdjust="spacing" textLength="269" x="77" y="333.2217">User selects the CDM section the want</text><rect fill="#F1F1F1" height="52.5938" rx="12.5" ry="12.5" style="stroke:#181818;stroke-width:0.5;" width="369" x="27" y="378.0234"/><text fill="#000000" font-family="sans-serif" font-size="14" lengthAdjust="spacing" textLength="297" x="37" y="401.0186">System fetches detailed terms from db and</text><text fill="#000000" font-family="sans-serif" font-size="14" lengthAdjust="spacing" textLength="349" x="37" y="417.3154">populates drop-downs against each uploaded field</text><rect fill="#F1F1F1" height="52.5938" rx="12.5" ry="12.5" style="stroke:#181818;stroke-width:0.5;" width="265" x="79" y="450.6172"/><text fill="#000000" font-family="sans-serif" font-size="14" lengthAdjust="spacing" textLength="245" x="89" y="473.6123">User selects the relevant CDM term</text><text fill="#000000" font-family="sans-serif" font-size="14" lengthAdjust="spacing" textLength="141" x="89" y="489.9092">against each header</text><polygon fill="#F1F1F1" points="104.5,178.8906,318.5,178.8906,330.5,195.1875,318.5,211.4844,104.5,211.4844,92.5,195.1875,104.5,178.8906" style="stroke:#181818;stroke-width:0.5;"/><text fill="#000000" font-family="sans-serif" font-size="14" lengthAdjust="spacing" textLength="24" x="215.5" y="224.4795">yes</text><text fill="#000000" font-family="sans-serif" font-size="14" lengthAdjust="spacing" textLength="210" x="104.5" y="191.8857">System ask if user want to use</text><text fill="#000000" font-family="sans-serif" font-size="14" lengthAdjust="spacing" textLength="174" x="124.5" y="208.1826">CDM for some or all fields</text><text fill="#000000" font-family="sans-serif" font-size="14" lengthAdjust="spacing" textLength="18" x="330.5" y="191.8857">no</text><polygon fill="#F1F1F1" points="211.5,523.2109,223.5,535.2109,211.5,547.2109,199.5,535.2109,211.5,523.2109" style="stroke:#181818;stroke-width:0.5;"/><rect fill="#F1F1F1" height="68.8906" rx="12.5" ry="12.5" style="stroke:#181818;stroke-width:0.5;" width="321" x="51" y="625.7061"/><text fill="#000000" font-family="sans-serif" font-size="14" lengthAdjust="spacing" textLength="301" x="61" y="648.7012">System generates list of undefined headers</text><text fill="#000000" font-family="sans-serif" font-size="14" lengthAdjust="spacing" textLength="256" x="61" y="664.998">and displays with drop-down for type,</text><text fill="#000000" font-family="sans-serif" font-size="14" lengthAdjust="spacing" textLength="278" x="61" y="681.2949">and text boxes for name and description</text><rect fill="#F1F1F1" height="52.5938" rx="12.5" ry="12.5" style="stroke:#181818;stroke-width:0.5;" width="300" x="61.5" y="714.5967"/><text fill="#000000" font-family="sans-serif" font-size="14" lengthAdjust="spacing" textLength="258" x="71.5" y="737.5918">User enters field name, data type and</text><text fill="#000000" font-family="sans-serif" font-size="14" lengthAdjust="spacing" textLength="280" x="71.5" y="753.8887">description against non-defined headers</text><polygon fill="#F1F1F1" points="48,567.2109,375,567.2109,387,579.2109,375,591.2109,48,591.2109,36,579.2109,48,567.2109" style="stroke:#181818;stroke-width:0.5;"/><text fill="#000000" font-family="sans-serif" font-size="14" lengthAdjust="spacing" textLength="18" x="215.5" y="604.2061">no</text><text fill="#000000" font-family="sans-serif" font-size="14" lengthAdjust="spacing" textLength="327" x="48" y="584.0576">System checks that all headers have definitions</text><text fill="#000000" font-family="sans-serif" font-size="14" lengthAdjust="spacing" textLength="24" x="12" y="575.9092">yes</text><rect fill="#F1F1F1" height="36.2969" rx="12.5" ry="12.5" style="stroke:#181818;stroke-width:0.5;" width="274" x="74.5" y="809.1904"/><text fill="#000000" font-family="sans-serif" font-size="14" lengthAdjust="spacing" textLength="254" x="84.5" y="832.1855">System saves the new schema to db</text><rect fill="#F1F1F1" height="52.5938" rx="12.5" ry="12.5" style="stroke:#181818;stroke-width:0.5;" width="263" x="80" y="865.4873"/><text fill="#000000" font-family="sans-serif" font-size="14" lengthAdjust="spacing" textLength="243" x="90" y="888.4824">Systems confirms back to user that</text><text fill="#000000" font-family="sans-serif" font-size="14" lengthAdjust="spacing" textLength="202" x="90" y="904.7793">new schema has been saved</text><ellipse cx="211.5" cy="949.0811" fill="none" rx="11" ry="11" style="stroke:#222222;stroke-width:1.0;"/><ellipse cx="211.5" cy="949.0811" fill="#222222" rx="6" ry="6" style="stroke:#222222;stroke-width:1.0;"/><line style="stroke:#000000;stroke-width:1.0;" x1="211.5" x2="211.5" y1="30" y2="50"/><polygon fill="#000000" points="207.5,40,211.5,50,215.5,40,211.5,44" style="stroke:#000000;stroke-width:1.0;"/><line style="stroke:#000000;stroke-width:1.0;" x1="211.5" x2="211.5" y1="86.2969" y2="106.2969"/><polygon fill="#000000" points="207.5,96.2969,211.5,106.2969,215.5,96.2969,211.5,100.2969" style="stroke:#000000;stroke-width:1.0;"/><line style="stroke:#000000;stroke-width:1.0;" x1="211.5" x2="211.5" y1="290.2266" y2="310.2266"/><polygon fill="#000000" points="207.5,300.2266,211.5,310.2266,215.5,300.2266,211.5,304.2266" style="stroke:#000000;stroke-width:1.0;"/><line style="stroke:#000000;stroke-width:1.0;" x1="211.5" x2="211.5" y1="346.5234" y2="378.0234"/><polygon fill="#000000" points="207.5,368.0234,211.5,378.0234,215.5,368.0234,211.5,372.0234" style="stroke:#000000;stroke-width:1.0;"/><line style="stroke:#000000;stroke-width:1.0;" x1="211.5" x2="211.5" y1="430.6172" y2="450.6172"/><polygon fill="#000000" points="207.5,440.6172,211.5,450.6172,215.5,440.6172,211.5,444.6172" style="stroke:#000000;stroke-width:1.0;"/><line style="stroke:#000000;stroke-width:1.0;" x1="211.5" x2="211.5" y1="211.4844" y2="237.6328"/><polygon fill="#000000" points="207.5,227.6328,211.5,237.6328,215.5,227.6328,211.5,231.6328" style="stroke:#000000;stroke-width:1.0;"/><line style="stroke:#000000;stroke-width:1.0;" x1="330.5" x2="406" y1="195.1875" y2="195.1875"/><polygon fill="#000000" points="402,356.5234,406,366.5234,410,356.5234,406,360.5234" style="stroke:#000000;stroke-width:1.0;"/><line style="stroke:#000000;stroke-width:1.0;" x1="406" x2="406" y1="195.1875" y2="535.2109"/><line style="stroke:#000000;stroke-width:1.0;" x1="406" x2="223.5" y1="535.2109" y2="535.2109"/><polygon fill="#000000" points="233.5,531.2109,223.5,535.2109,233.5,539.2109,229.5,535.2109" style="stroke:#000000;stroke-width:1.0;"/><line style="stroke:#000000;stroke-width:1.0;" x1="211.5" x2="211.5" y1="503.2109" y2="523.2109"/><polygon fill="#000000" points="207.5,513.2109,211.5,523.2109,215.5,513.2109,211.5,517.2109" style="stroke:#000000;stroke-width:1.0;"/><line style="stroke:#000000;stroke-width:1.0;" x1="211.5" x2="211.5" y1="158.8906" y2="178.8906"/><polygon fill="#000000" points="207.5,168.8906,211.5,178.8906,215.5,168.8906,211.5,172.8906" style="stroke:#000000;stroke-width:1.0;"/><line style="stroke:#000000;stroke-width:1.0;" x1="211.5" x2="211.5" y1="694.5967" y2="714.5967"/><polygon fill="#000000" points="207.5,704.5967,211.5,714.5967,215.5,704.5967,211.5,708.5967" style="stroke:#000000;stroke-width:1.0;"/><line style="stroke:#000000;stroke-width:1.0;" x1="211.5" x2="211.5" y1="591.2109" y2="625.7061"/><polygon fill="#000000" points="207.5,615.7061,211.5,625.7061,215.5,615.7061,211.5,619.7061" style="stroke:#000000;stroke-width:1.0;"/><line style="stroke:#000000;stroke-width:1.0;" x1="211.5" x2="211.5" y1="767.1904" y2="777.1904"/><line style="stroke:#000000;stroke-width:1.0;" x1="211.5" x2="399" y1="777.1904" y2="777.1904"/><polygon fill="#000000" points="395,693.7998,399,683.7998,403,693.7998,399,689.7998" style="stroke:#000000;stroke-width:1.0;"/><line style="stroke:#000000;stroke-width:1.0;" x1="399" x2="399" y1="579.2109" y2="777.1904"/><line style="stroke:#000000;stroke-width:1.0;" x1="399" x2="387" y1="579.2109" y2="579.2109"/><polygon fill="#000000" points="397,575.2109,387,579.2109,397,583.2109,393,579.2109" style="stroke:#000000;stroke-width:1.0;"/><line style="stroke:#000000;stroke-width:1.0;" x1="36" x2="24" y1="579.2109" y2="579.2109"/><polygon fill="#000000" points="20,679.7998,24,689.7998,28,679.7998,24,683.7998" style="stroke:#000000;stroke-width:1.0;"/><line style="stroke:#000000;stroke-width:1.0;" x1="24" x2="24" y1="579.2109" y2="789.1904"/><line style="stroke:#000000;stroke-width:1.0;" x1="24" x2="211.5" y1="789.1904" y2="789.1904"/><line style="stroke:#000000;stroke-width:1.0;" x1="211.5" x2="211.5" y1="789.1904" y2="809.1904"/><polygon fill="#000000" points="207.5,799.1904,211.5,809.1904,215.5,799.1904,211.5,803.1904" style="stroke:#000000;stroke-width:1.0;"/><line style="stroke:#000000;stroke-width:1.0;" x1="211.5" x2="211.5" y1="547.2109" y2="567.2109"/><polygon fill="#000000" points="207.5,557.2109,211.5,567.2109,215.5,557.2109,211.5,561.2109" style="stroke:#000000;stroke-width:1.0;"/><line style="stroke:#000000;stroke-width:1.0;" x1="211.5" x2="211.5" y1="845.4873" y2="865.4873"/><polygon fill="#000000" points="207.5,855.4873,211.5,865.4873,215.5,855.4873,211.5,859.4873" style="stroke:#000000;stroke-width:1.0;"/><line style="stroke:#000000;stroke-width:1.0;" x1="211.5" x2="211.5" y1="918.0811" y2="938.0811"/><polygon fill="#000000" points="207.5,928.0811,211.5,938.0811,215.5,928.0811,211.5,932.0811" style="stroke:#000000;stroke-width:1.0;"/><!--SRC=[RPExajim34LxVWNIsJFskhVBJPigam-0HSXYB94S0bgj_pu09VcncqeYXSV5mTKFwMWWO2BV81Eq9GtGYMG-7Wu5fxTBa6uyZqobIL4eobkJXiCQlyyb_QL67XUrtc7049rZmIBk-4UJjKElSGmfIqWH9C6O-uGU8atGXfvExlZxna83s3NNEy3emGVEFTuOpjXSNKVegV3y1GL1RfburZrNF3a022ribdB8LplQ231XbDfRHxKmWFUVlw1DgYyf1drYtsjhwZrlGMU9i8bfQw7KQyxcHhoz2sr9cawRzu45Kckr5YN-l0Ft8dpfMavVU6YFge7rLC7esLIUldNn9AXCF0YLuTx7GBYSyjYZM519UU_J59NGHPUWmWYRRa6ZoNMs_uae-lvXU4oDjG3tKc46N-5IzA6rbwcp9QsWLMLpjM8e5UEwgWu_IDMt8GORKS46dh6k8rueKgdwLvHZh0agUAtYNhmmgIqVmzODcX5sSvZGfy0vVPenz4l4OR4ISLD2TU2AG1rjrIkM6hXxsAhckAUaEzEOulwBm9NCmkJ5AAm4PihcTbPG0veX_Fc-PWRzlzfWctssIwNfdh8wr01INrfDNIHBokuV]--></g></svg>