<?xml version="1.0" encoding="us-ascii" standalone="no"?><svg xmlns="http://www.w3.org/2000/svg" xmlns:xlink="http://www.w3.org/1999/xlink" contentStyleType="text/css" height="1130px" preserveAspectRatio="none" style="width:1342px;height:1130px;background:#FFFFFF;" version="1.1" viewBox="0 0 1342 1130" width="1342px" zoomAndPan="magnify"><defs/><g><text fill="#000000" font-family="sans-serif" font-size="14" font-weight="bold" lengthAdjust="spacing" textLength="351" x="497" y="27.9951">Table Creation (Preparation for Data Upload)</text><rect fill="none" height="199.0781" style="stroke:#000000;stroke-width:1.5;" width="1058" x="10" y="580.6406"/><rect fill="none" height="199.0781" style="stroke:#000000;stroke-width:1.5;" width="1326" x="10" y="793.7188"/><line style="stroke:#000000;stroke-width:0.5;stroke-dasharray:5.0,5.0;" x1="43" x2="43" y1="73.5938" y2="1009.7969"/><line style="stroke:#000000;stroke-width:0.5;stroke-dasharray:5.0,5.0;" x1="392.5" x2="392.5" y1="73.5938" y2="1009.7969"/><line style="stroke:#000000;stroke-width:0.5;stroke-dasharray:5.0,5.0;" x1="787.5" x2="787.5" y1="73.5938" y2="1009.7969"/><line style="stroke:#000000;stroke-width:0.5;stroke-dasharray:5.0,5.0;" x1="1159.5" x2="1159.5" y1="73.5938" y2="1009.7969"/><rect fill="#F2F2F2" height="30.2969" rx="2.5" ry="2.5" style="stroke:#181818;stroke-width:0.5;" width="46" x="20" y="42.2969"/><text fill="#000000" font-family="sans-serif" font-size="14" lengthAdjust="spacing" textLength="32" x="27" y="62.292">User</text><rect fill="#F2F2F2" height="30.2969" rx="2.5" ry="2.5" style="stroke:#181818;stroke-width:0.5;" width="46" x="20" y="1008.7969"/><text fill="#000000" font-family="sans-serif" font-size="14" lengthAdjust="spacing" textLength="32" x="27" y="1028.792">User</text><rect fill="#F2F2F2" height="30.2969" rx="2.5" ry="2.5" style="stroke:#181818;stroke-width:0.5;" width="81" x="352.5" y="42.2969"/><text fill="#000000" font-family="sans-serif" font-size="14" lengthAdjust="spacing" textLength="67" x="359.5" y="62.292">Front end</text><rect fill="#F2F2F2" height="30.2969" rx="2.5" ry="2.5" style="stroke:#181818;stroke-width:0.5;" width="81" x="352.5" y="1008.7969"/><text fill="#000000" font-family="sans-serif" font-size="14" lengthAdjust="spacing" textLength="67" x="359.5" y="1028.792">Front end</text><rect fill="#F2F2F2" height="30.2969" rx="2.5" ry="2.5" style="stroke:#181818;stroke-width:0.5;" width="35" x="770.5" y="42.2969"/><text fill="#000000" font-family="sans-serif" font-size="14" lengthAdjust="spacing" textLength="21" x="777.5" y="62.292">API</text><rect fill="#F2F2F2" height="30.2969" rx="2.5" ry="2.5" style="stroke:#181818;stroke-width:0.5;" width="35" x="770.5" y="1008.7969"/><text fill="#000000" font-family="sans-serif" font-size="14" lengthAdjust="spacing" textLength="21" x="777.5" y="1028.792">API</text><rect fill="#F2F2F2" height="30.2969" rx="2.5" ry="2.5" style="stroke:#181818;stroke-width:0.5;" width="75" x="1122.5" y="42.2969"/><text fill="#000000" font-family="sans-serif" font-size="14" lengthAdjust="spacing" textLength="61" x="1129.5" y="62.292">Backend</text><rect fill="#F2F2F2" height="30.2969" rx="2.5" ry="2.5" style="stroke:#181818;stroke-width:0.5;" width="75" x="1122.5" y="1008.7969"/><text fill="#000000" font-family="sans-serif" font-size="14" lengthAdjust="spacing" textLength="61" x="1129.5" y="1028.792">Backend</text><polygon fill="#000000" points="381,101.8906,391,105.8906,381,109.8906,385,105.8906" style="stroke:#000000;stroke-width:1.0;"/><line style="stroke:#000000;stroke-width:1.0;" x1="43" x2="387" y1="105.8906" y2="105.8906"/><text fill="#000000" font-family="sans-serif" font-size="14" lengthAdjust="spacing" textLength="248" x="50" y="100.5889">User selects option to "Upload data"</text><polygon fill="#000000" points="54,132.1875,44,136.1875,54,140.1875,50,136.1875" style="stroke:#000000;stroke-width:1.0;"/><line style="stroke:#000000;stroke-width:1.0;" x1="48" x2="392" y1="136.1875" y2="136.1875"/><text fill="#000000" font-family="sans-serif" font-size="14" lengthAdjust="spacing" textLength="190" x="60" y="130.8857">System shows data entry UI</text><polygon fill="#000000" points="381,178.7813,391,182.7813,381,186.7813,385,182.7813" style="stroke:#000000;stroke-width:1.0;"/><line style="stroke:#000000;stroke-width:1.0;" x1="43" x2="387" y1="182.7813" y2="182.7813"/><text fill="#000000" font-family="sans-serif" font-size="14" lengthAdjust="spacing" textLength="242" x="50" y="161.1826">User selects the file (csv) to upload</text><text fill="#000000" font-family="sans-serif" font-size="14" lengthAdjust="spacing" textLength="204" x="50" y="177.4795">and clicks "Create New Table"</text><polygon fill="#000000" points="776,209.0781,786,213.0781,776,217.0781,780,213.0781" style="stroke:#000000;stroke-width:1.0;"/><line style="stroke:#000000;stroke-width:1.0;" x1="393" x2="782" y1="213.0781" y2="213.0781"/><text fill="#000000" font-family="sans-serif" font-size="14" lengthAdjust="spacing" textLength="182" x="400" y="207.7764">System transfers file to API</text><line style="stroke:#000000;stroke-width:1.0;" x1="788" x2="830" y1="243.375" y2="243.375"/><line style="stroke:#000000;stroke-width:1.0;" x1="830" x2="830" y1="243.375" y2="256.375"/><line style="stroke:#000000;stroke-width:1.0;" x1="789" x2="830" y1="256.375" y2="256.375"/><polygon fill="#000000" points="799,252.375,789,256.375,799,260.375,795,256.375" style="stroke:#000000;stroke-width:1.0;"/><text fill="#000000" font-family="sans-serif" font-size="14" lengthAdjust="spacing" textLength="333" x="795" y="238.0732">System extracts headers and analyse data types</text><line style="stroke:#000000;stroke-width:1.0;" x1="788" x2="830" y1="286.6719" y2="286.6719"/><line style="stroke:#000000;stroke-width:1.0;" x1="830" x2="830" y1="286.6719" y2="299.6719"/><line style="stroke:#000000;stroke-width:1.0;" x1="789" x2="830" y1="299.6719" y2="299.6719"/><polygon fill="#000000" points="799,295.6719,789,299.6719,799,303.6719,795,299.6719" style="stroke:#000000;stroke-width:1.0;"/><text fill="#000000" font-family="sans-serif" font-size="14" lengthAdjust="spacing" textLength="358" x="795" y="281.3701">System validates table (missing definitions* in BLUE)</text><polygon fill="#000000" points="404,325.9688,394,329.9688,404,333.9688,400,329.9688" style="stroke:#000000;stroke-width:1.0;"/><line style="stroke:#000000;stroke-width:1.0;" x1="398" x2="787" y1="329.9688" y2="329.9688"/><text fill="#000000" font-family="sans-serif" font-size="14" lengthAdjust="spacing" textLength="358" x="410" y="324.667">System transfers extracted headers and definitions*</text><polygon fill="#000000" points="54,356.2656,44,360.2656,54,364.2656,50,360.2656" style="stroke:#000000;stroke-width:1.0;"/><line style="stroke:#000000;stroke-width:1.0;" x1="48" x2="392" y1="360.2656" y2="360.2656"/><text fill="#000000" font-family="sans-serif" font-size="14" lengthAdjust="spacing" textLength="326" x="60" y="354.9639">System shows headers and definitions* to user</text><path d="M48,373.2656 L48,448.2656 L382,448.2656 L382,383.2656 L372,373.2656 L48,373.2656 " fill="#FEFFDD" style="stroke:#181818;stroke-width:0.5;"/><path d="M372,373.2656 L372,383.2656 L382,383.2656 L372,373.2656 " fill="#FEFFDD" style="stroke:#181818;stroke-width:0.5;"/><text fill="#000000" font-family="sans-serif" font-size="14" lengthAdjust="spacing" textLength="274" x="54" y="391.2607">Descriptions will always be missing from</text><text fill="#000000" font-family="sans-serif" font-size="14" lengthAdjust="spacing" textLength="258" x="54" y="407.5576">definitions* initially, since they are not</text><text fill="#000000" font-family="sans-serif" font-size="14" lengthAdjust="spacing" textLength="313" x="54" y="423.8545">in the file (but something that the user needs</text><text fill="#000000" font-family="sans-serif" font-size="14" lengthAdjust="spacing" textLength="113" x="54" y="440.1514">to add manually)</text><polygon fill="#000000" points="381,471.75,391,475.75,381,479.75,385,475.75" style="stroke:#000000;stroke-width:1.0;"/><line style="stroke:#000000;stroke-width:1.0;" x1="43" x2="387" y1="475.75" y2="475.75"/><text fill="#000000" font-family="sans-serif" font-size="14" lengthAdjust="spacing" textLength="278" x="50" y="470.4482">User completes and/or edits definitions*</text><polygon fill="#000000" points="776,502.0469,786,506.0469,776,510.0469,780,506.0469" style="stroke:#000000;stroke-width:1.0;"/><line style="stroke:#000000;stroke-width:1.0;" x1="393" x2="782" y1="506.0469" y2="506.0469"/><text fill="#000000" font-family="sans-serif" font-size="14" lengthAdjust="spacing" textLength="203" x="400" y="500.7451">User clicks "Save and Submit"</text><line style="stroke:#000000;stroke-width:1.0;" x1="788" x2="830" y1="552.6406" y2="552.6406"/><line style="stroke:#000000;stroke-width:1.0;" x1="830" x2="830" y1="552.6406" y2="565.6406"/><line style="stroke:#000000;stroke-width:1.0;" x1="789" x2="830" y1="565.6406" y2="565.6406"/><polygon fill="#000000" points="799,561.6406,789,565.6406,799,569.6406,795,565.6406" style="stroke:#000000;stroke-width:1.0;"/><text fill="#000000" font-family="sans-serif" font-size="14" lengthAdjust="spacing" textLength="153" x="795" y="531.042">System validates table</text><text fill="#000000" font-family="sans-serif" font-size="14" lengthAdjust="spacing" textLength="261" x="795" y="547.3389">(checks for missing fields definitions*)</text><path d="M10,580.6406 L350,580.6406 L350,588.9375 L340,598.9375 L10,598.9375 L10,580.6406 " fill="#EEEEEE" style="stroke:#000000;stroke-width:1.5;"/><rect fill="none" height="199.0781" style="stroke:#000000;stroke-width:1.5;" width="1058" x="10" y="580.6406"/><text fill="#000000" font-family="sans-serif" font-size="14" font-weight="bold" lengthAdjust="spacing" textLength="295" x="25" y="594.6357">Validation error (missing definitions*)</text><polygon fill="#000000" points="404,617.2344,394,621.2344,404,625.2344,400,621.2344" style="stroke:#000000;stroke-width:1.0;"/><line style="stroke:#000000;stroke-width:1.0;stroke-dasharray:2.0,2.0;" x1="398" x2="787" y1="621.2344" y2="621.2344"/><text fill="#000000" font-family="sans-serif" font-size="14" lengthAdjust="spacing" textLength="371" x="410" y="615.9326">System sends back error (missing definitions* in RED)</text><polygon fill="#000000" points="54,647.5313,44,651.5313,54,655.5313,50,651.5313" style="stroke:#000000;stroke-width:1.0;"/><line style="stroke:#000000;stroke-width:1.0;stroke-dasharray:2.0,2.0;" x1="48" x2="392" y1="651.5313" y2="651.5313"/><text fill="#000000" font-family="sans-serif" font-size="14" lengthAdjust="spacing" textLength="326" x="60" y="646.2295">System shows headers and definitions* to user</text><polygon fill="#000000" points="381,677.8281,391,681.8281,381,685.8281,385,681.8281" style="stroke:#000000;stroke-width:1.0;"/><line style="stroke:#000000;stroke-width:1.0;stroke-dasharray:2.0,2.0;" x1="43" x2="387" y1="681.8281" y2="681.8281"/><text fill="#000000" font-family="sans-serif" font-size="14" lengthAdjust="spacing" textLength="319" x="50" y="676.5264">User completes and/or edits definitions* again</text><polygon fill="#000000" points="776,708.125,786,712.125,776,716.125,780,712.125" style="stroke:#000000;stroke-width:1.0;"/><line style="stroke:#000000;stroke-width:1.0;stroke-dasharray:2.0,2.0;" x1="393" x2="782" y1="712.125" y2="712.125"/><text fill="#000000" font-family="sans-serif" font-size="14" lengthAdjust="spacing" textLength="244" x="400" y="706.8232">User clicks "Save and Submit" again</text><line style="stroke:#000000;stroke-width:1.0;stroke-dasharray:2.0,2.0;" x1="788" x2="830" y1="758.7188" y2="758.7188"/><line style="stroke:#000000;stroke-width:1.0;stroke-dasharray:2.0,2.0;" x1="830" x2="830" y1="758.7188" y2="771.7188"/><line style="stroke:#000000;stroke-width:1.0;stroke-dasharray:2.0,2.0;" x1="789" x2="830" y1="771.7188" y2="771.7188"/><polygon fill="#000000" points="799,767.7188,789,771.7188,799,775.7188,795,771.7188" style="stroke:#000000;stroke-width:1.0;"/><text fill="#000000" font-family="sans-serif" font-size="14" lengthAdjust="spacing" textLength="194" x="795" y="737.1201">System validates table again</text><text fill="#000000" font-family="sans-serif" font-size="14" lengthAdjust="spacing" textLength="261" x="795" y="753.417">(checks for missing fields definitions*)</text><path d="M10,793.7188 L399,793.7188 L399,802.0156 L389,812.0156 L10,812.0156 L10,793.7188 " fill="#EEEEEE" style="stroke:#000000;stroke-width:1.5;"/><rect fill="none" height="199.0781" style="stroke:#000000;stroke-width:1.5;" width="1326" x="10" y="793.7188"/><text fill="#000000" font-family="sans-serif" font-size="14" font-weight="bold" lengthAdjust="spacing" textLength="344" x="25" y="807.7139">Validation success (no missing definitions*)</text><polygon fill="#000000" points="1148,830.3125,1158,834.3125,1148,838.3125,1152,834.3125" style="stroke:#000000;stroke-width:1.0;"/><line style="stroke:#000000;stroke-width:1.0;" x1="788" x2="1154" y1="834.3125" y2="834.3125"/><text fill="#000000" font-family="sans-serif" font-size="14" lengthAdjust="spacing" textLength="282" x="795" y="829.0107">System posts table with "Completed" flag</text><line style="stroke:#000000;stroke-width:1.0;" x1="1160" x2="1202" y1="880.9063" y2="880.9063"/><line style="stroke:#000000;stroke-width:1.0;" x1="1202" x2="1202" y1="880.9063" y2="893.9063"/><line style="stroke:#000000;stroke-width:1.0;" x1="1161" x2="1202" y1="893.9063" y2="893.9063"/><polygon fill="#000000" points="1171,889.9063,1161,893.9063,1171,897.9063,1167,893.9063" style="stroke:#000000;stroke-width:1.0;"/><text fill="#000000" font-family="sans-serif" font-size="14" lengthAdjust="spacing" textLength="156" x="1167" y="859.3076">System creates record</text><text fill="#000000" font-family="sans-serif" font-size="14" lengthAdjust="spacing" textLength="157" x="1167" y="875.6045">and logs data changes</text><polygon fill="#000000" points="799,920.2031,789,924.2031,799,928.2031,795,924.2031" style="stroke:#000000;stroke-width:1.0;"/><line style="stroke:#000000;stroke-width:1.0;" x1="793" x2="1159" y1="924.2031" y2="924.2031"/><text fill="#000000" font-family="sans-serif" font-size="14" lengthAdjust="spacing" textLength="209" x="805" y="918.9014">System confirms created table</text><polygon fill="#000000" points="404,950.5,394,954.5,404,958.5,400,954.5" style="stroke:#000000;stroke-width:1.0;"/><line style="stroke:#000000;stroke-width:1.0;" x1="398" x2="787" y1="954.5" y2="954.5"/><text fill="#000000" font-family="sans-serif" font-size="14" lengthAdjust="spacing" textLength="204" x="410" y="949.1982">System retrieves confirmation</text><polygon fill="#000000" points="54,980.7969,44,984.7969,54,988.7969,50,984.7969" style="stroke:#000000;stroke-width:1.0;"/><line style="stroke:#000000;stroke-width:1.0;" x1="48" x2="392" y1="984.7969" y2="984.7969"/><text fill="#000000" font-family="sans-serif" font-size="14" lengthAdjust="spacing" textLength="199" x="60" y="979.4951">System displays confirmation</text><text fill="#888888" font-family="sans-serif" font-size="10" lengthAdjust="spacing" textLength="3" x="671" y="1050.376">&#160;</text><ellipse cx="234.5" cy="1056.875" fill="#888888" rx="2.5" ry="2.5" style="stroke:#888888;stroke-width:0.0;"/><text fill="#888888" font-family="sans-serif" font-size="10" lengthAdjust="spacing" textLength="875" x="241" y="1062.0166">Definitions include a header (variable name), data type, description (sentence describing what's in the variable), NULL/not NULL, and an optional title (reader friendly variable name)</text><text fill="#888888" font-family="sans-serif" font-size="10" lengthAdjust="spacing" textLength="46" x="649.5" y="1073.6572">Example:</text><text fill="#888888" font-family="sans-serif" font-size="10" lengthAdjust="spacing" textLength="85" x="630" y="1085.2979">Header = "adr1",</text><text fill="#888888" font-family="sans-serif" font-size="10" lengthAdjust="spacing" textLength="101" x="622" y="1096.9385">data type = varchar,</text><text fill="#888888" font-family="sans-serif" font-size="10" lengthAdjust="spacing" textLength="257" x="544" y="1108.5791">description = "first address line of patient's address",</text><text fill="#888888" font-family="sans-serif" font-size="10" lengthAdjust="spacing" textLength="149" x="598" y="1120.2197">title (optional): "address line 1"</text><!--SRC=[bLNBZXCv5DtNLzof3GbgYDX66gI1z6YGMe1emYgR6zUjbC5bbsnNGlwUOrTL7f3XqOjMnRwFSyvz-A_OI2iKH2h5GQZshgKcnYui5mlFX-Sx7Pj-smVnojaeDZvNhbrCziywxpwBYkU376_HihP5yOG-lbkzMz9RN59qr7SLHw7Ow50KKKSZz96t-F_Q2qVjBCtUU-dO3pzgvsd5aMdT6SVLl2Xm5RNI7Tj8vHgOIk90_VNvlnv0IMoLB-lhot_Ulyd7tEdhYrUilam-swBewTbBgfUKaa0T0uw1N9TnWKavG2BmuRAeat6_fCTZYD9IQDmXv2kWYFv8wpUtuq4hgZNuprJOpmU5KjYDPLkHCbfz2LHcSGGY7WQrndnWSCeOFTjGYmz3E0G2pm8MtnlALvYcr8rmbUnJ8hPiZgXzHXoFdOHRhdisEfKFi7FDPgqEGTiTLL9hgvCouIbfIwyUrlTpcaBKDq2EAD0Kbp0kuzoMzF-iit8Gjh0EGdczQoAv6dr1-5j9K5xdoWKwQ6E8pO6FgBBGH25rVJR-ZWk-s9ZZ7S5AfSQL8x4NGfvi3hRd6cxxIC6rWlP6oDXmp9S965bCGCWkWCfLHItRFeMU5sYw54-kMmH3rXb9QeFi0eCWbKRPVjGebsXm6VlbaVUI9NhijwsEvMyKSsDdgf7adMRkf8eMKrtdd1Sxx_gEFWt-QHh4U_ZSx8PvPfpJNtL206VeZudxcNTIzyFzQWXIvn1_t139jP-o_wwmnBkqlivfVwtnXSj4zsUpawt_G7JezQFmeLTAGg2PTVGBzL_IzeIbSo5EE0vOxbWmeoHOVhNXNNRRPYSwUQcyX09vKSwF2ygutRZcLCDs9-7iUKaUxqQjVHl66DMG-nBSkJEyHAzbZqIZLwOwbUAo0IeTEfF6-Cem2LKxJ9EdZNswEgk1PbAcho3zs3GqsxFNMGNBhSplpkiFd-UTGJDqAzuzZFzmkaqw7p3TJy8q_rCa17cxVdXOO9ppnzsuNiU7WmqDZzxC3n1gSBMLET8rb8sz_ygf9CkD_M-m_9jAhloBycvZJp1n23z8xzFf1M8OGv4GqwBngKECjf8MOWUHG0R0nviKRuGqGPmlKweBlnTbyGq0]--></g></svg>