<?xml version="1.0" encoding="us-ascii" standalone="no"?><svg xmlns="http://www.w3.org/2000/svg" xmlns:xlink="http://www.w3.org/1999/xlink" contentStyleType="text/css" height="1281px" preserveAspectRatio="none" style="width:1406px;height:1281px;background:#FFFFFF;" version="1.1" viewBox="0 0 1406 1281" width="1406px" zoomAndPan="magnify"><defs/><g><text fill="#000000" font-family="sans-serif" font-size="14" font-weight="bold" lengthAdjust="spacing" textLength="298" x="552.5" y="32.9951">User Flow: Column Metadata Creation</text><rect fill="#F1F1F1" height="36.2969" rx="12.5" ry="12.5" style="stroke:#181818;stroke-width:0.5;" width="32" x="691.5" y="48.2969"/><text fill="#000000" font-family="sans-serif" font-size="14" lengthAdjust="spacing" textLength="12" x="701.5" y="71.292">...</text><polygon fill="#F1F1F1" points="562.5,104.5938,852.5,104.5938,864.5,116.5938,852.5,128.5938,562.5,128.5938,550.5,116.5938,562.5,104.5938" style="stroke:#181818;stroke-width:0.5;"/><text fill="#000000" font-family="sans-serif" font-size="14" lengthAdjust="spacing" textLength="290" x="562.5" y="121.4404">System shows create Column Metadata UI</text><rect fill="#555555" height="6" rx="2.5" ry="2.5" style="stroke:#555555;stroke-width:1.0;" width="793" x="11" y="187.4844"/><rect fill="#F1F1F1" height="68.8906" rx="12.5" ry="12.5" style="stroke:#181818;stroke-width:0.5;" width="196" x="127" y="246.0781"/><text fill="#000000" font-family="sans-serif" font-size="14" lengthAdjust="spacing" textLength="86" x="137" y="269.0732">User selects</text><text fill="#000000" font-family="sans-serif" font-size="14" lengthAdjust="spacing" textLength="176" x="137" y="285.3701">"Create Column Metadata</text><text fill="#000000" font-family="sans-serif" font-size="14" lengthAdjust="spacing" textLength="99" x="137" y="301.667">from Data File"</text><rect fill="#F1F1F1" height="52.5938" rx="12.5" ry="12.5" style="stroke:#181818;stroke-width:0.5;" width="137" x="156.5" y="349.9688"/><text fill="#000000" font-family="sans-serif" font-size="14" lengthAdjust="spacing" textLength="117" x="166.5" y="372.9639">System shows UI</text><text fill="#000000" font-family="sans-serif" font-size="14" lengthAdjust="spacing" textLength="102" x="166.5" y="389.2607">with file upload</text><rect fill="#F1F1F1" height="52.5938" rx="12.5" ry="12.5" style="stroke:#181818;stroke-width:0.5;" width="223" x="113.5" y="437.5625"/><text fill="#000000" font-family="sans-serif" font-size="14" lengthAdjust="spacing" textLength="139" x="123.5" y="460.5576">User selects file and</text><text fill="#000000" font-family="sans-serif" font-size="14" lengthAdjust="spacing" textLength="203" x="123.5" y="476.8545">clicks "Extract Data Structure"</text><rect fill="#F1F1F1" height="52.5938" rx="12.5" ry="12.5" style="stroke:#181818;stroke-width:0.5;" width="206" x="122" y="513.6563"/><text fill="#000000" font-family="sans-serif" font-size="14" lengthAdjust="spacing" textLength="145" x="132" y="536.6514">System loads file and</text><text fill="#000000" font-family="sans-serif" font-size="14" lengthAdjust="spacing" textLength="186" x="132" y="552.9482">extracts column metadata*</text><rect fill="#F1F1F1" height="68.8906" rx="12.5" ry="12.5" style="stroke:#181818;stroke-width:0.5;" width="225" x="112.5" y="675.1406"/><text fill="#000000" font-family="sans-serif" font-size="14" lengthAdjust="spacing" textLength="205" x="122.5" y="698.1357">System shows error message</text><text fill="#000000" font-family="sans-serif" font-size="14" lengthAdjust="spacing" textLength="170" x="122.5" y="714.4326">informing the user of the</text><text fill="#000000" font-family="sans-serif" font-size="14" lengthAdjust="spacing" textLength="137" x="122.5" y="730.7295">supported file types</text><rect fill="#F1F1F1" height="36.2969" rx="12.5" ry="12.5" style="stroke:#181818;stroke-width:0.5;" width="231" x="109.5" y="764.0313"/><text fill="#000000" font-family="sans-serif" font-size="14" lengthAdjust="spacing" textLength="211" x="119.5" y="787.0264">User selects new file to upload</text><polygon fill="#F1F1F1" points="61,589.75,389,589.75,401,614.1953,389,638.6406,61,638.6406,49,614.1953,61,589.75" style="stroke:#181818;stroke-width:0.5;"/><text fill="#000000" font-family="sans-serif" font-size="14" lengthAdjust="spacing" textLength="19" x="229" y="651.6357">No</text><text fill="#000000" font-family="sans-serif" font-size="14" lengthAdjust="spacing" textLength="4" x="61" y="602.7451">&#160;</text><text fill="#000000" font-family="sans-serif" font-size="14" lengthAdjust="spacing" textLength="328" x="61" y="619.042">VALIDATION CHECK: Is file a supported file type?</text><text fill="#000000" font-family="sans-serif" font-size="14" lengthAdjust="spacing" textLength="4" x="61" y="635.3389">&#160;</text><text fill="#000000" font-family="sans-serif" font-size="14" lengthAdjust="spacing" textLength="26" x="23" y="610.8936">Yes</text><rect fill="#F1F1F1" height="52.5938" rx="12.5" ry="12.5" style="stroke:#181818;stroke-width:0.5;" width="286" x="441" y="434.0625"/><text fill="#000000" font-family="sans-serif" font-size="14" lengthAdjust="spacing" textLength="266" x="451" y="457.0576">User selects "Create Column Metadata</text><text fill="#000000" font-family="sans-serif" font-size="14" lengthAdjust="spacing" textLength="163" x="451" y="473.3545">from File with Metadata"</text><rect fill="#F1F1F1" height="52.5938" rx="12.5" ry="12.5" style="stroke:#181818;stroke-width:0.5;" width="169" x="499.5" y="510.1563"/><text fill="#000000" font-family="sans-serif" font-size="14" lengthAdjust="spacing" textLength="149" x="509.5" y="533.1514">System shows UI with</text><text fill="#000000" font-family="sans-serif" font-size="14" lengthAdjust="spacing" textLength="70" x="509.5" y="549.4482">file upload</text><rect fill="#F1F1F1" height="68.8906" rx="12.5" ry="12.5" style="stroke:#181818;stroke-width:0.5;" width="181" x="493.5" y="586.25"/><text fill="#000000" font-family="sans-serif" font-size="14" lengthAdjust="spacing" textLength="141" x="503.5" y="609.2451">User selects file with</text><text fill="#000000" font-family="sans-serif" font-size="14" lengthAdjust="spacing" textLength="137" x="503.5" y="625.542">metadata and clicks</text><text fill="#000000" font-family="sans-serif" font-size="14" lengthAdjust="spacing" textLength="161" x="503.5" y="641.8389">"Extract Data Structure"</text><rect fill="#555555" height="6" rx="2.5" ry="2.5" style="stroke:#555555;stroke-width:1.0;" width="793" x="11" y="842.3281"/><rect fill="#F1F1F1" height="36.2969" rx="12.5" ry="12.5" style="stroke:#181818;stroke-width:0.5;" width="312" x="251.5" y="868.3281"/><text fill="#000000" font-family="sans-serif" font-size="14" lengthAdjust="spacing" textLength="292" x="261.5" y="891.3232">System extracts column metadata from file</text><rect fill="#F1F1F1" height="68.8906" rx="12.5" ry="12.5" style="stroke:#181818;stroke-width:0.5;" width="268" x="273.5" y="924.625"/><text fill="#000000" font-family="sans-serif" font-size="14" lengthAdjust="spacing" textLength="248" x="283.5" y="947.6201">System takes original column name,</text><text fill="#000000" font-family="sans-serif" font-size="14" lengthAdjust="spacing" textLength="245" x="283.5" y="963.917">converts it to snake case, and adds</text><text fill="#000000" font-family="sans-serif" font-size="14" lengthAdjust="spacing" textLength="170" x="283.5" y="980.2139">this as the column name</text><rect fill="#F1F1F1" height="68.8906" rx="12.5" ry="12.5" style="stroke:#181818;stroke-width:0.5;" width="155" x="834.5" y="203.7813"/><text fill="#000000" font-family="sans-serif" font-size="14" lengthAdjust="spacing" textLength="86" x="844.5" y="226.7764">User selects</text><text fill="#000000" font-family="sans-serif" font-size="14" lengthAdjust="spacing" textLength="127" x="844.5" y="243.0732">"Create New Table</text><text fill="#000000" font-family="sans-serif" font-size="14" lengthAdjust="spacing" textLength="135" x="844.5" y="259.3701">from Existing Table"</text><rect fill="#F1F1F1" height="52.5938" rx="12.5" ry="12.5" style="stroke:#181818;stroke-width:0.5;" width="160" x="832" y="307.6719"/><text fill="#000000" font-family="sans-serif" font-size="14" lengthAdjust="spacing" textLength="140" x="842" y="330.667">System shows list of</text><text fill="#000000" font-family="sans-serif" font-size="14" lengthAdjust="spacing" textLength="99" x="842" y="346.9639">existing tables</text><rect fill="#F1F1F1" height="52.5938" rx="12.5" ry="12.5" style="stroke:#181818;stroke-width:0.5;" width="176" x="824" y="395.2656"/><text fill="#000000" font-family="sans-serif" font-size="14" lengthAdjust="spacing" textLength="141" x="834" y="418.2607">User inspects tables</text><text fill="#000000" font-family="sans-serif" font-size="14" lengthAdjust="spacing" textLength="156" x="834" y="434.5576">and selects base table</text><rect fill="#F1F1F1" height="52.5938" rx="12.5" ry="12.5" style="stroke:#181818;stroke-width:0.5;" width="181" x="1152.5" y="187.4844"/><text fill="#000000" font-family="sans-serif" font-size="14" lengthAdjust="spacing" textLength="86" x="1162.5" y="210.4795">User selects</text><text fill="#000000" font-family="sans-serif" font-size="14" lengthAdjust="spacing" textLength="161" x="1162.5" y="226.7764">"Create Table Manually"</text><rect fill="#F1F1F1" height="52.5938" rx="12.5" ry="12.5" style="stroke:#181818;stroke-width:0.5;" width="230" x="1128" y="275.0781"/><text fill="#000000" font-family="sans-serif" font-size="14" lengthAdjust="spacing" textLength="164" x="1138" y="298.0732">System shows UI where</text><text fill="#000000" font-family="sans-serif" font-size="14" lengthAdjust="spacing" textLength="210" x="1138" y="314.3701">user can create table manually</text><rect fill="#F1F1F1" height="36.2969" rx="12.5" ry="12.5" style="stroke:#181818;stroke-width:0.5;" width="197" x="1144.5" y="362.6719"/><text fill="#000000" font-family="sans-serif" font-size="14" lengthAdjust="spacing" textLength="177" x="1154.5" y="385.667">User adds table metadata</text><rect fill="#F1F1F1" height="36.2969" rx="12.5" ry="12.5" style="stroke:#181818;stroke-width:0.5;" width="156" x="1165" y="433.9688"/><text fill="#000000" font-family="sans-serif" font-size="14" lengthAdjust="spacing" textLength="136" x="1175" y="456.9639">User clicks "Submit"</text><polygon fill="#F1F1F1" points="707.5,1003.5156,707.5,1003.5156,719.5,1015.5156,707.5,1027.5156,707.5,1027.5156,695.5,1015.5156,707.5,1003.5156" style="stroke:#181818;stroke-width:0.5;"/><rect fill="#F1F1F1" height="150.375" rx="12.5" ry="12.5" style="stroke:#181818;stroke-width:0.5;" width="248" x="583.5" y="1047.5156"/><text fill="#000000" font-family="sans-serif" font-size="14" lengthAdjust="spacing" textLength="228" x="593.5" y="1070.5107">System shows UI where user can</text><text fill="#000000" font-family="sans-serif" font-size="14" lengthAdjust="spacing" textLength="193" x="593.5" y="1086.8076">add/edit the following fields:</text><text fill="#000000" font-family="sans-serif" font-size="14" lengthAdjust="spacing" textLength="170" x="593.5" y="1103.1045">- Column name (textbox)</text><text fill="#000000" font-family="sans-serif" font-size="14" lengthAdjust="spacing" textLength="166" x="593.5" y="1119.4014">- Title (textbox, optional)</text><text fill="#000000" font-family="sans-serif" font-size="14" lengthAdjust="spacing" textLength="159" x="593.5" y="1135.6982">- Data type (dropdown)</text><text fill="#000000" font-family="sans-serif" font-size="14" lengthAdjust="spacing" textLength="192" x="593.5" y="1151.9951">- Short description (textbox)</text><text fill="#000000" font-family="sans-serif" font-size="14" lengthAdjust="spacing" textLength="171" x="593.5" y="1168.292">- Allow missing (boolean)</text><text fill="#000000" font-family="sans-serif" font-size="14" lengthAdjust="spacing" textLength="193" x="593.5" y="1184.5889">- Allow duplication (boolean)</text><rect fill="#F1F1F1" height="52.5938" rx="12.5" ry="12.5" style="stroke:#181818;stroke-width:0.5;" width="206" x="604.5" y="1217.8906"/><text fill="#000000" font-family="sans-serif" font-size="14" lengthAdjust="spacing" textLength="186" x="614.5" y="1240.8857">User completes/edits table</text><text fill="#000000" font-family="sans-serif" font-size="14" lengthAdjust="spacing" textLength="130" x="614.5" y="1257.1826">and clicks "Submit"</text><line style="stroke:#000000;stroke-width:1.0;" x1="225" x2="225" y1="314.9688" y2="349.9688"/><polygon fill="#000000" points="221,339.9688,225,349.9688,229,339.9688,225,343.9688" style="stroke:#000000;stroke-width:1.0;"/><line style="stroke:#000000;stroke-width:1.0;" x1="225" x2="225" y1="402.5625" y2="437.5625"/><polygon fill="#000000" points="221,427.5625,225,437.5625,229,427.5625,225,431.5625" style="stroke:#000000;stroke-width:1.0;"/><line style="stroke:#000000;stroke-width:1.0;" x1="225" x2="225" y1="490.1563" y2="513.6563"/><polygon fill="#000000" points="221,503.6563,225,513.6563,229,503.6563,225,507.6563" style="stroke:#000000;stroke-width:1.0;"/><line style="stroke:#000000;stroke-width:1.0;" x1="225" x2="225" y1="744.0313" y2="764.0313"/><polygon fill="#000000" points="221,754.0313,225,764.0313,229,754.0313,225,758.0313" style="stroke:#000000;stroke-width:1.0;"/><line style="stroke:#000000;stroke-width:1.0;" x1="225" x2="225" y1="638.6406" y2="675.1406"/><polygon fill="#000000" points="221,665.1406,225,675.1406,229,665.1406,225,669.1406" style="stroke:#000000;stroke-width:1.0;"/><line style="stroke:#000000;stroke-width:1.0;" x1="225" x2="225" y1="800.3281" y2="810.3281"/><line style="stroke:#000000;stroke-width:1.0;" x1="225" x2="413" y1="810.3281" y2="810.3281"/><polygon fill="#000000" points="409,728.8633,413,718.8633,417,728.8633,413,724.8633" style="stroke:#000000;stroke-width:1.0;"/><line style="stroke:#000000;stroke-width:1.0;" x1="413" x2="413" y1="614.1953" y2="810.3281"/><line style="stroke:#000000;stroke-width:1.0;" x1="413" x2="401" y1="614.1953" y2="614.1953"/><polygon fill="#000000" points="411,610.1953,401,614.1953,411,618.1953,407,614.1953" style="stroke:#000000;stroke-width:1.0;"/><line style="stroke:#000000;stroke-width:1.0;" x1="49" x2="37" y1="614.1953" y2="614.1953"/><polygon fill="#000000" points="33,714.8633,37,724.8633,41,714.8633,37,718.8633" style="stroke:#000000;stroke-width:1.0;"/><line style="stroke:#000000;stroke-width:1.0;" x1="37" x2="37" y1="614.1953" y2="822.3281"/><line style="stroke:#000000;stroke-width:1.0;" x1="37" x2="225" y1="822.3281" y2="822.3281"/><line style="stroke:#000000;stroke-width:1.0;" x1="225" x2="225" y1="822.3281" y2="842.3281"/><polygon fill="#000000" points="221,832.3281,225,842.3281,229,832.3281,225,836.3281" style="stroke:#000000;stroke-width:1.0;"/><line style="stroke:#000000;stroke-width:1.0;" x1="225" x2="225" y1="566.25" y2="589.75"/><polygon fill="#000000" points="221,579.75,225,589.75,229,579.75,225,583.75" style="stroke:#000000;stroke-width:1.0;"/><line style="stroke:#000000;stroke-width:1.0;" x1="584" x2="584" y1="486.6563" y2="510.1563"/><polygon fill="#000000" points="580,500.1563,584,510.1563,588,500.1563,584,504.1563" style="stroke:#000000;stroke-width:1.0;"/><line style="stroke:#000000;stroke-width:1.0;" x1="584" x2="584" y1="562.75" y2="586.25"/><polygon fill="#000000" points="580,576.25,584,586.25,588,576.25,584,580.25" style="stroke:#000000;stroke-width:1.0;"/><line style="stroke:#000000;stroke-width:1.0;" x1="225" x2="225" y1="193.4844" y2="246.0781"/><polygon fill="#000000" points="221,236.0781,225,246.0781,229,236.0781,225,240.0781" style="stroke:#000000;stroke-width:1.0;"/><text fill="#000000" font-family="sans-serif" font-size="14" lengthAdjust="spacing" textLength="171" x="229" y="216.4795">Create Column Metadata</text><text fill="#000000" font-family="sans-serif" font-size="14" lengthAdjust="spacing" textLength="90" x="229" y="232.7764">from File with</text><text fill="#000000" font-family="sans-serif" font-size="14" font-weight="bold" lengthAdjust="spacing" textLength="35" x="323" y="232.7764">Data</text><line style="stroke:#000000;stroke-width:1.0;" x1="584" x2="584" y1="193.4844" y2="434.0625"/><polygon fill="#000000" points="580,424.0625,584,434.0625,588,424.0625,584,428.0625" style="stroke:#000000;stroke-width:1.0;"/><text fill="#000000" font-family="sans-serif" font-size="14" lengthAdjust="spacing" textLength="206" x="588" y="310.4717">Create Column Metadata from</text><text fill="#000000" font-family="sans-serif" font-size="14" lengthAdjust="spacing" textLength="55" x="588" y="326.7686">File with</text><text fill="#000000" font-family="sans-serif" font-size="14" font-weight="bold" lengthAdjust="spacing" textLength="136" x="647" y="326.7686">Column Metadata</text><line style="stroke:#000000;stroke-width:1.0;" x1="584" x2="584" y1="655.1406" y2="842.3281"/><polygon fill="#000000" points="580,832.3281,584,842.3281,588,832.3281,584,836.3281" style="stroke:#000000;stroke-width:1.0;"/><line style="stroke:#000000;stroke-width:1.0;" x1="407.5" x2="407.5" y1="848.3281" y2="868.3281"/><polygon fill="#000000" points="403.5,858.3281,407.5,868.3281,411.5,858.3281,407.5,862.3281" style="stroke:#000000;stroke-width:1.0;"/><line style="stroke:#000000;stroke-width:1.0;" x1="407.5" x2="407.5" y1="904.625" y2="924.625"/><polygon fill="#000000" points="403.5,914.625,407.5,924.625,411.5,914.625,407.5,918.625" style="stroke:#000000;stroke-width:1.0;"/><line style="stroke:#000000;stroke-width:1.0;" x1="912" x2="912" y1="272.6719" y2="307.6719"/><polygon fill="#000000" points="908,297.6719,912,307.6719,916,297.6719,912,301.6719" style="stroke:#000000;stroke-width:1.0;"/><line style="stroke:#000000;stroke-width:1.0;" x1="912" x2="912" y1="360.2656" y2="395.2656"/><polygon fill="#000000" points="908,385.2656,912,395.2656,916,385.2656,912,389.2656" style="stroke:#000000;stroke-width:1.0;"/><line style="stroke:#000000;stroke-width:1.0;" x1="1243" x2="1243" y1="240.0781" y2="275.0781"/><polygon fill="#000000" points="1239,265.0781,1243,275.0781,1247,265.0781,1243,269.0781" style="stroke:#000000;stroke-width:1.0;"/><line style="stroke:#000000;stroke-width:1.0;" x1="1243" x2="1243" y1="327.6719" y2="362.6719"/><polygon fill="#000000" points="1239,352.6719,1243,362.6719,1247,352.6719,1243,356.6719" style="stroke:#000000;stroke-width:1.0;"/><line style="stroke:#000000;stroke-width:1.0;" x1="1243" x2="1243" y1="398.9688" y2="433.9688"/><polygon fill="#000000" points="1239,423.9688,1243,433.9688,1247,423.9688,1243,427.9688" style="stroke:#000000;stroke-width:1.0;"/><line style="stroke:#000000;stroke-width:1.0;" x1="550.5" x2="407.5" y1="116.5938" y2="116.5938"/><line style="stroke:#000000;stroke-width:1.0;" x1="407.5" x2="407.5" y1="116.5938" y2="187.4844"/><polygon fill="#000000" points="403.5,177.4844,407.5,187.4844,411.5,177.4844,407.5,181.4844" style="stroke:#000000;stroke-width:1.0;"/><text fill="#000000" font-family="sans-serif" font-size="14" lengthAdjust="spacing" textLength="233" x="407.5" y="156.8857">Create Column Metadata from File</text><line style="stroke:#000000;stroke-width:1.0;" x1="864.5" x2="1243" y1="116.5938" y2="116.5938"/><line style="stroke:#000000;stroke-width:1.0;" x1="1243" x2="1243" y1="116.5938" y2="187.4844"/><polygon fill="#000000" points="1239,177.4844,1243,187.4844,1247,177.4844,1243,181.4844" style="stroke:#000000;stroke-width:1.0;"/><text fill="#000000" font-family="sans-serif" font-size="14" lengthAdjust="spacing" textLength="151" x="1243" y="156.8857">Create Table Manually</text><line style="stroke:#000000;stroke-width:1.0;" x1="912" x2="912" y1="116.5938" y2="203.7813"/><polygon fill="#000000" points="908,193.7813,912,203.7813,916,193.7813,912,197.7813" style="stroke:#000000;stroke-width:1.0;"/><text fill="#000000" font-family="sans-serif" font-size="14" lengthAdjust="spacing" textLength="206" x="912" y="151.8857">Create Column Metadata from</text><text fill="#000000" font-family="sans-serif" font-size="14" lengthAdjust="spacing" textLength="95" x="912" y="168.1826">Existing Table</text><line style="stroke:#000000;stroke-width:1.0;" x1="407.5" x2="407.5" y1="993.5156" y2="1015.5156"/><line style="stroke:#000000;stroke-width:1.0;" x1="407.5" x2="695.5" y1="1015.5156" y2="1015.5156"/><polygon fill="#000000" points="685.5,1011.5156,695.5,1015.5156,685.5,1019.5156,689.5,1015.5156" style="stroke:#000000;stroke-width:1.0;"/><line style="stroke:#000000;stroke-width:1.0;" x1="1243" x2="1243" y1="470.2656" y2="1015.5156"/><line style="stroke:#000000;stroke-width:1.0;" x1="1243" x2="719.5" y1="1015.5156" y2="1015.5156"/><polygon fill="#000000" points="729.5,1011.5156,719.5,1015.5156,729.5,1019.5156,725.5,1015.5156" style="stroke:#000000;stroke-width:1.0;"/><line style="stroke:#000000;stroke-width:1.0;" x1="912" x2="912" y1="447.8594" y2="1015.5156"/><polygon fill="#000000" points="908,1005.5156,912,1015.5156,916,1005.5156,912,1009.5156" style="stroke:#000000;stroke-width:1.0;"/><line style="stroke:#000000;stroke-width:1.0;" x1="707.5" x2="707.5" y1="84.5938" y2="104.5938"/><polygon fill="#000000" points="703.5,94.5938,707.5,104.5938,711.5,94.5938,707.5,98.5938" style="stroke:#000000;stroke-width:1.0;"/><line style="stroke:#000000;stroke-width:1.0;" x1="707.5" x2="707.5" y1="1027.5156" y2="1047.5156"/><polygon fill="#000000" points="703.5,1037.5156,707.5,1047.5156,711.5,1037.5156,707.5,1041.5156" style="stroke:#000000;stroke-width:1.0;"/><line style="stroke:#000000;stroke-width:1.0;" x1="707.5" x2="707.5" y1="1197.8906" y2="1217.8906"/><polygon fill="#000000" points="703.5,1207.8906,707.5,1217.8906,711.5,1207.8906,707.5,1211.8906" style="stroke:#000000;stroke-width:1.0;"/><!--SRC=[ZLLDRnen4BtpAwQvT441xaHg5P54HMtI0qcbIbpCUfPruxLNzcn9_drjhmriM2Wto_FcpTSR-nELM25OH9upYr0ONK59LDlPT6hOTh8HL3RhngB9jI9KDCbrDKtuSMtq7ynfVn7ufXKJQZ0WGHBXnVd2WzJR6SorR2e5ZqYCCs8mDyX8Q0UTJIQJcy7dNDS2UPk5ZpakdD-aRYe9bfWXZmWKLQB88qMq0zYjeBo4RFbk2IkmfTxQ5eL7yLyMG-S144hFvlsWaCo3aDXY2srUmm5W_0NwVLPgvmGkdH96epjtFHhTHCzPQ8f5wNfduzrLFrUq1a9F4bYlTaITCbyMyJe4BNpuffQQyTwuBO0f7esv5FchXQlxDp8ifpRQaaoJKsEEGthU8mviVLt7ktEAbMzB3yzMwjVjZyNTxVFYvnFClztFlyzWaRZ0DdMj3NaT-0jwh_7hIWr1MCYUzB2tSZH66nVDMhR1Y13ApQeIQWDEb45Ee8jmZe2UGBQ_Kmgt4QCx7KN5Kqs_qUu50cpZD-0_CWb3NQb3cNn0d53C9LhPioRhIT44MFAzI3G73hjDT2984agAFgiatxk3PKf9dL9GMvMF_h4COgzeGHkn4Oh9vATOXTT9sLhzHUCu1Va9MkKymj9VXwmPvsa9gNGgOpQev83evh9dOgNktuGbBxbdjaulnlbrVtBI2k33uNLfJWnEEenJz6xpeWjvbmyw5ihMONgjCTfyxMciQrzRiFRK6hA0HwOQ9kNx9LLrFSuehqIJAWyRcZELNkkG3LIHerkG7ra2n0bq0UanMpRhIj1USkttC3YTp3wD07A1fiYzRfmY2YtTV-IRN0YKtCu2P9oqu9K26Ja5h_NRCDgUmoUORgz1r_wxOZBPmsxufmSoRdJDzLObqx9qhnDmjBaHmUk8_DRd0vMmrYULhRMMoDnJsJ5pjyuYRt_97QHjIEoLhcg9X3PK6liwI0evwkJfFzZrz-mVxkt_0000]--></g></svg>