<?xml version="1.0" encoding="us-ascii" standalone="no"?><svg xmlns="http://www.w3.org/2000/svg" xmlns:xlink="http://www.w3.org/1999/xlink" contentStyleType="text/css" height="2103px" preserveAspectRatio="none" style="width:978px;height:2103px;background:#FFFFFF;" version="1.1" viewBox="0 0 978 2103" width="978px" zoomAndPan="magnify"><defs/><g><!--cluster cps--><g id="cluster_cps"><path d="M19.5,236 L952.5,236 A12.5,12.5 0 0 1 965,248.5 L965,287.9063 L7,287.9063 L7,248.5 A12.5,12.5 0 0 1 19.5,236 " fill="#F2F2F2" style="stroke:#F2F2F2;stroke-width:1.0;"/><rect fill="none" height="1654" rx="12.5" ry="12.5" style="stroke:#000000;stroke-width:0.5;" width="958" x="7" y="236"/><line style="stroke:#000000;stroke-width:0.5;" x1="7" x2="965" y1="287.9063" y2="287.9063"/><line style="stroke:#000000;stroke-width:0.5;" x1="7" x2="965" y1="261.9531" y2="261.9531"/><text fill="#000000" font-family="Fira Code" font-size="18" lengthAdjust="spacing" textLength="240" x="366" y="257.708">create_package_structure()</text><text fill="#000000" font-family="Fira Code" font-size="18" lengthAdjust="spacing" textLength="180" x="12" y="281.1611">- Required arg: path</text></g><text fill="#000000" font-family="Fira Code" font-size="18" lengthAdjust="spacing" textLength="29" x="464.5" y="213.7549">arg</text><ellipse cx="479" cy="236" fill="#F2F2F2" rx="6" ry="6" style="stroke:#000000;stroke-width:1.5;"/><g id="cps.vid"><rect fill="#F2F2F2" height="82.8594" rx="12.5" ry="12.5" style="stroke:#000000;stroke-width:0.5;" width="222" x="368" y="338"/><line style="stroke:#000000;stroke-width:0.5;" x1="368" x2="590" y1="368.9531" y2="368.9531"/><text fill="#000000" font-family="Fira Code" font-size="18" lengthAdjust="spacing" textLength="121" x="418.5" y="359.708">verify_is_dir()</text><text fill="#000000" font-family="Fira Code" font-size="18" lengthAdjust="spacing" textLength="180" x="373" y="390.6611">- Required arg: path</text><text fill="#000000" font-family="Fira Code" font-size="18" lengthAdjust="spacing" textLength="202" x="373" y="411.6143">- Output: path or Error</text></g><g id="cps.gi"><rect fill="#F2F2F2" height="103.8125" rx="12.5" ry="12.5" style="stroke:#000000;stroke-width:0.5;" width="263" x="347.5" y="482"/><line style="stroke:#000000;stroke-width:0.5;" x1="347.5" x2="610.5" y1="512.9531" y2="512.9531"/><text fill="#000000" font-family="Fira Code" font-size="18" lengthAdjust="spacing" textLength="76" x="441" y="503.708">get_ids()</text><text fill="#000000" font-family="Fira Code" font-size="18" lengthAdjust="spacing" textLength="180" x="352.5" y="534.6611">- Required arg: path</text><text fill="#000000" font-family="Fira Code" font-size="18" lengthAdjust="spacing" textLength="243" x="352.5" y="555.6143">- Output: list of existing IDs</text><text fill="#000000" font-family="Fira Code" font-size="18" lengthAdjust="spacing" textLength="223" x="364.5" y="576.5674">(otherwise an empty list)</text></g><g id="cps.cni"><rect fill="#F2F2F2" height="82.8594" rx="12.5" ry="12.5" style="stroke:#000000;stroke-width:0.5;" width="318" x="320" y="647"/><line style="stroke:#000000;stroke-width:0.5;" x1="320" x2="638" y1="677.9531" y2="677.9531"/><text fill="#000000" font-family="Fira Code" font-size="18" lengthAdjust="spacing" textLength="144" x="407" y="668.708">create_next_id()</text><text fill="#000000" font-family="Fira Code" font-size="18" lengthAdjust="spacing" textLength="298" x="325" y="699.6611">- Required arg: list of existing IDs</text><text fill="#000000" font-family="Fira Code" font-size="18" lengthAdjust="spacing" textLength="106" x="325" y="720.6143">- Output: ID</text></g><g id="cps.cip"><rect fill="#F2F2F2" height="82.8594" rx="12.5" ry="12.5" style="stroke:#000000;stroke-width:0.5;" width="465" x="246.5" y="791"/><line style="stroke:#000000;stroke-width:0.5;" x1="246.5" x2="711.5" y1="821.9531" y2="821.9531"/><text fill="#000000" font-family="Fira Code" font-size="18" lengthAdjust="spacing" textLength="143" x="407.5" y="812.708">create_id_path()</text><text fill="#000000" font-family="Fira Code" font-size="18" lengthAdjust="spacing" textLength="445" x="251.5" y="843.6611">- Required arg: path and ID to assign for directory</text><text fill="#000000" font-family="Fira Code" font-size="18" lengthAdjust="spacing" textLength="308" x="251.5" y="864.6143">- Output: path of created directory</text></g><g id="cps.cd"><rect fill="#F2F2F2" height="103.8125" rx="12.5" ry="12.5" style="stroke:#000000;stroke-width:0.5;" width="280" x="339" y="935"/><line style="stroke:#000000;stroke-width:0.5;" x1="339" x2="619" y1="965.9531" y2="965.9531"/><text fill="#000000" font-family="Fira Code" font-size="18" lengthAdjust="spacing" textLength="111" x="423.5" y="956.708">create_dirs()</text><text fill="#000000" font-family="Fira Code" font-size="18" lengthAdjust="spacing" textLength="260" x="344" y="987.6611">- Required arg: A list of paths</text><text fill="#000000" font-family="Fira Code" font-size="18" lengthAdjust="spacing" textLength="205" x="344" y="1008.6143">- Output: A list of paths</text><text fill="#000000" font-family="Fira Code" font-size="18" lengthAdjust="spacing" textLength="190" x="356" y="1029.5674">of created directories</text></g><g id="cps.cppt"><rect fill="#F2F2F2" height="124.7656" rx="12.5" ry="12.5" style="stroke:#000000;stroke-width:0.5;" width="338" x="310" y="1100"/><line style="stroke:#000000;stroke-width:0.5;" x1="310" x2="648" y1="1130.9531" y2="1130.9531"/><text fill="#000000" font-family="Fira Code" font-size="18" lengthAdjust="spacing" textLength="251" x="353.5" y="1121.708">create_package_properties()</text><text fill="#000000" font-family="Fira Code" font-size="18" lengthAdjust="spacing" textLength="180" x="315" y="1152.6611">- Required arg: path</text><text fill="#000000" font-family="Fira Code" font-size="18" lengthAdjust="spacing" textLength="191" x="315" y="1173.6143">- Output: JSON object</text><text fill="#000000" font-family="Fira Code" font-size="18" lengthAdjust="spacing" textLength="318" x="315" y="1194.5674">- Uses create_properties_template()</text><text fill="#000000" font-family="Fira Code" font-size="18" lengthAdjust="spacing" textLength="84" x="327" y="1215.5205">internally</text></g><g id="cps.crt"><rect fill="#F2F2F2" height="82.8594" rx="12.5" ry="12.5" style="stroke:#000000;stroke-width:0.5;" width="266" x="285" y="1286"/><line style="stroke:#000000;stroke-width:0.5;" x1="285" x2="551" y1="1316.9531" y2="1316.9531"/><text fill="#000000" font-family="Fira Code" font-size="18" lengthAdjust="spacing" textLength="192" x="322" y="1307.708">create_readme_text()</text><text fill="#000000" font-family="Fira Code" font-size="18" lengthAdjust="spacing" textLength="246" x="290" y="1338.6611">- Required arg: JSON object</text><text fill="#000000" font-family="Fira Code" font-size="18" lengthAdjust="spacing" textLength="136" x="290" y="1359.6143">- Output: string</text></g><g id="cps.crp"><rect fill="#F2F2F2" height="82.8594" rx="12.5" ry="12.5" style="stroke:#000000;stroke-width:0.5;" width="252" x="23" y="1121"/><line style="stroke:#000000;stroke-width:0.5;" x1="23" x2="275" y1="1151.9531" y2="1151.9531"/><text fill="#000000" font-family="Fira Code" font-size="18" lengthAdjust="spacing" textLength="195" x="51.5" y="1142.708">create_readme_path()</text><text fill="#000000" font-family="Fira Code" font-size="18" lengthAdjust="spacing" textLength="180" x="28" y="1173.6611">- Required arg: path</text><text fill="#000000" font-family="Fira Code" font-size="18" lengthAdjust="spacing" textLength="232" x="28" y="1194.6143">- Output: path to README</text></g><g id="cps.cprop"><rect fill="#F2F2F2" height="82.8594" rx="12.5" ry="12.5" style="stroke:#000000;stroke-width:0.5;" width="266" x="683" y="1121"/><line style="stroke:#000000;stroke-width:0.5;" x1="683" x2="949" y1="1151.9531" y2="1151.9531"/><text fill="#000000" font-family="Fira Code" font-size="18" lengthAdjust="spacing" textLength="218" x="707" y="1142.708">create_properties_path()</text><text fill="#000000" font-family="Fira Code" font-size="18" lengthAdjust="spacing" textLength="180" x="688" y="1173.6611">- Required arg: path</text><text fill="#000000" font-family="Fira Code" font-size="18" lengthAdjust="spacing" textLength="246" x="688" y="1194.6143">- Output: path to properties</text></g><g id="cps.wf"><rect fill="#F2F2F2" height="166.6719" rx="12.5" ry="12.5" style="stroke:#000000;stroke-width:0.5;" width="362" x="322" y="1558"/><line style="stroke:#000000;stroke-width:0.5;" x1="322" x2="684" y1="1588.9531" y2="1588.9531"/><text fill="#000000" font-family="Fira Code" font-size="18" lengthAdjust="spacing" textLength="97" x="454.5" y="1579.708">write_file()</text><text fill="#000000" font-family="Fira Code" font-size="18" lengthAdjust="spacing" textLength="342" x="327" y="1610.6611">- Required args: string (including JSON</text><text fill="#000000" font-family="Fira Code" font-size="18" lengthAdjust="spacing" textLength="180" x="339" y="1631.6143">as a string) and path</text><text fill="#000000" font-family="Fira Code" font-size="18" lengthAdjust="spacing" textLength="254" x="327" y="1652.5674">- Output: path of created file</text><text fill="#000000" font-family="Fira Code" font-size="18" lengthAdjust="spacing" textLength="317" x="327" y="1673.5205">- Only one string and path at a time</text><text fill="#000000" font-family="Fira Code" font-size="18" lengthAdjust="spacing" textLength="320" x="327" y="1694.4736">- Used multiple times for each write</text><text fill="#000000" font-family="Fira Code" font-size="18" lengthAdjust="spacing" textLength="85" x="339" y="1715.4268">operation</text></g><rect fill="#555555" height="8" style="stroke:none;stroke-width:1.0;" width="80" x="378" y="1443"/><rect fill="#555555" height="8" style="stroke:none;stroke-width:1.0;" width="80" x="586" y="1323.5"/><rect fill="#555555" height="8" style="stroke:none;stroke-width:1.0;" width="80" x="463" y="1803"/><text fill="#000000" font-family="Fira Code" font-size="18" lengthAdjust="spacing" textLength="56" x="474.5" y="1912.708">return</text><ellipse cx="502.5" cy="1890" fill="#F2F2F2" rx="6" ry="6" style="stroke:#000000;stroke-width:1.5;"/><line style="stroke:#000000;stroke-width:1.5;" x1="506.8891" x2="499.1109" y1="1894.3891" y2="1886.6109"/><line style="stroke:#000000;stroke-width:1.5;" x1="506.8891" x2="499.1109" y1="1886.6109" y2="1894.3891"/><path d="M307.5,7 L650.5,7 A12.5,12.5 0 0 1 663,19.5 L663,84.8594 L295,84.8594 L295,19.5 A12.5,12.5 0 0 1 307.5,7 " fill="#F2F2F2" style="stroke:#F2F2F2;stroke-width:1.0;"/><rect fill="none" height="161.7656" rx="12.5" ry="12.5" style="stroke:#000000;stroke-width:0.5;" width="368" x="295" y="7"/><line style="stroke:#000000;stroke-width:0.5;" x1="295" x2="663" y1="84.8594" y2="84.8594"/><line style="stroke:#000000;stroke-width:0.5;" x1="295" x2="663" y1="37.9531" y2="37.9531"/><text fill="#000000" font-family="Fira Code" font-size="18" lengthAdjust="spacing" textLength="46" x="456" y="28.708">Input</text><text fill="#000000" font-family="Fira Code" font-size="18" lengthAdjust="spacing" textLength="294" x="300" y="54.6611">- Use `path_*()` functions to help</text><text fill="#000000" font-family="Fira Code" font-size="18" lengthAdjust="spacing" textLength="178" x="300" y="75.6143">create correct paths</text><g id="input.path"><rect fill="#F2F2F2" height="61.9063" rx="12.5" ry="12.5" style="stroke:#000000;stroke-width:0.5;" width="342" x="307" y="96.8594"/><line style="stroke:#000000;stroke-width:0.5;" x1="307" x2="649" y1="127.8125" y2="127.8125"/><text fill="#000000" font-family="Fira Code" font-size="18" lengthAdjust="spacing" textLength="39" x="458.5" y="118.5674">path</text><text fill="#000000" font-family="Fira Code" font-size="18" lengthAdjust="spacing" textLength="322" x="312" y="149.5205">- Path to where packages are stored</text></g><path d="M198.5,1969 L807.5,1969 A12.5,12.5 0 0 1 820,1981.5 L820,2025.9063 L186,2025.9063 L186,1981.5 A12.5,12.5 0 0 1 198.5,1969 " fill="#F2F2F2" style="stroke:#F2F2F2;stroke-width:1.0;"/><rect fill="none" height="128.9063" rx="12.5" ry="12.5" style="stroke:#000000;stroke-width:0.5;" width="634" x="186" y="1969"/><line style="stroke:#000000;stroke-width:0.5;" x1="186" x2="820" y1="2025.9063" y2="2025.9063"/><line style="stroke:#000000;stroke-width:0.5;" x1="186" x2="820" y1="1999.9531" y2="1999.9531"/><text fill="#000000" font-family="Fira Code" font-size="18" lengthAdjust="spacing" textLength="61" x="472.5" y="1990.708">Output</text><text fill="#000000" font-family="Fira Code" font-size="18" lengthAdjust="spacing" textLength="365" x="191" y="2016.6611">- The package parent folder is shown as /</text><g id="output.properties_file"><rect fill="#F2F2F2" height="50" rx="12.5" ry="12.5" style="stroke:#000000;stroke-width:0.5;" width="315" x="198" y="2037.9063"/><line style="stroke:#000000;stroke-width:0.5;" x1="198" x2="513" y1="2068.8594" y2="2068.8594"/><text fill="#000000" font-family="Fira Code" font-size="18" lengthAdjust="spacing" textLength="295" x="208" y="2059.6143">/packages/&lt;id&gt;/datapackage.json</text></g><g id="output.readme"><rect fill="#F2F2F2" height="50" rx="12.5" ry="12.5" style="stroke:#000000;stroke-width:0.5;" width="275" x="531" y="2037.9063"/><line style="stroke:#000000;stroke-width:0.5;" x1="531" x2="806" y1="2068.8594" y2="2068.8594"/><text fill="#000000" font-family="Fira Code" font-size="18" lengthAdjust="spacing" textLength="255" x="541" y="2059.6143">/packages/&lt;id&gt;/README.md</text></g><!--link input to arg--><g id="link_input_arg"><path d="M479,169.26 C479,194.97 479,213.47 479,223.82 " fill="none" id="input-to-arg" style="stroke:#000000;stroke-width:1.0;"/><polygon fill="#000000" points="479,229.82,483,220.82,479,224.82,475,220.82,479,229.82" style="stroke:#000000;stroke-width:1.0;"/></g><!--link arg to vid--><g id="link_arg_vid"><path d="M479,242.04 C479,257.2 479,297.5 479,331.99 " fill="none" id="arg-to-vid" style="stroke:#000000;stroke-width:1.0;"/><polygon fill="#000000" points="479,337.99,483,328.99,479,332.99,475,328.99,479,337.99" style="stroke:#000000;stroke-width:1.0;"/></g><!--link vid to gi--><g id="link_vid_gi"><path d="M479,421.37 C479,439.98 479,456.21 479,475.92 " fill="none" id="vid-to-gi" style="stroke:#000000;stroke-width:1.0;"/><polygon fill="#000000" points="479,481.92,483,472.92,479,476.92,475,472.92,479,481.92" style="stroke:#000000;stroke-width:1.0;"/></g><!--link gi to cni--><g id="link_gi_cni"><path d="M479,586.2 C479,605.93 479,622.18 479,640.79 " fill="none" id="gi-to-cni" style="stroke:#000000;stroke-width:1.0;"/><polygon fill="#000000" points="479,646.79,483,637.79,479,641.79,475,637.79,479,646.79" style="stroke:#000000;stroke-width:1.0;"/></g><!--link cni to cip--><g id="link_cni_cip"><path d="M479,730.19 C479,749.2 479,765.79 479,784.8 " fill="none" id="cni-to-cip" style="stroke:#000000;stroke-width:1.0;"/><polygon fill="#000000" points="479,790.8,483,781.8,479,785.8,475,781.8,479,790.8" style="stroke:#000000;stroke-width:1.0;"/></g><!--link cip to cd--><g id="link_cip_cd"><path d="M479,874.37 C479,892.98 479,909.21 479,928.92 " fill="none" id="cip-to-cd" style="stroke:#000000;stroke-width:1.0;"/><polygon fill="#000000" points="479,934.92,483,925.92,479,929.92,475,925.92,479,934.92" style="stroke:#000000;stroke-width:1.0;"/></g><!--link cd to cppt--><g id="link_cd_cppt"><path d="M479,1039.12 C479,1058.11 479,1073.86 479,1093.7 " fill="none" id="cd-to-cppt" style="stroke:#000000;stroke-width:1.0;"/><polygon fill="#000000" points="479,1099.7,483,1090.7,479,1094.7,475,1090.7,479,1099.7" style="stroke:#000000;stroke-width:1.0;"/></g><!--link cppt to crt--><g id="link_cppt_crt"><path d="M455.94,1225.12 C448.38,1245.32 442.2727,1261.6305 435.4327,1279.9105 " fill="none" id="cppt-to-crt" style="stroke:#000000;stroke-width:1.0;"/><polygon fill="#000000" points="433.33,1285.53,440.2304,1278.5026,435.0822,1280.8471,432.7377,1275.699,433.33,1285.53" style="stroke:#000000;stroke-width:1.0;"/></g><!--link cd to crp--><g id="link_cd_crp"><path d="M381.77,1039.12 C332.15,1065.21 277.9408,1093.7079 231.5108,1118.1179 " fill="none" id="cd-to-crp" style="stroke:#000000;stroke-width:1.0;"/><polygon fill="#000000" points="226.2,1120.91,236.0275,1120.2624,230.6256,1118.5833,232.3048,1113.1814,226.2,1120.91" style="stroke:#000000;stroke-width:1.0;"/></g><!--link cd to cprop--><g id="link_cd_cprop"><path d="M578.29,1039.12 C628.96,1065.21 684.4053,1093.7539 731.8253,1118.1639 " fill="none" id="cd-to-cprop" style="stroke:#000000;stroke-width:1.0;"/><polygon fill="#000000" points="737.16,1120.91,730.9887,1113.2344,732.7144,1118.6216,727.3272,1120.3473,737.16,1120.91" style="stroke:#000000;stroke-width:1.0;"/></g><!--link cppt to prop_input--><g id="link_cppt_prop_input"><path d="M534.57,1225.12 C570.35,1264.79 608.1412,1306.6948 619.1912,1318.9448 " fill="none" id="cppt-to-prop_input" style="stroke:#000000;stroke-width:1.0;"/><polygon fill="#000000" points="623.21,1323.4,620.1519,1314.0379,619.861,1319.6873,614.2116,1319.3963,623.21,1323.4" style="stroke:#000000;stroke-width:1.0;"/></g><!--link crt to readme_input--><g id="link_crt_readme_input"><path d="M418,1369.27 C418,1397.64 418,1426.2 418,1436.77 " fill="none" id="crt-to-readme_input" style="stroke:#000000;stroke-width:1.0;"/><polygon fill="#000000" points="418,1442.77,422,1433.77,418,1437.77,414,1433.77,418,1442.77" style="stroke:#000000;stroke-width:1.0;"/></g><!--link cprop to prop_input--><g id="link_cprop_prop_input"><path d="M768.55,1204.21 C719.3,1246.46 651.6531,1304.4924 634.3731,1319.3224 " fill="none" id="cprop-to-prop_input" style="stroke:#000000;stroke-width:1.0;"/><polygon fill="#000000" points="629.82,1323.23,639.2547,1320.4041,633.6143,1319.9737,634.0446,1314.3332,629.82,1323.23" style="stroke:#000000;stroke-width:1.0;"/></g><!--link crp to readme_input--><g id="link_crp_readme_input"><path d="M164.39,1204.36 C183.09,1249.44 218.4,1321.85 268,1369 C311.49,1410.34 375.7895,1433.0719 401.9595,1441.1919 " fill="none" id="crp-to-readme_input" style="stroke:#000000;stroke-width:1.0;"/><polygon fill="#000000" points="407.69,1442.97,400.2796,1436.4826,402.9146,1441.4883,397.9089,1444.1233,407.69,1442.97" style="stroke:#000000;stroke-width:1.0;"/></g><!--link prop_input to wf--><g id="link_prop_input_wf"><path d="M624.93,1331.57 C618.48,1350.1 583.89,1448.85 552,1528 C548.1,1537.68 546.2468,1542.258 541.9968,1552.258 " fill="none" id="prop_input-to-wf" style="stroke:#000000;stroke-width:1.0;"/><polygon fill="#000000" points="539.65,1557.78,546.8516,1551.0616,541.6057,1553.1783,539.4889,1547.9325,539.65,1557.78" style="stroke:#000000;stroke-width:1.0;"/><text fill="#000000" font-family="sans-serif" font-size="14" lengthAdjust="spacing" textLength="90" x="592" y="1443.9951">input to write</text><text fill="#000000" font-family="sans-serif" font-size="14" lengthAdjust="spacing" textLength="94" x="590" y="1460.292">properties file</text></g><!--link readme_input to wf--><g id="link_readme_input_wf"><path d="M419.34,1451.02 C424.86,1463.53 444.1363,1507.2013 464.0563,1552.3113 " fill="none" id="readme_input-to-wf" style="stroke:#000000;stroke-width:1.0;"/><polygon fill="#000000" points="466.48,1557.8,466.5035,1547.9512,464.4602,1553.2261,459.1853,1551.1828,466.48,1557.8" style="stroke:#000000;stroke-width:1.0;"/><text fill="#000000" font-family="sans-serif" font-size="14" lengthAdjust="spacing" textLength="90" x="453" y="1507.9951">input to write</text><text fill="#000000" font-family="sans-serif" font-size="14" lengthAdjust="spacing" textLength="76" x="460" y="1524.292">readme file</text></g><!--link wf to as_list--><g id="link_wf_as_list"><path d="M503,1725.21 C503,1759.11 503,1786.79 503,1796.93 " fill="none" id="wf-to-as_list" style="stroke:#000000;stroke-width:1.0;"/><polygon fill="#000000" points="503,1802.93,507,1793.93,503,1797.93,499,1793.93,503,1802.93" style="stroke:#000000;stroke-width:1.0;"/><text fill="#000000" font-family="sans-serif" font-size="14" lengthAdjust="spacing" textLength="95" x="504" y="1768.9951">Convert to list</text></g><!--link as_list to return--><g id="link_as_list_return"><path d="M503,1811.08 C503,1823.33 503,1862.73 503,1877.97 " fill="none" id="as_list-to-return" style="stroke:#000000;stroke-width:1.0;"/><polygon fill="#000000" points="503,1883.97,507,1874.97,503,1878.97,499,1874.97,503,1883.97" style="stroke:#000000;stroke-width:1.0;"/></g><!--link return to output--><g id="link_return_output"><path d="M503,1896.04 C503,1908 503,1933.35 503,1962.98 " fill="none" id="return-to-output" style="stroke:#000000;stroke-width:1.0;"/><polygon fill="#000000" points="503,1968.98,507,1959.98,503,1963.98,499,1959.98,503,1968.98" style="stroke:#000000;stroke-width:1.0;"/></g><!--link crp to cppt--><!--link cppt to cprop--><!--SRC=[VLPDR-Cs4BtxLqnpgLqWyJqm30HD3bbWkujjU-eMMgv8IKmbKXrIwnZ5_lVEy4EIOsbpi6dEntlpE4Fc9z-eJe5JIfR2AQZGTj1utxlx_Hx5wQxMlXc-3avXQOrNnj-Ljjjd_ziUxOig_RGHykqxeSrcuxpm2cwUJJ_u6n0EDA_Wlmt4rJtSmfy4-gKNlYb-sUw-G3MOqcjh77WBZMhxpwP4nMbAYqX8mBvkypCyO3rqnCV1BVzHJhO0v_p82ue_DGeLRPV_Y5ev4FJ3UOjARhwFv3uCFhEpOHdefIKd-wCPKz0t4Y9KjfKAGJjmZJqPZjrJKCgupu3xWvR7lHHUf9sx5sTDW2BPUeLUArTKkbMhmP-U7XxVFzrrCaIH4B9JC_9HcYB55CxZKFe1rNON_ClUXMhucqlvfFuTD9LFIjJtGQxDY4nRS3XGTNZ-QBNnnsC-9TBtoER9z-QRGbsT2-qAgJ61VTEI7EXp3MeoHitZDbY49qIBP6SE3CQf9h1Q-K9Bbs1gJPPQhuCaMyPejVDWAr2ljD2cXkT7zza0R2rrAfuqjPymeBhUduFlBl5a7eGrqKXQ6_NATBB2XkdGvmAV9UIPSoRu_1X9Co2dkqBKik3ICgBkEOdkLnIWQYJbvFONpkdQKBSYq37Hx5Wyps8lJw6222SlVKqYHgXNnCWndqh9Pryk7Vt3g4CStD4jmxznuBDP84EJagW7ElAQJHw2QRJ6AUXz68BUhtVDQCsqtlt-uJUmN_bocvlfkdAG4QSXzjH0BUrjTyoVnaUX4MrxZkK6oipYYdISQ0f_zPaj1ZnSulg64ruofkcdBija0oQkGyvR2aDBOVy3UN2XPwZ5ulqqgn8N-cIcqnoLjmDR-lxHmMJpM-mfxLnbJZenEA4c0dp59jHJHSPJTONdidwmrQPi1ybBrflFa-94Ck_2V2LkAS_Q8AMRFNkPzWpMg8oJyu3mbDthRkPBNIQX6rgl-rO5cmjZh4JPGAWfZ0cLB_YnfC2nv7IyyUO-75xeBWzNURIoF6isuOemYLS6LFIc67uTNhNFZyEypwQigIrvSqvaFCS5xtx9cr_pYIex16NYJtxPemPJ2sInByfVZOjUEIRg7bwv9C4z_6eDFN8XXdVuSKgso9OL2N116jwB_p9iSar_DLfAPVu-pk-VYrtkrE-R_m40]--></g></svg>