<?xml version="1.0" encoding="us-ascii" standalone="no"?><svg xmlns="http://www.w3.org/2000/svg" xmlns:xlink="http://www.w3.org/1999/xlink" contentStyleType="text/css" height="2061px" preserveAspectRatio="none" style="width:1000px;height:2061px;background:#FFFFFF;" version="1.1" viewBox="0 0 1000 2061" width="1000px" zoomAndPan="magnify"><defs/><g><!--cluster cps--><g id="cluster_cps"><path d="M19.5,236 L974.5,236 A12.5,12.5 0 0 1 987,248.5 L987,287.9063 L7,287.9063 L7,248.5 A12.5,12.5 0 0 1 19.5,236 " fill="#F2F2F2" style="stroke:#F2F2F2;stroke-width:1.0;"/><rect fill="none" height="1612" rx="12.5" ry="12.5" style="stroke:#000000;stroke-width:0.5;" width="980" x="7" y="236"/><line style="stroke:#000000;stroke-width:0.5;" x1="7" x2="987" y1="287.9063" y2="287.9063"/><line style="stroke:#000000;stroke-width:0.5;" x1="7" x2="987" y1="261.9531" y2="261.9531"/><text fill="#000000" font-family="Fira Code" font-size="18" lengthAdjust="spacing" textLength="240" x="377" y="257.708">create_package_structure()</text><text fill="#000000" font-family="Fira Code" font-size="18" lengthAdjust="spacing" textLength="180" x="12" y="281.1611">- Required arg: path</text></g><text fill="#000000" font-family="Fira Code" font-size="18" lengthAdjust="spacing" textLength="29" x="475.5" y="213.7549">arg</text><ellipse cx="490" cy="236" fill="#F2F2F2" rx="6" ry="6" style="stroke:#000000;stroke-width:1.5;"/><g id="cps.vid"><rect fill="#F2F2F2" height="82.8594" rx="12.5" ry="12.5" style="stroke:#000000;stroke-width:0.5;" width="222" x="379" y="338"/><line style="stroke:#000000;stroke-width:0.5;" x1="379" x2="601" y1="368.9531" y2="368.9531"/><text fill="#000000" font-family="Fira Code" font-size="18" lengthAdjust="spacing" textLength="121" x="429.5" y="359.708">verify_is_dir()</text><text fill="#000000" font-family="Fira Code" font-size="18" lengthAdjust="spacing" textLength="180" x="384" y="390.6611">- Required arg: path</text><text fill="#000000" font-family="Fira Code" font-size="18" lengthAdjust="spacing" textLength="202" x="384" y="411.6143">- Output: path or Error</text></g><g id="cps.gi"><rect fill="#F2F2F2" height="103.8125" rx="12.5" ry="12.5" style="stroke:#000000;stroke-width:0.5;" width="263" x="358.5" y="482"/><line style="stroke:#000000;stroke-width:0.5;" x1="358.5" x2="621.5" y1="512.9531" y2="512.9531"/><text fill="#000000" font-family="Fira Code" font-size="18" lengthAdjust="spacing" textLength="76" x="452" y="503.708">get_ids()</text><text fill="#000000" font-family="Fira Code" font-size="18" lengthAdjust="spacing" textLength="180" x="363.5" y="534.6611">- Required arg: path</text><text fill="#000000" font-family="Fira Code" font-size="18" lengthAdjust="spacing" textLength="243" x="363.5" y="555.6143">- Output: list of existing IDs</text><text fill="#000000" font-family="Fira Code" font-size="18" lengthAdjust="spacing" textLength="223" x="375.5" y="576.5674">(otherwise an empty list)</text></g><g id="cps.cni"><rect fill="#F2F2F2" height="82.8594" rx="12.5" ry="12.5" style="stroke:#000000;stroke-width:0.5;" width="318" x="331" y="647"/><line style="stroke:#000000;stroke-width:0.5;" x1="331" x2="649" y1="677.9531" y2="677.9531"/><text fill="#000000" font-family="Fira Code" font-size="18" lengthAdjust="spacing" textLength="144" x="418" y="668.708">create_next_id()</text><text fill="#000000" font-family="Fira Code" font-size="18" lengthAdjust="spacing" textLength="298" x="336" y="699.6611">- Required arg: list of existing IDs</text><text fill="#000000" font-family="Fira Code" font-size="18" lengthAdjust="spacing" textLength="106" x="336" y="720.6143">- Output: ID</text></g><g id="cps.cip"><rect fill="#F2F2F2" height="82.8594" rx="12.5" ry="12.5" style="stroke:#000000;stroke-width:0.5;" width="465" x="257.5" y="791"/><line style="stroke:#000000;stroke-width:0.5;" x1="257.5" x2="722.5" y1="821.9531" y2="821.9531"/><text fill="#000000" font-family="Fira Code" font-size="18" lengthAdjust="spacing" textLength="143" x="418.5" y="812.708">create_id_path()</text><text fill="#000000" font-family="Fira Code" font-size="18" lengthAdjust="spacing" textLength="445" x="262.5" y="843.6611">- Required arg: path and ID to assign for directory</text><text fill="#000000" font-family="Fira Code" font-size="18" lengthAdjust="spacing" textLength="308" x="262.5" y="864.6143">- Output: path of created directory</text></g><g id="cps.cd"><rect fill="#F2F2F2" height="103.8125" rx="12.5" ry="12.5" style="stroke:#000000;stroke-width:0.5;" width="280" x="350" y="935"/><line style="stroke:#000000;stroke-width:0.5;" x1="350" x2="630" y1="965.9531" y2="965.9531"/><text fill="#000000" font-family="Fira Code" font-size="18" lengthAdjust="spacing" textLength="111" x="434.5" y="956.708">create_dirs()</text><text fill="#000000" font-family="Fira Code" font-size="18" lengthAdjust="spacing" textLength="260" x="355" y="987.6611">- Required arg: A list of paths</text><text fill="#000000" font-family="Fira Code" font-size="18" lengthAdjust="spacing" textLength="205" x="355" y="1008.6143">- Output: A list of paths</text><text fill="#000000" font-family="Fira Code" font-size="18" lengthAdjust="spacing" textLength="190" x="367" y="1029.5674">of created directories</text></g><g id="cps.cppt"><rect fill="#F2F2F2" height="82.8594" rx="12.5" ry="12.5" style="stroke:#000000;stroke-width:0.5;" width="359" x="310.5" y="1100"/><line style="stroke:#000000;stroke-width:0.5;" x1="310.5" x2="669.5" y1="1130.9531" y2="1130.9531"/><text fill="#000000" font-family="Fira Code" font-size="18" lengthAdjust="spacing" textLength="339" x="320.5" y="1121.708">create_package_properties_template()</text><text fill="#000000" font-family="Fira Code" font-size="18" lengthAdjust="spacing" textLength="180" x="315.5" y="1152.6611">- Required arg: path</text><text fill="#000000" font-family="Fira Code" font-size="18" lengthAdjust="spacing" textLength="191" x="315.5" y="1173.6143">- Output: JSON object</text></g><g id="cps.crt"><rect fill="#F2F2F2" height="82.8594" rx="12.5" ry="12.5" style="stroke:#000000;stroke-width:0.5;" width="266" x="291" y="1244"/><line style="stroke:#000000;stroke-width:0.5;" x1="291" x2="557" y1="1274.9531" y2="1274.9531"/><text fill="#000000" font-family="Fira Code" font-size="18" lengthAdjust="spacing" textLength="192" x="328" y="1265.708">create_readme_text()</text><text fill="#000000" font-family="Fira Code" font-size="18" lengthAdjust="spacing" textLength="246" x="296" y="1296.6611">- Required arg: JSON object</text><text fill="#000000" font-family="Fira Code" font-size="18" lengthAdjust="spacing" textLength="136" x="296" y="1317.6143">- Output: string</text></g><g id="cps.crp"><rect fill="#F2F2F2" height="82.8594" rx="12.5" ry="12.5" style="stroke:#000000;stroke-width:0.5;" width="252" x="23" y="1100"/><line style="stroke:#000000;stroke-width:0.5;" x1="23" x2="275" y1="1130.9531" y2="1130.9531"/><text fill="#000000" font-family="Fira Code" font-size="18" lengthAdjust="spacing" textLength="195" x="51.5" y="1121.708">create_readme_path()</text><text fill="#000000" font-family="Fira Code" font-size="18" lengthAdjust="spacing" textLength="180" x="28" y="1152.6611">- Required arg: path</text><text fill="#000000" font-family="Fira Code" font-size="18" lengthAdjust="spacing" textLength="232" x="28" y="1173.6143">- Output: path to README</text></g><g id="cps.cprop"><rect fill="#F2F2F2" height="82.8594" rx="12.5" ry="12.5" style="stroke:#000000;stroke-width:0.5;" width="266" x="705" y="1100"/><line style="stroke:#000000;stroke-width:0.5;" x1="705" x2="971" y1="1130.9531" y2="1130.9531"/><text fill="#000000" font-family="Fira Code" font-size="18" lengthAdjust="spacing" textLength="218" x="729" y="1121.708">create_properties_path()</text><text fill="#000000" font-family="Fira Code" font-size="18" lengthAdjust="spacing" textLength="180" x="710" y="1152.6611">- Required arg: path</text><text fill="#000000" font-family="Fira Code" font-size="18" lengthAdjust="spacing" textLength="246" x="710" y="1173.6143">- Output: path to properties</text></g><g id="cps.wf"><rect fill="#F2F2F2" height="166.6719" rx="12.5" ry="12.5" style="stroke:#000000;stroke-width:0.5;" width="362" x="328" y="1516"/><line style="stroke:#000000;stroke-width:0.5;" x1="328" x2="690" y1="1546.9531" y2="1546.9531"/><text fill="#000000" font-family="Fira Code" font-size="18" lengthAdjust="spacing" textLength="97" x="460.5" y="1537.708">write_file()</text><text fill="#000000" font-family="Fira Code" font-size="18" lengthAdjust="spacing" textLength="342" x="333" y="1568.6611">- Required args: string (including JSON</text><text fill="#000000" font-family="Fira Code" font-size="18" lengthAdjust="spacing" textLength="180" x="345" y="1589.6143">as a string) and path</text><text fill="#000000" font-family="Fira Code" font-size="18" lengthAdjust="spacing" textLength="254" x="333" y="1610.5674">- Output: path of created file</text><text fill="#000000" font-family="Fira Code" font-size="18" lengthAdjust="spacing" textLength="317" x="333" y="1631.5205">- Only one string and path at a time</text><text fill="#000000" font-family="Fira Code" font-size="18" lengthAdjust="spacing" textLength="320" x="333" y="1652.4736">- Used multiple times for each write</text><text fill="#000000" font-family="Fira Code" font-size="18" lengthAdjust="spacing" textLength="85" x="345" y="1673.4268">operation</text></g><rect fill="#555555" height="8" style="stroke:none;stroke-width:1.0;" width="80" x="384" y="1401"/><rect fill="#555555" height="8" style="stroke:none;stroke-width:1.0;" width="80" x="592" y="1281.5"/><rect fill="#555555" height="8" style="stroke:none;stroke-width:1.0;" width="80" x="469" y="1761"/><text fill="#000000" font-family="Fira Code" font-size="18" lengthAdjust="spacing" textLength="56" x="480.5" y="1870.708">return</text><ellipse cx="508.5" cy="1848" fill="#F2F2F2" rx="6" ry="6" style="stroke:#000000;stroke-width:1.5;"/><line style="stroke:#000000;stroke-width:1.5;" x1="512.8891" x2="505.1109" y1="1852.3891" y2="1844.6109"/><line style="stroke:#000000;stroke-width:1.5;" x1="512.8891" x2="505.1109" y1="1844.6109" y2="1852.3891"/><path d="M318.5,7 L661.5,7 A12.5,12.5 0 0 1 674,19.5 L674,84.8594 L306,84.8594 L306,19.5 A12.5,12.5 0 0 1 318.5,7 " fill="#F2F2F2" style="stroke:#F2F2F2;stroke-width:1.0;"/><rect fill="none" height="161.7656" rx="12.5" ry="12.5" style="stroke:#000000;stroke-width:0.5;" width="368" x="306" y="7"/><line style="stroke:#000000;stroke-width:0.5;" x1="306" x2="674" y1="84.8594" y2="84.8594"/><line style="stroke:#000000;stroke-width:0.5;" x1="306" x2="674" y1="37.9531" y2="37.9531"/><text fill="#000000" font-family="Fira Code" font-size="18" lengthAdjust="spacing" textLength="46" x="467" y="28.708">Input</text><text fill="#000000" font-family="Fira Code" font-size="18" lengthAdjust="spacing" textLength="294" x="311" y="54.6611">- Use `path_*()` functions to help</text><text fill="#000000" font-family="Fira Code" font-size="18" lengthAdjust="spacing" textLength="178" x="311" y="75.6143">create correct paths</text><g id="input.path"><rect fill="#F2F2F2" height="61.9063" rx="12.5" ry="12.5" style="stroke:#000000;stroke-width:0.5;" width="342" x="318" y="96.8594"/><line style="stroke:#000000;stroke-width:0.5;" x1="318" x2="660" y1="127.8125" y2="127.8125"/><text fill="#000000" font-family="Fira Code" font-size="18" lengthAdjust="spacing" textLength="39" x="469.5" y="118.5674">path</text><text fill="#000000" font-family="Fira Code" font-size="18" lengthAdjust="spacing" textLength="322" x="323" y="149.5205">- Path to where packages are stored</text></g><path d="M204.5,1927 L813.5,1927 A12.5,12.5 0 0 1 826,1939.5 L826,1983.9063 L192,1983.9063 L192,1939.5 A12.5,12.5 0 0 1 204.5,1927 " fill="#F2F2F2" style="stroke:#F2F2F2;stroke-width:1.0;"/><rect fill="none" height="128.9063" rx="12.5" ry="12.5" style="stroke:#000000;stroke-width:0.5;" width="634" x="192" y="1927"/><line style="stroke:#000000;stroke-width:0.5;" x1="192" x2="826" y1="1983.9063" y2="1983.9063"/><line style="stroke:#000000;stroke-width:0.5;" x1="192" x2="826" y1="1957.9531" y2="1957.9531"/><text fill="#000000" font-family="Fira Code" font-size="18" lengthAdjust="spacing" textLength="61" x="478.5" y="1948.708">Output</text><text fill="#000000" font-family="Fira Code" font-size="18" lengthAdjust="spacing" textLength="365" x="197" y="1974.6611">- The package parent folder is shown as /</text><g id="output.properties_file"><rect fill="#F2F2F2" height="50" rx="12.5" ry="12.5" style="stroke:#000000;stroke-width:0.5;" width="315" x="204" y="1995.9063"/><line style="stroke:#000000;stroke-width:0.5;" x1="204" x2="519" y1="2026.8594" y2="2026.8594"/><text fill="#000000" font-family="Fira Code" font-size="18" lengthAdjust="spacing" textLength="295" x="214" y="2017.6143">/packages/&lt;id&gt;/datapackage.json</text></g><g id="output.readme"><rect fill="#F2F2F2" height="50" rx="12.5" ry="12.5" style="stroke:#000000;stroke-width:0.5;" width="275" x="537" y="1995.9063"/><line style="stroke:#000000;stroke-width:0.5;" x1="537" x2="812" y1="2026.8594" y2="2026.8594"/><text fill="#000000" font-family="Fira Code" font-size="18" lengthAdjust="spacing" textLength="255" x="547" y="2017.6143">/packages/&lt;id&gt;/README.md</text></g><!--link input to arg--><g id="link_input_arg"><path d="M490,169.26 C490,194.97 490,213.47 490,223.82 " fill="none" id="input-to-arg" style="stroke:#000000;stroke-width:1.0;"/><polygon fill="#000000" points="490,229.82,494,220.82,490,224.82,486,220.82,490,229.82" style="stroke:#000000;stroke-width:1.0;"/></g><!--link arg to vid--><g id="link_arg_vid"><path d="M490,242.04 C490,257.2 490,297.5 490,331.99 " fill="none" id="arg-to-vid" style="stroke:#000000;stroke-width:1.0;"/><polygon fill="#000000" points="490,337.99,494,328.99,490,332.99,486,328.99,490,337.99" style="stroke:#000000;stroke-width:1.0;"/></g><!--link vid to gi--><g id="link_vid_gi"><path d="M490,421.37 C490,439.98 490,456.21 490,475.92 " fill="none" id="vid-to-gi" style="stroke:#000000;stroke-width:1.0;"/><polygon fill="#000000" points="490,481.92,494,472.92,490,476.92,486,472.92,490,481.92" style="stroke:#000000;stroke-width:1.0;"/></g><!--link gi to cni--><g id="link_gi_cni"><path d="M490,586.2 C490,605.93 490,622.18 490,640.79 " fill="none" id="gi-to-cni" style="stroke:#000000;stroke-width:1.0;"/><polygon fill="#000000" points="490,646.79,494,637.79,490,641.79,486,637.79,490,646.79" style="stroke:#000000;stroke-width:1.0;"/></g><!--link cni to cip--><g id="link_cni_cip"><path d="M490,730.19 C490,749.2 490,765.79 490,784.8 " fill="none" id="cni-to-cip" style="stroke:#000000;stroke-width:1.0;"/><polygon fill="#000000" points="490,790.8,494,781.8,490,785.8,486,781.8,490,790.8" style="stroke:#000000;stroke-width:1.0;"/></g><!--link cip to cd--><g id="link_cip_cd"><path d="M490,874.37 C490,892.98 490,909.21 490,928.92 " fill="none" id="cip-to-cd" style="stroke:#000000;stroke-width:1.0;"/><polygon fill="#000000" points="490,934.92,494,925.92,490,929.92,486,925.92,490,934.92" style="stroke:#000000;stroke-width:1.0;"/></g><!--link cd to cppt--><g id="link_cd_cppt"><path d="M490,1039.2 C490,1058.93 490,1075.18 490,1093.79 " fill="none" id="cd-to-cppt" style="stroke:#000000;stroke-width:1.0;"/><polygon fill="#000000" points="490,1099.79,494,1090.79,490,1094.79,486,1090.79,490,1099.79" style="stroke:#000000;stroke-width:1.0;"/></g><!--link cppt to crt--><g id="link_cppt_crt"><path d="M471.09,1183.19 C462.25,1202.2 454.2776,1219.3484 445.4476,1238.3584 " fill="none" id="cppt-to-crt" style="stroke:#000000;stroke-width:1.0;"/><polygon fill="#000000" points="442.92,1243.8,450.3391,1237.3226,445.0263,1239.2653,443.0836,1233.9525,442.92,1243.8" style="stroke:#000000;stroke-width:1.0;"/></g><!--link cd to crp--><g id="link_cd_crp"><path d="M375.5,1039.2 C331.29,1058.98 286.9073,1078.8306 245.2473,1097.4606 " fill="none" id="cd-to-crp" style="stroke:#000000;stroke-width:1.0;"/><polygon fill="#000000" points="239.77,1099.91,249.6188,1099.8874,244.3344,1097.8688,246.353,1092.5844,239.77,1099.91" style="stroke:#000000;stroke-width:1.0;"/></g><!--link cd to cprop--><g id="link_cd_cprop"><path d="M606.85,1039.2 C651.97,1058.98 697.3544,1078.8721 739.8744,1097.5021 " fill="none" id="cd-to-cprop" style="stroke:#000000;stroke-width:1.0;"/><polygon fill="#000000" points="745.37,1099.91,738.7318,1092.6344,740.7903,1097.9034,735.5213,1099.9619,745.37,1099.91" style="stroke:#000000;stroke-width:1.0;"/></g><!--link cppt to prop_input--><g id="link_cppt_prop_input"><path d="M530.69,1183.19 C566.75,1219.25 611.4074,1263.9074 624.4474,1276.9474 " fill="none" id="cppt-to-prop_input" style="stroke:#000000;stroke-width:1.0;"/><polygon fill="#000000" points="628.69,1281.19,625.1545,1271.9976,625.1545,1277.6545,619.4976,1277.6545,628.69,1281.19" style="stroke:#000000;stroke-width:1.0;"/></g><!--link crt to readme_input--><g id="link_crt_readme_input"><path d="M424,1327.27 C424,1355.64 424,1384.2 424,1394.77 " fill="none" id="crt-to-readme_input" style="stroke:#000000;stroke-width:1.0;"/><polygon fill="#000000" points="424,1400.77,428,1391.77,424,1395.77,420,1391.77,424,1400.77" style="stroke:#000000;stroke-width:1.0;"/></g><!--link cprop to prop_input--><g id="link_cprop_prop_input"><path d="M779.24,1183 C726.68,1219.23 660.0797,1265.1443 641.4997,1277.9543 " fill="none" id="cprop-to-prop_input" style="stroke:#000000;stroke-width:1.0;"/><polygon fill="#000000" points="636.56,1281.36,646.2401,1279.5446,640.6765,1278.5219,641.6991,1272.9583,636.56,1281.36" style="stroke:#000000;stroke-width:1.0;"/></g><!--link crp to readme_input--><g id="link_crp_readme_input"><path d="M168.8,1183.18 C190.18,1223.76 227.51,1285.83 274,1327 C319.14,1366.98 383.0637,1390.5954 408.5437,1399.0254 " fill="none" id="crp-to-readme_input" style="stroke:#000000;stroke-width:1.0;"/><polygon fill="#000000" points="414.24,1400.91,406.9519,1394.2855,409.4931,1399.3395,404.4391,1401.8806,414.24,1400.91" style="stroke:#000000;stroke-width:1.0;"/></g><!--link prop_input to wf--><g id="link_prop_input_wf"><path d="M630.93,1289.57 C624.48,1308.1 589.89,1406.85 558,1486 C554.1,1495.68 552.2468,1500.258 547.9968,1510.258 " fill="none" id="prop_input-to-wf" style="stroke:#000000;stroke-width:1.0;"/><polygon fill="#000000" points="545.65,1515.78,552.8516,1509.0616,547.6057,1511.1783,545.4889,1505.9325,545.65,1515.78" style="stroke:#000000;stroke-width:1.0;"/><text fill="#000000" font-family="sans-serif" font-size="14" lengthAdjust="spacing" textLength="90" x="598" y="1401.9951">input to write</text><text fill="#000000" font-family="sans-serif" font-size="14" lengthAdjust="spacing" textLength="94" x="596" y="1418.292">properties file</text></g><!--link readme_input to wf--><g id="link_readme_input_wf"><path d="M425.34,1409.02 C430.86,1421.53 450.1363,1465.2013 470.0563,1510.3113 " fill="none" id="readme_input-to-wf" style="stroke:#000000;stroke-width:1.0;"/><polygon fill="#000000" points="472.48,1515.8,472.5035,1505.9512,470.4602,1511.2261,465.1853,1509.1828,472.48,1515.8" style="stroke:#000000;stroke-width:1.0;"/><text fill="#000000" font-family="sans-serif" font-size="14" lengthAdjust="spacing" textLength="90" x="459" y="1465.9951">input to write</text><text fill="#000000" font-family="sans-serif" font-size="14" lengthAdjust="spacing" textLength="76" x="466" y="1482.292">readme file</text></g><!--link wf to as_list--><g id="link_wf_as_list"><path d="M509,1683.21 C509,1717.11 509,1744.79 509,1754.93 " fill="none" id="wf-to-as_list" style="stroke:#000000;stroke-width:1.0;"/><polygon fill="#000000" points="509,1760.93,513,1751.93,509,1755.93,505,1751.93,509,1760.93" style="stroke:#000000;stroke-width:1.0;"/><text fill="#000000" font-family="sans-serif" font-size="14" lengthAdjust="spacing" textLength="95" x="510" y="1726.9951">Convert to list</text></g><!--link as_list to return--><g id="link_as_list_return"><path d="M509,1769.08 C509,1781.33 509,1820.73 509,1835.97 " fill="none" id="as_list-to-return" style="stroke:#000000;stroke-width:1.0;"/><polygon fill="#000000" points="509,1841.97,513,1832.97,509,1836.97,505,1832.97,509,1841.97" style="stroke:#000000;stroke-width:1.0;"/></g><!--link return to output--><g id="link_return_output"><path d="M509,1854.04 C509,1866 509,1891.35 509,1920.98 " fill="none" id="return-to-output" style="stroke:#000000;stroke-width:1.0;"/><polygon fill="#000000" points="509,1926.98,513,1917.98,509,1921.98,505,1917.98,509,1926.98" style="stroke:#000000;stroke-width:1.0;"/></g><!--link crp to cppt--><!--link cppt to cprop--><!--SRC=[VLPDRziu4BtxLypciac1nFV0C10qEQH0jqNRFRKBXHKfYLc9r0wfEiQY_xqp_93aM6eEDitvU6yUPyZyuHlLAN1AoL8u1HNQ3XhlUtUxtQ8utDJQDyFtmIaihV7A-9lITjliVzsZVLQbdpP2lcqdjDbid1TUmSMZwGT_0SA1vXNylu6ukeLh-9j0dthXc-BDvTKJL8CflRR6WRVGgBR_PafKdAQqY8G4xEisVy8TraD7V1nSyn_bP0jmpe-yeFX3er3HTlclg9K3GJ-SjwZavkT8xiFWCpiRbe5UMdAoBysOWhwH4A6ohLG8se5hxC5mx9Q2KiPj1jpkjDnlfV0YxTmyEsi25CdMA_HQkQBIhLeD_lHmT__-uQQJ8Og4a9sQaO_I52ccS1w7qW-eBg-2VzcxK0r_SocVr7-3fl99YVesoBKPaMaBTZkg3eyVhJP-ly-dHFhksJpvNlnGgAjZeLqXDIQm7rgI0tskGKt6g7dS1elmW6YHxCo1mJZL15OhNsZf4aojoLBhTP1aonYjTXvi1Ug55jhKy7ZllXc0IqkTYWTDxISCgAxtn-1xbNWo3yAQQ2IjZNfXEbbXmtJeSu7F4lBCEHDyl8-a6P3JdI5gMN1f6L7td4JtAmfGDP9oSliBvtHjg5iHw9XeTYmUPx6dfr11X9EdlYOH8zGpOkIOJwNaio-NZlvkr24ExkYMuLyvyDaiaA59ITG37NdE9W_1RBGy7MjBjd4SUX-ceVVhxJDQCxztdp_y1VOxttAHV230gSuenFaas1UV8J44uHBWgyHu2akpJ3sJ2GLCN8USDmY61i7-DpNYGWTGmyJRPbObBfpwJDyvAcy7jlJzEtMp-JNsb7QkCYUT61nG4m6-C1FgeIBZeJh3Sra_kDIcR0V9IzQRkulYH39VXMb9t5AUjR58ztJsCkqHh54P9-S1uIcxrztCbvuu2TtGUjstAjXS64eboWP2JQ7fgNp1Jny5ZYMduutty6xtJ3Tpk9YZbULPimbNXBawCw2Y5yBmNV-YVRxgvtqsPKrjoPjp8kCvBdZtIzxyDazKsI4e4t_oEnqrc5eWYtrI_cfSzCenKVVmPYK9Rk6jDVHaXHZUuQScsI9RLYJ01MbuB_u3iCarVMsqbChyivzV8YUxtAa_Dxy0]--></g></svg>