<?xml version="1.0" encoding="us-ascii" standalone="no"?><svg xmlns="http://www.w3.org/2000/svg" xmlns:xlink="http://www.w3.org/1999/xlink" contentStyleType="text/css" height="1492px" preserveAspectRatio="none" style="width:492px;height:1492px;background:#FFFFFF;" version="1.1" viewBox="0 0 492 1492" width="492px" zoomAndPan="magnify"><defs/><g><!--cluster crs--><g id="cluster_crs"><path d="M19.5,256 L408.5,256 A12.5,12.5 0 0 1 421,268.5 L421,307.9063 L7,307.9063 L7,268.5 A12.5,12.5 0 0 1 19.5,256 " fill="#F2F2F2" style="stroke:#F2F2F2;stroke-width:1.0;"/><rect fill="none" height="872" rx="12.5" ry="12.5" style="stroke:#000000;stroke-width:0.5;" width="414" x="7" y="256"/><line style="stroke:#000000;stroke-width:0.5;" x1="7" x2="421" y1="307.9063" y2="307.9063"/><line style="stroke:#000000;stroke-width:0.5;" x1="7" x2="421" y1="281.9531" y2="281.9531"/><text fill="#000000" font-family="Fira Code" font-size="18" lengthAdjust="spacing" textLength="245" x="91.5" y="277.708">create_resource_structure()</text><text fill="#000000" font-family="Fira Code" font-size="18" lengthAdjust="spacing" textLength="237" x="12" y="301.1611">- Required argument: path</text></g><text fill="#000000" font-family="Fira Code" font-size="18" lengthAdjust="spacing" textLength="29" x="199.5" y="233.7549">arg</text><ellipse cx="214" cy="256" fill="#F2F2F2" rx="6" ry="6" style="stroke:#000000;stroke-width:1.5;"/><g id="crs.vid"><rect fill="#F2F2F2" height="82.8594" rx="12.5" ry="12.5" style="stroke:#000000;stroke-width:0.5;" width="222" x="103" y="327"/><line style="stroke:#000000;stroke-width:0.5;" x1="103" x2="325" y1="357.9531" y2="357.9531"/><text fill="#000000" font-family="Fira Code" font-size="18" lengthAdjust="spacing" textLength="178" x="125" y="348.708">verify_is_directory()</text><text fill="#000000" font-family="Fira Code" font-size="18" lengthAdjust="spacing" textLength="180" x="108" y="379.6611">- Required arg: path</text><text fill="#000000" font-family="Fira Code" font-size="18" lengthAdjust="spacing" textLength="202" x="108" y="400.6143">- Output: path or Error</text></g><g id="crs.gri"><rect fill="#F2F2F2" height="82.8594" rx="12.5" ry="12.5" style="stroke:#000000;stroke-width:0.5;" width="373" x="27.5" y="470"/><line style="stroke:#000000;stroke-width:0.5;" x1="27.5" x2="400.5" y1="500.9531" y2="500.9531"/><text fill="#000000" font-family="Fira Code" font-size="18" lengthAdjust="spacing" textLength="162" x="133" y="491.708">get_resource_ids()</text><text fill="#000000" font-family="Fira Code" font-size="18" lengthAdjust="spacing" textLength="353" x="32.5" y="522.6611">- Required arg: path to resources folder</text><text fill="#000000" font-family="Fira Code" font-size="18" lengthAdjust="spacing" textLength="335" x="32.5" y="543.6143">- Output: list of existing IDs (or None)</text></g><g id="crs.cri"><rect fill="#F2F2F2" height="82.8594" rx="12.5" ry="12.5" style="stroke:#000000;stroke-width:0.5;" width="318" x="55" y="613"/><line style="stroke:#000000;stroke-width:0.5;" x1="55" x2="373" y1="643.9531" y2="643.9531"/><text fill="#000000" font-family="Fira Code" font-size="18" lengthAdjust="spacing" textLength="181" x="123.5" y="634.708">create_resource_id()</text><text fill="#000000" font-family="Fira Code" font-size="18" lengthAdjust="spacing" textLength="298" x="60" y="665.6611">- Required arg: list of existing IDs</text><text fill="#000000" font-family="Fira Code" font-size="18" lengthAdjust="spacing" textLength="106" x="60" y="686.6143">- Output: ID</text></g><g id="crs.crd"><rect fill="#F2F2F2" height="82.8594" rx="12.5" ry="12.5" style="stroke:#000000;stroke-width:0.5;" width="382" x="23" y="756"/><line style="stroke:#000000;stroke-width:0.5;" x1="23" x2="405" y1="786.9531" y2="786.9531"/><text fill="#000000" font-family="Fira Code" font-size="18" lengthAdjust="spacing" textLength="189" x="119.5" y="777.708">create_resource_dir()</text><text fill="#000000" font-family="Fira Code" font-size="18" lengthAdjust="spacing" textLength="362" x="28" y="808.6611">- Required arg: ID to assign for directory</text><text fill="#000000" font-family="Fira Code" font-size="18" lengthAdjust="spacing" textLength="308" x="28" y="829.6143">- Output: path of created directory</text></g><g id="crs.crrd"><rect fill="#F2F2F2" height="82.8594" rx="12.5" ry="12.5" style="stroke:#000000;stroke-width:0.5;" width="333" x="28.5" y="899"/><line style="stroke:#000000;stroke-width:0.5;" x1="28.5" x2="361.5" y1="929.9531" y2="929.9531"/><text fill="#000000" font-family="Fira Code" font-size="18" lengthAdjust="spacing" textLength="232" x="79" y="920.708">create_resource_raw_dir()</text><text fill="#000000" font-family="Fira Code" font-size="18" lengthAdjust="spacing" textLength="313" x="33.5" y="951.6611">- Required arg: path to resource ID</text><text fill="#000000" font-family="Fira Code" font-size="18" lengthAdjust="spacing" textLength="308" x="33.5" y="972.6143">- Output: path of created directory</text></g><rect fill="#555555" height="8" style="stroke:none;stroke-width:1.0;" width="80" x="240" y="1042"/><text fill="#000000" font-family="Fira Code" font-size="18" lengthAdjust="spacing" textLength="56" x="251.5" y="1150.708">return</text><ellipse cx="279.5" cy="1128" fill="#F2F2F2" rx="6" ry="6" style="stroke:#000000;stroke-width:1.5;"/><line style="stroke:#000000;stroke-width:1.5;" x1="283.8891" x2="276.1109" y1="1132.3891" y2="1124.6109"/><line style="stroke:#000000;stroke-width:1.5;" x1="283.8891" x2="276.1109" y1="1124.6109" y2="1132.3891"/><path d="M94.5,7 L333.5,7 A12.5,12.5 0 0 1 346,19.5 L346,84.8594 L82,84.8594 L82,19.5 A12.5,12.5 0 0 1 94.5,7 " fill="#F2F2F2" style="stroke:#F2F2F2;stroke-width:1.0;"/><rect fill="none" height="182.7188" rx="12.5" ry="12.5" style="stroke:#000000;stroke-width:0.5;" width="264" x="82" y="7"/><line style="stroke:#000000;stroke-width:0.5;" x1="82" x2="346" y1="84.8594" y2="84.8594"/><line style="stroke:#000000;stroke-width:0.5;" x1="82" x2="346" y1="37.9531" y2="37.9531"/><text fill="#000000" font-family="Fira Code" font-size="18" lengthAdjust="spacing" textLength="46" x="191" y="28.708">Input</text><text fill="#000000" font-family="Fira Code" font-size="18" lengthAdjust="spacing" textLength="239" x="87" y="54.6611">- `path_*()` functions assist</text><text fill="#000000" font-family="Fira Code" font-size="18" lengthAdjust="spacing" textLength="221" x="99" y="75.6143">with giving correct paths</text><g id="input.path"><rect fill="#F2F2F2" height="82.8594" rx="12.5" ry="12.5" style="stroke:#000000;stroke-width:0.5;" width="200" x="94" y="96.8594"/><line style="stroke:#000000;stroke-width:0.5;" x1="94" x2="294" y1="127.8125" y2="127.8125"/><text fill="#000000" font-family="Fira Code" font-size="18" lengthAdjust="spacing" textLength="39" x="174.5" y="118.5674">path</text><text fill="#000000" font-family="Fira Code" font-size="18" lengthAdjust="spacing" textLength="167" x="99" y="149.5205">- Path to resources</text><text fill="#000000" font-family="Fira Code" font-size="18" lengthAdjust="spacing" textLength="168" x="111" y="170.4736">folder in a package</text></g><path d="M93.5,1206 L466.5,1206 A12.5,12.5 0 0 1 479,1218.5 L479,1304.8125 L81,1304.8125 L81,1218.5 A12.5,12.5 0 0 1 93.5,1206 " fill="#F2F2F2" style="stroke:#F2F2F2;stroke-width:1.0;"/><rect fill="none" height="280.7188" rx="12.5" ry="12.5" style="stroke:#000000;stroke-width:0.5;" width="398" x="81" y="1206"/><line style="stroke:#000000;stroke-width:0.5;" x1="81" x2="479" y1="1304.8125" y2="1304.8125"/><line style="stroke:#000000;stroke-width:0.5;" x1="81" x2="479" y1="1236.9531" y2="1236.9531"/><text fill="#000000" font-family="Fira Code" font-size="18" lengthAdjust="spacing" textLength="61" x="249.5" y="1227.708">Output</text><text fill="#000000" font-family="Fira Code" font-size="18" lengthAdjust="spacing" textLength="365" x="86" y="1253.6611">- The package parent folder is shown as /</text><text fill="#000000" font-family="Fira Code" font-size="18" lengthAdjust="spacing" textLength="373" x="86" y="1274.6143">- Output: list two paths, the resource path</text><text fill="#000000" font-family="Fira Code" font-size="18" lengthAdjust="spacing" textLength="235" x="98" y="1295.5674">and the resource raw path</text><g id="output.folder_id"><rect fill="#F2F2F2" height="61.9063" rx="12.5" ry="12.5" style="stroke:#000000;stroke-width:0.5;" width="307" x="113.5" y="1316.8125"/><line style="stroke:#000000;stroke-width:0.5;" x1="113.5" x2="420.5" y1="1347.7656" y2="1347.7656"/><text fill="#000000" font-family="Fira Code" font-size="18" lengthAdjust="spacing" textLength="149" x="192.5" y="1338.5205">/resources/&lt;id&gt;/</text><text fill="#000000" font-family="Fira Code" font-size="18" lengthAdjust="spacing" textLength="287" x="118.5" y="1369.4736">Folder with assigned ID (e.g. '1')</text></g><g id="output.folder_raw"><rect fill="#F2F2F2" height="61.9063" rx="12.5" ry="12.5" style="stroke:#000000;stroke-width:0.5;" width="348" x="93" y="1414.8125"/><line style="stroke:#000000;stroke-width:0.5;" x1="93" x2="441" y1="1445.7656" y2="1445.7656"/><text fill="#000000" font-family="Fira Code" font-size="18" lengthAdjust="spacing" textLength="189" x="172.5" y="1436.5205">/resources/&lt;id&gt;/raw/</text><text fill="#000000" font-family="Fira Code" font-size="18" lengthAdjust="spacing" textLength="328" x="98" y="1467.4736">Raw folder with assigned ID (e.g. '1')</text></g><!--link folder_id to folder_raw--><!--link input to arg--><g id="link_input_arg"><path d="M214,190.4 C214,212.34 214,232.83 214,244.63 " fill="none" id="input-to-arg" style="stroke:#000000;stroke-width:1.0;"/><polygon fill="#000000" points="214,249.69,218,240.69,214,244.69,210,240.69,214,249.69" style="stroke:#000000;stroke-width:1.0;"/></g><!--link arg to vid--><g id="link_arg_vid"><path d="M214,262.04 C214,272.63 214,298.19 214,321.49 " fill="none" id="arg-to-vid" style="stroke:#000000;stroke-width:1.0;"/><polygon fill="#000000" points="214,326.73,218,317.73,214,321.73,210,317.73,214,326.73" style="stroke:#000000;stroke-width:1.0;"/></g><!--link vid to gri--><g id="link_vid_gri"><path d="M214,410.28 C214,427.24 214,447 214,464.47 " fill="none" id="vid-to-gri" style="stroke:#000000;stroke-width:1.0;"/><polygon fill="#000000" points="214,469.81,218,460.81,214,464.81,210,460.81,214,469.81" style="stroke:#000000;stroke-width:1.0;"/></g><!--link gri to cri--><g id="link_gri_cri"><path d="M214,553.28 C214,570.24 214,590 214,607.47 " fill="none" id="gri-to-cri" style="stroke:#000000;stroke-width:1.0;"/><polygon fill="#000000" points="214,612.81,218,603.81,214,607.81,210,603.81,214,612.81" style="stroke:#000000;stroke-width:1.0;"/></g><!--link cri to crd--><g id="link_cri_crd"><path d="M214,696.28 C214,713.24 214,733 214,750.47 " fill="none" id="cri-to-crd" style="stroke:#000000;stroke-width:1.0;"/><polygon fill="#000000" points="214,755.81,218,746.81,214,750.81,210,746.81,214,755.81" style="stroke:#000000;stroke-width:1.0;"/></g><!--link crd to crrd--><g id="link_crd_crrd"><path d="M208.5,839.28 C206.22,856.24 203.56,876 201.2,893.47 " fill="none" id="crd-to-crrd" style="stroke:#000000;stroke-width:1.0;"/><polygon fill="#000000" points="200.48,898.81,205.6518,890.4283,201.1511,893.8552,197.7242,889.3546,200.48,898.81" style="stroke:#000000;stroke-width:1.0;"/></g><!--link crrd to join--><g id="link_crrd_join"><path d="M228.35,982.11 C245.43,1002.91 264.58,1026.23 274.05,1037.75 " fill="none" id="crrd-to-join" style="stroke:#000000;stroke-width:1.0;"/><polygon fill="#000000" points="277.27,1041.68,274.6438,1032.1877,274.0945,1037.8179,268.4643,1037.2686,277.27,1041.68" style="stroke:#000000;stroke-width:1.0;"/></g><!--link crd to join--><g id="link_crd_join"><path d="M316.53,839.06 C341.34,854.03 364.79,873.71 379,899 C397.07,931.16 396.75,949.66 379,982 C361.23,1014.38 318.98,1032.49 295.83,1040.31 " fill="none" id="crd-to-join" style="stroke:#000000;stroke-width:1.0;"/><polygon fill="#000000" points="290.93,1041.91,300.725,1042.9383,295.6861,1040.3675,298.257,1035.3286,290.93,1041.91" style="stroke:#000000;stroke-width:1.0;"/></g><!--link join to return--><g id="link_join_return"><path d="M280,1050.04 C280,1060.9 280,1098.15 280,1116.54 " fill="none" id="join-to-return" style="stroke:#000000;stroke-width:1.0;"/><polygon fill="#000000" points="280,1121.6,284,1112.6,280,1116.6,276,1112.6,280,1121.6" style="stroke:#000000;stroke-width:1.0;"/></g><!--link return to output--><g id="link_return_output"><path d="M280,1134.35 C280,1145.06 280,1170.68 280,1200.53 " fill="none" id="return-to-output" style="stroke:#000000;stroke-width:1.0;"/><polygon fill="#000000" points="280,1205.75,284,1196.75,280,1200.75,276,1196.75,280,1205.75" style="stroke:#000000;stroke-width:1.0;"/></g><!--SRC=[ZPHDRzim38Rl_XLSBqs6ESQkGH5WQ1OWbwxeTjk6L9LaMsqYPPISB1ZstqVAtqNQDGTR5gNtVKHIUHTAlTFWjLPIU0qvkXsK8UpzFCjG76U52MNrK7cDqjcWRPX9jylQzUaUtQEMeP-8UjbE69ia_idOlK2nWwz11BqYWMktTGWFMo6VpeLl1C6i30guTagJ0WVWOcttLRW0uS7m2Fuaq8pcaCBzNeHoytuolOUyiZ8OPpsjzSQ77nRWI2U0mXoCBK0wHC85tk6JI_Y4HRMZGtb8-KUo78cgjpm83b1xLw7KdhLojrKQoHi4hPHFej39tmxpInLQJXU74RGPikQtKhVRw8rat2bwyAKxMjwRZJVLgdFOqdaW75qD_m4eqnrSd6D0OTKuG3MCGT9iABFkHDcLKOiiyjOO6wCIwCTalwhnOWuvfONL2jPBcEXPCOFBZvVJv6LbyXwfqtSlps1pkADd_d-F8LIQVY-DKjh-N0o5-p98rFJUj30R7x2IeK8zcKOQYJuMXj-Su3lzgp98dgBfXdcTiUvWD0zNLnJ0qwqpDYmMNV-bwOB3WoGSD9hyj35-emptciDJutk8sJt4l8vTvss9sc1RyzYDT64-8pgaE9Em9KlrbeKE_McDyerVWORMqFC5lr5tDwaSR1ZrdSj1_wO1NwBrqiE4e6wSrLDeg9cA3NkgvsKmgik_YTa_ntNERB2uPLel6r2sbQ_QKXKwNnMbpkMVsesoKNSVfGAXAzvWoxWgETHMwjdQ5agz0aKDEm9ho52zeLJruRl5RuDI3TIGwf5wcVgQNx6ZwrdKT5LudaeG-dQFVgp1omUIpMVKukzwEyqqEZnN_vdH3Vq7]--></g></svg>