<svg xmlns="http://www.w3.org/2000/svg" xmlns:xlink="http://www.w3.org/1999/xlink" contentStyleType="text/css" height="1733px" preserveAspectRatio="none" style="width:522px;height:1733px;background:#FFFFFF;" version="1.1" viewBox="0 0 522 1733" width="522px" zoomAndPan="magnify"><defs/><g><!--cluster crs--><g id="cluster_crs"><path d="M19.5,256 L442.5,256 A12.5,12.5 0 0 1 455,268.5 L455,307.9063 L7,307.9063 L7,268.5 A12.5,12.5 0 0 1 19.5,256 " fill="#F2F2F2" style="stroke:#F2F2F2;stroke-width:1.0;"/><rect fill="none" height="1113" rx="12.5" ry="12.5" style="stroke:#000000;stroke-width:0.5;" width="448" x="7" y="256"/><line style="stroke:#000000;stroke-width:0.5;" x1="7" x2="455" y1="307.9063" y2="307.9063"/><line style="stroke:#000000;stroke-width:0.5;" x1="7" x2="455" y1="281.9531" y2="281.9531"/><text fill="#000000" font-family="Fira Code" font-size="18" lengthAdjust="spacing" textLength="250.3037" x="105.8481" y="277.708">create_resource_structure()</text><text fill="#000000" font-family="Fira Code" font-size="18" lengthAdjust="spacing" textLength="240.3018" x="12" y="301.1611">- Required argument: path</text></g><text fill="#000000" font-family="Fira Code" font-size="18" lengthAdjust="spacing" textLength="29.8564" x="357.0718" y="233.7549">arg</text><ellipse cx="372" cy="256" fill="#F2F2F2" rx="6" ry="6" style="stroke:#000000;stroke-width:1.5;"/><g id="crs.vid"><rect fill="#F2F2F2" height="82.8594" rx="12.5" ry="12.5" style="stroke:#000000;stroke-width:0.5;" width="221.8936" x="132" y="388"/><line style="stroke:#000000;stroke-width:0.5;" x1="132" x2="353.8936" y1="418.9531" y2="418.9531"/><text fill="#000000" font-family="Fira Code" font-size="18" lengthAdjust="spacing" textLength="121.3682" x="182.2627" y="409.708">verify_is_dir()</text><text fill="#000000" font-family="Fira Code" font-size="18" lengthAdjust="spacing" textLength="181.8193" x="137" y="440.6611">- Required arg: path</text><text fill="#000000" font-family="Fira Code" font-size="18" lengthAdjust="spacing" textLength="201.8936" x="137" y="461.6143">- Output: path or Error</text></g><g id="crs.gi"><rect fill="#F2F2F2" height="124.7656" rx="12.5" ry="12.5" style="stroke:#000000;stroke-width:0.5;" width="232.7568" x="112.5" y="531"/><line style="stroke:#000000;stroke-width:0.5;" x1="112.5" x2="345.2568" y1="561.9531" y2="561.9531"/><text fill="#000000" font-family="Fira Code" font-size="18" lengthAdjust="spacing" textLength="78.4072" x="189.6748" y="552.708">get_ids()</text><text fill="#000000" font-family="Fira Code" font-size="18" lengthAdjust="spacing" textLength="205.6113" x="117.5" y="583.6611">- Required arg: path to</text><text fill="#000000" font-family="Fira Code" font-size="18" lengthAdjust="spacing" textLength="145.9951" x="128.9434" y="604.6143">resources folder</text><text fill="#000000" font-family="Fira Code" font-size="18" lengthAdjust="spacing" textLength="212.7568" x="117.5" y="625.5674">- Output: list of existing</text><text fill="#000000" font-family="Fira Code" font-size="18" lengthAdjust="spacing" textLength="197.6133" x="128.9434" y="646.5205">IDs (or the empty list)</text></g><g id="crs.cni"><rect fill="#F2F2F2" height="82.8594" rx="12.5" ry="12.5" style="stroke:#000000;stroke-width:0.5;" width="321.3945" x="46.5" y="716"/><line style="stroke:#000000;stroke-width:0.5;" x1="46.5" x2="367.8945" y1="746.9531" y2="746.9531"/><text fill="#000000" font-family="Fira Code" font-size="18" lengthAdjust="spacing" textLength="146.1973" x="134.0986" y="737.708">create_next_id()</text><text fill="#000000" font-family="Fira Code" font-size="18" lengthAdjust="spacing" textLength="301.3945" x="51.5" y="768.6611">- Required arg: list of existing IDs</text><text fill="#000000" font-family="Fira Code" font-size="18" lengthAdjust="spacing" textLength="105.6973" x="51.5" y="789.6143">- Output: ID</text></g><g id="crs.cip"><rect fill="#F2F2F2" height="103.8125" rx="12.5" ry="12.5" style="stroke:#000000;stroke-width:0.5;" width="415.6484" x="23" y="859"/><line style="stroke:#000000;stroke-width:0.5;" x1="23" x2="438.6484" y1="889.9531" y2="889.9531"/><text fill="#000000" font-family="Fira Code" font-size="18" lengthAdjust="spacing" textLength="146.9268" x="157.3608" y="880.708">create_id_path()</text><text fill="#000000" font-family="Fira Code" font-size="18" lengthAdjust="spacing" textLength="366.7061" x="28" y="911.6611">- Required args: path to resources folder</text><text fill="#000000" font-family="Fira Code" font-size="18" lengthAdjust="spacing" textLength="234.334" x="39.4434" y="932.6143">and ID to assign for folder</text><text fill="#000000" font-family="Fira Code" font-size="18" lengthAdjust="spacing" textLength="395.6484" x="28" y="953.5674">- Output: path to directory for new resource</text></g><g id="crs.crrp"><rect fill="#F2F2F2" height="82.8594" rx="12.5" ry="12.5" style="stroke:#000000;stroke-width:0.5;" width="334.8682" x="43.5" y="1023"/><line style="stroke:#000000;stroke-width:0.5;" x1="43.5" x2="378.3682" y1="1053.9531" y2="1053.9531"/><text fill="#000000" font-family="Fira Code" font-size="18" lengthAdjust="spacing" textLength="251.2969" x="85.2856" y="1044.708">create_resource_raw_path()</text><text fill="#000000" font-family="Fira Code" font-size="18" lengthAdjust="spacing" textLength="314.8682" x="48.5" y="1075.6611">- Required arg: path to resource ID</text><text fill="#000000" font-family="Fira Code" font-size="18" lengthAdjust="spacing" textLength="248.0889" x="48.5" y="1096.6143">- Output: path to raw folder</text></g><g id="crs.cd"><rect fill="#F2F2F2" height="124.7656" rx="12.5" ry="12.5" style="stroke:#000000;stroke-width:0.5;" width="309.8105" x="92" y="1166"/><line style="stroke:#000000;stroke-width:0.5;" x1="92" x2="401.8105" y1="1196.9531" y2="1196.9531"/><text fill="#000000" font-family="Fira Code" font-size="18" lengthAdjust="spacing" textLength="113.7832" x="190.0137" y="1187.708">create_dirs()</text><text fill="#000000" font-family="Fira Code" font-size="18" lengthAdjust="spacing" textLength="269.499" x="97" y="1218.6611">- Required arg: list of paths of</text><text fill="#000000" font-family="Fira Code" font-size="18" lengthAdjust="spacing" textLength="182.7686" x="108.4434" y="1239.6143">directories to create</text><text fill="#000000" font-family="Fira Code" font-size="18" lengthAdjust="spacing" textLength="289.8105" x="97" y="1260.5674">- Output: list of paths of created</text><text fill="#000000" font-family="Fira Code" font-size="18" lengthAdjust="spacing" textLength="95.7217" x="108.4434" y="1281.5205">directories</text></g><text fill="#000000" font-family="Fira Code" font-size="18" lengthAdjust="spacing" textLength="55.749" x="218.6255" y="1391.708">return</text><ellipse cx="246.5" cy="1369" fill="#F2F2F2" rx="6" ry="6" style="stroke:#000000;stroke-width:1.5;"/><line style="stroke:#000000;stroke-width:1.5;" x1="250.8891" x2="243.1109" y1="1373.3891" y2="1365.6109"/><line style="stroke:#000000;stroke-width:1.5;" x1="250.8891" x2="243.1109" y1="1365.6109" y2="1373.3891"/><path d="M247.5,7 L496.2568,7 A12.5,12.5 0 0 1 508.7568,19.5 L508.7568,84.8594 L235,84.8594 L235,19.5 A12.5,12.5 0 0 1 247.5,7 " fill="#F2F2F2" style="stroke:#F2F2F2;stroke-width:1.0;"/><rect fill="none" height="182.7188" rx="12.5" ry="12.5" style="stroke:#000000;stroke-width:0.5;" width="273.7568" x="235" y="7"/><line style="stroke:#000000;stroke-width:0.5;" x1="235" x2="508.7568" y1="84.8594" y2="84.8594"/><line style="stroke:#000000;stroke-width:0.5;" x1="235" x2="508.7568" y1="37.9531" y2="37.9531"/><text fill="#000000" font-family="Fira Code" font-size="18" lengthAdjust="spacing" textLength="46.6084" x="348.5742" y="28.708">Input</text><text fill="#000000" font-family="Fira Code" font-size="18" lengthAdjust="spacing" textLength="248.7568" x="240" y="54.6611">- `path_*()` functions assist</text><text fill="#000000" font-family="Fira Code" font-size="18" lengthAdjust="spacing" textLength="224.3057" x="251.4434" y="75.6143">with giving correct paths</text><g id="input.path"><rect fill="#F2F2F2" height="82.8594" rx="12.5" ry="12.5" style="stroke:#000000;stroke-width:0.5;" width="204.6055" x="247" y="96.8594"/><line style="stroke:#000000;stroke-width:0.5;" x1="247" x2="451.6055" y1="127.8125" y2="127.8125"/><text fill="#000000" font-family="Fira Code" font-size="18" lengthAdjust="spacing" textLength="40.9219" x="328.8418" y="118.5674">path</text><text fill="#000000" font-family="Fira Code" font-size="18" lengthAdjust="spacing" textLength="170.1035" x="252" y="149.5205">- Path to resources</text><text fill="#000000" font-family="Fira Code" font-size="18" lengthAdjust="spacing" textLength="173.1621" x="263.4434" y="170.4736">folder in a package</text></g><path d="M57.5,1447 L436.9941,1447 A12.5,12.5 0 0 1 449.4941,1459.5 L449.4941,1545.8125 L45,1545.8125 L45,1459.5 A12.5,12.5 0 0 1 57.5,1447 " fill="#F2F2F2" style="stroke:#F2F2F2;stroke-width:1.0;"/><rect fill="none" height="280.7188" rx="12.5" ry="12.5" style="stroke:#000000;stroke-width:0.5;" width="404.4941" x="45" y="1447"/><line style="stroke:#000000;stroke-width:0.5;" x1="45" x2="449.4941" y1="1545.8125" y2="1545.8125"/><line style="stroke:#000000;stroke-width:0.5;" x1="45" x2="449.4941" y1="1477.9531" y2="1477.9531"/><text fill="#000000" font-family="Fira Code" font-size="18" lengthAdjust="spacing" textLength="62.5254" x="215.9844" y="1468.708">Output</text><text fill="#000000" font-family="Fira Code" font-size="18" lengthAdjust="spacing" textLength="372.4805" x="50" y="1494.6611">- The package parent folder is shown as /</text><text fill="#000000" font-family="Fira Code" font-size="18" lengthAdjust="spacing" textLength="379.4941" x="50" y="1515.6143">- Output: list two paths, the resource path</text><text fill="#000000" font-family="Fira Code" font-size="18" lengthAdjust="spacing" textLength="239.0098" x="61.4434" y="1536.5674">and the resource raw path</text><g id="output.folder_id"><rect fill="#F2F2F2" height="61.9063" rx="12.5" ry="12.5" style="stroke:#000000;stroke-width:0.5;" width="311.6914" x="77" y="1557.8125"/><line style="stroke:#000000;stroke-width:0.5;" x1="77" x2="388.6914" y1="1588.7656" y2="1588.7656"/><text fill="#000000" font-family="Fira Code" font-size="18" lengthAdjust="spacing" textLength="152.8066" x="156.4424" y="1579.5205">/resources/&lt;id&gt;/</text><text fill="#000000" font-family="Fira Code" font-size="18" lengthAdjust="spacing" textLength="291.6914" x="82" y="1610.4736">Folder with assigned ID (e.g. '1')</text></g><g id="output.folder_raw"><rect fill="#F2F2F2" height="61.9063" rx="12.5" ry="12.5" style="stroke:#000000;stroke-width:0.5;" width="351.6553" x="57" y="1655.8125"/><line style="stroke:#000000;stroke-width:0.5;" x1="57" x2="408.6553" y1="1686.7656" y2="1686.7656"/><text fill="#000000" font-family="Fira Code" font-size="18" lengthAdjust="spacing" textLength="192.0234" x="136.8159" y="1677.5205">/resources/&lt;id&gt;/raw/</text><text fill="#000000" font-family="Fira Code" font-size="18" lengthAdjust="spacing" textLength="331.6553" x="62" y="1708.4736">Raw folder with assigned ID (e.g. '1')</text></g><!--link folder_id to folder_raw--><!--link input to arg--><g id="link_input_arg"><path d="M372,190.4 C372,215.93 372,233.5 372,243.69 " fill="none" id="input-to-arg" style="stroke:#000000;stroke-width:1.0;"/><polygon fill="#000000" points="372,249.69,376,240.69,372,244.69,368,240.69,372,249.69" style="stroke:#000000;stroke-width:1.0;"/></g><!--link arg to vid--><g id="link_arg_vid"><path d="M368,262.32 C353.92,281.03 309.4066,340.215 277.1466,383.105 " fill="none" id="arg-to-vid" style="stroke:#000000;stroke-width:1.0;"/><polygon fill="#000000" points="273.54,387.9,282.1466,383.1119,276.5455,383.9041,275.7532,378.303,273.54,387.9" style="stroke:#000000;stroke-width:1.0;"/></g><!--link vid to gi--><g id="link_vid_gi"><path d="M239.47,471.38 C237.91,489.38 236.5672,504.9323 234.8472,524.8123 " fill="none" id="vid-to-gi" style="stroke:#000000;stroke-width:1.0;"/><polygon fill="#000000" points="234.33,530.79,239.0909,522.1683,234.761,525.8086,231.1207,521.4787,234.33,530.79" style="stroke:#000000;stroke-width:1.0;"/></g><!--link gi to cni--><g id="link_gi_cni"><path d="M220.62,656.21 C217.92,676.06 215.8201,691.6049 213.3701,709.5849 " fill="none" id="gi-to-cni" style="stroke:#000000;stroke-width:1.0;"/><polygon fill="#000000" points="212.56,715.53,217.7385,707.1525,213.2351,710.5758,209.8118,706.0723,212.56,715.53" style="stroke:#000000;stroke-width:1.0;"/></g><!--link cni to cip--><g id="link_cni_cip"><path d="M213.43,799.1 C216.35,817.51 218.8914,833.5439 221.9814,853.0539 " fill="none" id="cni-to-cip" style="stroke:#000000;stroke-width:1.0;"/><polygon fill="#000000" points="222.92,858.98,225.4629,849.4651,222.1378,854.0416,217.5614,850.7165,222.92,858.98" style="stroke:#000000;stroke-width:1.0;"/></g><!--link arg to cip--><g id="link_arg_cip"><path d="M373.72,262.27 C380.37,283.1 404,361.87 404,428.5 C404,428.5 404,428.5 404,594.5 C404,685.78 430.31,719.76 385,799 C371.42,822.75 355.3004,839.2145 333.1704,855.4245 " fill="none" id="arg-to-cip" style="stroke:#000000;stroke-width:1.0;"/><polygon fill="#000000" points="328.33,858.97,337.9542,856.8786,332.3636,856.0154,333.2269,850.4248,328.33,858.97" style="stroke:#000000;stroke-width:1.0;"/></g><!--link cip to crrp--><g id="link_cip_crrp"><path d="M224.23,963.29 C221.67,982.69 219.5766,998.5418 217.1566,1016.8418 " fill="none" id="cip-to-crrp" style="stroke:#000000;stroke-width:1.0;"/><polygon fill="#000000" points="216.37,1022.79,221.5154,1014.3921,217.0255,1017.8332,213.5844,1013.3433,216.37,1022.79" style="stroke:#000000;stroke-width:1.0;"/></g><!--link cip to cd--><g id="link_cip_cd"><path d="M340.17,963.29 C362.56,979.14 383.18,998.93 396,1023 C413.34,1055.56 411.82,1072.68 396,1106 C385.12,1128.91 372.0943,1144.9891 352.7843,1161.8091 " fill="none" id="cip-to-cd" style="stroke:#000000;stroke-width:1.0;"/><polygon fill="#000000" points="348.26,1165.75,357.6737,1162.8549,352.0303,1162.4659,352.4192,1156.8224,348.26,1165.75" style="stroke:#000000;stroke-width:1.0;"/></g><!--link crrp to cd--><g id="link_crrp_cd"><path d="M220.08,1106.38 C224.08,1124.38 227.5678,1140.053 231.9878,1159.933 " fill="none" id="crrp-to-cd" style="stroke:#000000;stroke-width:1.0;"/><polygon fill="#000000" points="233.29,1165.79,235.2413,1156.1364,232.2048,1160.9092,227.432,1157.8727,233.29,1165.79" style="stroke:#000000;stroke-width:1.0;"/></g><!--link cd to return--><g id="link_cd_return"><path d="M247,1291.05 C247,1319.95 247,1344.66 247,1356.71 " fill="none" id="cd-to-return" style="stroke:#000000;stroke-width:1.0;"/><polygon fill="#000000" points="247,1362.71,251,1353.71,247,1357.71,243,1353.71,247,1362.71" style="stroke:#000000;stroke-width:1.0;"/></g><!--link return to output--><g id="link_return_output"><path d="M247,1375.35 C247,1386.68 247,1408.7 247,1440.75 " fill="none" id="return-to-output" style="stroke:#000000;stroke-width:1.0;"/><polygon fill="#000000" points="247,1446.75,251,1437.75,247,1441.75,243,1437.75,247,1446.75" style="stroke:#000000;stroke-width:1.0;"/></g><!--SRC=[XLJ1ZjCm4BtdAuQzj4Ma4TTgLGcf8FN4QiKDK3OuqyImjSFOQRT2_3ipJfmqBOKU6YSpVk_Dcx5V-Hht20wnL8L3s97TG-rzurPPHiLnMMbVjzzQXwIiyMZyKjbz5lFJXkntL7xy4F2oVQ5DaZXVU8IxhMbQVmU50oqh-9L0lrf12azDuUlyzNpn1BlMAA-jSPphjFDV3C2H-Q7I1sqgK9Q8oK1sk6G6xwXgzop9GIe_XfL8G7sGXRT0w6nB2frWxUnpYSJSK72c-b5KcFmUP7viVTHfmp88xPU2-Qd6k8sVnCG3eWDNswEHlTbqKuUwWcUk1_pHTkBV0FiqY0lVH61Xocc0En22ZDchp8QAidjThhEWjvEHwpA1SStq7pfvmKEnj39OmdO3SrnMIvYzdIsIsyZCFK7dzn5UXAtWaVzt_-Su5vMcdsjTbcY-hi-1npOeGdxcKKpkFBNAjuJpHL2Zo8N6o5CCViIVhIRcBFffM7ME3ONnTxY_vm2T7gmsVhqUvYzDrn8-C-60f7UdNBkyrDGp7eAlX-3eb6yLcnE3iTjX3Yt1Uo9B71SDGYPG8rc5dYrnFKsbELBf6oGyp38XGuzwyyOjaq6pEy0NNl2faLtRZOCvov7PmdtZJo5h0RroKSRiex2-1mPVH60qteX0_l-BmajIOJnBZjgscqwl40hS5QCkSoasCkf6G7HpnUW6KwuSYUU8Hv2ZtKHoY4R38k2aMPpB7UVRnT8ff1iy3jXzAK5sq1JxAMzNHGoZouCzAOSerCEFsqqUptumQqY-54l3qUih2dA4uKeFrnLdJCaag_8V7GpN4o_4ncY8PdEPieCR0IudBcxj4yiBY7ETPIojVniq4_9HDt9UNxGVZwlgXhIB9X3Jv5jtr_85yWS0]--></g></svg>