<?xml version="1.0" encoding="us-ascii" standalone="no"?><svg xmlns="http://www.w3.org/2000/svg" xmlns:xlink="http://www.w3.org/1999/xlink" contentStyleType="text/css" height="1713px" preserveAspectRatio="none" style="width:630px;height:1713px;background:#FFFFFF;" version="1.1" viewBox="0 0 630 1713" width="630px" zoomAndPan="magnify"><defs/><g><!--cluster input--><g id="cluster_input"><path d="M47.5,7 L589.5,7 A12.5,12.5 0 0 1 602,19.5 L602,58.9063 L35,58.9063 L35,19.5 A12.5,12.5 0 0 1 47.5,7 " fill="#F2F2F2" style="stroke:#F2F2F2;stroke-width:1.0;"/><rect fill="none" height="164" rx="12.5" ry="12.5" style="stroke:#000000;stroke-width:0.5;" width="567" x="35" y="7"/><line style="stroke:#000000;stroke-width:0.5;" x1="35" x2="602" y1="58.9063" y2="58.9063"/><line style="stroke:#000000;stroke-width:0.5;" x1="35" x2="602" y1="32.9531" y2="32.9531"/><text fill="#000000" font-family="Fira Code" font-size="18" lengthAdjust="spacing" textLength="46" x="85.5" y="27.708">Input</text><text fill="#000000" font-family="Fira Code" font-size="18" lengthAdjust="spacing" textLength="466" x="40" y="52.1611">- `path_*()` functions assist with giving correct paths</text></g><!--cluster crp--><g id="cluster_crp"><path d="M19.5,236 L604.5,236 A12.5,12.5 0 0 1 617,248.5 L617,329.8125 L7,329.8125 L7,248.5 A12.5,12.5 0 0 1 19.5,236 " fill="#F2F2F2" style="stroke:#F2F2F2;stroke-width:1.0;"/><rect fill="none" height="1215" rx="12.5" ry="12.5" style="stroke:#000000;stroke-width:0.5;" width="610" x="7" y="236"/><line style="stroke:#000000;stroke-width:0.5;" x1="7" x2="617" y1="329.8125" y2="329.8125"/><line style="stroke:#000000;stroke-width:0.5;" x1="7" x2="617" y1="261.9531" y2="261.9531"/><text fill="#000000" font-family="Fira Code" font-size="18" lengthAdjust="spacing" textLength="256" x="184" y="257.708">create_resource_properties()</text><text fill="#000000" font-family="Fira Code" font-size="18" lengthAdjust="spacing" textLength="180" x="12" y="281.1611">- Required arg: path</text><text fill="#000000" font-family="Fira Code" font-size="18" lengthAdjust="spacing" textLength="436" x="12" y="302.1143">- Conditional args: data_path or properties object</text><text fill="#000000" font-family="Fira Code" font-size="18" lengthAdjust="spacing" textLength="499" x="12" y="323.0674">- Either data_path or properties must be given, not both</text></g><g id="input.path"><rect fill="#F2F2F2" height="82.8594" rx="12.5" ry="12.5" style="stroke:#000000;stroke-width:0.5;" width="167" x="50.5" y="72"/><line style="stroke:#000000;stroke-width:0.5;" x1="50.5" x2="217.5" y1="102.9531" y2="102.9531"/><text fill="#000000" font-family="Fira Code" font-size="18" lengthAdjust="spacing" textLength="39" x="114.5" y="93.708">path</text><text fill="#000000" font-family="Fira Code" font-size="18" lengthAdjust="spacing" textLength="146" x="55.5" y="124.6611">- Path to specific</text><text fill="#000000" font-family="Fira Code" font-size="18" lengthAdjust="spacing" textLength="135" x="67.5" y="145.6143">resource folder</text></g><g id="input.data_path"><rect fill="#F2F2F2" height="82.8594" rx="12.5" ry="12.5" style="stroke:#000000;stroke-width:0.5;" width="174" x="253" y="72"/><line style="stroke:#000000;stroke-width:0.5;" x1="253" x2="427" y1="102.9531" y2="102.9531"/><text fill="#000000" font-family="Fira Code" font-size="18" lengthAdjust="spacing" textLength="86" x="297" y="93.708">data_path</text><text fill="#000000" font-family="Fira Code" font-size="18" lengthAdjust="spacing" textLength="154" x="258" y="124.6611">- Path to file with</text><text fill="#000000" font-family="Fira Code" font-size="18" lengthAdjust="spacing" textLength="78" x="270" y="145.6143">data in it</text></g><g id="input.properties"><rect fill="#F2F2F2" height="82.8594" rx="12.5" ry="12.5" style="stroke:#000000;stroke-width:0.5;" width="123" x="462.5" y="72"/><line style="stroke:#000000;stroke-width:0.5;" x1="462.5" x2="585.5" y1="102.9531" y2="102.9531"/><text fill="#000000" font-family="Fira Code" font-size="18" lengthAdjust="spacing" textLength="91" x="478.5" y="93.708">properties</text><text fill="#000000" font-family="Fira Code" font-size="18" lengthAdjust="spacing" textLength="81" x="467.5" y="124.6611">- JSON of</text><text fill="#000000" font-family="Fira Code" font-size="18" lengthAdjust="spacing" textLength="91" x="479.5" y="145.6143">properties</text></g><text fill="#000000" font-family="Fira Code" font-size="18" lengthAdjust="spacing" textLength="77" x="95.5" y="213.7549">arg_path</text><ellipse cx="134" cy="236" fill="#F2F2F2" rx="6" ry="6" style="stroke:#000000;stroke-width:1.5;"/><text fill="#000000" font-family="Fira Code" font-size="18" lengthAdjust="spacing" textLength="124" x="295" y="213.7549">arg_data_path</text><ellipse cx="357" cy="236" fill="#F2F2F2" rx="6" ry="6" style="stroke:#000000;stroke-width:1.5;"/><text fill="#000000" font-family="Fira Code" font-size="18" lengthAdjust="spacing" textLength="129" x="453" y="213.7549">arg_properties</text><ellipse cx="517.5" cy="236" fill="#F2F2F2" rx="6" ry="6" style="stroke:#000000;stroke-width:1.5;"/><g id="crp.vid"><rect fill="#F2F2F2" height="82.8594" rx="12.5" ry="12.5" style="stroke:#000000;stroke-width:0.5;" width="222" x="23" y="947"/><line style="stroke:#000000;stroke-width:0.5;" x1="23" x2="245" y1="977.9531" y2="977.9531"/><text fill="#000000" font-family="Fira Code" font-size="18" lengthAdjust="spacing" textLength="178" x="45" y="968.708">verify_is_directory()</text><text fill="#000000" font-family="Fira Code" font-size="18" lengthAdjust="spacing" textLength="180" x="28" y="999.6611">- Required arg: path</text><text fill="#000000" font-family="Fira Code" font-size="18" lengthAdjust="spacing" textLength="202" x="28" y="1020.6143">- Output: path or Error</text></g><g id="crp.prrd"><rect fill="#F2F2F2" height="103.8125" rx="12.5" ry="12.5" style="stroke:#000000;stroke-width:0.5;" width="379" x="22.5" y="1091"/><line style="stroke:#000000;stroke-width:0.5;" x1="22.5" x2="401.5" y1="1121.9531" y2="1121.9531"/><text fill="#000000" font-family="Fira Code" font-size="18" lengthAdjust="spacing" textLength="263" x="80.5" y="1112.708">path_relative_resource_data()</text><text fill="#000000" font-family="Fira Code" font-size="18" lengthAdjust="spacing" textLength="359" x="27.5" y="1143.6611">- Required arg: absolute path from input</text><text fill="#000000" font-family="Fira Code" font-size="18" lengthAdjust="spacing" textLength="199" x="27.5" y="1164.6143">- Output: relative path</text><text fill="#000000" font-family="Fira Code" font-size="18" lengthAdjust="spacing" textLength="293" x="39.5" y="1185.5674">(e.g. `resources/1/data.parquet`)</text></g><g id="elem_condition_input"><polygon fill="#F1F1F1" points="425,454,437,466,425,478,413,466,425,454" style="stroke:#181818;stroke-width:0.5;"/></g><g id="crp.vrp"><rect fill="#F2F2F2" height="103.8125" rx="12.5" ry="12.5" style="stroke:#000000;stroke-width:0.5;" width="272" x="147" y="669"/><line style="stroke:#000000;stroke-width:0.5;" x1="147" x2="419" y1="699.9531" y2="699.9531"/><text fill="#000000" font-family="Fira Code" font-size="18" lengthAdjust="spacing" textLength="252" x="157" y="690.708">verify_resource_properties()</text><text fill="#000000" font-family="Fira Code" font-size="18" lengthAdjust="spacing" textLength="232" x="152" y="721.6611">- Required arg: properties</text><text fill="#000000" font-family="Fira Code" font-size="18" lengthAdjust="spacing" textLength="208" x="152" y="742.6143">- Output: JSON or Error</text><text fill="#000000" font-family="Fira Code" font-size="18" lengthAdjust="spacing" textLength="188" x="152" y="763.5674">- Checks against spec</text></g><g id="crp.vif"><rect fill="#F2F2F2" height="82.8594" rx="12.5" ry="12.5" style="stroke:#000000;stroke-width:0.5;" width="222" x="340" y="556"/><line style="stroke:#000000;stroke-width:0.5;" x1="340" x2="562" y1="586.9531" y2="586.9531"/><text fill="#000000" font-family="Fira Code" font-size="18" lengthAdjust="spacing" textLength="124" x="389" y="577.708">verify_is_file()</text><text fill="#000000" font-family="Fira Code" font-size="18" lengthAdjust="spacing" textLength="180" x="345" y="608.6611">- Required arg: path</text><text fill="#000000" font-family="Fira Code" font-size="18" lengthAdjust="spacing" textLength="202" x="345" y="629.6143">- Output: path or Error</text></g><g id="crp.vsf"><rect fill="#F2F2F2" height="82.8594" rx="12.5" ry="12.5" style="stroke:#000000;stroke-width:0.5;" width="252" x="331" y="803"/><line style="stroke:#000000;stroke-width:0.5;" x1="331" x2="583" y1="833.9531" y2="833.9531"/><text fill="#000000" font-family="Fira Code" font-size="18" lengthAdjust="spacing" textLength="232" x="341" y="824.708">verify_format_supported()</text><text fill="#000000" font-family="Fira Code" font-size="18" lengthAdjust="spacing" textLength="180" x="336" y="855.6611">- Required arg: path</text><text fill="#000000" font-family="Fira Code" font-size="18" lengthAdjust="spacing" textLength="202" x="336" y="876.6143">- Output: path or Error</text></g><g id="crp.erp"><rect fill="#F2F2F2" height="82.8594" rx="12.5" ry="12.5" style="stroke:#000000;stroke-width:0.5;" width="283" x="317.5" y="947"/><line style="stroke:#000000;stroke-width:0.5;" x1="317.5" x2="600.5" y1="977.9531" y2="977.9531"/><text fill="#000000" font-family="Fira Code" font-size="18" lengthAdjust="spacing" textLength="263" x="327.5" y="968.708">extract_resource_properties()</text><text fill="#000000" font-family="Fira Code" font-size="18" lengthAdjust="spacing" textLength="180" x="322.5" y="999.6611">- Required arg: path</text><text fill="#000000" font-family="Fira Code" font-size="18" lengthAdjust="spacing" textLength="131" x="322.5" y="1020.6143">- Output: JSON</text></g><g id="elem_condition_output"><polygon fill="#F1F1F1" points="448,1131,460,1143,448,1155,436,1143,448,1131" style="stroke:#181818;stroke-width:0.5;"/></g><g id="crp.erpf"><rect fill="#F2F2F2" height="82.8594" rx="12.5" ry="12.5" style="stroke:#000000;stroke-width:0.5;" width="370" x="144" y="1289"/><line style="stroke:#000000;stroke-width:0.5;" x1="144" x2="514" y1="1319.9531" y2="1319.9531"/><text fill="#000000" font-family="Fira Code" font-size="18" lengthAdjust="spacing" textLength="281" x="188.5" y="1310.708">edit_resource_properties_field()</text><text fill="#000000" font-family="Fira Code" font-size="18" lengthAdjust="spacing" textLength="350" x="149" y="1341.6611">- Required args: properties, field, value</text><text fill="#000000" font-family="Fira Code" font-size="18" lengthAdjust="spacing" textLength="131" x="149" y="1362.6143">- Output: JSON</text></g><text fill="#000000" font-family="Fira Code" font-size="18" lengthAdjust="spacing" textLength="56" x="300.5" y="1473.708">return</text><ellipse cx="328.5" cy="1451" fill="#F2F2F2" rx="6" ry="6" style="stroke:#000000;stroke-width:1.5;"/><line style="stroke:#000000;stroke-width:1.5;" x1="332.8891" x2="325.1109" y1="1455.3891" y2="1447.6109"/><line style="stroke:#000000;stroke-width:1.5;" x1="332.8891" x2="325.1109" y1="1447.6109" y2="1455.3891"/><path d="M148,1530 L510,1530 A12.5,12.5 0 0 1 522.5,1542.5 L522.5,1560.9531 L135.5,1560.9531 L135.5,1542.5 A12.5,12.5 0 0 1 148,1530 " fill="#F2F2F2" style="stroke:#F2F2F2;stroke-width:1.0;"/><rect fill="none" height="177.7188" rx="12.5" ry="12.5" style="stroke:#000000;stroke-width:0.5;" width="387" x="135.5" y="1530"/><line style="stroke:#000000;stroke-width:0.5;" x1="135.5" x2="522.5" y1="1560.9531" y2="1560.9531"/><text fill="#000000" font-family="Fira Code" font-size="18" lengthAdjust="spacing" textLength="61" x="298.5" y="1551.708">Output</text><g id="output.json_output"><rect fill="#F2F2F2" height="124.7656" rx="12.5" ry="12.5" style="stroke:#000000;stroke-width:0.5;" width="366" x="147.5" y="1572.9531"/><line style="stroke:#000000;stroke-width:0.5;" x1="147.5" x2="513.5" y1="1603.9063" y2="1603.9063"/><text fill="#000000" font-family="Fira Code" font-size="18" lengthAdjust="spacing" textLength="45" x="308" y="1594.6611">JSON</text><text fill="#000000" font-family="Fira Code" font-size="18" lengthAdjust="spacing" textLength="346" x="152.5" y="1625.6143">- JSON object of the resource following</text><text fill="#000000" font-family="Fira Code" font-size="18" lengthAdjust="spacing" textLength="199" x="164.5" y="1646.5674">the Data Package spec</text><text fill="#000000" font-family="Fira Code" font-size="18" lengthAdjust="spacing" textLength="341" x="152.5" y="1667.5205">- Use `write_resource_properties()` to</text><text fill="#000000" font-family="Fira Code" font-size="18" lengthAdjust="spacing" textLength="285" x="164.5" y="1688.4736">save back to `datapackage.json`</text></g><!--link path to data_path--><!--link data_path to properties--><!--link path to arg_path--><g id="link_path_arg_path"><path d="M134,155.3 C134,179.89 134,209.33 134,224.62 " fill="none" id="path-to-arg_path" style="stroke:#000000;stroke-width:1.0;"/><polygon fill="#000000" points="134,229.92,138,220.92,134,224.92,130,220.92,134,229.92" style="stroke:#000000;stroke-width:1.0;"/></g><!--link data_path to arg_data_path--><g id="link_data_path_arg_data_path"><path d="M345.76,155.3 C349.22,179.89 353.38,209.33 355.54,224.62 " fill="none" id="data_path-to-arg_data_path" style="stroke:#000000;stroke-width:1.0;"/><polygon fill="#000000" points="356.28,229.92,358.9823,220.4491,355.5809,224.9691,351.0609,221.5677,356.28,229.92" style="stroke:#000000;stroke-width:1.0;"/></g><!--link properties to arg_properties--><g id="link_properties_arg_properties"><path d="M521.97,155.3 C520.74,179.89 519.28,209.33 518.52,224.62 " fill="none" id="properties-to-arg_properties" style="stroke:#000000;stroke-width:1.0;"/><polygon fill="#000000" points="518.25,229.92,522.6819,221.1247,518.4926,224.9259,514.6913,220.7365,518.25,229.92" style="stroke:#000000;stroke-width:1.0;"/></g><!--link arg_path to vid--><g id="link_arg_path_vid"><path d="M134,242.3 C134,254.9 134,287.65 134,315 C134,315 134,315 134,845.5 C134,877.64 134,913.88 134,941.7 " fill="none" id="arg_path-to-vid" style="stroke:#000000;stroke-width:1.0;"/><polygon fill="#000000" points="134,946.8,138,937.8,134,941.8,130,937.8,134,946.8" style="stroke:#000000;stroke-width:1.0;"/></g><!--link vid to prrd--><g id="link_vid_prrd"><path d="M154.9,1030.37 C163.68,1047.53 174.03,1067.76 183.49,1086.26 " fill="none" id="vid-to-prrd" style="stroke:#000000;stroke-width:1.0;"/><polygon fill="#000000" points="185.87,1090.92,185.3096,1081.0871,183.5826,1086.4739,178.1958,1084.7469,185.87,1090.92" style="stroke:#000000;stroke-width:1.0;"/></g><!--link arg_properties to condition_input--><g id="link_arg_properties_condition_input"><path d="M515.88,242.19 C504.24,270.73 447.93,408.8 430.29,452.03 " fill="none" id="arg_properties-to-condition_input" style="stroke:#000000;stroke-width:1.0;"/><polygon fill="#000000" points="428.34,456.82,435.44,449.9944,430.2265,452.1895,428.0313,446.976,428.34,456.82" style="stroke:#000000;stroke-width:1.0;"/></g><!--link condition_input to vrp--><g id="link_condition_input_vrp"><path d="M418.76,472.01 C415.91,474.1 412.42,476.41 409,478 C363.44,499.19 332.03,469.28 300,508 C281.08,530.88 279.22,608.67 280.45,663.35 " fill="none" id="condition_input-to-vrp" style="stroke:#000000;stroke-width:1.0;"/><polygon fill="#000000" points="280.58,668.57,284.3473,659.4702,280.4515,663.5717,276.35,659.6758,280.58,668.57" style="stroke:#000000;stroke-width:1.0;"/><text fill="#000000" font-family="sans-serif" font-size="14" lengthAdjust="spacing" textLength="123" x="301" y="521.9951">If properties given</text></g><!--link arg_data_path to condition_input--><g id="link_arg_data_path_condition_input"><path d="M359.92,242.22 C368.83,258.4 395.9,309.38 409,355 C418.43,387.83 422.47,427.85 424.06,449.42 " fill="none" id="arg_data_path-to-condition_input" style="stroke:#000000;stroke-width:1.0;"/><polygon fill="#000000" points="424.42,454.49,427.7949,445.2374,424.0779,449.5017,419.8137,445.7847,424.42,454.49" style="stroke:#000000;stroke-width:1.0;"/></g><!--link condition_input to vif--><g id="link_condition_input_vif"><path d="M426.87,476.31 C429.97,491.76 436.38,523.68 441.81,550.74 " fill="none" id="condition_input-to-vif" style="stroke:#000000;stroke-width:1.0;"/><polygon fill="#000000" points="442.81,555.73,444.9619,546.1191,441.8267,550.8276,437.1181,547.6924,442.81,555.73" style="stroke:#000000;stroke-width:1.0;"/><text fill="#000000" font-family="sans-serif" font-size="14" lengthAdjust="spacing" textLength="120" x="437" y="521.9951">If data_path given</text></g><!--link vif to vsf--><g id="link_vif_vsf"><path d="M452,639.23 C453.07,682.86 454.76,751.96 455.87,797.51 " fill="none" id="vif-to-vsf" style="stroke:#000000;stroke-width:1.0;"/><polygon fill="#000000" points="456,802.67,459.7673,793.5702,455.8715,797.6717,451.77,793.7758,456,802.67" style="stroke:#000000;stroke-width:1.0;"/></g><!--link vsf to erp--><g id="link_vsf_erp"><path d="M457.57,886.19 C457.82,903.42 458.1,923.59 458.35,941.37 " fill="none" id="vsf-to-erp" style="stroke:#000000;stroke-width:1.0;"/><polygon fill="#000000" points="458.43,946.8,462.301,937.7438,458.3586,941.8005,454.3018,937.8581,458.43,946.8" style="stroke:#000000;stroke-width:1.0;"/></g><!--link erp to condition_output--><g id="link_erp_condition_output"><path d="M456.05,1030.37 C453.78,1061.92 450.75,1103.87 449.13,1126.29 " fill="none" id="erp-to-condition_output" style="stroke:#000000;stroke-width:1.0;"/><polygon fill="#000000" points="448.75,1131.55,453.3828,1122.8588,449.1073,1126.5628,445.4033,1122.2872,448.75,1131.55" style="stroke:#000000;stroke-width:1.0;"/></g><!--link vrp to condition_output--><g id="link_vrp_condition_output"><path d="M279.83,773.14 C276.08,849.56 273.34,988.96 300,1030 C332.38,1079.84 376.07,1049.9 419,1091 C430.23,1101.75 438.38,1117.81 443.13,1129.03 " fill="none" id="vrp-to-condition_output" style="stroke:#000000;stroke-width:1.0;"/><polygon fill="#000000" points="445.07,1133.8,445.3893,1123.9563,443.1885,1129.1675,437.9773,1126.9667,445.07,1133.8" style="stroke:#000000;stroke-width:1.0;"/></g><!--link prrd to erpf--><g id="link_prrd_erpf"><path d="M244.28,1195.18 C261.94,1223.17 283.61,1257.54 300.62,1284.5 " fill="none" id="prrd-to-erpf" style="stroke:#000000;stroke-width:1.0;"/><polygon fill="#000000" points="303.3,1288.76,301.8984,1279.0114,300.6397,1284.5264,295.1247,1283.2678,303.3,1288.76" style="stroke:#000000;stroke-width:1.0;"/><text fill="#000000" font-family="sans-serif" font-size="14" lengthAdjust="spacing" textLength="99" x="285" y="1238.9951">Update `path`</text><text fill="#000000" font-family="sans-serif" font-size="14" lengthAdjust="spacing" textLength="58" x="305.5" y="1255.292">property</text></g><!--link condition_output to erpf--><g id="link_condition_output_erpf"><path d="M445.02,1152.24 C437.76,1171.74 417.93,1221.89 393,1259 C387.14,1267.73 380.24,1276.47 373.18,1284.68 " fill="none" id="condition_output-to-erpf" style="stroke:#000000;stroke-width:1.0;"/><polygon fill="#000000" points="369.7,1288.66,378.6279,1284.5016,372.9844,1284.89,372.596,1279.2465,369.7,1288.66" style="stroke:#000000;stroke-width:1.0;"/></g><!--link erpf to return--><g id="link_erpf_return"><path d="M329,1372.28 C329,1396.16 329,1424.48 329,1439.47 " fill="none" id="erpf-to-return" style="stroke:#000000;stroke-width:1.0;"/><polygon fill="#000000" points="329,1444.7,333.0257,1435.7115,329.0143,1439.7,325.0257,1435.6886,329,1444.7" style="stroke:#000000;stroke-width:1.0;"/></g><!--link return to output--><g id="link_return_output"><path d="M329,1457.15 C329,1468.22 329,1495.65 329,1524.79 " fill="none" id="return-to-output" style="stroke:#000000;stroke-width:1.0;"/><polygon fill="#000000" points="329,1529.86,333,1520.86,329,1524.86,325,1520.86,329,1529.86" style="stroke:#000000;stroke-width:1.0;"/></g><!--SRC=[XLPDRzim3BtdLt2zx0DDWbsBei3GjK1tw8eDFMs3eyXqejQHF4fEMmpxxoFbBpbDiXmInIGV7yad9c_26ZS87Z7NoYCKv3Qm3g7oP_CvgQVPoeHrlQmzadOse0qpxJRppdzQaNj07OO74M- -KSPE9lxHs4gHsi3te09UCy2bAnt1ibJwSP_vLZ6PQqCABbsEZ206EBcnLHrEG7amSe8_4sXFPp25HQN2Ellmxlq2YjhgO9prxEkD3_34z65bjiQkG3iYvWhYxYTluHEjwWrNv64gByOKIuIyaqDmu2lKfZ3wfmKWzAucpJroPOx4xhaAAdiLKvWIOru94XUc2YO8FBaAAHZqCU3Bzw-tu0fn6omTY-cFjSbpjBykXZIZb8b34lstxzdNEdHDS_4OkzOQ9NKqFNXdiyRErkHRmd0f4sQYmBCTTQ5qJznNuI-MprBg7GzMhJ0sRW_WFKjiyKGcODO1PGDxcM1mWkVL5c79MDBGXHHTDS0pGLmaPMf2TGWjLgYfYfNBfr3uXhzhGvY3ejKPj6tjZ9VEvaO4f4gn-xEauQpRP81DLvBGAvuuqa7_JSrgNA9e4UqfMCVV7EVkPyBfchZpSzOalTmvOyF5nSW-W1znIfBkUFNQcbxqwSQQQWsfuXAuFcxGso2fBP8fNZBZizp8DNFqqavWQt9su_V3_U-CZMYRnzB0Ao8dDwrlZb0Gl25llFo4fGhSsK47KaARloBAOo6qZu5QUbVMZ1Jnu_wBgoMDw6XrQQAlwFGTpbOpM7HP_VpZN1BFUAtzhZ4ithUr2Ur8e-UjEwLbpI8xFzThPpJ6OUwCKQ9t_5yt_l0Ds58bDFRhFrqydKjNRdFzXobqziirwaTUiIlUygpgzgxlLXH75IDkYbH5yGPCsYh7sljlaQmkMQ-zi8hOt-AOi8gZmjfBEiOmwO5SptbCft2qKI7pTLKv2fXtl7pavO_nyiTv2OV8XQ66jFWSIEbmPDOOPut7TXtkcNBBI38AmXwLjajy95D16e-j_oNP7Z8bnR1XNoKyOIppePwYoVIwcJwLxod4i5FOghB6D6IdpdYfsqB5uRxAXKxy4x7uQLl4bv4sskAxgAG8mb2JFP5D-sp2i8uZkFWt3XDe3_5Psug__m00]--></g></svg>