<?xml version="1.0" encoding="us-ascii" standalone="no"?><svg xmlns="http://www.w3.org/2000/svg" xmlns:xlink="http://www.w3.org/1999/xlink" contentStyleType="text/css" height="1492px" preserveAspectRatio="none" style="width:492px;height:1492px;background:#FFFFFF;" version="1.1" viewBox="0 0 492 1492" width="492px" zoomAndPan="magnify"><defs/><g><!--cluster crs--><g id="cluster_crs"><path d="M19.5,256 L408.5,256 A12.5,12.5 0 0 1 421,268.5 L421,307.9063 L7,307.9063 L7,268.5 A12.5,12.5 0 0 1 19.5,256 " fill="#F2F2F2" style="stroke:#F2F2F2;stroke-width:1.0;"/><rect fill="none" height="872" rx="12.5" ry="12.5" style="stroke:#000000;stroke-width:0.5;" width="414" x="7" y="256"/><line style="stroke:#000000;stroke-width:0.5;" x1="7" x2="421" y1="307.9063" y2="307.9063"/><line style="stroke:#000000;stroke-width:0.5;" x1="7" x2="421" y1="281.9531" y2="281.9531"/><text fill="#000000" font-family="Fira Code" font-size="18" lengthAdjust="spacing" textLength="245" x="91.5" y="277.708">create_resource_structure()</text><text fill="#000000" font-family="Fira Code" font-size="18" lengthAdjust="spacing" textLength="237" x="12" y="301.1611">- Required argument: path</text></g><text fill="#000000" font-family="Fira Code" font-size="18" lengthAdjust="spacing" textLength="29" x="199.5" y="233.7549">arg</text><ellipse cx="214" cy="256" fill="#F2F2F2" rx="6" ry="6" style="stroke:#000000;stroke-width:1.5;"/><g id="crs.vid"><rect fill="#F2F2F2" height="82.8594" rx="12.5" ry="12.5" style="stroke:#000000;stroke-width:0.5;" width="222" x="103" y="327"/><line style="stroke:#000000;stroke-width:0.5;" x1="103" x2="325" y1="357.9531" y2="357.9531"/><text fill="#000000" font-family="Fira Code" font-size="18" lengthAdjust="spacing" textLength="178" x="125" y="348.708">verify_is_directory()</text><text fill="#000000" font-family="Fira Code" font-size="18" lengthAdjust="spacing" textLength="180" x="108" y="379.6611">- Required arg: path</text><text fill="#000000" font-family="Fira Code" font-size="18" lengthAdjust="spacing" textLength="202" x="108" y="400.6143">- Output: path or Error</text></g><g id="crs.gi"><rect fill="#F2F2F2" height="82.8594" rx="12.5" ry="12.5" style="stroke:#000000;stroke-width:0.5;" width="373" x="27.5" y="470"/><line style="stroke:#000000;stroke-width:0.5;" x1="27.5" x2="400.5" y1="500.9531" y2="500.9531"/><text fill="#000000" font-family="Fira Code" font-size="18" lengthAdjust="spacing" textLength="76" x="176" y="491.708">get_ids()</text><text fill="#000000" font-family="Fira Code" font-size="18" lengthAdjust="spacing" textLength="353" x="32.5" y="522.6611">- Required arg: path to resources folder</text><text fill="#000000" font-family="Fira Code" font-size="18" lengthAdjust="spacing" textLength="335" x="32.5" y="543.6143">- Output: list of existing IDs (or None)</text></g><g id="crs.cri"><rect fill="#F2F2F2" height="82.8594" rx="12.5" ry="12.5" style="stroke:#000000;stroke-width:0.5;" width="318" x="55" y="613"/><line style="stroke:#000000;stroke-width:0.5;" x1="55" x2="373" y1="643.9531" y2="643.9531"/><text fill="#000000" font-family="Fira Code" font-size="18" lengthAdjust="spacing" textLength="181" x="123.5" y="634.708">create_resource_id()</text><text fill="#000000" font-family="Fira Code" font-size="18" lengthAdjust="spacing" textLength="298" x="60" y="665.6611">- Required arg: list of existing IDs</text><text fill="#000000" font-family="Fira Code" font-size="18" lengthAdjust="spacing" textLength="106" x="60" y="686.6143">- Output: ID</text></g><g id="crs.crd"><rect fill="#F2F2F2" height="82.8594" rx="12.5" ry="12.5" style="stroke:#000000;stroke-width:0.5;" width="382" x="23" y="756"/><line style="stroke:#000000;stroke-width:0.5;" x1="23" x2="405" y1="786.9531" y2="786.9531"/><text fill="#000000" font-family="Fira Code" font-size="18" lengthAdjust="spacing" textLength="189" x="119.5" y="777.708">create_resource_dir()</text><text fill="#000000" font-family="Fira Code" font-size="18" lengthAdjust="spacing" textLength="362" x="28" y="808.6611">- Required arg: ID to assign for directory</text><text fill="#000000" font-family="Fira Code" font-size="18" lengthAdjust="spacing" textLength="308" x="28" y="829.6143">- Output: path of created directory</text></g><g id="crs.crrd"><rect fill="#F2F2F2" height="82.8594" rx="12.5" ry="12.5" style="stroke:#000000;stroke-width:0.5;" width="333" x="28.5" y="899"/><line style="stroke:#000000;stroke-width:0.5;" x1="28.5" x2="361.5" y1="929.9531" y2="929.9531"/><text fill="#000000" font-family="Fira Code" font-size="18" lengthAdjust="spacing" textLength="232" x="79" y="920.708">create_resource_raw_dir()</text><text fill="#000000" font-family="Fira Code" font-size="18" lengthAdjust="spacing" textLength="313" x="33.5" y="951.6611">- Required arg: path to resource ID</text><text fill="#000000" font-family="Fira Code" font-size="18" lengthAdjust="spacing" textLength="308" x="33.5" y="972.6143">- Output: path of created directory</text></g><rect fill="#555555" height="8" style="stroke:none;stroke-width:1.0;" width="80" x="240" y="1042"/><text fill="#000000" font-family="Fira Code" font-size="18" lengthAdjust="spacing" textLength="56" x="251.5" y="1150.708">return</text><ellipse cx="279.5" cy="1128" fill="#F2F2F2" rx="6" ry="6" style="stroke:#000000;stroke-width:1.5;"/><line style="stroke:#000000;stroke-width:1.5;" x1="283.8891" x2="276.1109" y1="1132.3891" y2="1124.6109"/><line style="stroke:#000000;stroke-width:1.5;" x1="283.8891" x2="276.1109" y1="1124.6109" y2="1132.3891"/><path d="M94.5,7 L333.5,7 A12.5,12.5 0 0 1 346,19.5 L346,84.8594 L82,84.8594 L82,19.5 A12.5,12.5 0 0 1 94.5,7 " fill="#F2F2F2" style="stroke:#F2F2F2;stroke-width:1.0;"/><rect fill="none" height="182.7188" rx="12.5" ry="12.5" style="stroke:#000000;stroke-width:0.5;" width="264" x="82" y="7"/><line style="stroke:#000000;stroke-width:0.5;" x1="82" x2="346" y1="84.8594" y2="84.8594"/><line style="stroke:#000000;stroke-width:0.5;" x1="82" x2="346" y1="37.9531" y2="37.9531"/><text fill="#000000" font-family="Fira Code" font-size="18" lengthAdjust="spacing" textLength="46" x="191" y="28.708">Input</text><text fill="#000000" font-family="Fira Code" font-size="18" lengthAdjust="spacing" textLength="239" x="87" y="54.6611">- `path_*()` functions assist</text><text fill="#000000" font-family="Fira Code" font-size="18" lengthAdjust="spacing" textLength="221" x="99" y="75.6143">with giving correct paths</text><g id="input.path"><rect fill="#F2F2F2" height="82.8594" rx="12.5" ry="12.5" style="stroke:#000000;stroke-width:0.5;" width="200" x="94" y="96.8594"/><line style="stroke:#000000;stroke-width:0.5;" x1="94" x2="294" y1="127.8125" y2="127.8125"/><text fill="#000000" font-family="Fira Code" font-size="18" lengthAdjust="spacing" textLength="39" x="174.5" y="118.5674">path</text><text fill="#000000" font-family="Fira Code" font-size="18" lengthAdjust="spacing" textLength="167" x="99" y="149.5205">- Path to resources</text><text fill="#000000" font-family="Fira Code" font-size="18" lengthAdjust="spacing" textLength="168" x="111" y="170.4736">folder in a package</text></g><path d="M93.5,1206 L466.5,1206 A12.5,12.5 0 0 1 479,1218.5 L479,1304.8125 L81,1304.8125 L81,1218.5 A12.5,12.5 0 0 1 93.5,1206 " fill="#F2F2F2" style="stroke:#F2F2F2;stroke-width:1.0;"/><rect fill="none" height="280.7188" rx="12.5" ry="12.5" style="stroke:#000000;stroke-width:0.5;" width="398" x="81" y="1206"/><line style="stroke:#000000;stroke-width:0.5;" x1="81" x2="479" y1="1304.8125" y2="1304.8125"/><line style="stroke:#000000;stroke-width:0.5;" x1="81" x2="479" y1="1236.9531" y2="1236.9531"/><text fill="#000000" font-family="Fira Code" font-size="18" lengthAdjust="spacing" textLength="61" x="249.5" y="1227.708">Output</text><text fill="#000000" font-family="Fira Code" font-size="18" lengthAdjust="spacing" textLength="365" x="86" y="1253.6611">- The package parent folder is shown as /</text><text fill="#000000" font-family="Fira Code" font-size="18" lengthAdjust="spacing" textLength="373" x="86" y="1274.6143">- Output: list two paths, the resource path</text><text fill="#000000" font-family="Fira Code" font-size="18" lengthAdjust="spacing" textLength="235" x="98" y="1295.5674">and the resource raw path</text><g id="output.folder_id"><rect fill="#F2F2F2" height="61.9063" rx="12.5" ry="12.5" style="stroke:#000000;stroke-width:0.5;" width="307" x="113.5" y="1316.8125"/><line style="stroke:#000000;stroke-width:0.5;" x1="113.5" x2="420.5" y1="1347.7656" y2="1347.7656"/><text fill="#000000" font-family="Fira Code" font-size="18" lengthAdjust="spacing" textLength="149" x="192.5" y="1338.5205">/resources/&lt;id&gt;/</text><text fill="#000000" font-family="Fira Code" font-size="18" lengthAdjust="spacing" textLength="287" x="118.5" y="1369.4736">Folder with assigned ID (e.g. '1')</text></g><g id="output.folder_raw"><rect fill="#F2F2F2" height="61.9063" rx="12.5" ry="12.5" style="stroke:#000000;stroke-width:0.5;" width="348" x="93" y="1414.8125"/><line style="stroke:#000000;stroke-width:0.5;" x1="93" x2="441" y1="1445.7656" y2="1445.7656"/><text fill="#000000" font-family="Fira Code" font-size="18" lengthAdjust="spacing" textLength="189" x="172.5" y="1436.5205">/resources/&lt;id&gt;/raw/</text><text fill="#000000" font-family="Fira Code" font-size="18" lengthAdjust="spacing" textLength="328" x="98" y="1467.4736">Raw folder with assigned ID (e.g. '1')</text></g><!--link folder_id to folder_raw--><!--link input to arg--><g id="link_input_arg"><path d="M214,190.4 C214,215.93 214,233.5 214,243.69 " fill="none" id="input-to-arg" style="stroke:#000000;stroke-width:1.0;"/><polygon fill="#000000" points="214,249.69,218,240.69,214,244.69,210,240.69,214,249.69" style="stroke:#000000;stroke-width:1.0;"/></g><!--link arg to vid--><g id="link_arg_vid"><path d="M214,262.04 C214,273.43 214,296.14 214,320.73 " fill="none" id="arg-to-vid" style="stroke:#000000;stroke-width:1.0;"/><polygon fill="#000000" points="214,326.73,218,317.73,214,321.73,210,317.73,214,326.73" style="stroke:#000000;stroke-width:1.0;"/></g><!--link vid to gi--><g id="link_vid_gi"><path d="M214,410.28 C214,428.99 214,445.11 214,463.81 " fill="none" id="vid-to-gi" style="stroke:#000000;stroke-width:1.0;"/><polygon fill="#000000" points="214,469.81,218,460.81,214,464.81,210,460.81,214,469.81" style="stroke:#000000;stroke-width:1.0;"/></g><!--link gi to cri--><g id="link_gi_cri"><path d="M214,553.28 C214,571.99 214,588.11 214,606.81 " fill="none" id="gi-to-cri" style="stroke:#000000;stroke-width:1.0;"/><polygon fill="#000000" points="214,612.81,218,603.81,214,607.81,210,603.81,214,612.81" style="stroke:#000000;stroke-width:1.0;"/></g><!--link cri to crd--><g id="link_cri_crd"><path d="M214,696.28 C214,714.99 214,731.11 214,749.81 " fill="none" id="cri-to-crd" style="stroke:#000000;stroke-width:1.0;"/><polygon fill="#000000" points="214,755.81,218,746.81,214,750.81,210,746.81,214,755.81" style="stroke:#000000;stroke-width:1.0;"/></g><!--link crd to crrd--><g id="link_crd_crrd"><path d="M208.5,839.28 C205.98,857.99 203.8013,874.1637 201.2813,892.8637 " fill="none" id="crd-to-crrd" style="stroke:#000000;stroke-width:1.0;"/><polygon fill="#000000" points="200.48,898.81,205.6461,890.4248,201.1478,893.8548,197.7178,889.3564,200.48,898.81" style="stroke:#000000;stroke-width:1.0;"/></g><!--link crrd to join--><g id="link_crrd_join"><path d="M228.35,982.11 C247.7,1005.67 265.8926,1027.8228 273.4626,1037.0428 " fill="none" id="crrd-to-join" style="stroke:#000000;stroke-width:1.0;"/><polygon fill="#000000" points="277.27,1041.68,274.6504,1032.1859,274.0972,1037.8156,268.4675,1037.2624,277.27,1041.68" style="stroke:#000000;stroke-width:1.0;"/></g><!--link crd to join--><g id="link_crd_join"><path d="M316.53,839.06 C341.34,854.03 364.79,873.71 379,899 C397.07,931.16 396.75,949.66 379,982 C359.88,1016.82 318.1742,1033.3519 296.6542,1040.1119 " fill="none" id="crd-to-join" style="stroke:#000000;stroke-width:1.0;"/><polygon fill="#000000" points="290.93,1041.91,300.7151,1043.029,295.7002,1040.4116,298.3176,1035.3967,290.93,1041.91" style="stroke:#000000;stroke-width:1.0;"/></g><!--link join to return--><g id="link_join_return"><path d="M280,1050.04 C280,1062.03 280,1100.13 280,1115.6 " fill="none" id="join-to-return" style="stroke:#000000;stroke-width:1.0;"/><polygon fill="#000000" points="280,1121.6,284,1112.6,280,1116.6,276,1112.6,280,1121.6" style="stroke:#000000;stroke-width:1.0;"/></g><!--link return to output--><g id="link_return_output"><path d="M280,1134.35 C280,1145.68 280,1167.7 280,1199.75 " fill="none" id="return-to-output" style="stroke:#000000;stroke-width:1.0;"/><polygon fill="#000000" points="280,1205.75,284,1196.75,280,1200.75,276,1196.75,280,1205.75" style="stroke:#000000;stroke-width:1.0;"/></g><!--SRC=[ZLHDRzim3BtxLt2zD1dc6Bi6HO2XNO5SkcBRRHjIrQ9jjOcKKNAoOjX_7ob_5-dM7YfQfDvxUgJo9bIuG_28EbSUeI2tWog4lLzc6QdZeZIXgkzhZvGx6z26HUvsMLUVxiazO1w6ZOYNxPInIU8VZTqhKZlu4bJ0QmQuT5j7SBzL-UEfz8rYCTU655mwZOmW2JXRstqTpa1vC1B1xmJQQ0aftErLg3PlP_CxA6gR1-EivrflVFXk0Ovy0oZDmTWISaV4Sa5E-EGSFb1Px_XI7bBvOrZ9HDHR2O83Gkzgoj4BLk6s6ecvGN5b_gXAJFxqCZ_LeTFfOXY5jg5WVgsmEyOhCN6FwC5NxcZbR3OzrA0kOSltWN1qZVXtm4xtukAU25HMJnFSmvXap5Pbrjyekp1wbKMzZOoDqGaCCTDVD_AYXs9fQL73-Wfck2WNSFx-V9wyZCpS4tJ-7k15s18-y__Y_nnZKMdwhJ9Qe_sn6WCFRSW9UTrqOZO-K9s7cd0sZsfoyh4nieh1d_5dROWvLJiDoyQn_cAy3nSNdA2dMsTiMAtw-KlJbQH79XoGJF6qCNwZZSoQewUMzn3TFKHVfwpBhaLTikjvd4P-C1-9775Ub0YbG0sK9GOsnhSqfU5CQLuWcOnqwzzGFvarLm3-ua0UplhAmuo5t3YBSsYLYX9c6uGyTzxetd8J3J-bwXJNgBYJjBvgP0gfmBtCohxtj3eYdNAS1uojQEQDVI3espKwCkr30GsLVbRRYTB_4CKZEX7MAYFzYZurT- -BNoTAjwB6gXvuUdcIPOaptEmIykEGVUv060OyyWc6b8yWsy-89T_DSTvfSMIl-VdYD_aN]--></g></svg>