<svg xmlns="http://www.w3.org/2000/svg" xmlns:xlink="http://www.w3.org/1999/xlink" contentStyleType="text/css" height="1713px" preserveAspectRatio="none" style="width:634px;height:1713px;background:#FFFFFF;" version="1.1" viewBox="0 0 634 1713" width="634px" zoomAndPan="magnify"><defs/><g><!--cluster input--><g id="cluster_input"><path d="M45.5,7 L590.5,7 A12.5,12.5 0 0 1 603,19.5 L603,58.9063 L33,58.9063 L33,19.5 A12.5,12.5 0 0 1 45.5,7 " fill="#F2F2F2" style="stroke:#F2F2F2;stroke-width:1.0;"/><rect fill="none" height="164" rx="12.5" ry="12.5" style="stroke:#000000;stroke-width:0.5;" width="570" x="33" y="7"/><line style="stroke:#000000;stroke-width:0.5;" x1="33" x2="603" y1="58.9063" y2="58.9063"/><line style="stroke:#000000;stroke-width:0.5;" x1="33" x2="603" y1="32.9531" y2="32.9531"/><text fill="#000000" font-family="Fira Code" font-size="18" lengthAdjust="spacing" textLength="46.6084" x="79" y="27.708">Input</text><text fill="#000000" font-family="Fira Code" font-size="18" lengthAdjust="spacing" textLength="478.7842" x="38" y="52.1611">- `path_*()` functions assist with giving correct paths</text></g><!--cluster crp--><g id="cluster_crp"><path d="M19.5,236 L608.5,236 A12.5,12.5 0 0 1 621,248.5 L621,329.8125 L7,329.8125 L7,248.5 A12.5,12.5 0 0 1 19.5,236 " fill="#F2F2F2" style="stroke:#F2F2F2;stroke-width:1.0;"/><rect fill="none" height="1215" rx="12.5" ry="12.5" style="stroke:#000000;stroke-width:0.5;" width="614" x="7" y="236"/><line style="stroke:#000000;stroke-width:0.5;" x1="7" x2="621" y1="329.8125" y2="329.8125"/><line style="stroke:#000000;stroke-width:0.5;" x1="7" x2="621" y1="261.9531" y2="261.9531"/><text fill="#000000" font-family="Fira Code" font-size="18" lengthAdjust="spacing" textLength="260.4727" x="183.7637" y="257.708">create_resource_properties()</text><text fill="#000000" font-family="Fira Code" font-size="18" lengthAdjust="spacing" textLength="181.8193" x="12" y="281.1611">- Required arg: path</text><text fill="#000000" font-family="Fira Code" font-size="18" lengthAdjust="spacing" textLength="444.6475" x="12" y="302.1143">- Conditional args: data_path or properties object</text><text fill="#000000" font-family="Fira Code" font-size="18" lengthAdjust="spacing" textLength="505.9775" x="12" y="323.0674">- Either data_path or properties must be given, not both</text></g><g id="input.path"><rect fill="#F2F2F2" height="82.8594" rx="12.5" ry="12.5" style="stroke:#000000;stroke-width:0.5;" width="170.0908" x="49" y="72"/><line style="stroke:#000000;stroke-width:0.5;" x1="49" x2="219.0908" y1="102.9531" y2="102.9531"/><text fill="#000000" font-family="Fira Code" font-size="18" lengthAdjust="spacing" textLength="40.9219" x="113.5845" y="93.708">path</text><text fill="#000000" font-family="Fira Code" font-size="18" lengthAdjust="spacing" textLength="150.0908" x="54" y="124.6611">- Path to specific</text><text fill="#000000" font-family="Fira Code" font-size="18" lengthAdjust="spacing" textLength="136.6172" x="65.4434" y="145.6143">resource folder</text></g><g id="input.data_path"><rect fill="#F2F2F2" height="82.8594" rx="12.5" ry="12.5" style="stroke:#000000;stroke-width:0.5;" width="173.4043" x="254.5" y="72"/><line style="stroke:#000000;stroke-width:0.5;" x1="254.5" x2="427.9043" y1="102.9531" y2="102.9531"/><text fill="#000000" font-family="Fira Code" font-size="18" lengthAdjust="spacing" textLength="90.4658" x="295.9692" y="93.708">data_path</text><text fill="#000000" font-family="Fira Code" font-size="18" lengthAdjust="spacing" textLength="153.4043" x="259.5" y="124.6611">- Path to file with</text><text fill="#000000" font-family="Fira Code" font-size="18" lengthAdjust="spacing" textLength="80.4551" x="270.9434" y="145.6143">data in it</text></g><g id="input.properties"><rect fill="#F2F2F2" height="82.8594" rx="12.5" ry="12.5" style="stroke:#000000;stroke-width:0.5;" width="123.6934" x="463" y="72"/><line style="stroke:#000000;stroke-width:0.5;" x1="463" x2="586.6934" y1="102.9531" y2="102.9531"/><text fill="#000000" font-family="Fira Code" font-size="18" lengthAdjust="spacing" textLength="92.25" x="478.7217" y="93.708">properties</text><text fill="#000000" font-family="Fira Code" font-size="18" lengthAdjust="spacing" textLength="79.6553" x="468" y="124.6611">- JSON of</text><text fill="#000000" font-family="Fira Code" font-size="18" lengthAdjust="spacing" textLength="92.25" x="479.4434" y="145.6143">properties</text></g><text fill="#000000" font-family="Fira Code" font-size="18" lengthAdjust="spacing" textLength="79.7783" x="93.6108" y="213.7549">arg_path</text><ellipse cx="133.5" cy="236" fill="#F2F2F2" rx="6" ry="6" style="stroke:#000000;stroke-width:1.5;"/><text fill="#000000" font-family="Fira Code" font-size="18" lengthAdjust="spacing" textLength="129.3223" x="291.8389" y="213.7549">arg_data_path</text><ellipse cx="356.5" cy="236" fill="#F2F2F2" rx="6" ry="6" style="stroke:#000000;stroke-width:1.5;"/><text fill="#000000" font-family="Fira Code" font-size="18" lengthAdjust="spacing" textLength="131.1064" x="453.4468" y="213.7549">arg_properties</text><ellipse cx="519" cy="236" fill="#F2F2F2" rx="6" ry="6" style="stroke:#000000;stroke-width:1.5;"/><g id="crp.vid"><rect fill="#F2F2F2" height="82.8594" rx="12.5" ry="12.5" style="stroke:#000000;stroke-width:0.5;" width="221.8936" x="23" y="947"/><line style="stroke:#000000;stroke-width:0.5;" x1="23" x2="244.8936" y1="977.9531" y2="977.9531"/><text fill="#000000" font-family="Fira Code" font-size="18" lengthAdjust="spacing" textLength="121.3682" x="73.2627" y="968.708">verify_is_dir()</text><text fill="#000000" font-family="Fira Code" font-size="18" lengthAdjust="spacing" textLength="181.8193" x="28" y="999.6611">- Required arg: path</text><text fill="#000000" font-family="Fira Code" font-size="18" lengthAdjust="spacing" textLength="201.8936" x="28" y="1020.6143">- Output: path or Error</text></g><g id="crp.prrd"><rect fill="#F2F2F2" height="103.8125" rx="12.5" ry="12.5" style="stroke:#000000;stroke-width:0.5;" width="384.957" x="23.5" y="1091"/><line style="stroke:#000000;stroke-width:0.5;" x1="23.5" x2="408.457" y1="1121.9531" y2="1121.9531"/><text fill="#000000" font-family="Fira Code" font-size="18" lengthAdjust="spacing" textLength="269.4463" x="81.2554" y="1112.708">path_relative_resource_data()</text><text fill="#000000" font-family="Fira Code" font-size="18" lengthAdjust="spacing" textLength="364.957" x="28.5" y="1143.6611">- Required arg: absolute path from input</text><text fill="#000000" font-family="Fira Code" font-size="18" lengthAdjust="spacing" textLength="201.4629" x="28.5" y="1164.6143">- Output: relative path</text><text fill="#000000" font-family="Fira Code" font-size="18" lengthAdjust="spacing" textLength="300.4014" x="39.9434" y="1185.5674">(e.g. `resources/1/data.parquet`)</text></g><g id="elem_condition_input"><polygon fill="#F1F1F1" points="426,454,438,466,426,478,414,466,426,454" style="stroke:#181818;stroke-width:0.5;"/></g><g id="crp.vrp"><rect fill="#F2F2F2" height="103.8125" rx="12.5" ry="12.5" style="stroke:#000000;stroke-width:0.5;" width="274.0566" x="145" y="669"/><line style="stroke:#000000;stroke-width:0.5;" x1="145" x2="419.0566" y1="699.9531" y2="699.9531"/><text fill="#000000" font-family="Fira Code" font-size="18" lengthAdjust="spacing" textLength="254.0566" x="155" y="690.708">verify_resource_properties()</text><text fill="#000000" font-family="Fira Code" font-size="18" lengthAdjust="spacing" textLength="233.1475" x="150" y="721.6611">- Required arg: properties</text><text fill="#000000" font-family="Fira Code" font-size="18" lengthAdjust="spacing" textLength="205.3389" x="150" y="742.6143">- Output: JSON or Error</text><text fill="#000000" font-family="Fira Code" font-size="18" lengthAdjust="spacing" textLength="196.5146" x="150" y="763.5674">- Checks against spec</text></g><g id="crp.vif"><rect fill="#F2F2F2" height="82.8594" rx="12.5" ry="12.5" style="stroke:#000000;stroke-width:0.5;" width="221.8936" x="343" y="556"/><line style="stroke:#000000;stroke-width:0.5;" x1="343" x2="564.8936" y1="586.9531" y2="586.9531"/><text fill="#000000" font-family="Fira Code" font-size="18" lengthAdjust="spacing" textLength="124.9541" x="391.4697" y="577.708">verify_is_file()</text><text fill="#000000" font-family="Fira Code" font-size="18" lengthAdjust="spacing" textLength="181.8193" x="348" y="608.6611">- Required arg: path</text><text fill="#000000" font-family="Fira Code" font-size="18" lengthAdjust="spacing" textLength="201.8936" x="348" y="629.6143">- Output: path or Error</text></g><g id="crp.vsf"><rect fill="#F2F2F2" height="82.8594" rx="12.5" ry="12.5" style="stroke:#000000;stroke-width:0.5;" width="255.1426" x="331.5" y="803"/><line style="stroke:#000000;stroke-width:0.5;" x1="331.5" x2="586.6426" y1="833.9531" y2="833.9531"/><text fill="#000000" font-family="Fira Code" font-size="18" lengthAdjust="spacing" textLength="235.1426" x="341.5" y="824.708">verify_format_supported()</text><text fill="#000000" font-family="Fira Code" font-size="18" lengthAdjust="spacing" textLength="181.8193" x="336.5" y="855.6611">- Required arg: path</text><text fill="#000000" font-family="Fira Code" font-size="18" lengthAdjust="spacing" textLength="201.8936" x="336.5" y="876.6143">- Output: path or Error</text></g><g id="crp.erp"><rect fill="#F2F2F2" height="82.8594" rx="12.5" ry="12.5" style="stroke:#000000;stroke-width:0.5;" width="287.1084" x="317.5" y="947"/><line style="stroke:#000000;stroke-width:0.5;" x1="317.5" x2="604.6084" y1="977.9531" y2="977.9531"/><text fill="#000000" font-family="Fira Code" font-size="18" lengthAdjust="spacing" textLength="267.1084" x="327.5" y="968.708">extract_resource_properties()</text><text fill="#000000" font-family="Fira Code" font-size="18" lengthAdjust="spacing" textLength="181.8193" x="322.5" y="999.6611">- Required arg: path</text><text fill="#000000" font-family="Fira Code" font-size="18" lengthAdjust="spacing" textLength="130.8955" x="322.5" y="1020.6143">- Output: JSON</text></g><g id="elem_condition_output"><polygon fill="#F1F1F1" points="456,1131,468,1143,456,1155,444,1143,456,1131" style="stroke:#181818;stroke-width:0.5;"/></g><g id="crp.erpf"><rect fill="#F2F2F2" height="82.8594" rx="12.5" ry="12.5" style="stroke:#000000;stroke-width:0.5;" width="373.417" x="149.5" y="1289"/><line style="stroke:#000000;stroke-width:0.5;" x1="149.5" x2="522.917" y1="1319.9531" y2="1319.9531"/><text fill="#000000" font-family="Fira Code" font-size="18" lengthAdjust="spacing" textLength="285.3369" x="193.54" y="1310.708">edit_resource_properties_field()</text><text fill="#000000" font-family="Fira Code" font-size="18" lengthAdjust="spacing" textLength="353.417" x="154.5" y="1341.6611">- Required args: properties, field, value</text><text fill="#000000" font-family="Fira Code" font-size="18" lengthAdjust="spacing" textLength="130.8955" x="154.5" y="1362.6143">- Output: JSON</text></g><text fill="#000000" font-family="Fira Code" font-size="18" lengthAdjust="spacing" textLength="55.749" x="307.6255" y="1473.708">return</text><ellipse cx="335.5" cy="1451" fill="#F2F2F2" rx="6" ry="6" style="stroke:#000000;stroke-width:1.5;"/><line style="stroke:#000000;stroke-width:1.5;" x1="339.8891" x2="332.1109" y1="1455.3891" y2="1447.6109"/><line style="stroke:#000000;stroke-width:1.5;" x1="339.8891" x2="332.1109" y1="1447.6109" y2="1455.3891"/><path d="M154.5,1530 L517.6152,1530 A12.5,12.5 0 0 1 530.1152,1542.5 L530.1152,1560.9531 L142,1560.9531 L142,1542.5 A12.5,12.5 0 0 1 154.5,1530 " fill="#F2F2F2" style="stroke:#F2F2F2;stroke-width:1.0;"/><rect fill="none" height="177.7188" rx="12.5" ry="12.5" style="stroke:#000000;stroke-width:0.5;" width="388.1152" x="142" y="1530"/><line style="stroke:#000000;stroke-width:0.5;" x1="142" x2="530.1152" y1="1560.9531" y2="1560.9531"/><text fill="#000000" font-family="Fira Code" font-size="18" lengthAdjust="spacing" textLength="62.5254" x="304.7949" y="1551.708">Output</text><g id="output.json_output"><rect fill="#F2F2F2" height="124.7656" rx="12.5" ry="12.5" style="stroke:#000000;stroke-width:0.5;" width="367.1152" x="154" y="1572.9531"/><line style="stroke:#000000;stroke-width:0.5;" x1="154" x2="521.1152" y1="1603.9063" y2="1603.9063"/><text fill="#000000" font-family="Fira Code" font-size="18" lengthAdjust="spacing" textLength="44.3672" x="315.374" y="1594.6611">JSON</text><text fill="#000000" font-family="Fira Code" font-size="18" lengthAdjust="spacing" textLength="347.1152" x="159" y="1625.6143">- JSON object of the resource following</text><text fill="#000000" font-family="Fira Code" font-size="18" lengthAdjust="spacing" textLength="207.1934" x="170.4434" y="1646.5674">the Data Package spec</text><text fill="#000000" font-family="Fira Code" font-size="18" lengthAdjust="spacing" textLength="341.5518" x="159" y="1667.5205">- Use `write_resource_properties()` to</text><text fill="#000000" font-family="Fira Code" font-size="18" lengthAdjust="spacing" textLength="297.5186" x="170.4434" y="1688.4736">save back to `datapackage.json`</text></g><!--link path to data_path--><!--link data_path to properties--><!--link path to arg_path--><g id="link_path_arg_path"><path d="M134,155.3 C134,183.15 134,211.23 134,223.92 " fill="none" id="path-to-arg_path" style="stroke:#000000;stroke-width:1.0;"/><polygon fill="#000000" points="134,229.92,138,220.92,134,224.92,130,220.92,134,229.92" style="stroke:#000000;stroke-width:1.0;"/></g><!--link data_path to arg_data_path--><g id="link_data_path_arg_data_path"><path d="M346.42,155.3 C350.12,183.15 353.8479,211.2825 355.5379,223.9725 " fill="none" id="data_path-to-arg_data_path" style="stroke:#000000;stroke-width:1.0;"/><polygon fill="#000000" points="356.33,229.92,359.1069,220.4707,355.6699,224.9638,351.1769,221.5268,356.33,229.92" style="stroke:#000000;stroke-width:1.0;"/></g><!--link properties to arg_properties--><g id="link_properties_arg_properties"><path d="M522.97,155.3 C521.58,183.15 520.1922,211.2376 519.5522,223.9276 " fill="none" id="properties-to-arg_properties" style="stroke:#000000;stroke-width:1.0;"/><polygon fill="#000000" points="519.25,229.92,523.6982,221.1329,519.5018,224.9263,515.7084,220.7299,519.25,229.92" style="stroke:#000000;stroke-width:1.0;"/></g><!--link arg_path to vid--><g id="link_arg_path_vid"><path d="M134,242.3 C134,254.9 134,287.65 134,315 C134,315 134,315 134,845.5 C134,879.64 134,912.41 134,940.8 " fill="none" id="arg_path-to-vid" style="stroke:#000000;stroke-width:1.0;"/><polygon fill="#000000" points="134,946.8,138,937.8,134,941.8,130,937.8,134,946.8" style="stroke:#000000;stroke-width:1.0;"/></g><!--link vid to prrd--><g id="link_vid_prrd"><path d="M155.97,1030.37 C165.98,1048.98 175.1002,1065.9246 185.6902,1085.6346 " fill="none" id="vid-to-prrd" style="stroke:#000000;stroke-width:1.0;"/><polygon fill="#000000" points="188.53,1090.92,187.7939,1081.0987,186.1635,1086.5155,180.7467,1084.8851,188.53,1090.92" style="stroke:#000000;stroke-width:1.0;"/></g><!--link arg_properties to condition_input--><g id="link_arg_properties_condition_input"><path d="M516.88,242.19 C504.77,271.89 446.5352,414.644 431.6052,451.264 " fill="none" id="arg_properties-to-condition_input" style="stroke:#000000;stroke-width:1.0;"/><polygon fill="#000000" points="429.34,456.82,436.4418,449.9961,431.2276,452.19,429.0338,446.9759,429.34,456.82" style="stroke:#000000;stroke-width:1.0;"/></g><!--link condition_input to vrp--><g id="link_condition_input_vrp"><path d="M419.76,472.03 C416.92,474.12 413.43,476.42 410,478 C362.79,499.7 330.11,467.96 297,508 C277.48,531.6 276.7459,607.7342 278.7959,662.5742 " fill="none" id="condition_input-to-vrp" style="stroke:#000000;stroke-width:1.0;"/><polygon fill="#000000" points="279.02,668.57,282.681,659.4269,278.8332,663.5735,274.6866,659.7257,279.02,668.57" style="stroke:#000000;stroke-width:1.0;"/><text fill="#000000" font-family="sans-serif" font-size="14" lengthAdjust="spacing" textLength="128.2559" x="298" y="521.9951">If properties given</text></g><!--link arg_data_path to condition_input--><g id="link_arg_data_path_condition_input"><path d="M359.98,242.21 C369.08,258.36 396.69,309.29 410,355 C420.36,390.58 423.7993,428.6721 425.0593,448.4921 " fill="none" id="arg_data_path-to-condition_input" style="stroke:#000000;stroke-width:1.0;"/><polygon fill="#000000" points="425.44,454.48,428.8609,445.2444,425.1228,449.4901,420.8771,445.7519,425.44,454.48" style="stroke:#000000;stroke-width:1.0;"/></g><!--link condition_input to vif--><g id="link_condition_input_vif"><path d="M428.01,476.31 C431.56,492.73 437.8637,521.8452 443.9137,549.8652 " fill="none" id="condition_input-to-vif" style="stroke:#000000;stroke-width:1.0;"/><polygon fill="#000000" points="445.18,555.73,447.1904,546.0885,444.1247,550.8426,439.3706,547.7769,445.18,555.73" style="stroke:#000000;stroke-width:1.0;"/><text fill="#000000" font-family="sans-serif" font-size="14" lengthAdjust="spacing" textLength="126.8682" x="439" y="521.9951">If data_path given</text></g><!--link vif to vsf--><g id="link_vif_vsf"><path d="M454.83,639.23 C455.76,684.54 457.117,751.3213 458.047,796.6713 " fill="none" id="vif-to-vsf" style="stroke:#000000;stroke-width:1.0;"/><polygon fill="#000000" points="458.17,802.67,461.9846,793.5899,458.0675,797.6711,453.9863,793.7539,458.17,802.67" style="stroke:#000000;stroke-width:1.0;"/></g><!--link vsf to erp--><g id="link_vsf_erp"><path d="M459.57,886.19 C459.84,905.2 460.0748,921.7906 460.3448,940.8006 " fill="none" id="vsf-to-erp" style="stroke:#000000;stroke-width:1.0;"/><polygon fill="#000000" points="460.43,946.8,464.3018,937.7441,460.359,941.8005,456.3026,937.8577,460.43,946.8" style="stroke:#000000;stroke-width:1.0;"/></g><!--link erp to condition_output--><g id="link_erp_condition_output"><path d="M459.66,1030.37 C458.54,1064.42 457.2275,1104.5833 456.5475,1125.2333 " fill="none" id="erp-to-condition_output" style="stroke:#000000;stroke-width:1.0;"/><polygon fill="#000000" points="456.35,1131.23,460.644,1122.3665,456.5146,1126.2327,452.6484,1122.1032,456.35,1131.23" style="stroke:#000000;stroke-width:1.0;"/></g><!--link vrp to condition_output--><g id="link_vrp_condition_output"><path d="M278.9,773.22 C275.26,849.75 272.8,989.31 300,1030 C334.57,1081.73 380.26,1048.82 426,1091 C439.29,1103.26 446.2381,1117.2086 450.6881,1128.1986 " fill="none" id="vrp-to-condition_output" style="stroke:#000000;stroke-width:1.0;"/><polygon fill="#000000" points="452.94,1133.76,453.2698,1123.9167,451.0634,1129.1255,445.8546,1126.9192,452.94,1133.76" style="stroke:#000000;stroke-width:1.0;"/></g><!--link prrd to erpf--><g id="link_prrd_erpf"><path d="M249.11,1195.18 C268.19,1224.67 288.5809,1256.1923 306.3909,1283.7223 " fill="none" id="prrd-to-erpf" style="stroke:#000000;stroke-width:1.0;"/><polygon fill="#000000" points="309.65,1288.76,308.1199,1279.0307,306.9341,1284.5619,301.4029,1283.3761,309.65,1288.76" style="stroke:#000000;stroke-width:1.0;"/><text fill="#000000" font-family="sans-serif" font-size="14" lengthAdjust="spacing" textLength="100.9805" x="291" y="1238.9951">Update `path`</text><text fill="#000000" font-family="sans-serif" font-size="14" lengthAdjust="spacing" textLength="60.2383" x="311.3711" y="1255.292">property</text></g><!--link condition_output to erpf--><g id="link_condition_output_erpf"><path d="M452.93,1152.23 C445.48,1171.73 425.15,1221.85 400,1259 C393.14,1269.13 388.8721,1274.7931 380.6221,1284.1331 " fill="none" id="condition_output-to-erpf" style="stroke:#000000;stroke-width:1.0;"/><polygon fill="#000000" points="376.65,1288.63,385.6061,1284.5327,379.9601,1284.8826,379.6102,1279.2365,376.65,1288.63" style="stroke:#000000;stroke-width:1.0;"/></g><!--link erpf to return--><g id="link_erpf_return"><path d="M336,1372.28 C336,1399.33 336,1426.08 336,1438.7 " fill="none" id="erpf-to-return" style="stroke:#000000;stroke-width:1.0;"/><polygon fill="#000000" points="336,1444.7,340,1435.7,336,1439.7,332,1435.7,336,1444.7" style="stroke:#000000;stroke-width:1.0;"/></g><!--link return to output--><g id="link_return_output"><path d="M336,1457.15 C336,1468.86 336,1492.88 336,1523.86 " fill="none" id="return-to-output" style="stroke:#000000;stroke-width:1.0;"/><polygon fill="#000000" points="336,1529.86,340,1520.86,336,1524.86,332,1520.86,336,1529.86" style="stroke:#000000;stroke-width:1.0;"/></g><!--SRC=[XLPDRzim3BtdLsYzh1kQ1Bi6HO2Xww4xhCM6djR1LcJQKUj8BYKdBOR-zv7obvmcMGw9OfAFZ-GJamz-3HiG3Y1Jqe78qMx4sllABUPpbBjPeVswNjKEK5dZmVYPifjvvp-jq3w2yiE3W3VVI6qc4-Ub1t5sOwhQdmdfXEQJ-3iHxMaXfYAjf5yddyy_fIAlZVBQ6aU-JZilTfHS57ghJI6KHQHCWjtTvAFuYaMz8JvEJFb5c6m9a7Tyy5Qu2fJEjNemGY0uMwEY2csP0P9x9hrCtiNakeIGbuFOXQWAxHaURGNeDRWGyFtNxGzXStORB1sBwU-rpZ8mVvP3cb7Ao26AVkjxTblxhcas74FNMYEd3gP7PqtIsCaQVOiOhdW-H5JGP4PTAEsE-ihysVADIxsJwaaM41ft0F2U19BkK7j8Eg1aOCyJz9RndDo2M14MDpJbegi6UCQ8QLIcGf37q4A52gjGENyoXP_mN6k4J4Wi5g9jQsUyiYRJB21PijqjeePRZ0VOT2KAlQQ90nxrtzIanXMm5i5S26FfcwNS_KmeNHDtUKcQnDSxgurVBaVs0Vo4KvHqpwlNrdJPfnjhgZN4YelW-hX1RuEaje0wVqsqIpADRU-tEYC7UZ_U-SxOoBLvpAsxHhHyn_gsS7B66pA6QuzGIayz7HJ0vDly5M8MIi133EJAsR8cf80VzbPOAd54HwjB4tnPeUSmAsOYxRAw-PSv9vvL4fzhyEcdjZQc7MZql5MdiQHPOPUNQcsrWZ36lG5oz9x_-vOVr_uMAwPnMFdnokbSkdARYpzCeRDVhK4zqN8jQ3kJdjjRlbzH65M8kCbZ_GJjJzegnwhxRv6aArwilR3oqD_ybB3oay8wI3h44Ec1NCzvJ2Utk94-SNLLMVIGTRnSuELEyNAdUJ67m8MWXhJmub4gVsBM46ODfxOS79XoouWpCi81bRRhUoHJHXgFhVyDsHupHSMGuL0bD64eiw6UlCdqlfakbk-5264NOYlB6kAGlJh3fMuBPOVxAcCwuUz3-c1QnDUHDjhYkwYe20HVepdZ7VkY_R280pZxDmuJqHx2ixOLR_y0]--></g></svg>